<?xml version="1.0" encoding="utf-8" standalone="no"?>
<!DOCTYPE svg PUBLIC "-//W3C//DTD SVG 1.1//EN"
  "http://www.w3.org/Graphics/SVG/1.1/DTD/svg11.dtd">
<!-- Created with matplotlib (https://matplotlib.org/) -->
<svg height="288pt" version="1.1" viewBox="0 0 432 288" width="432pt" xmlns="http://www.w3.org/2000/svg" xmlns:xlink="http://www.w3.org/1999/xlink">
 <defs>
  <style type="text/css">
*{stroke-linecap:butt;stroke-linejoin:round;}
  </style>
 </defs>
 <g id="figure_1">
  <g id="patch_1">
   <path d="M 0 288 
L 432 288 
L 432 0 
L 0 0 
z
" style="fill:#ffffff;"/>
  </g>
  <g id="axes_1">
   <g id="patch_2">
    <path d="M 54 252 
L 388.8 252 
L 388.8 34.56 
L 54 34.56 
z
" style="fill:#eaeaf2;"/>
   </g>
   <g id="matplotlib.axis_1">
    <g id="xtick_1">
     <g id="line2d_1">
      <path clip-path="url(#pbe515fb64f)" d="M 69.218182 252 
L 69.218182 34.56 
" style="fill:none;stroke:#ffffff;stroke-linecap:round;"/>
     </g>
     <g id="text_1">
      <!-- 0 -->
      <defs>
       <path d="M 4.15625 35.296875 
Q 4.15625 48 6.765625 55.734375 
Q 9.375 63.484375 14.515625 67.671875 
Q 19.671875 71.875 27.484375 71.875 
Q 33.25 71.875 37.59375 69.546875 
Q 41.9375 67.234375 44.765625 62.859375 
Q 47.609375 58.5 49.21875 52.21875 
Q 50.828125 45.953125 50.828125 35.296875 
Q 50.828125 22.703125 48.234375 14.96875 
Q 45.65625 7.234375 40.5 3 
Q 35.359375 -1.21875 27.484375 -1.21875 
Q 17.140625 -1.21875 11.234375 6.203125 
Q 4.15625 15.140625 4.15625 35.296875 
z
M 13.1875 35.296875 
Q 13.1875 17.671875 17.3125 11.828125 
Q 21.4375 6 27.484375 6 
Q 33.546875 6 37.671875 11.859375 
Q 41.796875 17.71875 41.796875 35.296875 
Q 41.796875 52.984375 37.671875 58.78125 
Q 33.546875 64.59375 27.390625 64.59375 
Q 21.34375 64.59375 17.71875 59.46875 
Q 13.1875 52.9375 13.1875 35.296875 
z
" id="ArialMT-48"/>
      </defs>
      <g style="fill:#262626;" transform="translate(66.159666 269.373594)scale(0.11 -0.11)">
       <use xlink:href="#ArialMT-48"/>
      </g>
     </g>
    </g>
    <g id="xtick_2">
     <g id="line2d_2">
      <path clip-path="url(#pbe515fb64f)" d="M 118.701776 252 
L 118.701776 34.56 
" style="fill:none;stroke:#ffffff;stroke-linecap:round;"/>
     </g>
     <g id="text_2">
      <!-- 2 -->
      <defs>
       <path d="M 50.34375 8.453125 
L 50.34375 0 
L 3.03125 0 
Q 2.9375 3.171875 4.046875 6.109375 
Q 5.859375 10.9375 9.828125 15.625 
Q 13.8125 20.3125 21.34375 26.46875 
Q 33.015625 36.03125 37.109375 41.625 
Q 41.21875 47.21875 41.21875 52.203125 
Q 41.21875 57.421875 37.46875 61 
Q 33.734375 64.59375 27.734375 64.59375 
Q 21.390625 64.59375 17.578125 60.78125 
Q 13.765625 56.984375 13.71875 50.25 
L 4.6875 51.171875 
Q 5.609375 61.28125 11.65625 66.578125 
Q 17.71875 71.875 27.9375 71.875 
Q 38.234375 71.875 44.234375 66.15625 
Q 50.25 60.453125 50.25 52 
Q 50.25 47.703125 48.484375 43.546875 
Q 46.734375 39.40625 42.65625 34.8125 
Q 38.578125 30.21875 29.109375 22.21875 
Q 21.1875 15.578125 18.9375 13.203125 
Q 16.703125 10.84375 15.234375 8.453125 
z
" id="ArialMT-50"/>
      </defs>
      <g style="fill:#262626;" transform="translate(115.64326 269.373594)scale(0.11 -0.11)">
       <use xlink:href="#ArialMT-50"/>
      </g>
     </g>
    </g>
    <g id="xtick_3">
     <g id="line2d_3">
      <path clip-path="url(#pbe515fb64f)" d="M 168.185369 252 
L 168.185369 34.56 
" style="fill:none;stroke:#ffffff;stroke-linecap:round;"/>
     </g>
     <g id="text_3">
      <!-- 4 -->
      <defs>
       <path d="M 32.328125 0 
L 32.328125 17.140625 
L 1.265625 17.140625 
L 1.265625 25.203125 
L 33.9375 71.578125 
L 41.109375 71.578125 
L 41.109375 25.203125 
L 50.78125 25.203125 
L 50.78125 17.140625 
L 41.109375 17.140625 
L 41.109375 0 
z
M 32.328125 25.203125 
L 32.328125 57.46875 
L 9.90625 25.203125 
z
" id="ArialMT-52"/>
      </defs>
      <g style="fill:#262626;" transform="translate(165.126854 269.373594)scale(0.11 -0.11)">
       <use xlink:href="#ArialMT-52"/>
      </g>
     </g>
    </g>
    <g id="xtick_4">
     <g id="line2d_4">
      <path clip-path="url(#pbe515fb64f)" d="M 217.668963 252 
L 217.668963 34.56 
" style="fill:none;stroke:#ffffff;stroke-linecap:round;"/>
     </g>
     <g id="text_4">
      <!-- 6 -->
      <defs>
       <path d="M 49.75 54.046875 
L 41.015625 53.375 
Q 39.84375 58.546875 37.703125 60.890625 
Q 34.125 64.65625 28.90625 64.65625 
Q 24.703125 64.65625 21.53125 62.3125 
Q 17.390625 59.28125 14.984375 53.46875 
Q 12.59375 47.65625 12.5 36.921875 
Q 15.671875 41.75 20.265625 44.09375 
Q 24.859375 46.4375 29.890625 46.4375 
Q 38.671875 46.4375 44.84375 39.96875 
Q 51.03125 33.5 51.03125 23.25 
Q 51.03125 16.5 48.125 10.71875 
Q 45.21875 4.9375 40.140625 1.859375 
Q 35.0625 -1.21875 28.609375 -1.21875 
Q 17.625 -1.21875 10.6875 6.859375 
Q 3.765625 14.9375 3.765625 33.5 
Q 3.765625 54.25 11.421875 63.671875 
Q 18.109375 71.875 29.4375 71.875 
Q 37.890625 71.875 43.28125 67.140625 
Q 48.6875 62.40625 49.75 54.046875 
z
M 13.875 23.1875 
Q 13.875 18.65625 15.796875 14.5 
Q 17.71875 10.359375 21.1875 8.171875 
Q 24.65625 6 28.46875 6 
Q 34.03125 6 38.03125 10.484375 
Q 42.046875 14.984375 42.046875 22.703125 
Q 42.046875 30.125 38.078125 34.390625 
Q 34.125 38.671875 28.125 38.671875 
Q 22.171875 38.671875 18.015625 34.390625 
Q 13.875 30.125 13.875 23.1875 
z
" id="ArialMT-54"/>
      </defs>
      <g style="fill:#262626;" transform="translate(214.610448 269.373594)scale(0.11 -0.11)">
       <use xlink:href="#ArialMT-54"/>
      </g>
     </g>
    </g>
    <g id="xtick_5">
     <g id="line2d_5">
      <path clip-path="url(#pbe515fb64f)" d="M 267.152557 252 
L 267.152557 34.56 
" style="fill:none;stroke:#ffffff;stroke-linecap:round;"/>
     </g>
     <g id="text_5">
      <!-- 8 -->
      <defs>
       <path d="M 17.671875 38.8125 
Q 12.203125 40.828125 9.5625 44.53125 
Q 6.9375 48.25 6.9375 53.421875 
Q 6.9375 61.234375 12.546875 66.546875 
Q 18.171875 71.875 27.484375 71.875 
Q 36.859375 71.875 42.578125 66.421875 
Q 48.296875 60.984375 48.296875 53.171875 
Q 48.296875 48.1875 45.671875 44.5 
Q 43.0625 40.828125 37.75 38.8125 
Q 44.34375 36.671875 47.78125 31.875 
Q 51.21875 27.09375 51.21875 20.453125 
Q 51.21875 11.28125 44.71875 5.03125 
Q 38.234375 -1.21875 27.640625 -1.21875 
Q 17.046875 -1.21875 10.546875 5.046875 
Q 4.046875 11.328125 4.046875 20.703125 
Q 4.046875 27.6875 7.59375 32.390625 
Q 11.140625 37.109375 17.671875 38.8125 
z
M 15.921875 53.71875 
Q 15.921875 48.640625 19.1875 45.40625 
Q 22.46875 42.1875 27.6875 42.1875 
Q 32.765625 42.1875 36.015625 45.375 
Q 39.265625 48.578125 39.265625 53.21875 
Q 39.265625 58.0625 35.90625 61.359375 
Q 32.5625 64.65625 27.59375 64.65625 
Q 22.5625 64.65625 19.234375 61.421875 
Q 15.921875 58.203125 15.921875 53.71875 
z
M 13.09375 20.65625 
Q 13.09375 16.890625 14.875 13.375 
Q 16.65625 9.859375 20.171875 7.921875 
Q 23.6875 6 27.734375 6 
Q 34.03125 6 38.125 10.046875 
Q 42.234375 14.109375 42.234375 20.359375 
Q 42.234375 26.703125 38.015625 30.859375 
Q 33.796875 35.015625 27.4375 35.015625 
Q 21.234375 35.015625 17.15625 30.90625 
Q 13.09375 26.8125 13.09375 20.65625 
z
" id="ArialMT-56"/>
      </defs>
      <g style="fill:#262626;" transform="translate(264.094042 269.373594)scale(0.11 -0.11)">
       <use xlink:href="#ArialMT-56"/>
      </g>
     </g>
    </g>
    <g id="xtick_6">
     <g id="line2d_6">
      <path clip-path="url(#pbe515fb64f)" d="M 316.636151 252 
L 316.636151 34.56 
" style="fill:none;stroke:#ffffff;stroke-linecap:round;"/>
     </g>
     <g id="text_6">
      <!-- 10 -->
      <defs>
       <path d="M 37.25 0 
L 28.46875 0 
L 28.46875 56 
Q 25.296875 52.984375 20.140625 49.953125 
Q 14.984375 46.921875 10.890625 45.40625 
L 10.890625 53.90625 
Q 18.265625 57.375 23.78125 62.296875 
Q 29.296875 67.234375 31.59375 71.875 
L 37.25 71.875 
z
" id="ArialMT-49"/>
      </defs>
      <g style="fill:#262626;" transform="translate(310.51912 269.373594)scale(0.11 -0.11)">
       <use xlink:href="#ArialMT-49"/>
       <use x="55.615234" xlink:href="#ArialMT-48"/>
      </g>
     </g>
    </g>
    <g id="xtick_7">
     <g id="line2d_7">
      <path clip-path="url(#pbe515fb64f)" d="M 366.119745 252 
L 366.119745 34.56 
" style="fill:none;stroke:#ffffff;stroke-linecap:round;"/>
     </g>
     <g id="text_7">
      <!-- 12 -->
      <g style="fill:#262626;" transform="translate(360.002714 269.373594)scale(0.11 -0.11)">
       <use xlink:href="#ArialMT-49"/>
       <use x="55.615234" xlink:href="#ArialMT-50"/>
      </g>
     </g>
    </g>
    <g id="text_8">
     <!-- d test -->
     <defs>
      <path d="M 40.234375 0 
L 40.234375 6.546875 
Q 35.296875 -1.171875 25.734375 -1.171875 
Q 19.53125 -1.171875 14.328125 2.25 
Q 9.125 5.671875 6.265625 11.796875 
Q 3.421875 17.921875 3.421875 25.875 
Q 3.421875 33.640625 6 39.96875 
Q 8.59375 46.296875 13.765625 49.65625 
Q 18.953125 53.03125 25.34375 53.03125 
Q 30.03125 53.03125 33.6875 51.046875 
Q 37.359375 49.078125 39.65625 45.90625 
L 39.65625 71.578125 
L 48.390625 71.578125 
L 48.390625 0 
z
M 12.453125 25.875 
Q 12.453125 15.921875 16.640625 10.984375 
Q 20.84375 6.0625 26.5625 6.0625 
Q 32.328125 6.0625 36.34375 10.765625 
Q 40.375 15.484375 40.375 25.140625 
Q 40.375 35.796875 36.265625 40.765625 
Q 32.171875 45.75 26.171875 45.75 
Q 20.3125 45.75 16.375 40.96875 
Q 12.453125 36.1875 12.453125 25.875 
z
" id="ArialMT-100"/>
      <path id="ArialMT-32"/>
      <path d="M 25.78125 7.859375 
L 27.046875 0.09375 
Q 23.34375 -0.6875 20.40625 -0.6875 
Q 15.625 -0.6875 12.984375 0.828125 
Q 10.359375 2.34375 9.28125 4.8125 
Q 8.203125 7.28125 8.203125 15.1875 
L 8.203125 45.015625 
L 1.765625 45.015625 
L 1.765625 51.859375 
L 8.203125 51.859375 
L 8.203125 64.703125 
L 16.9375 69.96875 
L 16.9375 51.859375 
L 25.78125 51.859375 
L 25.78125 45.015625 
L 16.9375 45.015625 
L 16.9375 14.703125 
Q 16.9375 10.9375 17.40625 9.859375 
Q 17.875 8.796875 18.921875 8.15625 
Q 19.96875 7.515625 21.921875 7.515625 
Q 23.390625 7.515625 25.78125 7.859375 
z
" id="ArialMT-116"/>
      <path d="M 42.09375 16.703125 
L 51.171875 15.578125 
Q 49.03125 7.625 43.21875 3.21875 
Q 37.40625 -1.171875 28.375 -1.171875 
Q 17 -1.171875 10.328125 5.828125 
Q 3.65625 12.84375 3.65625 25.484375 
Q 3.65625 38.578125 10.390625 45.796875 
Q 17.140625 53.03125 27.875 53.03125 
Q 38.28125 53.03125 44.875 45.953125 
Q 51.46875 38.875 51.46875 26.03125 
Q 51.46875 25.25 51.421875 23.6875 
L 12.75 23.6875 
Q 13.234375 15.140625 17.578125 10.59375 
Q 21.921875 6.0625 28.421875 6.0625 
Q 33.25 6.0625 36.671875 8.59375 
Q 40.09375 11.140625 42.09375 16.703125 
z
M 13.234375 30.90625 
L 42.1875 30.90625 
Q 41.609375 37.453125 38.875 40.71875 
Q 34.671875 45.796875 27.984375 45.796875 
Q 21.921875 45.796875 17.796875 41.75 
Q 13.671875 37.703125 13.234375 30.90625 
z
" id="ArialMT-101"/>
      <path d="M 3.078125 15.484375 
L 11.765625 16.84375 
Q 12.5 11.625 15.84375 8.84375 
Q 19.1875 6.0625 25.203125 6.0625 
Q 31.25 6.0625 34.171875 8.515625 
Q 37.109375 10.984375 37.109375 14.3125 
Q 37.109375 17.28125 34.515625 19 
Q 32.71875 20.171875 25.53125 21.96875 
Q 15.875 24.421875 12.140625 26.203125 
Q 8.40625 27.984375 6.46875 31.125 
Q 4.546875 34.28125 4.546875 38.09375 
Q 4.546875 41.546875 6.125 44.5 
Q 7.71875 47.46875 10.453125 49.421875 
Q 12.5 50.921875 16.03125 51.96875 
Q 19.578125 53.03125 23.640625 53.03125 
Q 29.734375 53.03125 34.34375 51.265625 
Q 38.96875 49.515625 41.15625 46.5 
Q 43.359375 43.5 44.1875 38.484375 
L 35.59375 37.3125 
Q 35.015625 41.3125 32.203125 43.546875 
Q 29.390625 45.796875 24.265625 45.796875 
Q 18.21875 45.796875 15.625 43.796875 
Q 13.03125 41.796875 13.03125 39.109375 
Q 13.03125 37.40625 14.109375 36.03125 
Q 15.1875 34.625 17.484375 33.6875 
Q 18.796875 33.203125 25.25 31.453125 
Q 34.578125 28.953125 38.25 27.359375 
Q 41.9375 25.78125 44.03125 22.75 
Q 46.140625 19.734375 46.140625 15.234375 
Q 46.140625 10.84375 43.578125 6.953125 
Q 41.015625 3.078125 36.171875 0.953125 
Q 31.34375 -1.171875 25.25 -1.171875 
Q 15.140625 -1.171875 9.84375 3.03125 
Q 4.546875 7.234375 3.078125 15.484375 
z
" id="ArialMT-115"/>
     </defs>
     <g style="fill:#262626;" transform="translate(206.72625 284.149219)scale(0.12 -0.12)">
      <use xlink:href="#ArialMT-100"/>
      <use x="55.615234" xlink:href="#ArialMT-32"/>
      <use x="83.398438" xlink:href="#ArialMT-116"/>
      <use x="111.181641" xlink:href="#ArialMT-101"/>
      <use x="166.796875" xlink:href="#ArialMT-115"/>
      <use x="216.796875" xlink:href="#ArialMT-116"/>
     </g>
    </g>
   </g>
   <g id="matplotlib.axis_2">
    <g id="ytick_1">
     <g id="line2d_8">
      <path clip-path="url(#pbe515fb64f)" d="M 54 242.116364 
L 388.8 242.116364 
" style="fill:none;stroke:#ffffff;stroke-linecap:round;"/>
     </g>
     <g id="text_9">
      <!-- 0 -->
      <g style="fill:#262626;" transform="translate(38.382969 246.053161)scale(0.11 -0.11)">
       <use xlink:href="#ArialMT-48"/>
      </g>
     </g>
    </g>
    <g id="ytick_2">
     <g id="line2d_9">
      <path clip-path="url(#pbe515fb64f)" d="M 54 210.051334 
L 388.8 210.051334 
" style="fill:none;stroke:#ffffff;stroke-linecap:round;"/>
     </g>
     <g id="text_10">
      <!-- 2 -->
      <g style="fill:#262626;" transform="translate(38.382969 213.988131)scale(0.11 -0.11)">
       <use xlink:href="#ArialMT-50"/>
      </g>
     </g>
    </g>
    <g id="ytick_3">
     <g id="line2d_10">
      <path clip-path="url(#pbe515fb64f)" d="M 54 177.986304 
L 388.8 177.986304 
" style="fill:none;stroke:#ffffff;stroke-linecap:round;"/>
     </g>
     <g id="text_11">
      <!-- 4 -->
      <g style="fill:#262626;" transform="translate(38.382969 181.923101)scale(0.11 -0.11)">
       <use xlink:href="#ArialMT-52"/>
      </g>
     </g>
    </g>
    <g id="ytick_4">
     <g id="line2d_11">
      <path clip-path="url(#pbe515fb64f)" d="M 54 145.921274 
L 388.8 145.921274 
" style="fill:none;stroke:#ffffff;stroke-linecap:round;"/>
     </g>
     <g id="text_12">
      <!-- 6 -->
      <g style="fill:#262626;" transform="translate(38.382969 149.858071)scale(0.11 -0.11)">
       <use xlink:href="#ArialMT-54"/>
      </g>
     </g>
    </g>
    <g id="ytick_5">
     <g id="line2d_12">
      <path clip-path="url(#pbe515fb64f)" d="M 54 113.856245 
L 388.8 113.856245 
" style="fill:none;stroke:#ffffff;stroke-linecap:round;"/>
     </g>
     <g id="text_13">
      <!-- 8 -->
      <g style="fill:#262626;" transform="translate(38.382969 117.793041)scale(0.11 -0.11)">
       <use xlink:href="#ArialMT-56"/>
      </g>
     </g>
    </g>
    <g id="ytick_6">
     <g id="line2d_13">
      <path clip-path="url(#pbe515fb64f)" d="M 54 81.791215 
L 388.8 81.791215 
" style="fill:none;stroke:#ffffff;stroke-linecap:round;"/>
     </g>
     <g id="text_14">
      <!-- 10 -->
      <g style="fill:#262626;" transform="translate(32.265937 85.728012)scale(0.11 -0.11)">
       <use xlink:href="#ArialMT-49"/>
       <use x="55.615234" xlink:href="#ArialMT-48"/>
      </g>
     </g>
    </g>
    <g id="ytick_7">
     <g id="line2d_14">
      <path clip-path="url(#pbe515fb64f)" d="M 54 49.726185 
L 388.8 49.726185 
" style="fill:none;stroke:#ffffff;stroke-linecap:round;"/>
     </g>
     <g id="text_15">
      <!-- 12 -->
      <g style="fill:#262626;" transform="translate(32.265937 53.662982)scale(0.11 -0.11)">
       <use xlink:href="#ArialMT-49"/>
       <use x="55.615234" xlink:href="#ArialMT-50"/>
      </g>
     </g>
    </g>
    <g id="text_16">
     <!-- d predicted -->
     <defs>
      <path d="M 6.59375 -19.875 
L 6.59375 51.859375 
L 14.59375 51.859375 
L 14.59375 45.125 
Q 17.4375 49.078125 21 51.046875 
Q 24.5625 53.03125 29.640625 53.03125 
Q 36.28125 53.03125 41.359375 49.609375 
Q 46.4375 46.1875 49.015625 39.953125 
Q 51.609375 33.734375 51.609375 26.3125 
Q 51.609375 18.359375 48.75 11.984375 
Q 45.90625 5.609375 40.453125 2.21875 
Q 35.015625 -1.171875 29 -1.171875 
Q 24.609375 -1.171875 21.109375 0.6875 
Q 17.625 2.546875 15.375 5.375 
L 15.375 -19.875 
z
M 14.546875 25.640625 
Q 14.546875 15.625 18.59375 10.84375 
Q 22.65625 6.0625 28.421875 6.0625 
Q 34.28125 6.0625 38.453125 11.015625 
Q 42.625 15.96875 42.625 26.375 
Q 42.625 36.28125 38.546875 41.203125 
Q 34.46875 46.140625 28.8125 46.140625 
Q 23.1875 46.140625 18.859375 40.890625 
Q 14.546875 35.640625 14.546875 25.640625 
z
" id="ArialMT-112"/>
      <path d="M 6.5 0 
L 6.5 51.859375 
L 14.40625 51.859375 
L 14.40625 44 
Q 17.4375 49.515625 20 51.265625 
Q 22.5625 53.03125 25.640625 53.03125 
Q 30.078125 53.03125 34.671875 50.203125 
L 31.640625 42.046875 
Q 28.421875 43.953125 25.203125 43.953125 
Q 22.3125 43.953125 20.015625 42.21875 
Q 17.71875 40.484375 16.75 37.40625 
Q 15.28125 32.71875 15.28125 27.15625 
L 15.28125 0 
z
" id="ArialMT-114"/>
      <path d="M 6.640625 61.46875 
L 6.640625 71.578125 
L 15.4375 71.578125 
L 15.4375 61.46875 
z
M 6.640625 0 
L 6.640625 51.859375 
L 15.4375 51.859375 
L 15.4375 0 
z
" id="ArialMT-105"/>
      <path d="M 40.4375 19 
L 49.078125 17.875 
Q 47.65625 8.9375 41.8125 3.875 
Q 35.984375 -1.171875 27.484375 -1.171875 
Q 16.84375 -1.171875 10.375 5.78125 
Q 3.90625 12.75 3.90625 25.734375 
Q 3.90625 34.125 6.6875 40.421875 
Q 9.46875 46.734375 15.15625 49.875 
Q 20.84375 53.03125 27.546875 53.03125 
Q 35.984375 53.03125 41.359375 48.75 
Q 46.734375 44.484375 48.25 36.625 
L 39.703125 35.296875 
Q 38.484375 40.53125 35.375 43.15625 
Q 32.28125 45.796875 27.875 45.796875 
Q 21.234375 45.796875 17.078125 41.03125 
Q 12.9375 36.28125 12.9375 25.984375 
Q 12.9375 15.53125 16.9375 10.796875 
Q 20.953125 6.0625 27.390625 6.0625 
Q 32.5625 6.0625 36.03125 9.234375 
Q 39.5 12.40625 40.4375 19 
z
" id="ArialMT-99"/>
     </defs>
     <g style="fill:#262626;" transform="translate(25.880937 172.964063)rotate(-90)scale(0.12 -0.12)">
      <use xlink:href="#ArialMT-100"/>
      <use x="55.615234" xlink:href="#ArialMT-32"/>
      <use x="83.398438" xlink:href="#ArialMT-112"/>
      <use x="139.013672" xlink:href="#ArialMT-114"/>
      <use x="172.314453" xlink:href="#ArialMT-101"/>
      <use x="227.929688" xlink:href="#ArialMT-100"/>
      <use x="283.544922" xlink:href="#ArialMT-105"/>
      <use x="305.761719" xlink:href="#ArialMT-99"/>
      <use x="355.761719" xlink:href="#ArialMT-116"/>
      <use x="383.544922" xlink:href="#ArialMT-101"/>
      <use x="439.160156" xlink:href="#ArialMT-100"/>
     </g>
    </g>
   </g>
   <g id="line2d_15">
    <defs>
     <path d="M 0 1.5 
C 0.397805 1.5 0.77937 1.341951 1.06066 1.06066 
C 1.341951 0.77937 1.5 0.397805 1.5 0 
C 1.5 -0.397805 1.341951 -0.77937 1.06066 -1.06066 
C 0.77937 -1.341951 0.397805 -1.5 0 -1.5 
C -0.397805 -1.5 -0.77937 -1.341951 -1.06066 -1.06066 
C -1.341951 -0.77937 -1.5 -0.397805 -1.5 0 
C -1.5 0.397805 -1.341951 0.77937 -1.06066 1.06066 
C -0.77937 1.341951 -0.397805 1.5 0 1.5 
z
" id="m83c1db4862" style="stroke:#4c72b0;"/>
    </defs>
    <g clip-path="url(#pbe515fb64f)">
     <use style="fill:#4c72b0;stroke:#4c72b0;" x="287.08566" xlink:href="#m83c1db4862" y="99.048519"/>
     <use style="fill:#4c72b0;stroke:#4c72b0;" x="101.063279" xlink:href="#m83c1db4862" y="219.219829"/>
     <use style="fill:#4c72b0;stroke:#4c72b0;" x="168.386618" xlink:href="#m83c1db4862" y="177.599388"/>
     <use style="fill:#4c72b0;stroke:#4c72b0;" x="325.963231" xlink:href="#m83c1db4862" y="74.206634"/>
     <use style="fill:#4c72b0;stroke:#4c72b0;" x="162.746135" xlink:href="#m83c1db4862" y="182.145309"/>
     <use style="fill:#4c72b0;stroke:#4c72b0;" x="111.868103" xlink:href="#m83c1db4862" y="213.947685"/>
     <use style="fill:#4c72b0;stroke:#4c72b0;" x="287.486509" xlink:href="#m83c1db4862" y="97.471544"/>
     <use style="fill:#4c72b0;stroke:#4c72b0;" x="224.088769" xlink:href="#m83c1db4862" y="144.595045"/>
     <use style="fill:#4c72b0;stroke:#4c72b0;" x="311.086669" xlink:href="#m83c1db4862" y="82.432377"/>
     <use style="fill:#4c72b0;stroke:#4c72b0;" x="257.376937" xlink:href="#m83c1db4862" y="111.323688"/>
     <use style="fill:#4c72b0;stroke:#4c72b0;" x="134.071611" xlink:href="#m83c1db4862" y="199.072854"/>
     <use style="fill:#4c72b0;stroke:#4c72b0;" x="211.781301" xlink:href="#m83c1db4862" y="149.786612"/>
     <use style="fill:#4c72b0;stroke:#4c72b0;" x="373.581818" xlink:href="#m83c1db4862" y="44.443636"/>
     <use style="fill:#4c72b0;stroke:#4c72b0;" x="117.642878" xlink:href="#m83c1db4862" y="211.449368"/>
     <use style="fill:#4c72b0;stroke:#4c72b0;" x="311.26473" xlink:href="#m83c1db4862" y="80.24852"/>
     <use style="fill:#4c72b0;stroke:#4c72b0;" x="247.323518" xlink:href="#m83c1db4862" y="124.029946"/>
     <use style="fill:#4c72b0;stroke:#4c72b0;" x="292.189081" xlink:href="#m83c1db4862" y="88.83157"/>
     <use style="fill:#4c72b0;stroke:#4c72b0;" x="211.527422" xlink:href="#m83c1db4862" y="145.96128"/>
     <use style="fill:#4c72b0;stroke:#4c72b0;" x="107.850726" xlink:href="#m83c1db4862" y="216.98585"/>
     <use style="fill:#4c72b0;stroke:#4c72b0;" x="219.298875" xlink:href="#m83c1db4862" y="145.212967"/>
     <use style="fill:#4c72b0;stroke:#4c72b0;" x="344.314702" xlink:href="#m83c1db4862" y="61.411168"/>
     <use style="fill:#4c72b0;stroke:#4c72b0;" x="113.249191" xlink:href="#m83c1db4862" y="211.564424"/>
     <use style="fill:#4c72b0;stroke:#4c72b0;" x="342.037504" xlink:href="#m83c1db4862" y="58.382183"/>
     <use style="fill:#4c72b0;stroke:#4c72b0;" x="283.064918" xlink:href="#m83c1db4862" y="110.832748"/>
     <use style="fill:#4c72b0;stroke:#4c72b0;" x="308.948482" xlink:href="#m83c1db4862" y="104.374384"/>
     <use style="fill:#4c72b0;stroke:#4c72b0;" x="122.629911" xlink:href="#m83c1db4862" y="212.489091"/>
     <use style="fill:#4c72b0;stroke:#4c72b0;" x="106.772826" xlink:href="#m83c1db4862" y="215.927914"/>
     <use style="fill:#4c72b0;stroke:#4c72b0;" x="128.887708" xlink:href="#m83c1db4862" y="200.131753"/>
     <use style="fill:#4c72b0;stroke:#4c72b0;" x="258.06791" xlink:href="#m83c1db4862" y="122.995025"/>
     <use style="fill:#4c72b0;stroke:#4c72b0;" x="147.812319" xlink:href="#m83c1db4862" y="189.055517"/>
     <use style="fill:#4c72b0;stroke:#4c72b0;" x="208.6101" xlink:href="#m83c1db4862" y="152.089423"/>
     <use style="fill:#4c72b0;stroke:#4c72b0;" x="133.367974" xlink:href="#m83c1db4862" y="200.474539"/>
     <use style="fill:#4c72b0;stroke:#4c72b0;" x="156.387596" xlink:href="#m83c1db4862" y="181.228376"/>
     <use style="fill:#4c72b0;stroke:#4c72b0;" x="292.609703" xlink:href="#m83c1db4862" y="96.026292"/>
     <use style="fill:#4c72b0;stroke:#4c72b0;" x="195.30567" xlink:href="#m83c1db4862" y="161.293767"/>
     <use style="fill:#4c72b0;stroke:#4c72b0;" x="133.592923" xlink:href="#m83c1db4862" y="201.105216"/>
     <use style="fill:#4c72b0;stroke:#4c72b0;" x="172.28665" xlink:href="#m83c1db4862" y="172.305716"/>
     <use style="fill:#4c72b0;stroke:#4c72b0;" x="202.570494" xlink:href="#m83c1db4862" y="152.849464"/>
     <use style="fill:#4c72b0;stroke:#4c72b0;" x="130.773781" xlink:href="#m83c1db4862" y="202.066306"/>
     <use style="fill:#4c72b0;stroke:#4c72b0;" x="196.523562" xlink:href="#m83c1db4862" y="160.487849"/>
     <use style="fill:#4c72b0;stroke:#4c72b0;" x="131.622144" xlink:href="#m83c1db4862" y="203.787085"/>
     <use style="fill:#4c72b0;stroke:#4c72b0;" x="120.741909" xlink:href="#m83c1db4862" y="209.254816"/>
     <use style="fill:#4c72b0;stroke:#4c72b0;" x="310.298462" xlink:href="#m83c1db4862" y="86.106561"/>
     <use style="fill:#4c72b0;stroke:#4c72b0;" x="114.222324" xlink:href="#m83c1db4862" y="214.631169"/>
     <use style="fill:#4c72b0;stroke:#4c72b0;" x="104.033598" xlink:href="#m83c1db4862" y="218.570868"/>
     <use style="fill:#4c72b0;stroke:#4c72b0;" x="286.208188" xlink:href="#m83c1db4862" y="100.196018"/>
     <use style="fill:#4c72b0;stroke:#4c72b0;" x="107.752814" xlink:href="#m83c1db4862" y="216.910255"/>
     <use style="fill:#4c72b0;stroke:#4c72b0;" x="139.92743" xlink:href="#m83c1db4862" y="198.230069"/>
     <use style="fill:#4c72b0;stroke:#4c72b0;" x="115.330595" xlink:href="#m83c1db4862" y="215.384152"/>
     <use style="fill:#4c72b0;stroke:#4c72b0;" x="108.956592" xlink:href="#m83c1db4862" y="218.01737"/>
     <use style="fill:#4c72b0;stroke:#4c72b0;" x="236.893905" xlink:href="#m83c1db4862" y="136.242443"/>
     <use style="fill:#4c72b0;stroke:#4c72b0;" x="104.791227" xlink:href="#m83c1db4862" y="219.813921"/>
     <use style="fill:#4c72b0;stroke:#4c72b0;" x="302.641395" xlink:href="#m83c1db4862" y="87.103915"/>
     <use style="fill:#4c72b0;stroke:#4c72b0;" x="114.395893" xlink:href="#m83c1db4862" y="212.915734"/>
     <use style="fill:#4c72b0;stroke:#4c72b0;" x="109.54834" xlink:href="#m83c1db4862" y="214.458184"/>
     <use style="fill:#4c72b0;stroke:#4c72b0;" x="124.054798" xlink:href="#m83c1db4862" y="207.046506"/>
     <use style="fill:#4c72b0;stroke:#4c72b0;" x="279.699726" xlink:href="#m83c1db4862" y="105.440404"/>
     <use style="fill:#4c72b0;stroke:#4c72b0;" x="101.526871" xlink:href="#m83c1db4862" y="219.448304"/>
     <use style="fill:#4c72b0;stroke:#4c72b0;" x="168.120187" xlink:href="#m83c1db4862" y="169.625568"/>
     <use style="fill:#4c72b0;stroke:#4c72b0;" x="127.497803" xlink:href="#m83c1db4862" y="205.852155"/>
     <use style="fill:#4c72b0;stroke:#4c72b0;" x="304.253284" xlink:href="#m83c1db4862" y="90.061971"/>
     <use style="fill:#4c72b0;stroke:#4c72b0;" x="127.768279" xlink:href="#m83c1db4862" y="205.521173"/>
     <use style="fill:#4c72b0;stroke:#4c72b0;" x="111.373348" xlink:href="#m83c1db4862" y="213.28413"/>
     <use style="fill:#4c72b0;stroke:#4c72b0;" x="129.692766" xlink:href="#m83c1db4862" y="203.189234"/>
     <use style="fill:#4c72b0;stroke:#4c72b0;" x="168.333313" xlink:href="#m83c1db4862" y="177.211692"/>
     <use style="fill:#4c72b0;stroke:#4c72b0;" x="341.383666" xlink:href="#m83c1db4862" y="65.205683"/>
     <use style="fill:#4c72b0;stroke:#4c72b0;" x="220.674173" xlink:href="#m83c1db4862" y="145.69867"/>
     <use style="fill:#4c72b0;stroke:#4c72b0;" x="205.191056" xlink:href="#m83c1db4862" y="152.663525"/>
     <use style="fill:#4c72b0;stroke:#4c72b0;" x="161.847162" xlink:href="#m83c1db4862" y="181.518159"/>
     <use style="fill:#4c72b0;stroke:#4c72b0;" x="138.650758" xlink:href="#m83c1db4862" y="198.148135"/>
     <use style="fill:#4c72b0;stroke:#4c72b0;" x="172.025317" xlink:href="#m83c1db4862" y="172.768011"/>
     <use style="fill:#4c72b0;stroke:#4c72b0;" x="165.430002" xlink:href="#m83c1db4862" y="179.318879"/>
     <use style="fill:#4c72b0;stroke:#4c72b0;" x="225.313462" xlink:href="#m83c1db4862" y="143.137629"/>
     <use style="fill:#4c72b0;stroke:#4c72b0;" x="207.546393" xlink:href="#m83c1db4862" y="152.798488"/>
     <use style="fill:#4c72b0;stroke:#4c72b0;" x="104.247362" xlink:href="#m83c1db4862" y="220.394756"/>
     <use style="fill:#4c72b0;stroke:#4c72b0;" x="108.706708" xlink:href="#m83c1db4862" y="215.487839"/>
     <use style="fill:#4c72b0;stroke:#4c72b0;" x="142.394935" xlink:href="#m83c1db4862" y="196.024753"/>
     <use style="fill:#4c72b0;stroke:#4c72b0;" x="227.593574" xlink:href="#m83c1db4862" y="139.26535"/>
     <use style="fill:#4c72b0;stroke:#4c72b0;" x="108.743411" xlink:href="#m83c1db4862" y="216.428764"/>
     <use style="fill:#4c72b0;stroke:#4c72b0;" x="286.818565" xlink:href="#m83c1db4862" y="90.633993"/>
     <use style="fill:#4c72b0;stroke:#4c72b0;" x="208.456157" xlink:href="#m83c1db4862" y="147.77543"/>
     <use style="fill:#4c72b0;stroke:#4c72b0;" x="98.350444" xlink:href="#m83c1db4862" y="222.128189"/>
     <use style="fill:#4c72b0;stroke:#4c72b0;" x="100.49709" xlink:href="#m83c1db4862" y="221.690992"/>
     <use style="fill:#4c72b0;stroke:#4c72b0;" x="126.701719" xlink:href="#m83c1db4862" y="205.209376"/>
     <use style="fill:#4c72b0;stroke:#4c72b0;" x="183.01559" xlink:href="#m83c1db4862" y="166.665195"/>
     <use style="fill:#4c72b0;stroke:#4c72b0;" x="302.91618" xlink:href="#m83c1db4862" y="90.519243"/>
     <use style="fill:#4c72b0;stroke:#4c72b0;" x="161.524964" xlink:href="#m83c1db4862" y="180.328709"/>
     <use style="fill:#4c72b0;stroke:#4c72b0;" x="174.977209" xlink:href="#m83c1db4862" y="171.184546"/>
     <use style="fill:#4c72b0;stroke:#4c72b0;" x="153.361041" xlink:href="#m83c1db4862" y="187.068696"/>
     <use style="fill:#4c72b0;stroke:#4c72b0;" x="319.273061" xlink:href="#m83c1db4862" y="75.479311"/>
     <use style="fill:#4c72b0;stroke:#4c72b0;" x="279.049669" xlink:href="#m83c1db4862" y="103.31581"/>
     <use style="fill:#4c72b0;stroke:#4c72b0;" x="184.55157" xlink:href="#m83c1db4862" y="165.656237"/>
     <use style="fill:#4c72b0;stroke:#4c72b0;" x="230.492512" xlink:href="#m83c1db4862" y="138.022641"/>
     <use style="fill:#4c72b0;stroke:#4c72b0;" x="176.916706" xlink:href="#m83c1db4862" y="168.884723"/>
     <use style="fill:#4c72b0;stroke:#4c72b0;" x="293.940965" xlink:href="#m83c1db4862" y="96.870946"/>
     <use style="fill:#4c72b0;stroke:#4c72b0;" x="157.624419" xlink:href="#m83c1db4862" y="183.177561"/>
     <use style="fill:#4c72b0;stroke:#4c72b0;" x="186.138099" xlink:href="#m83c1db4862" y="163.142808"/>
     <use style="fill:#4c72b0;stroke:#4c72b0;" x="153.886562" xlink:href="#m83c1db4862" y="185.934017"/>
     <use style="fill:#4c72b0;stroke:#4c72b0;" x="205.806206" xlink:href="#m83c1db4862" y="151.90197"/>
     <use style="fill:#4c72b0;stroke:#4c72b0;" x="180.524893" xlink:href="#m83c1db4862" y="167.087973"/>
     <use style="fill:#4c72b0;stroke:#4c72b0;" x="102.327546" xlink:href="#m83c1db4862" y="218.066146"/>
     <use style="fill:#4c72b0;stroke:#4c72b0;" x="179.536454" xlink:href="#m83c1db4862" y="167.84014"/>
     <use style="fill:#4c72b0;stroke:#4c72b0;" x="181.858562" xlink:href="#m83c1db4862" y="165.860891"/>
     <use style="fill:#4c72b0;stroke:#4c72b0;" x="129.846503" xlink:href="#m83c1db4862" y="204.043066"/>
     <use style="fill:#4c72b0;stroke:#4c72b0;" x="183.596589" xlink:href="#m83c1db4862" y="167.030346"/>
     <use style="fill:#4c72b0;stroke:#4c72b0;" x="179.185265" xlink:href="#m83c1db4862" y="170.311758"/>
     <use style="fill:#4c72b0;stroke:#4c72b0;" x="108.192816" xlink:href="#m83c1db4862" y="217.790206"/>
     <use style="fill:#4c72b0;stroke:#4c72b0;" x="137.300613" xlink:href="#m83c1db4862" y="198.753423"/>
     <use style="fill:#4c72b0;stroke:#4c72b0;" x="253.342377" xlink:href="#m83c1db4862" y="122.795494"/>
     <use style="fill:#4c72b0;stroke:#4c72b0;" x="119.594513" xlink:href="#m83c1db4862" y="210.617441"/>
     <use style="fill:#4c72b0;stroke:#4c72b0;" x="139.761835" xlink:href="#m83c1db4862" y="197.342676"/>
     <use style="fill:#4c72b0;stroke:#4c72b0;" x="102.60093" xlink:href="#m83c1db4862" y="220.307839"/>
     <use style="fill:#4c72b0;stroke:#4c72b0;" x="253.77178" xlink:href="#m83c1db4862" y="124.078071"/>
     <use style="fill:#4c72b0;stroke:#4c72b0;" x="338.968962" xlink:href="#m83c1db4862" y="70.518796"/>
     <use style="fill:#4c72b0;stroke:#4c72b0;" x="135.985648" xlink:href="#m83c1db4862" y="200.163827"/>
     <use style="fill:#4c72b0;stroke:#4c72b0;" x="135.426221" xlink:href="#m83c1db4862" y="199.83924"/>
     <use style="fill:#4c72b0;stroke:#4c72b0;" x="128.178053" xlink:href="#m83c1db4862" y="202.79522"/>
     <use style="fill:#4c72b0;stroke:#4c72b0;" x="176.877938" xlink:href="#m83c1db4862" y="170.351428"/>
     <use style="fill:#4c72b0;stroke:#4c72b0;" x="319.164976" xlink:href="#m83c1db4862" y="83.336157"/>
     <use style="fill:#4c72b0;stroke:#4c72b0;" x="171.32348" xlink:href="#m83c1db4862" y="175.37236"/>
     <use style="fill:#4c72b0;stroke:#4c72b0;" x="296.07895" xlink:href="#m83c1db4862" y="90.126479"/>
     <use style="fill:#4c72b0;stroke:#4c72b0;" x="109.819257" xlink:href="#m83c1db4862" y="217.993631"/>
     <use style="fill:#4c72b0;stroke:#4c72b0;" x="140.682937" xlink:href="#m83c1db4862" y="198.806915"/>
     <use style="fill:#4c72b0;stroke:#4c72b0;" x="251.299011" xlink:href="#m83c1db4862" y="127.540736"/>
     <use style="fill:#4c72b0;stroke:#4c72b0;" x="103.597607" xlink:href="#m83c1db4862" y="217.238747"/>
     <use style="fill:#4c72b0;stroke:#4c72b0;" x="246.360454" xlink:href="#m83c1db4862" y="119.413153"/>
     <use style="fill:#4c72b0;stroke:#4c72b0;" x="170.769568" xlink:href="#m83c1db4862" y="170.391388"/>
     <use style="fill:#4c72b0;stroke:#4c72b0;" x="136.819743" xlink:href="#m83c1db4862" y="198.534844"/>
     <use style="fill:#4c72b0;stroke:#4c72b0;" x="113.765922" xlink:href="#m83c1db4862" y="213.307203"/>
     <use style="fill:#4c72b0;stroke:#4c72b0;" x="142.891063" xlink:href="#m83c1db4862" y="196.022314"/>
     <use style="fill:#4c72b0;stroke:#4c72b0;" x="126.444831" xlink:href="#m83c1db4862" y="205.587428"/>
     <use style="fill:#4c72b0;stroke:#4c72b0;" x="210.579179" xlink:href="#m83c1db4862" y="149.374888"/>
     <use style="fill:#4c72b0;stroke:#4c72b0;" x="173.89215" xlink:href="#m83c1db4862" y="172.758753"/>
     <use style="fill:#4c72b0;stroke:#4c72b0;" x="110.161612" xlink:href="#m83c1db4862" y="216.781844"/>
     <use style="fill:#4c72b0;stroke:#4c72b0;" x="283.623925" xlink:href="#m83c1db4862" y="100.34014"/>
     <use style="fill:#4c72b0;stroke:#4c72b0;" x="129.725776" xlink:href="#m83c1db4862" y="202.662845"/>
     <use style="fill:#4c72b0;stroke:#4c72b0;" x="146.281086" xlink:href="#m83c1db4862" y="193.560748"/>
     <use style="fill:#4c72b0;stroke:#4c72b0;" x="251.336687" xlink:href="#m83c1db4862" y="121.439694"/>
     <use style="fill:#4c72b0;stroke:#4c72b0;" x="369.985163" xlink:href="#m83c1db4862" y="46.897175"/>
     <use style="fill:#4c72b0;stroke:#4c72b0;" x="245.992498" xlink:href="#m83c1db4862" y="131.790634"/>
     <use style="fill:#4c72b0;stroke:#4c72b0;" x="296.745492" xlink:href="#m83c1db4862" y="96.954979"/>
     <use style="fill:#4c72b0;stroke:#4c72b0;" x="111.335144" xlink:href="#m83c1db4862" y="216.875643"/>
     <use style="fill:#4c72b0;stroke:#4c72b0;" x="112.978513" xlink:href="#m83c1db4862" y="213.041162"/>
     <use style="fill:#4c72b0;stroke:#4c72b0;" x="205.186286" xlink:href="#m83c1db4862" y="152.137074"/>
     <use style="fill:#4c72b0;stroke:#4c72b0;" x="284.599751" xlink:href="#m83c1db4862" y="98.91247"/>
     <use style="fill:#4c72b0;stroke:#4c72b0;" x="186.319371" xlink:href="#m83c1db4862" y="163.181285"/>
     <use style="fill:#4c72b0;stroke:#4c72b0;" x="231.731371" xlink:href="#m83c1db4862" y="137.506091"/>
     <use style="fill:#4c72b0;stroke:#4c72b0;" x="270.075708" xlink:href="#m83c1db4862" y="113.333196"/>
     <use style="fill:#4c72b0;stroke:#4c72b0;" x="223.117809" xlink:href="#m83c1db4862" y="142.202971"/>
     <use style="fill:#4c72b0;stroke:#4c72b0;" x="207.863587" xlink:href="#m83c1db4862" y="151.844886"/>
     <use style="fill:#4c72b0;stroke:#4c72b0;" x="147.175842" xlink:href="#m83c1db4862" y="192.602074"/>
     <use style="fill:#4c72b0;stroke:#4c72b0;" x="109.48615" xlink:href="#m83c1db4862" y="214.734775"/>
     <use style="fill:#4c72b0;stroke:#4c72b0;" x="199.298414" xlink:href="#m83c1db4862" y="157.488541"/>
     <use style="fill:#4c72b0;stroke:#4c72b0;" x="239.472432" xlink:href="#m83c1db4862" y="131.541686"/>
     <use style="fill:#4c72b0;stroke:#4c72b0;" x="246.971413" xlink:href="#m83c1db4862" y="128.010117"/>
     <use style="fill:#4c72b0;stroke:#4c72b0;" x="284.042021" xlink:href="#m83c1db4862" y="103.641329"/>
     <use style="fill:#4c72b0;stroke:#4c72b0;" x="300.657569" xlink:href="#m83c1db4862" y="93.750711"/>
     <use style="fill:#4c72b0;stroke:#4c72b0;" x="140.543096" xlink:href="#m83c1db4862" y="196.898389"/>
     <use style="fill:#4c72b0;stroke:#4c72b0;" x="152.790587" xlink:href="#m83c1db4862" y="183.724462"/>
     <use style="fill:#4c72b0;stroke:#4c72b0;" x="144.447403" xlink:href="#m83c1db4862" y="193.935341"/>
     <use style="fill:#4c72b0;stroke:#4c72b0;" x="108.961771" xlink:href="#m83c1db4862" y="214.080276"/>
     <use style="fill:#4c72b0;stroke:#4c72b0;" x="135.760855" xlink:href="#m83c1db4862" y="201.439646"/>
     <use style="fill:#4c72b0;stroke:#4c72b0;" x="167.333561" xlink:href="#m83c1db4862" y="181.402679"/>
     <use style="fill:#4c72b0;stroke:#4c72b0;" x="125.262183" xlink:href="#m83c1db4862" y="207.360826"/>
     <use style="fill:#4c72b0;stroke:#4c72b0;" x="134.857048" xlink:href="#m83c1db4862" y="200.430378"/>
     <use style="fill:#4c72b0;stroke:#4c72b0;" x="121.278063" xlink:href="#m83c1db4862" y="206.920033"/>
     <use style="fill:#4c72b0;stroke:#4c72b0;" x="270.743821" xlink:href="#m83c1db4862" y="111.591306"/>
     <use style="fill:#4c72b0;stroke:#4c72b0;" x="162.328795" xlink:href="#m83c1db4862" y="180.754274"/>
     <use style="fill:#4c72b0;stroke:#4c72b0;" x="112.043159" xlink:href="#m83c1db4862" y="213.950209"/>
     <use style="fill:#4c72b0;stroke:#4c72b0;" x="209.267617" xlink:href="#m83c1db4862" y="152.206084"/>
     <use style="fill:#4c72b0;stroke:#4c72b0;" x="133.054227" xlink:href="#m83c1db4862" y="200.970429"/>
     <use style="fill:#4c72b0;stroke:#4c72b0;" x="240.214896" xlink:href="#m83c1db4862" y="134.852393"/>
     <use style="fill:#4c72b0;stroke:#4c72b0;" x="263.533122" xlink:href="#m83c1db4862" y="117.581122"/>
     <use style="fill:#4c72b0;stroke:#4c72b0;" x="99.07974" xlink:href="#m83c1db4862" y="221.097076"/>
     <use style="fill:#4c72b0;stroke:#4c72b0;" x="211.494094" xlink:href="#m83c1db4862" y="149.500777"/>
     <use style="fill:#4c72b0;stroke:#4c72b0;" x="106.846688" xlink:href="#m83c1db4862" y="216.475426"/>
     <use style="fill:#4c72b0;stroke:#4c72b0;" x="158.302017" xlink:href="#m83c1db4862" y="184.303043"/>
     <use style="fill:#4c72b0;stroke:#4c72b0;" x="310.759149" xlink:href="#m83c1db4862" y="84.738782"/>
     <use style="fill:#4c72b0;stroke:#4c72b0;" x="191.389685" xlink:href="#m83c1db4862" y="162.298719"/>
     <use style="fill:#4c72b0;stroke:#4c72b0;" x="164.77927" xlink:href="#m83c1db4862" y="180.265543"/>
     <use style="fill:#4c72b0;stroke:#4c72b0;" x="235.009586" xlink:href="#m83c1db4862" y="135.495375"/>
     <use style="fill:#4c72b0;stroke:#4c72b0;" x="224.802567" xlink:href="#m83c1db4862" y="143.206517"/>
     <use style="fill:#4c72b0;stroke:#4c72b0;" x="198.364811" xlink:href="#m83c1db4862" y="159.47331"/>
     <use style="fill:#4c72b0;stroke:#4c72b0;" x="307.75796" xlink:href="#m83c1db4862" y="82.02599"/>
     <use style="fill:#4c72b0;stroke:#4c72b0;" x="118.983048" xlink:href="#m83c1db4862" y="212.890397"/>
     <use style="fill:#4c72b0;stroke:#4c72b0;" x="106.010967" xlink:href="#m83c1db4862" y="220.490535"/>
     <use style="fill:#4c72b0;stroke:#4c72b0;" x="250.682448" xlink:href="#m83c1db4862" y="125.442891"/>
     <use style="fill:#4c72b0;stroke:#4c72b0;" x="173.326564" xlink:href="#m83c1db4862" y="173.447359"/>
     <use style="fill:#4c72b0;stroke:#4c72b0;" x="226.267303" xlink:href="#m83c1db4862" y="142.992674"/>
     <use style="fill:#4c72b0;stroke:#4c72b0;" x="300.786613" xlink:href="#m83c1db4862" y="90.737841"/>
     <use style="fill:#4c72b0;stroke:#4c72b0;" x="144.840032" xlink:href="#m83c1db4862" y="195.352403"/>
     <use style="fill:#4c72b0;stroke:#4c72b0;" x="123.111034" xlink:href="#m83c1db4862" y="208.541657"/>
     <use style="fill:#4c72b0;stroke:#4c72b0;" x="119.883716" xlink:href="#m83c1db4862" y="209.277016"/>
     <use style="fill:#4c72b0;stroke:#4c72b0;" x="108.092405" xlink:href="#m83c1db4862" y="218.52365"/>
     <use style="fill:#4c72b0;stroke:#4c72b0;" x="303.196217" xlink:href="#m83c1db4862" y="89.305997"/>
     <use style="fill:#4c72b0;stroke:#4c72b0;" x="329.813757" xlink:href="#m83c1db4862" y="72.576451"/>
     <use style="fill:#4c72b0;stroke:#4c72b0;" x="111.016794" xlink:href="#m83c1db4862" y="215.37627"/>
     <use style="fill:#4c72b0;stroke:#4c72b0;" x="284.471096" xlink:href="#m83c1db4862" y="98.707572"/>
     <use style="fill:#4c72b0;stroke:#4c72b0;" x="107.316969" xlink:href="#m83c1db4862" y="217.90718"/>
     <use style="fill:#4c72b0;stroke:#4c72b0;" x="351.218209" xlink:href="#m83c1db4862" y="56.904898"/>
     <use style="fill:#4c72b0;stroke:#4c72b0;" x="191.00972" xlink:href="#m83c1db4862" y="161.834758"/>
     <use style="fill:#4c72b0;stroke:#4c72b0;" x="121.997864" xlink:href="#m83c1db4862" y="209.927838"/>
     <use style="fill:#4c72b0;stroke:#4c72b0;" x="283.214808" xlink:href="#m83c1db4862" y="106.429363"/>
     <use style="fill:#4c72b0;stroke:#4c72b0;" x="120.811848" xlink:href="#m83c1db4862" y="204.341814"/>
     <use style="fill:#4c72b0;stroke:#4c72b0;" x="286.976333" xlink:href="#m83c1db4862" y="87.149509"/>
     <use style="fill:#4c72b0;stroke:#4c72b0;" x="168.551015" xlink:href="#m83c1db4862" y="181.062776"/>
     <use style="fill:#4c72b0;stroke:#4c72b0;" x="151.200709" xlink:href="#m83c1db4862" y="195.395394"/>
     <use style="fill:#4c72b0;stroke:#4c72b0;" x="277.543393" xlink:href="#m83c1db4862" y="108.333738"/>
     <use style="fill:#4c72b0;stroke:#4c72b0;" x="310.932698" xlink:href="#m83c1db4862" y="85.859478"/>
     <use style="fill:#4c72b0;stroke:#4c72b0;" x="214.433862" xlink:href="#m83c1db4862" y="148.137928"/>
     <use style="fill:#4c72b0;stroke:#4c72b0;" x="186.537491" xlink:href="#m83c1db4862" y="164.391082"/>
     <use style="fill:#4c72b0;stroke:#4c72b0;" x="337.255327" xlink:href="#m83c1db4862" y="64.488408"/>
     <use style="fill:#4c72b0;stroke:#4c72b0;" x="151.073385" xlink:href="#m83c1db4862" y="192.09446"/>
     <use style="fill:#4c72b0;stroke:#4c72b0;" x="114.999373" xlink:href="#m83c1db4862" y="213.075879"/>
     <use style="fill:#4c72b0;stroke:#4c72b0;" x="257.622152" xlink:href="#m83c1db4862" y="118.476309"/>
     <use style="fill:#4c72b0;stroke:#4c72b0;" x="151.333265" xlink:href="#m83c1db4862" y="189.114207"/>
     <use style="fill:#4c72b0;stroke:#4c72b0;" x="111.786582" xlink:href="#m83c1db4862" y="214.763982"/>
     <use style="fill:#4c72b0;stroke:#4c72b0;" x="182.871115" xlink:href="#m83c1db4862" y="169.194946"/>
     <use style="fill:#4c72b0;stroke:#4c72b0;" x="273.092488" xlink:href="#m83c1db4862" y="110.583525"/>
     <use style="fill:#4c72b0;stroke:#4c72b0;" x="147.997161" xlink:href="#m83c1db4862" y="193.532787"/>
     <use style="fill:#4c72b0;stroke:#4c72b0;" x="113.06637" xlink:href="#m83c1db4862" y="213.461152"/>
     <use style="fill:#4c72b0;stroke:#4c72b0;" x="249.2774" xlink:href="#m83c1db4862" y="123.369603"/>
     <use style="fill:#4c72b0;stroke:#4c72b0;" x="318.750329" xlink:href="#m83c1db4862" y="77.908952"/>
     <use style="fill:#4c72b0;stroke:#4c72b0;" x="247.377428" xlink:href="#m83c1db4862" y="125.686764"/>
     <use style="fill:#4c72b0;stroke:#4c72b0;" x="136.407282" xlink:href="#m83c1db4862" y="199.086313"/>
     <use style="fill:#4c72b0;stroke:#4c72b0;" x="151.205937" xlink:href="#m83c1db4862" y="188.637127"/>
     <use style="fill:#4c72b0;stroke:#4c72b0;" x="174.526274" xlink:href="#m83c1db4862" y="171.723488"/>
     <use style="fill:#4c72b0;stroke:#4c72b0;" x="268.05156" xlink:href="#m83c1db4862" y="115.103135"/>
     <use style="fill:#4c72b0;stroke:#4c72b0;" x="110.061517" xlink:href="#m83c1db4862" y="214.806201"/>
     <use style="fill:#4c72b0;stroke:#4c72b0;" x="156.820818" xlink:href="#m83c1db4862" y="186.130231"/>
     <use style="fill:#4c72b0;stroke:#4c72b0;" x="110.165352" xlink:href="#m83c1db4862" y="215.170356"/>
     <use style="fill:#4c72b0;stroke:#4c72b0;" x="126.862699" xlink:href="#m83c1db4862" y="204.355907"/>
     <use style="fill:#4c72b0;stroke:#4c72b0;" x="103.673427" xlink:href="#m83c1db4862" y="219.735645"/>
     <use style="fill:#4c72b0;stroke:#4c72b0;" x="306.88497" xlink:href="#m83c1db4862" y="87.718764"/>
     <use style="fill:#4c72b0;stroke:#4c72b0;" x="119.717156" xlink:href="#m83c1db4862" y="209.735982"/>
     <use style="fill:#4c72b0;stroke:#4c72b0;" x="306.582988" xlink:href="#m83c1db4862" y="86.014731"/>
     <use style="fill:#4c72b0;stroke:#4c72b0;" x="198.505197" xlink:href="#m83c1db4862" y="158.792494"/>
     <use style="fill:#4c72b0;stroke:#4c72b0;" x="118.482204" xlink:href="#m83c1db4862" y="210.09796"/>
     <use style="fill:#4c72b0;stroke:#4c72b0;" x="319.511796" xlink:href="#m83c1db4862" y="78.879043"/>
     <use style="fill:#4c72b0;stroke:#4c72b0;" x="207.489197" xlink:href="#m83c1db4862" y="154.349791"/>
     <use style="fill:#4c72b0;stroke:#4c72b0;" x="248.527927" xlink:href="#m83c1db4862" y="127.447002"/>
     <use style="fill:#4c72b0;stroke:#4c72b0;" x="241.325984" xlink:href="#m83c1db4862" y="130.062857"/>
     <use style="fill:#4c72b0;stroke:#4c72b0;" x="229.161801" xlink:href="#m83c1db4862" y="140.926808"/>
     <use style="fill:#4c72b0;stroke:#4c72b0;" x="307.55193" xlink:href="#m83c1db4862" y="86.366106"/>
     <use style="fill:#4c72b0;stroke:#4c72b0;" x="105.666681" xlink:href="#m83c1db4862" y="217.501234"/>
     <use style="fill:#4c72b0;stroke:#4c72b0;" x="336.952403" xlink:href="#m83c1db4862" y="71.673252"/>
     <use style="fill:#4c72b0;stroke:#4c72b0;" x="132.528697" xlink:href="#m83c1db4862" y="201.757517"/>
    </g>
   </g>
   <g id="line2d_16">
    <path clip-path="url(#pbe515fb64f)" d="M 69.218182 242.116364 
L 93.959979 226.083849 
L 118.701776 210.051334 
L 143.443573 194.018819 
L 168.185369 177.986304 
L 192.927166 161.953789 
L 217.668963 145.921274 
L 242.41076 129.888759 
L 267.152557 113.856245 
L 291.894354 97.82373 
L 316.636151 81.791215 
L 341.377948 65.7587 
L 366.119745 49.726185 
" style="fill:none;stroke:#dd8452;stroke-dasharray:5.55,2.4;stroke-dashoffset:0;stroke-width:1.5;"/>
   </g>
   <g id="patch_3">
    <path d="M 54 252 
L 54 34.56 
" style="fill:none;stroke:#ffffff;stroke-linecap:square;stroke-linejoin:miter;stroke-width:1.25;"/>
   </g>
   <g id="patch_4">
    <path d="M 388.8 252 
L 388.8 34.56 
" style="fill:none;stroke:#ffffff;stroke-linecap:square;stroke-linejoin:miter;stroke-width:1.25;"/>
   </g>
   <g id="patch_5">
    <path d="M 54 252 
L 388.8 252 
" style="fill:none;stroke:#ffffff;stroke-linecap:square;stroke-linejoin:miter;stroke-width:1.25;"/>
   </g>
   <g id="patch_6">
    <path d="M 54 34.56 
L 388.8 34.56 
" style="fill:none;stroke:#ffffff;stroke-linecap:square;stroke-linejoin:miter;stroke-width:1.25;"/>
   </g>
   <g id="legend_1">
    <g id="patch_7">
     <path d="M 61.7 74.608594 
L 151.312187 74.608594 
Q 153.512187 74.608594 153.512187 72.408594 
L 153.512187 42.26 
Q 153.512187 40.06 151.312187 40.06 
L 61.7 40.06 
Q 59.5 40.06 59.5 42.26 
L 59.5 72.408594 
Q 59.5 74.608594 61.7 74.608594 
z
" style="fill:#eaeaf2;opacity:0.8;stroke:#cccccc;stroke-linejoin:miter;"/>
    </g>
    <g id="line2d_17"/>
    <g id="line2d_18">
     <g>
      <use style="fill:#4c72b0;stroke:#4c72b0;" x="74.9" xlink:href="#m83c1db4862" y="48.483594"/>
     </g>
    </g>
    <g id="text_17">
     <!-- Predictions -->
     <defs>
      <path d="M 7.71875 0 
L 7.71875 71.578125 
L 34.71875 71.578125 
Q 41.84375 71.578125 45.609375 70.90625 
Q 50.875 70.015625 54.4375 67.546875 
Q 58.015625 65.09375 60.1875 60.640625 
Q 62.359375 56.203125 62.359375 50.875 
Q 62.359375 41.75 56.546875 35.421875 
Q 50.734375 29.109375 35.546875 29.109375 
L 17.1875 29.109375 
L 17.1875 0 
z
M 17.1875 37.546875 
L 35.6875 37.546875 
Q 44.875 37.546875 48.734375 40.96875 
Q 52.59375 44.390625 52.59375 50.59375 
Q 52.59375 55.078125 50.3125 58.265625 
Q 48.046875 61.46875 44.34375 62.5 
Q 41.9375 63.140625 35.5 63.140625 
L 17.1875 63.140625 
z
" id="ArialMT-80"/>
      <path d="M 3.328125 25.921875 
Q 3.328125 40.328125 11.328125 47.265625 
Q 18.015625 53.03125 27.640625 53.03125 
Q 38.328125 53.03125 45.109375 46.015625 
Q 51.90625 39.015625 51.90625 26.65625 
Q 51.90625 16.65625 48.90625 10.90625 
Q 45.90625 5.171875 40.15625 2 
Q 34.421875 -1.171875 27.640625 -1.171875 
Q 16.75 -1.171875 10.03125 5.8125 
Q 3.328125 12.796875 3.328125 25.921875 
z
M 12.359375 25.921875 
Q 12.359375 15.96875 16.703125 11.015625 
Q 21.046875 6.0625 27.640625 6.0625 
Q 34.1875 6.0625 38.53125 11.03125 
Q 42.875 16.015625 42.875 26.21875 
Q 42.875 35.84375 38.5 40.796875 
Q 34.125 45.75 27.640625 45.75 
Q 21.046875 45.75 16.703125 40.8125 
Q 12.359375 35.890625 12.359375 25.921875 
z
" id="ArialMT-111"/>
      <path d="M 6.59375 0 
L 6.59375 51.859375 
L 14.5 51.859375 
L 14.5 44.484375 
Q 20.21875 53.03125 31 53.03125 
Q 35.6875 53.03125 39.625 51.34375 
Q 43.5625 49.65625 45.515625 46.921875 
Q 47.46875 44.1875 48.25 40.4375 
Q 48.734375 37.984375 48.734375 31.890625 
L 48.734375 0 
L 39.9375 0 
L 39.9375 31.546875 
Q 39.9375 36.921875 38.90625 39.578125 
Q 37.890625 42.234375 35.28125 43.8125 
Q 32.671875 45.40625 29.15625 45.40625 
Q 23.53125 45.40625 19.453125 41.84375 
Q 15.375 38.28125 15.375 28.328125 
L 15.375 0 
z
" id="ArialMT-110"/>
     </defs>
     <g style="fill:#262626;" transform="translate(94.7 52.333594)scale(0.11 -0.11)">
      <use xlink:href="#ArialMT-80"/>
      <use x="66.699219" xlink:href="#ArialMT-114"/>
      <use x="100" xlink:href="#ArialMT-101"/>
      <use x="155.615234" xlink:href="#ArialMT-100"/>
      <use x="211.230469" xlink:href="#ArialMT-105"/>
      <use x="233.447266" xlink:href="#ArialMT-99"/>
      <use x="283.447266" xlink:href="#ArialMT-116"/>
      <use x="311.230469" xlink:href="#ArialMT-105"/>
      <use x="333.447266" xlink:href="#ArialMT-111"/>
      <use x="389.0625" xlink:href="#ArialMT-110"/>
      <use x="444.677734" xlink:href="#ArialMT-115"/>
     </g>
    </g>
    <g id="line2d_19">
     <path d="M 63.9 64.043438 
L 85.9 64.043438 
" style="fill:none;stroke:#dd8452;stroke-dasharray:5.55,2.4;stroke-dashoffset:0;stroke-width:1.5;"/>
    </g>
    <g id="line2d_20"/>
    <g id="text_18">
     <!-- y=x -->
     <defs>
      <path d="M 6.203125 -19.96875 
L 5.21875 -11.71875 
Q 8.109375 -12.5 10.25 -12.5 
Q 13.1875 -12.5 14.9375 -11.515625 
Q 16.703125 -10.546875 17.828125 -8.796875 
Q 18.65625 -7.46875 20.515625 -2.25 
Q 20.75 -1.515625 21.296875 -0.09375 
L 1.609375 51.859375 
L 11.078125 51.859375 
L 21.875 21.828125 
Q 23.96875 16.109375 25.640625 9.8125 
Q 27.15625 15.875 29.25 21.625 
L 40.328125 51.859375 
L 49.125 51.859375 
L 29.390625 -0.875 
Q 26.21875 -9.421875 24.46875 -12.640625 
Q 22.125 -17 19.09375 -19.015625 
Q 16.0625 -21.046875 11.859375 -21.046875 
Q 9.328125 -21.046875 6.203125 -19.96875 
z
" id="ArialMT-121"/>
      <path d="M 52.828125 42.09375 
L 5.5625 42.09375 
L 5.5625 50.296875 
L 52.828125 50.296875 
z
M 52.828125 20.359375 
L 5.5625 20.359375 
L 5.5625 28.5625 
L 52.828125 28.5625 
z
" id="ArialMT-61"/>
      <path d="M 0.734375 0 
L 19.671875 26.953125 
L 2.15625 51.859375 
L 13.140625 51.859375 
L 21.09375 39.703125 
Q 23.34375 36.234375 24.703125 33.890625 
Q 26.859375 37.109375 28.65625 39.59375 
L 37.40625 51.859375 
L 47.90625 51.859375 
L 29.984375 27.4375 
L 49.265625 0 
L 38.484375 0 
L 27.828125 16.109375 
L 25 20.453125 
L 11.375 0 
z
" id="ArialMT-120"/>
     </defs>
     <g style="fill:#262626;" transform="translate(94.7 67.893438)scale(0.11 -0.11)">
      <use xlink:href="#ArialMT-121"/>
      <use x="50" xlink:href="#ArialMT-61"/>
      <use x="108.398438" xlink:href="#ArialMT-120"/>
     </g>
    </g>
   </g>
  </g>
 </g>
 <defs>
  <clipPath id="pbe515fb64f">
   <rect height="217.44" width="334.8" x="54" y="34.56"/>
  </clipPath>
 </defs>
</svg>
