<?xml version="1.0" encoding="utf-8" standalone="no"?>
<!DOCTYPE svg PUBLIC "-//W3C//DTD SVG 1.1//EN"
  "http://www.w3.org/Graphics/SVG/1.1/DTD/svg11.dtd">
<!-- Created with matplotlib (https://matplotlib.org/) -->
<svg height="288pt" version="1.1" viewBox="0 0 432 288" width="432pt" xmlns="http://www.w3.org/2000/svg" xmlns:xlink="http://www.w3.org/1999/xlink">
 <defs>
  <style type="text/css">
*{stroke-linecap:butt;stroke-linejoin:round;}
  </style>
 </defs>
 <g id="figure_1">
  <g id="patch_1">
   <path d="M 0 288 
L 432 288 
L 432 0 
L 0 0 
z
" style="fill:#ffffff;"/>
  </g>
  <g id="axes_1">
   <g id="patch_2">
    <path d="M 54 252 
L 388.8 252 
L 388.8 34.56 
L 54 34.56 
z
" style="fill:#eaeaf2;"/>
   </g>
   <g id="matplotlib.axis_1">
    <g id="xtick_1">
     <g id="line2d_1">
      <path clip-path="url(#pcf26baf657)" d="M 69.218182 252 
L 69.218182 34.56 
" style="fill:none;stroke:#ffffff;stroke-linecap:round;"/>
     </g>
     <g id="text_1">
      <!-- 0.0 -->
      <defs>
       <path d="M 4.15625 35.296875 
Q 4.15625 48 6.765625 55.734375 
Q 9.375 63.484375 14.515625 67.671875 
Q 19.671875 71.875 27.484375 71.875 
Q 33.25 71.875 37.59375 69.546875 
Q 41.9375 67.234375 44.765625 62.859375 
Q 47.609375 58.5 49.21875 52.21875 
Q 50.828125 45.953125 50.828125 35.296875 
Q 50.828125 22.703125 48.234375 14.96875 
Q 45.65625 7.234375 40.5 3 
Q 35.359375 -1.21875 27.484375 -1.21875 
Q 17.140625 -1.21875 11.234375 6.203125 
Q 4.15625 15.140625 4.15625 35.296875 
z
M 13.1875 35.296875 
Q 13.1875 17.671875 17.3125 11.828125 
Q 21.4375 6 27.484375 6 
Q 33.546875 6 37.671875 11.859375 
Q 41.796875 17.71875 41.796875 35.296875 
Q 41.796875 52.984375 37.671875 58.78125 
Q 33.546875 64.59375 27.390625 64.59375 
Q 21.34375 64.59375 17.71875 59.46875 
Q 13.1875 52.9375 13.1875 35.296875 
z
" id="ArialMT-48"/>
       <path d="M 9.078125 0 
L 9.078125 10.015625 
L 19.09375 10.015625 
L 19.09375 0 
z
" id="ArialMT-46"/>
      </defs>
      <g style="fill:#262626;" transform="translate(61.573182 269.373594)scale(0.11 -0.11)">
       <use xlink:href="#ArialMT-48"/>
       <use x="55.615234" xlink:href="#ArialMT-46"/>
       <use x="83.398438" xlink:href="#ArialMT-48"/>
      </g>
     </g>
    </g>
    <g id="xtick_2">
     <g id="line2d_2">
      <path clip-path="url(#pcf26baf657)" d="M 130.090909 252 
L 130.090909 34.56 
" style="fill:none;stroke:#ffffff;stroke-linecap:round;"/>
     </g>
     <g id="text_2">
      <!-- 0.2 -->
      <defs>
       <path d="M 50.34375 8.453125 
L 50.34375 0 
L 3.03125 0 
Q 2.9375 3.171875 4.046875 6.109375 
Q 5.859375 10.9375 9.828125 15.625 
Q 13.8125 20.3125 21.34375 26.46875 
Q 33.015625 36.03125 37.109375 41.625 
Q 41.21875 47.21875 41.21875 52.203125 
Q 41.21875 57.421875 37.46875 61 
Q 33.734375 64.59375 27.734375 64.59375 
Q 21.390625 64.59375 17.578125 60.78125 
Q 13.765625 56.984375 13.71875 50.25 
L 4.6875 51.171875 
Q 5.609375 61.28125 11.65625 66.578125 
Q 17.71875 71.875 27.9375 71.875 
Q 38.234375 71.875 44.234375 66.15625 
Q 50.25 60.453125 50.25 52 
Q 50.25 47.703125 48.484375 43.546875 
Q 46.734375 39.40625 42.65625 34.8125 
Q 38.578125 30.21875 29.109375 22.21875 
Q 21.1875 15.578125 18.9375 13.203125 
Q 16.703125 10.84375 15.234375 8.453125 
z
" id="ArialMT-50"/>
      </defs>
      <g style="fill:#262626;" transform="translate(122.445909 269.373594)scale(0.11 -0.11)">
       <use xlink:href="#ArialMT-48"/>
       <use x="55.615234" xlink:href="#ArialMT-46"/>
       <use x="83.398438" xlink:href="#ArialMT-50"/>
      </g>
     </g>
    </g>
    <g id="xtick_3">
     <g id="line2d_3">
      <path clip-path="url(#pcf26baf657)" d="M 190.963636 252 
L 190.963636 34.56 
" style="fill:none;stroke:#ffffff;stroke-linecap:round;"/>
     </g>
     <g id="text_3">
      <!-- 0.4 -->
      <defs>
       <path d="M 32.328125 0 
L 32.328125 17.140625 
L 1.265625 17.140625 
L 1.265625 25.203125 
L 33.9375 71.578125 
L 41.109375 71.578125 
L 41.109375 25.203125 
L 50.78125 25.203125 
L 50.78125 17.140625 
L 41.109375 17.140625 
L 41.109375 0 
z
M 32.328125 25.203125 
L 32.328125 57.46875 
L 9.90625 25.203125 
z
" id="ArialMT-52"/>
      </defs>
      <g style="fill:#262626;" transform="translate(183.318636 269.373594)scale(0.11 -0.11)">
       <use xlink:href="#ArialMT-48"/>
       <use x="55.615234" xlink:href="#ArialMT-46"/>
       <use x="83.398438" xlink:href="#ArialMT-52"/>
      </g>
     </g>
    </g>
    <g id="xtick_4">
     <g id="line2d_4">
      <path clip-path="url(#pcf26baf657)" d="M 251.836364 252 
L 251.836364 34.56 
" style="fill:none;stroke:#ffffff;stroke-linecap:round;"/>
     </g>
     <g id="text_4">
      <!-- 0.6 -->
      <defs>
       <path d="M 49.75 54.046875 
L 41.015625 53.375 
Q 39.84375 58.546875 37.703125 60.890625 
Q 34.125 64.65625 28.90625 64.65625 
Q 24.703125 64.65625 21.53125 62.3125 
Q 17.390625 59.28125 14.984375 53.46875 
Q 12.59375 47.65625 12.5 36.921875 
Q 15.671875 41.75 20.265625 44.09375 
Q 24.859375 46.4375 29.890625 46.4375 
Q 38.671875 46.4375 44.84375 39.96875 
Q 51.03125 33.5 51.03125 23.25 
Q 51.03125 16.5 48.125 10.71875 
Q 45.21875 4.9375 40.140625 1.859375 
Q 35.0625 -1.21875 28.609375 -1.21875 
Q 17.625 -1.21875 10.6875 6.859375 
Q 3.765625 14.9375 3.765625 33.5 
Q 3.765625 54.25 11.421875 63.671875 
Q 18.109375 71.875 29.4375 71.875 
Q 37.890625 71.875 43.28125 67.140625 
Q 48.6875 62.40625 49.75 54.046875 
z
M 13.875 23.1875 
Q 13.875 18.65625 15.796875 14.5 
Q 17.71875 10.359375 21.1875 8.171875 
Q 24.65625 6 28.46875 6 
Q 34.03125 6 38.03125 10.484375 
Q 42.046875 14.984375 42.046875 22.703125 
Q 42.046875 30.125 38.078125 34.390625 
Q 34.125 38.671875 28.125 38.671875 
Q 22.171875 38.671875 18.015625 34.390625 
Q 13.875 30.125 13.875 23.1875 
z
" id="ArialMT-54"/>
      </defs>
      <g style="fill:#262626;" transform="translate(244.191364 269.373594)scale(0.11 -0.11)">
       <use xlink:href="#ArialMT-48"/>
       <use x="55.615234" xlink:href="#ArialMT-46"/>
       <use x="83.398438" xlink:href="#ArialMT-54"/>
      </g>
     </g>
    </g>
    <g id="xtick_5">
     <g id="line2d_5">
      <path clip-path="url(#pcf26baf657)" d="M 312.709091 252 
L 312.709091 34.56 
" style="fill:none;stroke:#ffffff;stroke-linecap:round;"/>
     </g>
     <g id="text_5">
      <!-- 0.8 -->
      <defs>
       <path d="M 17.671875 38.8125 
Q 12.203125 40.828125 9.5625 44.53125 
Q 6.9375 48.25 6.9375 53.421875 
Q 6.9375 61.234375 12.546875 66.546875 
Q 18.171875 71.875 27.484375 71.875 
Q 36.859375 71.875 42.578125 66.421875 
Q 48.296875 60.984375 48.296875 53.171875 
Q 48.296875 48.1875 45.671875 44.5 
Q 43.0625 40.828125 37.75 38.8125 
Q 44.34375 36.671875 47.78125 31.875 
Q 51.21875 27.09375 51.21875 20.453125 
Q 51.21875 11.28125 44.71875 5.03125 
Q 38.234375 -1.21875 27.640625 -1.21875 
Q 17.046875 -1.21875 10.546875 5.046875 
Q 4.046875 11.328125 4.046875 20.703125 
Q 4.046875 27.6875 7.59375 32.390625 
Q 11.140625 37.109375 17.671875 38.8125 
z
M 15.921875 53.71875 
Q 15.921875 48.640625 19.1875 45.40625 
Q 22.46875 42.1875 27.6875 42.1875 
Q 32.765625 42.1875 36.015625 45.375 
Q 39.265625 48.578125 39.265625 53.21875 
Q 39.265625 58.0625 35.90625 61.359375 
Q 32.5625 64.65625 27.59375 64.65625 
Q 22.5625 64.65625 19.234375 61.421875 
Q 15.921875 58.203125 15.921875 53.71875 
z
M 13.09375 20.65625 
Q 13.09375 16.890625 14.875 13.375 
Q 16.65625 9.859375 20.171875 7.921875 
Q 23.6875 6 27.734375 6 
Q 34.03125 6 38.125 10.046875 
Q 42.234375 14.109375 42.234375 20.359375 
Q 42.234375 26.703125 38.015625 30.859375 
Q 33.796875 35.015625 27.4375 35.015625 
Q 21.234375 35.015625 17.15625 30.90625 
Q 13.09375 26.8125 13.09375 20.65625 
z
" id="ArialMT-56"/>
      </defs>
      <g style="fill:#262626;" transform="translate(305.064091 269.373594)scale(0.11 -0.11)">
       <use xlink:href="#ArialMT-48"/>
       <use x="55.615234" xlink:href="#ArialMT-46"/>
       <use x="83.398438" xlink:href="#ArialMT-56"/>
      </g>
     </g>
    </g>
    <g id="xtick_6">
     <g id="line2d_6">
      <path clip-path="url(#pcf26baf657)" d="M 373.581818 252 
L 373.581818 34.56 
" style="fill:none;stroke:#ffffff;stroke-linecap:round;"/>
     </g>
     <g id="text_6">
      <!-- 1.0 -->
      <defs>
       <path d="M 37.25 0 
L 28.46875 0 
L 28.46875 56 
Q 25.296875 52.984375 20.140625 49.953125 
Q 14.984375 46.921875 10.890625 45.40625 
L 10.890625 53.90625 
Q 18.265625 57.375 23.78125 62.296875 
Q 29.296875 67.234375 31.59375 71.875 
L 37.25 71.875 
z
" id="ArialMT-49"/>
      </defs>
      <g style="fill:#262626;" transform="translate(365.936818 269.373594)scale(0.11 -0.11)">
       <use xlink:href="#ArialMT-49"/>
       <use x="55.615234" xlink:href="#ArialMT-46"/>
       <use x="83.398438" xlink:href="#ArialMT-48"/>
      </g>
     </g>
    </g>
    <g id="text_7">
     <!-- Training progress -->
     <defs>
      <path d="M 25.921875 0 
L 25.921875 63.140625 
L 2.34375 63.140625 
L 2.34375 71.578125 
L 59.078125 71.578125 
L 59.078125 63.140625 
L 35.40625 63.140625 
L 35.40625 0 
z
" id="ArialMT-84"/>
      <path d="M 6.5 0 
L 6.5 51.859375 
L 14.40625 51.859375 
L 14.40625 44 
Q 17.4375 49.515625 20 51.265625 
Q 22.5625 53.03125 25.640625 53.03125 
Q 30.078125 53.03125 34.671875 50.203125 
L 31.640625 42.046875 
Q 28.421875 43.953125 25.203125 43.953125 
Q 22.3125 43.953125 20.015625 42.21875 
Q 17.71875 40.484375 16.75 37.40625 
Q 15.28125 32.71875 15.28125 27.15625 
L 15.28125 0 
z
" id="ArialMT-114"/>
      <path d="M 40.4375 6.390625 
Q 35.546875 2.25 31.03125 0.53125 
Q 26.515625 -1.171875 21.34375 -1.171875 
Q 12.796875 -1.171875 8.203125 3 
Q 3.609375 7.171875 3.609375 13.671875 
Q 3.609375 17.484375 5.34375 20.625 
Q 7.078125 23.78125 9.890625 25.6875 
Q 12.703125 27.59375 16.21875 28.5625 
Q 18.796875 29.25 24.03125 29.890625 
Q 34.671875 31.15625 39.703125 32.90625 
Q 39.75 34.71875 39.75 35.203125 
Q 39.75 40.578125 37.25 42.78125 
Q 33.890625 45.75 27.25 45.75 
Q 21.046875 45.75 18.09375 43.578125 
Q 15.140625 41.40625 13.71875 35.890625 
L 5.125 37.0625 
Q 6.296875 42.578125 8.984375 45.96875 
Q 11.671875 49.359375 16.75 51.1875 
Q 21.828125 53.03125 28.515625 53.03125 
Q 35.15625 53.03125 39.296875 51.46875 
Q 43.453125 49.90625 45.40625 47.53125 
Q 47.359375 45.171875 48.140625 41.546875 
Q 48.578125 39.3125 48.578125 33.453125 
L 48.578125 21.734375 
Q 48.578125 9.46875 49.140625 6.21875 
Q 49.703125 2.984375 51.375 0 
L 42.1875 0 
Q 40.828125 2.734375 40.4375 6.390625 
z
M 39.703125 26.03125 
Q 34.90625 24.078125 25.34375 22.703125 
Q 19.921875 21.921875 17.671875 20.9375 
Q 15.4375 19.96875 14.203125 18.09375 
Q 12.984375 16.21875 12.984375 13.921875 
Q 12.984375 10.40625 15.640625 8.0625 
Q 18.3125 5.71875 23.4375 5.71875 
Q 28.515625 5.71875 32.46875 7.9375 
Q 36.421875 10.15625 38.28125 14.015625 
Q 39.703125 17 39.703125 22.796875 
z
" id="ArialMT-97"/>
      <path d="M 6.640625 61.46875 
L 6.640625 71.578125 
L 15.4375 71.578125 
L 15.4375 61.46875 
z
M 6.640625 0 
L 6.640625 51.859375 
L 15.4375 51.859375 
L 15.4375 0 
z
" id="ArialMT-105"/>
      <path d="M 6.59375 0 
L 6.59375 51.859375 
L 14.5 51.859375 
L 14.5 44.484375 
Q 20.21875 53.03125 31 53.03125 
Q 35.6875 53.03125 39.625 51.34375 
Q 43.5625 49.65625 45.515625 46.921875 
Q 47.46875 44.1875 48.25 40.4375 
Q 48.734375 37.984375 48.734375 31.890625 
L 48.734375 0 
L 39.9375 0 
L 39.9375 31.546875 
Q 39.9375 36.921875 38.90625 39.578125 
Q 37.890625 42.234375 35.28125 43.8125 
Q 32.671875 45.40625 29.15625 45.40625 
Q 23.53125 45.40625 19.453125 41.84375 
Q 15.375 38.28125 15.375 28.328125 
L 15.375 0 
z
" id="ArialMT-110"/>
      <path d="M 4.984375 -4.296875 
L 13.53125 -5.5625 
Q 14.0625 -9.515625 16.5 -11.328125 
Q 19.78125 -13.765625 25.4375 -13.765625 
Q 31.546875 -13.765625 34.859375 -11.328125 
Q 38.1875 -8.890625 39.359375 -4.5 
Q 40.046875 -1.8125 39.984375 6.78125 
Q 34.234375 0 25.640625 0 
Q 14.9375 0 9.078125 7.71875 
Q 3.21875 15.4375 3.21875 26.21875 
Q 3.21875 33.640625 5.90625 39.90625 
Q 8.59375 46.1875 13.6875 49.609375 
Q 18.796875 53.03125 25.6875 53.03125 
Q 34.859375 53.03125 40.828125 45.609375 
L 40.828125 51.859375 
L 48.921875 51.859375 
L 48.921875 7.03125 
Q 48.921875 -5.078125 46.453125 -10.125 
Q 44 -15.1875 38.640625 -18.109375 
Q 33.296875 -21.046875 25.484375 -21.046875 
Q 16.21875 -21.046875 10.5 -16.875 
Q 4.78125 -12.703125 4.984375 -4.296875 
z
M 12.25 26.859375 
Q 12.25 16.65625 16.296875 11.96875 
Q 20.359375 7.28125 26.46875 7.28125 
Q 32.515625 7.28125 36.609375 11.9375 
Q 40.71875 16.609375 40.71875 26.5625 
Q 40.71875 36.078125 36.5 40.90625 
Q 32.28125 45.75 26.3125 45.75 
Q 20.453125 45.75 16.34375 40.984375 
Q 12.25 36.234375 12.25 26.859375 
z
" id="ArialMT-103"/>
      <path id="ArialMT-32"/>
      <path d="M 6.59375 -19.875 
L 6.59375 51.859375 
L 14.59375 51.859375 
L 14.59375 45.125 
Q 17.4375 49.078125 21 51.046875 
Q 24.5625 53.03125 29.640625 53.03125 
Q 36.28125 53.03125 41.359375 49.609375 
Q 46.4375 46.1875 49.015625 39.953125 
Q 51.609375 33.734375 51.609375 26.3125 
Q 51.609375 18.359375 48.75 11.984375 
Q 45.90625 5.609375 40.453125 2.21875 
Q 35.015625 -1.171875 29 -1.171875 
Q 24.609375 -1.171875 21.109375 0.6875 
Q 17.625 2.546875 15.375 5.375 
L 15.375 -19.875 
z
M 14.546875 25.640625 
Q 14.546875 15.625 18.59375 10.84375 
Q 22.65625 6.0625 28.421875 6.0625 
Q 34.28125 6.0625 38.453125 11.015625 
Q 42.625 15.96875 42.625 26.375 
Q 42.625 36.28125 38.546875 41.203125 
Q 34.46875 46.140625 28.8125 46.140625 
Q 23.1875 46.140625 18.859375 40.890625 
Q 14.546875 35.640625 14.546875 25.640625 
z
" id="ArialMT-112"/>
      <path d="M 3.328125 25.921875 
Q 3.328125 40.328125 11.328125 47.265625 
Q 18.015625 53.03125 27.640625 53.03125 
Q 38.328125 53.03125 45.109375 46.015625 
Q 51.90625 39.015625 51.90625 26.65625 
Q 51.90625 16.65625 48.90625 10.90625 
Q 45.90625 5.171875 40.15625 2 
Q 34.421875 -1.171875 27.640625 -1.171875 
Q 16.75 -1.171875 10.03125 5.8125 
Q 3.328125 12.796875 3.328125 25.921875 
z
M 12.359375 25.921875 
Q 12.359375 15.96875 16.703125 11.015625 
Q 21.046875 6.0625 27.640625 6.0625 
Q 34.1875 6.0625 38.53125 11.03125 
Q 42.875 16.015625 42.875 26.21875 
Q 42.875 35.84375 38.5 40.796875 
Q 34.125 45.75 27.640625 45.75 
Q 21.046875 45.75 16.703125 40.8125 
Q 12.359375 35.890625 12.359375 25.921875 
z
" id="ArialMT-111"/>
      <path d="M 42.09375 16.703125 
L 51.171875 15.578125 
Q 49.03125 7.625 43.21875 3.21875 
Q 37.40625 -1.171875 28.375 -1.171875 
Q 17 -1.171875 10.328125 5.828125 
Q 3.65625 12.84375 3.65625 25.484375 
Q 3.65625 38.578125 10.390625 45.796875 
Q 17.140625 53.03125 27.875 53.03125 
Q 38.28125 53.03125 44.875 45.953125 
Q 51.46875 38.875 51.46875 26.03125 
Q 51.46875 25.25 51.421875 23.6875 
L 12.75 23.6875 
Q 13.234375 15.140625 17.578125 10.59375 
Q 21.921875 6.0625 28.421875 6.0625 
Q 33.25 6.0625 36.671875 8.59375 
Q 40.09375 11.140625 42.09375 16.703125 
z
M 13.234375 30.90625 
L 42.1875 30.90625 
Q 41.609375 37.453125 38.875 40.71875 
Q 34.671875 45.796875 27.984375 45.796875 
Q 21.921875 45.796875 17.796875 41.75 
Q 13.671875 37.703125 13.234375 30.90625 
z
" id="ArialMT-101"/>
      <path d="M 3.078125 15.484375 
L 11.765625 16.84375 
Q 12.5 11.625 15.84375 8.84375 
Q 19.1875 6.0625 25.203125 6.0625 
Q 31.25 6.0625 34.171875 8.515625 
Q 37.109375 10.984375 37.109375 14.3125 
Q 37.109375 17.28125 34.515625 19 
Q 32.71875 20.171875 25.53125 21.96875 
Q 15.875 24.421875 12.140625 26.203125 
Q 8.40625 27.984375 6.46875 31.125 
Q 4.546875 34.28125 4.546875 38.09375 
Q 4.546875 41.546875 6.125 44.5 
Q 7.71875 47.46875 10.453125 49.421875 
Q 12.5 50.921875 16.03125 51.96875 
Q 19.578125 53.03125 23.640625 53.03125 
Q 29.734375 53.03125 34.34375 51.265625 
Q 38.96875 49.515625 41.15625 46.5 
Q 43.359375 43.5 44.1875 38.484375 
L 35.59375 37.3125 
Q 35.015625 41.3125 32.203125 43.546875 
Q 29.390625 45.796875 24.265625 45.796875 
Q 18.21875 45.796875 15.625 43.796875 
Q 13.03125 41.796875 13.03125 39.109375 
Q 13.03125 37.40625 14.109375 36.03125 
Q 15.1875 34.625 17.484375 33.6875 
Q 18.796875 33.203125 25.25 31.453125 
Q 34.578125 28.953125 38.25 27.359375 
Q 41.9375 25.78125 44.03125 22.75 
Q 46.140625 19.734375 46.140625 15.234375 
Q 46.140625 10.84375 43.578125 6.953125 
Q 41.015625 3.078125 36.171875 0.953125 
Q 31.34375 -1.171875 25.25 -1.171875 
Q 15.140625 -1.171875 9.84375 3.03125 
Q 4.546875 7.234375 3.078125 15.484375 
z
" id="ArialMT-115"/>
     </defs>
     <g style="fill:#262626;" transform="translate(174.719063 284.149219)scale(0.12 -0.12)">
      <use xlink:href="#ArialMT-84"/>
      <use x="61.037109" xlink:href="#ArialMT-114"/>
      <use x="94.337891" xlink:href="#ArialMT-97"/>
      <use x="149.953125" xlink:href="#ArialMT-105"/>
      <use x="172.169922" xlink:href="#ArialMT-110"/>
      <use x="227.785156" xlink:href="#ArialMT-105"/>
      <use x="250.001953" xlink:href="#ArialMT-110"/>
      <use x="305.617188" xlink:href="#ArialMT-103"/>
      <use x="361.232422" xlink:href="#ArialMT-32"/>
      <use x="389.015625" xlink:href="#ArialMT-112"/>
      <use x="444.630859" xlink:href="#ArialMT-114"/>
      <use x="477.931641" xlink:href="#ArialMT-111"/>
      <use x="533.546875" xlink:href="#ArialMT-103"/>
      <use x="589.162109" xlink:href="#ArialMT-114"/>
      <use x="622.462891" xlink:href="#ArialMT-101"/>
      <use x="678.078125" xlink:href="#ArialMT-115"/>
      <use x="728.078125" xlink:href="#ArialMT-115"/>
     </g>
    </g>
   </g>
   <g id="matplotlib.axis_2">
    <g id="ytick_1">
     <g id="line2d_7">
      <path clip-path="url(#pcf26baf657)" d="M 54 238.41 
L 388.8 238.41 
" style="fill:none;stroke:#ffffff;stroke-linecap:round;"/>
     </g>
     <g id="text_8">
      <!-- 0 -->
      <g style="fill:#262626;" transform="translate(38.382969 242.346797)scale(0.11 -0.11)">
       <use xlink:href="#ArialMT-48"/>
      </g>
     </g>
    </g>
    <g id="ytick_2">
     <g id="line2d_8">
      <path clip-path="url(#pcf26baf657)" d="M 54 193.11 
L 388.8 193.11 
" style="fill:none;stroke:#ffffff;stroke-linecap:round;"/>
     </g>
     <g id="text_9">
      <!-- 1 -->
      <g style="fill:#262626;" transform="translate(38.382969 197.046797)scale(0.11 -0.11)">
       <use xlink:href="#ArialMT-49"/>
      </g>
     </g>
    </g>
    <g id="ytick_3">
     <g id="line2d_9">
      <path clip-path="url(#pcf26baf657)" d="M 54 147.81 
L 388.8 147.81 
" style="fill:none;stroke:#ffffff;stroke-linecap:round;"/>
     </g>
     <g id="text_10">
      <!-- 2 -->
      <g style="fill:#262626;" transform="translate(38.382969 151.746797)scale(0.11 -0.11)">
       <use xlink:href="#ArialMT-50"/>
      </g>
     </g>
    </g>
    <g id="ytick_4">
     <g id="line2d_10">
      <path clip-path="url(#pcf26baf657)" d="M 54 102.51 
L 388.8 102.51 
" style="fill:none;stroke:#ffffff;stroke-linecap:round;"/>
     </g>
     <g id="text_11">
      <!-- 3 -->
      <defs>
       <path d="M 4.203125 18.890625 
L 12.984375 20.0625 
Q 14.5 12.59375 18.140625 9.296875 
Q 21.78125 6 27 6 
Q 33.203125 6 37.46875 10.296875 
Q 41.75 14.59375 41.75 20.953125 
Q 41.75 27 37.796875 30.921875 
Q 33.84375 34.859375 27.734375 34.859375 
Q 25.25 34.859375 21.53125 33.890625 
L 22.515625 41.609375 
Q 23.390625 41.5 23.921875 41.5 
Q 29.546875 41.5 34.03125 44.421875 
Q 38.53125 47.359375 38.53125 53.46875 
Q 38.53125 58.296875 35.25 61.46875 
Q 31.984375 64.65625 26.8125 64.65625 
Q 21.6875 64.65625 18.265625 61.421875 
Q 14.84375 58.203125 13.875 51.765625 
L 5.078125 53.328125 
Q 6.6875 62.15625 12.390625 67.015625 
Q 18.109375 71.875 26.609375 71.875 
Q 32.46875 71.875 37.390625 69.359375 
Q 42.328125 66.84375 44.9375 62.5 
Q 47.5625 58.15625 47.5625 53.265625 
Q 47.5625 48.640625 45.0625 44.828125 
Q 42.578125 41.015625 37.703125 38.765625 
Q 44.046875 37.3125 47.5625 32.6875 
Q 51.078125 28.078125 51.078125 21.140625 
Q 51.078125 11.765625 44.234375 5.25 
Q 37.40625 -1.265625 26.953125 -1.265625 
Q 17.53125 -1.265625 11.296875 4.34375 
Q 5.078125 9.96875 4.203125 18.890625 
z
" id="ArialMT-51"/>
      </defs>
      <g style="fill:#262626;" transform="translate(38.382969 106.446797)scale(0.11 -0.11)">
       <use xlink:href="#ArialMT-51"/>
      </g>
     </g>
    </g>
    <g id="ytick_5">
     <g id="line2d_11">
      <path clip-path="url(#pcf26baf657)" d="M 54 57.21 
L 388.8 57.21 
" style="fill:none;stroke:#ffffff;stroke-linecap:round;"/>
     </g>
     <g id="text_12">
      <!-- 4 -->
      <g style="fill:#262626;" transform="translate(38.382969 61.146797)scale(0.11 -0.11)">
       <use xlink:href="#ArialMT-52"/>
      </g>
     </g>
    </g>
    <g id="text_13">
     <!-- Action 2 (Avg. over 25 episodes) -->
     <defs>
      <path d="M -0.140625 0 
L 27.34375 71.578125 
L 37.546875 71.578125 
L 66.84375 0 
L 56.0625 0 
L 47.703125 21.6875 
L 17.78125 21.6875 
L 9.90625 0 
z
M 20.515625 29.390625 
L 44.78125 29.390625 
L 37.3125 49.21875 
Q 33.890625 58.25 32.234375 64.0625 
Q 30.859375 57.171875 28.375 50.390625 
z
" id="ArialMT-65"/>
      <path d="M 40.4375 19 
L 49.078125 17.875 
Q 47.65625 8.9375 41.8125 3.875 
Q 35.984375 -1.171875 27.484375 -1.171875 
Q 16.84375 -1.171875 10.375 5.78125 
Q 3.90625 12.75 3.90625 25.734375 
Q 3.90625 34.125 6.6875 40.421875 
Q 9.46875 46.734375 15.15625 49.875 
Q 20.84375 53.03125 27.546875 53.03125 
Q 35.984375 53.03125 41.359375 48.75 
Q 46.734375 44.484375 48.25 36.625 
L 39.703125 35.296875 
Q 38.484375 40.53125 35.375 43.15625 
Q 32.28125 45.796875 27.875 45.796875 
Q 21.234375 45.796875 17.078125 41.03125 
Q 12.9375 36.28125 12.9375 25.984375 
Q 12.9375 15.53125 16.9375 10.796875 
Q 20.953125 6.0625 27.390625 6.0625 
Q 32.5625 6.0625 36.03125 9.234375 
Q 39.5 12.40625 40.4375 19 
z
" id="ArialMT-99"/>
      <path d="M 25.78125 7.859375 
L 27.046875 0.09375 
Q 23.34375 -0.6875 20.40625 -0.6875 
Q 15.625 -0.6875 12.984375 0.828125 
Q 10.359375 2.34375 9.28125 4.8125 
Q 8.203125 7.28125 8.203125 15.1875 
L 8.203125 45.015625 
L 1.765625 45.015625 
L 1.765625 51.859375 
L 8.203125 51.859375 
L 8.203125 64.703125 
L 16.9375 69.96875 
L 16.9375 51.859375 
L 25.78125 51.859375 
L 25.78125 45.015625 
L 16.9375 45.015625 
L 16.9375 14.703125 
Q 16.9375 10.9375 17.40625 9.859375 
Q 17.875 8.796875 18.921875 8.15625 
Q 19.96875 7.515625 21.921875 7.515625 
Q 23.390625 7.515625 25.78125 7.859375 
z
" id="ArialMT-116"/>
      <path d="M 23.390625 -21.046875 
Q 16.109375 -11.859375 11.078125 0.4375 
Q 6.0625 12.75 6.0625 25.921875 
Q 6.0625 37.546875 9.8125 48.1875 
Q 14.203125 60.546875 23.390625 72.796875 
L 29.6875 72.796875 
Q 23.78125 62.640625 21.875 58.296875 
Q 18.890625 51.5625 17.1875 44.234375 
Q 15.09375 35.109375 15.09375 25.875 
Q 15.09375 2.390625 29.6875 -21.046875 
z
" id="ArialMT-40"/>
      <path d="M 21 0 
L 1.265625 51.859375 
L 10.546875 51.859375 
L 21.6875 20.796875 
Q 23.484375 15.765625 25 10.359375 
Q 26.171875 14.453125 28.265625 20.21875 
L 39.796875 51.859375 
L 48.828125 51.859375 
L 29.203125 0 
z
" id="ArialMT-118"/>
      <path d="M 4.15625 18.75 
L 13.375 19.53125 
Q 14.40625 12.796875 18.140625 9.390625 
Q 21.875 6 27.15625 6 
Q 33.5 6 37.890625 10.78125 
Q 42.28125 15.578125 42.28125 23.484375 
Q 42.28125 31 38.0625 35.34375 
Q 33.84375 39.703125 27 39.703125 
Q 22.75 39.703125 19.328125 37.765625 
Q 15.921875 35.84375 13.96875 32.765625 
L 5.71875 33.84375 
L 12.640625 70.609375 
L 48.25 70.609375 
L 48.25 62.203125 
L 19.671875 62.203125 
L 15.828125 42.96875 
Q 22.265625 47.46875 29.34375 47.46875 
Q 38.71875 47.46875 45.15625 40.96875 
Q 51.609375 34.46875 51.609375 24.265625 
Q 51.609375 14.546875 45.953125 7.46875 
Q 39.0625 -1.21875 27.15625 -1.21875 
Q 17.390625 -1.21875 11.203125 4.25 
Q 5.03125 9.71875 4.15625 18.75 
z
" id="ArialMT-53"/>
      <path d="M 40.234375 0 
L 40.234375 6.546875 
Q 35.296875 -1.171875 25.734375 -1.171875 
Q 19.53125 -1.171875 14.328125 2.25 
Q 9.125 5.671875 6.265625 11.796875 
Q 3.421875 17.921875 3.421875 25.875 
Q 3.421875 33.640625 6 39.96875 
Q 8.59375 46.296875 13.765625 49.65625 
Q 18.953125 53.03125 25.34375 53.03125 
Q 30.03125 53.03125 33.6875 51.046875 
Q 37.359375 49.078125 39.65625 45.90625 
L 39.65625 71.578125 
L 48.390625 71.578125 
L 48.390625 0 
z
M 12.453125 25.875 
Q 12.453125 15.921875 16.640625 10.984375 
Q 20.84375 6.0625 26.5625 6.0625 
Q 32.328125 6.0625 36.34375 10.765625 
Q 40.375 15.484375 40.375 25.140625 
Q 40.375 35.796875 36.265625 40.765625 
Q 32.171875 45.75 26.171875 45.75 
Q 20.3125 45.75 16.375 40.96875 
Q 12.453125 36.1875 12.453125 25.875 
z
" id="ArialMT-100"/>
      <path d="M 12.359375 -21.046875 
L 6.0625 -21.046875 
Q 20.65625 2.390625 20.65625 25.875 
Q 20.65625 35.0625 18.5625 44.09375 
Q 16.890625 51.421875 13.921875 58.15625 
Q 12.015625 62.546875 6.0625 72.796875 
L 12.359375 72.796875 
Q 21.53125 60.546875 25.921875 48.1875 
Q 29.6875 37.546875 29.6875 25.921875 
Q 29.6875 12.75 24.625 0.4375 
Q 19.578125 -11.859375 12.359375 -21.046875 
z
" id="ArialMT-41"/>
     </defs>
     <g style="fill:#262626;" transform="translate(31.857344 229.986562)rotate(-90)scale(0.12 -0.12)">
      <use xlink:href="#ArialMT-65"/>
      <use x="66.699219" xlink:href="#ArialMT-99"/>
      <use x="116.699219" xlink:href="#ArialMT-116"/>
      <use x="144.482422" xlink:href="#ArialMT-105"/>
      <use x="166.699219" xlink:href="#ArialMT-111"/>
      <use x="222.314453" xlink:href="#ArialMT-110"/>
      <use x="277.929688" xlink:href="#ArialMT-32"/>
      <use x="305.712891" xlink:href="#ArialMT-50"/>
      <use x="361.328125" xlink:href="#ArialMT-32"/>
      <use x="389.111328" xlink:href="#ArialMT-40"/>
      <use x="422.412109" xlink:href="#ArialMT-65"/>
      <use x="489.095703" xlink:href="#ArialMT-118"/>
      <use x="539.095703" xlink:href="#ArialMT-103"/>
      <use x="594.710938" xlink:href="#ArialMT-46"/>
      <use x="622.494141" xlink:href="#ArialMT-32"/>
      <use x="650.277344" xlink:href="#ArialMT-111"/>
      <use x="705.892578" xlink:href="#ArialMT-118"/>
      <use x="755.892578" xlink:href="#ArialMT-101"/>
      <use x="811.507812" xlink:href="#ArialMT-114"/>
      <use x="844.808594" xlink:href="#ArialMT-32"/>
      <use x="872.591797" xlink:href="#ArialMT-50"/>
      <use x="928.207031" xlink:href="#ArialMT-53"/>
      <use x="983.822266" xlink:href="#ArialMT-32"/>
      <use x="1011.605469" xlink:href="#ArialMT-101"/>
      <use x="1067.220703" xlink:href="#ArialMT-112"/>
      <use x="1122.835938" xlink:href="#ArialMT-105"/>
      <use x="1145.052734" xlink:href="#ArialMT-115"/>
      <use x="1195.052734" xlink:href="#ArialMT-111"/>
      <use x="1250.667969" xlink:href="#ArialMT-100"/>
      <use x="1306.283203" xlink:href="#ArialMT-101"/>
      <use x="1361.898438" xlink:href="#ArialMT-115"/>
      <use x="1411.898438" xlink:href="#ArialMT-41"/>
     </g>
    </g>
   </g>
   <g id="line2d_12">
    <path clip-path="url(#pcf26baf657)" d="M 71.925642 151.434 
L 72.038453 153.246 
L 72.151264 153.246 
L 72.264074 155.058 
L 72.376885 149.622 
L 72.489696 153.246 
L 72.602507 147.81 
L 72.715318 153.246 
L 72.828129 151.434 
L 72.940939 156.87 
L 73.05375 155.058 
L 73.166561 149.622 
L 73.279372 149.622 
L 73.392183 147.81 
L 73.504994 153.246 
L 73.617804 153.246 
L 73.730615 151.434 
L 73.843426 147.81 
L 74.069048 138.75 
L 74.181859 135.126 
L 74.294669 138.75 
L 74.40748 138.75 
L 74.520291 140.562 
L 74.745913 145.998 
L 74.971534 133.314 
L 75.084345 131.502 
L 75.197156 136.938 
L 75.309967 129.69 
L 75.422778 133.314 
L 75.535589 127.878 
L 75.648399 129.69 
L 75.874021 120.63 
L 75.986832 122.442 
L 76.099643 127.878 
L 76.212454 127.878 
L 76.325265 124.254 
L 76.550886 131.502 
L 76.663697 133.314 
L 76.776508 133.314 
L 77.00213 142.374 
L 77.11494 136.938 
L 77.227751 138.75 
L 77.340562 133.314 
L 77.566184 133.314 
L 77.791805 140.562 
L 77.904616 142.374 
L 78.017427 135.126 
L 78.130238 138.75 
L 78.243049 136.938 
L 78.46867 145.998 
L 78.581481 151.434 
L 78.694292 149.622 
L 78.807103 153.246 
L 78.919914 149.622 
L 79.145535 155.058 
L 79.371157 142.374 
L 79.483968 140.562 
L 79.70959 140.562 
L 79.8224 138.75 
L 79.935211 145.998 
L 80.048022 144.186 
L 80.160833 147.81 
L 80.273644 145.998 
L 80.386455 149.622 
L 80.612076 142.374 
L 80.724887 142.374 
L 80.837698 147.81 
L 80.950509 144.186 
L 81.06332 144.186 
L 81.17613 142.374 
L 81.401752 129.69 
L 81.627374 138.75 
L 81.740185 138.75 
L 81.852995 133.314 
L 81.965806 133.314 
L 82.078617 138.75 
L 82.304239 138.75 
L 82.41705 140.562 
L 82.529861 138.75 
L 82.642671 133.314 
L 82.755482 133.314 
L 82.981104 140.562 
L 83.206726 129.69 
L 83.319536 131.502 
L 83.432347 136.938 
L 83.545158 136.938 
L 83.657969 131.502 
L 83.77078 131.502 
L 83.996401 135.126 
L 84.222023 144.186 
L 84.334834 142.374 
L 84.447645 138.75 
L 84.673266 147.81 
L 84.786077 145.998 
L 84.898888 145.998 
L 85.237321 158.682 
L 85.350131 155.058 
L 85.462942 160.494 
L 85.801375 145.998 
L 86.026996 153.246 
L 86.139807 151.434 
L 86.252618 147.81 
L 86.365429 149.622 
L 86.47824 149.622 
L 86.816672 162.306 
L 86.929483 162.306 
L 87.042294 164.118 
L 87.155105 158.682 
L 87.380726 162.306 
L 87.493537 160.494 
L 87.606348 162.306 
L 87.719159 162.306 
L 87.83197 164.118 
L 88.057591 155.058 
L 88.170402 160.494 
L 88.283213 155.058 
L 88.396024 160.494 
L 88.508835 160.494 
L 88.847267 169.554 
L 88.960078 169.554 
L 89.072889 171.366 
L 89.1857 164.118 
L 89.298511 167.742 
L 89.411322 167.742 
L 89.862565 155.058 
L 89.975376 155.058 
L 90.088187 156.87 
L 90.313808 145.998 
L 90.53943 145.998 
L 90.652241 140.562 
L 90.765052 145.998 
L 90.990673 138.75 
L 91.216295 138.75 
L 91.329106 136.938 
L 91.441917 136.938 
L 91.667538 133.314 
L 91.780349 133.314 
L 91.89316 129.69 
L 92.005971 135.126 
L 92.118782 135.126 
L 92.344403 127.878 
L 92.570025 124.254 
L 92.795647 124.254 
L 92.908457 117.006 
L 93.134079 126.066 
L 93.359701 122.442 
L 93.472512 122.442 
L 93.585322 118.818 
L 93.810944 127.878 
L 93.923755 129.69 
L 94.036566 129.69 
L 94.149377 131.502 
L 94.262187 129.69 
L 94.374998 129.69 
L 94.487809 131.502 
L 94.713431 140.562 
L 94.939052 135.126 
L 95.164674 135.126 
L 95.277485 136.938 
L 95.503107 144.186 
L 95.615918 151.434 
L 95.841539 151.434 
L 95.95435 155.058 
L 96.067161 155.058 
L 96.179972 151.434 
L 96.405593 151.434 
L 96.631215 145.998 
L 96.744026 145.998 
L 96.856837 142.374 
L 96.969648 144.186 
L 97.082458 144.186 
L 97.195269 145.998 
L 97.30808 145.998 
L 97.533702 136.938 
L 97.759323 145.998 
L 97.872134 151.434 
L 97.984945 151.434 
L 98.097756 153.246 
L 98.210567 149.622 
L 98.323378 149.622 
L 98.436188 145.998 
L 98.548999 153.246 
L 98.66181 153.246 
L 98.774621 149.622 
L 99.113053 162.306 
L 99.338675 169.554 
L 99.451486 167.742 
L 99.564297 167.742 
L 99.902729 176.802 
L 100.01554 173.178 
L 100.128351 165.93 
L 100.353973 173.178 
L 100.466783 174.99 
L 100.579594 173.178 
L 100.692405 169.554 
L 100.805216 171.366 
L 100.918027 165.93 
L 101.030838 167.742 
L 101.143648 165.93 
L 101.256459 167.742 
L 101.36927 167.742 
L 101.707703 151.434 
L 101.820514 156.87 
L 101.933324 156.87 
L 102.046135 153.246 
L 102.158946 155.058 
L 102.723 136.938 
L 102.835811 136.938 
L 102.948622 138.75 
L 103.399865 122.442 
L 103.512676 126.066 
L 103.738298 120.63 
L 103.851109 118.818 
L 103.963919 120.63 
L 104.07673 115.194 
L 104.189541 115.194 
L 104.302352 117.006 
L 104.415163 120.63 
L 104.527974 127.878 
L 104.640784 127.878 
L 104.753595 122.442 
L 104.866406 124.254 
L 104.979217 118.818 
L 105.204839 126.066 
L 105.317649 126.066 
L 105.43046 120.63 
L 105.656082 129.69 
L 105.881704 126.066 
L 106.220136 140.562 
L 106.332947 140.562 
L 106.558569 144.186 
L 106.671379 149.622 
L 106.78419 147.81 
L 106.897001 149.622 
L 107.122623 145.998 
L 107.235434 147.81 
L 107.461055 136.938 
L 107.573866 136.938 
L 108.02511 124.254 
L 108.13792 127.878 
L 108.250731 127.878 
L 108.476353 120.63 
L 108.701975 120.63 
L 108.814785 115.194 
L 108.927596 117.006 
L 109.040407 109.758 
L 109.153218 109.758 
L 109.37884 106.134 
L 109.49165 106.134 
L 109.830083 95.262 
L 109.942894 98.886 
L 110.055705 95.262 
L 110.281326 104.322 
L 110.394137 102.51 
L 110.506948 104.322 
L 110.73257 113.382 
L 111.183813 120.63 
L 111.296624 126.066 
L 111.409435 126.066 
L 111.635056 133.314 
L 111.747867 133.314 
L 111.860678 140.562 
L 111.973489 138.75 
L 112.0863 144.186 
L 112.19911 144.186 
L 112.424732 138.75 
L 112.650354 142.374 
L 112.763165 140.562 
L 112.875975 140.562 
L 113.101597 131.502 
L 113.327219 140.562 
L 113.44003 135.126 
L 113.665651 135.126 
L 113.778462 131.502 
L 113.891273 135.126 
L 114.004084 135.126 
L 114.116895 133.314 
L 114.229706 133.314 
L 114.342516 135.126 
L 114.568138 131.502 
L 114.906571 120.63 
L 115.019381 120.63 
L 115.357814 126.066 
L 115.470625 126.066 
L 115.583436 124.254 
L 115.809057 135.126 
L 115.921868 133.314 
L 116.260301 122.442 
L 116.373111 126.066 
L 116.598733 126.066 
L 116.711544 122.442 
L 116.824355 124.254 
L 116.937166 118.818 
L 117.049976 118.818 
L 117.162787 113.382 
L 117.275598 120.63 
L 117.50122 115.194 
L 117.726841 124.254 
L 117.839652 124.254 
L 117.952463 126.066 
L 118.065274 131.502 
L 118.178085 129.69 
L 118.290896 129.69 
L 118.403706 133.314 
L 118.629328 118.818 
L 118.85495 118.818 
L 118.967761 117.006 
L 119.080571 117.006 
L 119.193382 113.382 
L 119.306193 115.194 
L 119.419004 120.63 
L 119.531815 118.818 
L 119.644626 111.57 
L 119.757436 115.194 
L 119.870247 115.194 
L 119.983058 113.382 
L 120.095869 109.758 
L 120.321491 113.382 
L 120.434302 106.134 
L 120.547112 106.134 
L 120.659923 113.382 
L 120.772734 109.758 
L 120.885545 109.758 
L 121.111167 113.382 
L 121.449599 124.254 
L 121.56241 131.502 
L 121.675221 131.502 
L 121.788032 133.314 
L 122.013653 140.562 
L 122.126464 136.938 
L 122.239275 129.69 
L 122.352086 131.502 
L 122.577707 138.75 
L 122.803329 149.622 
L 122.91614 153.246 
L 123.028951 153.246 
L 123.141762 156.87 
L 123.254572 164.118 
L 123.480194 156.87 
L 123.593005 156.87 
L 123.705816 151.434 
L 123.818627 155.058 
L 124.044248 145.998 
L 124.26987 153.246 
L 124.382681 153.246 
L 124.495492 160.494 
L 124.608302 160.494 
L 124.721113 164.118 
L 124.833924 164.118 
L 124.946735 171.366 
L 125.059546 171.366 
L 125.285167 176.802 
L 125.510789 173.178 
L 125.736411 173.178 
L 125.849222 176.802 
L 125.962032 169.554 
L 126.074843 169.554 
L 126.300465 178.614 
L 126.413276 180.426 
L 126.526087 178.614 
L 126.638897 174.99 
L 126.751708 180.426 
L 126.97733 176.802 
L 127.202952 176.802 
L 127.315763 169.554 
L 127.428573 174.99 
L 127.541384 174.99 
L 127.654195 176.802 
L 127.767006 174.99 
L 127.992628 184.05 
L 128.218249 178.614 
L 128.443871 182.238 
L 128.669493 174.99 
L 128.782303 176.802 
L 129.233547 158.682 
L 129.346358 158.682 
L 129.459168 162.306 
L 129.571979 158.682 
L 129.68479 164.118 
L 129.910412 158.682 
L 130.023223 156.87 
L 130.136033 164.118 
L 130.361655 160.494 
L 130.474466 160.494 
L 130.587277 162.306 
L 130.925709 149.622 
L 131.151331 140.562 
L 131.264142 142.374 
L 131.376953 140.562 
L 131.489763 140.562 
L 131.602574 138.75 
L 131.715385 138.75 
L 131.828196 136.938 
L 132.053818 136.938 
L 132.166628 140.562 
L 132.279439 136.938 
L 132.39225 136.938 
L 132.505061 131.502 
L 132.730683 131.502 
L 132.956304 126.066 
L 133.069115 124.254 
L 133.181926 126.066 
L 133.407548 118.818 
L 133.633169 122.442 
L 133.971602 142.374 
L 134.084413 140.562 
L 134.310034 144.186 
L 134.648467 153.246 
L 134.761278 155.058 
L 134.874089 160.494 
L 135.09971 160.494 
L 135.212521 165.93 
L 135.325332 165.93 
L 135.550954 171.366 
L 135.776575 174.99 
L 135.889386 178.614 
L 136.115008 169.554 
L 136.45344 164.118 
L 136.904684 145.998 
L 137.130305 142.374 
L 137.243116 138.75 
L 137.355927 140.562 
L 137.581549 136.938 
L 137.694359 136.938 
L 138.032792 126.066 
L 138.145603 127.878 
L 138.258414 124.254 
L 138.484035 115.194 
L 138.822468 102.51 
L 138.935279 100.698 
L 139.1609 109.758 
L 139.386522 106.134 
L 139.499333 106.134 
L 139.612144 111.57 
L 139.837765 106.134 
L 139.950576 109.758 
L 140.063387 117.006 
L 140.289009 117.006 
L 140.40182 120.63 
L 140.51463 115.194 
L 140.627441 115.194 
L 140.853063 126.066 
L 141.078685 126.066 
L 141.304306 129.69 
L 141.529928 138.75 
L 141.642739 145.998 
L 141.75555 145.998 
L 141.981171 142.374 
L 142.206793 153.246 
L 142.319604 151.434 
L 142.432415 144.186 
L 142.658036 149.622 
L 142.883658 136.938 
L 142.996469 138.75 
L 143.10928 144.186 
L 143.22209 138.75 
L 143.334901 138.75 
L 143.447712 144.186 
L 143.673334 136.938 
L 143.786145 138.75 
L 144.011766 135.126 
L 144.237388 127.878 
L 144.350199 129.69 
L 144.46301 124.254 
L 144.57582 129.69 
L 144.688631 126.066 
L 144.801442 127.878 
L 145.027064 117.006 
L 145.139875 124.254 
L 145.252685 124.254 
L 145.478307 118.818 
L 145.703929 122.442 
L 145.81674 117.006 
L 145.929551 117.006 
L 146.267983 122.442 
L 146.493605 117.006 
L 146.606416 115.194 
L 146.832037 124.254 
L 146.944848 126.066 
L 147.057659 126.066 
L 147.17047 120.63 
L 147.283281 120.63 
L 147.396091 117.006 
L 147.508902 118.818 
L 147.621713 118.818 
L 147.847335 122.442 
L 147.960146 117.006 
L 148.298578 122.442 
L 148.637011 136.938 
L 148.862632 133.314 
L 148.975443 136.938 
L 149.088254 133.314 
L 149.313876 138.75 
L 149.426686 140.562 
L 149.539497 136.938 
L 150.103551 145.998 
L 150.216362 145.998 
L 150.329173 144.186 
L 150.441984 136.938 
L 150.554795 142.374 
L 150.667606 140.562 
L 150.780416 140.562 
L 151.006038 147.81 
L 151.118849 147.81 
L 151.23166 145.998 
L 151.344471 145.998 
L 151.457281 142.374 
L 151.570092 144.186 
L 151.682903 144.186 
L 151.795714 142.374 
L 152.021336 145.998 
L 152.134147 144.186 
L 152.246957 145.998 
L 152.472579 145.998 
L 152.698201 140.562 
L 152.811012 138.75 
L 152.923822 138.75 
L 153.149444 147.81 
L 153.262255 149.622 
L 153.375066 142.374 
L 153.487877 144.186 
L 153.600687 144.186 
L 153.93912 135.126 
L 154.051931 135.126 
L 154.390363 122.442 
L 154.503174 124.254 
L 154.728796 129.69 
L 154.841607 126.066 
L 154.954417 129.69 
L 155.067228 129.69 
L 155.180039 127.878 
L 155.29285 131.502 
L 155.405661 138.75 
L 155.518472 138.75 
L 155.744093 144.186 
L 155.969715 133.314 
L 156.195337 133.314 
L 156.308147 135.126 
L 156.420958 140.562 
L 156.64658 136.938 
L 156.759391 140.562 
L 156.985012 136.938 
L 157.323445 149.622 
L 157.549067 138.75 
L 157.661877 140.562 
L 157.774688 140.562 
L 157.887499 142.374 
L 158.00031 140.562 
L 158.225932 133.314 
L 158.338743 138.75 
L 158.564364 135.126 
L 159.015608 149.622 
L 159.128418 147.81 
L 159.241229 142.374 
L 159.35404 142.374 
L 159.466851 145.998 
L 159.579662 145.998 
L 159.692473 144.186 
L 159.918094 153.246 
L 160.143716 156.87 
L 160.256527 162.306 
L 160.369338 162.306 
L 160.594959 167.742 
L 160.70777 167.742 
L 160.933392 176.802 
L 161.046203 180.426 
L 161.159013 176.802 
L 161.384635 182.238 
L 161.723068 176.802 
L 161.948689 180.426 
L 162.0615 178.614 
L 162.174311 182.238 
L 162.287122 182.238 
L 162.399933 180.426 
L 162.512743 180.426 
L 162.625554 178.614 
L 162.851176 171.366 
L 163.189608 155.058 
L 163.302419 153.246 
L 163.41523 145.998 
L 163.528041 145.998 
L 163.866473 133.314 
L 163.979284 135.126 
L 164.092095 133.314 
L 164.204906 135.126 
L 164.543338 147.81 
L 164.76896 155.058 
L 164.994582 165.93 
L 165.107393 164.118 
L 165.220204 164.118 
L 165.333014 169.554 
L 165.558636 162.306 
L 165.671447 160.494 
L 165.897069 167.742 
L 166.009879 169.554 
L 166.12269 165.93 
L 166.235501 165.93 
L 166.461123 162.306 
L 166.573934 162.306 
L 166.686744 156.87 
L 166.799555 156.87 
L 166.912366 158.682 
L 167.025177 158.682 
L 167.137988 156.87 
L 167.47642 136.938 
L 167.814853 115.194 
L 167.927664 118.818 
L 168.040474 117.006 
L 168.153285 109.758 
L 168.266096 109.758 
L 168.83015 133.314 
L 168.942961 135.126 
L 169.281394 151.434 
L 169.507015 164.118 
L 169.845448 149.622 
L 170.635124 149.622 
L 170.747934 147.81 
L 170.860745 149.622 
L 170.973556 149.622 
L 171.086367 155.058 
L 171.650421 118.818 
L 171.763232 122.442 
L 172.101665 100.698 
L 172.214475 102.51 
L 172.327286 95.262 
L 172.552908 95.262 
L 172.665719 98.886 
L 172.77853 98.886 
L 172.89134 97.074 
L 173.004151 97.074 
L 173.455395 118.818 
L 173.568205 118.818 
L 173.681016 120.63 
L 173.793827 124.254 
L 173.906638 122.442 
L 174.019449 126.066 
L 174.470692 153.246 
L 174.696314 153.246 
L 174.921935 164.118 
L 175.034746 162.306 
L 175.260368 173.178 
L 175.373179 173.178 
L 175.48599 169.554 
L 175.5988 169.554 
L 175.824422 180.426 
L 176.050044 176.802 
L 176.501287 158.682 
L 177.403774 127.878 
L 177.629396 133.314 
L 177.855017 126.066 
L 178.080639 122.442 
L 178.19345 118.818 
L 178.306261 122.442 
L 178.531882 118.818 
L 178.644693 115.194 
L 178.870315 115.194 
L 179.095936 122.442 
L 179.208747 122.442 
L 179.434369 133.314 
L 179.885612 145.998 
L 180.111234 149.622 
L 180.336856 149.622 
L 180.449666 145.998 
L 180.675288 156.87 
L 180.788099 156.87 
L 181.352153 140.562 
L 181.464964 138.75 
L 181.916207 124.254 
L 182.029018 124.254 
L 182.141829 117.006 
L 182.25464 118.818 
L 182.593072 113.382 
L 182.705883 115.194 
L 183.044316 106.134 
L 183.269937 102.51 
L 183.495559 89.826 
L 183.60837 91.638 
L 184.510857 91.638 
L 184.736478 95.262 
L 184.9621 102.51 
L 185.074911 102.51 
L 185.413343 107.946 
L 185.526154 104.322 
L 185.751776 107.946 
L 185.977397 107.946 
L 186.090208 109.758 
L 186.203019 107.946 
L 186.31583 109.758 
L 186.428641 109.758 
L 186.541452 111.57 
L 187.218317 131.502 
L 187.331127 133.314 
L 187.66956 133.314 
L 187.782371 131.502 
L 187.895182 127.878 
L 188.007992 131.502 
L 188.346425 126.066 
L 188.459236 127.878 
L 188.572047 131.502 
L 188.684857 131.502 
L 188.797668 136.938 
L 188.910479 136.938 
L 189.02329 142.374 
L 189.136101 140.562 
L 189.248912 136.938 
L 189.474533 142.374 
L 189.587344 140.562 
L 189.812966 135.126 
L 189.925777 133.314 
L 190.264209 147.81 
L 190.37702 145.998 
L 190.489831 147.81 
L 190.715453 156.87 
L 190.828263 155.058 
L 190.941074 158.682 
L 191.053885 156.87 
L 191.166696 158.682 
L 191.617939 140.562 
L 191.73075 140.562 
L 191.843561 135.126 
L 191.956372 135.126 
L 192.069183 133.314 
L 192.407615 120.63 
L 192.633237 117.006 
L 192.746048 117.006 
L 193.08448 100.698 
L 193.197291 107.946 
L 193.310102 106.134 
L 193.422913 107.946 
L 193.535723 107.946 
L 193.761345 111.57 
L 194.325399 144.186 
L 194.43821 147.81 
L 194.551021 147.81 
L 195.679129 165.93 
L 195.79194 171.366 
L 195.904751 169.554 
L 196.130373 162.306 
L 196.581616 155.058 
L 196.694427 155.058 
L 197.258481 145.998 
L 197.371292 147.81 
L 197.709724 158.682 
L 197.822535 158.682 
L 198.4994 180.426 
L 198.725022 180.426 
L 198.950644 187.674 
L 199.063454 184.05 
L 199.289076 184.05 
L 199.401887 178.614 
L 199.514698 178.614 
L 199.740319 171.366 
L 200.078752 176.802 
L 200.529995 155.058 
L 200.642806 158.682 
L 201.20686 133.314 
L 201.319671 131.502 
L 201.432482 127.878 
L 201.545293 127.878 
L 201.770914 120.63 
L 201.883725 120.63 
L 202.109347 113.382 
L 202.222158 113.382 
L 202.334969 107.946 
L 202.447779 109.758 
L 202.56059 107.946 
L 202.899023 91.638 
L 203.237455 97.074 
L 203.350266 100.698 
L 203.463077 98.886 
L 204.139942 118.818 
L 204.478375 124.254 
L 206.396159 213.042 
L 206.847402 227.538 
L 206.960213 227.538 
L 207.298645 238.41 
L 208.539565 238.41 
L 208.652375 231.162 
L 209.667673 231.162 
L 211.021403 187.674 
L 211.359836 165.93 
L 211.472646 165.93 
L 212.487944 104.322 
L 213.616052 68.082 
L 213.728863 68.082 
L 213.841674 64.458 
L 214.405728 64.458 
L 214.518539 68.082 
L 215.195404 68.082 
L 215.308215 64.458 
L 217.225999 64.458 
L 217.33881 60.834 
L 217.677242 60.834 
L 219.256594 109.758 
L 219.369405 109.758 
L 220.497513 145.998 
L 220.610324 145.998 
L 220.723135 147.81 
L 220.835946 147.81 
L 221.287189 155.058 
L 223.769028 73.518 
L 224.10746 57.21 
L 225.46119 57.21 
L 228.281461 102.51 
L 232.681084 102.51 
L 235.501355 238.41 
L 261.673469 238.41 
L 264.493739 57.21 
L 267.539632 57.21 
L 270.359903 193.11 
L 373.469007 193.11 
L 373.469007 193.11 
" style="fill:none;stroke:#4c72b0;stroke-linecap:round;stroke-width:1.5;"/>
   </g>
   <g id="line2d_13">
    <path clip-path="url(#pcf26baf657)" d="M 74.617093 178.614 
L 74.842048 173.178 
L 75.291957 182.238 
L 75.516912 178.614 
L 75.741867 171.366 
L 76.191776 174.99 
L 76.41673 167.742 
L 76.641685 173.178 
L 76.86664 165.93 
L 77.091594 164.118 
L 77.316549 160.494 
L 77.541504 162.306 
L 77.766458 156.87 
L 78.216368 156.87 
L 78.441322 151.434 
L 78.666277 149.622 
L 78.891232 142.374 
L 79.116186 138.75 
L 79.341141 140.562 
L 79.566096 135.126 
L 79.79105 138.75 
L 80.016005 135.126 
L 80.240959 129.69 
L 80.465914 129.69 
L 80.915823 126.066 
L 81.365733 133.314 
L 81.590687 131.502 
L 81.815642 127.878 
L 82.040597 129.69 
L 82.265551 129.69 
L 82.490506 136.938 
L 82.715461 136.938 
L 82.940415 140.562 
L 83.16537 135.126 
L 83.390325 140.562 
L 83.615279 142.374 
L 84.065188 153.246 
L 84.290143 151.434 
L 84.515098 155.058 
L 84.740052 155.058 
L 85.189962 158.682 
L 85.414916 156.87 
L 85.639871 158.682 
L 86.08978 165.93 
L 86.53969 165.93 
L 86.764644 164.118 
L 86.989599 160.494 
L 87.214554 164.118 
L 87.439508 162.306 
L 87.664463 165.93 
L 87.889417 160.494 
L 88.339327 156.87 
L 89.014191 156.87 
L 89.239145 149.622 
L 89.4641 151.434 
L 89.689055 147.81 
L 89.914009 145.998 
L 90.138964 149.622 
L 90.363919 156.87 
L 90.588873 155.058 
L 90.813828 160.494 
L 91.038783 158.682 
L 91.263737 160.494 
L 91.488692 158.682 
L 91.713646 160.494 
L 91.938601 155.058 
L 92.163556 153.246 
L 92.38851 155.058 
L 92.613465 155.058 
L 92.83842 151.434 
L 93.063374 151.434 
L 93.288329 153.246 
L 93.513284 156.87 
L 93.738238 153.246 
L 93.963193 153.246 
L 94.188148 147.81 
L 94.413102 151.434 
L 94.638057 147.81 
L 94.863011 149.622 
L 95.087966 142.374 
L 95.312921 140.562 
L 95.537875 145.998 
L 95.76283 138.75 
L 95.987785 138.75 
L 96.212739 142.374 
L 96.437694 142.374 
L 96.887603 138.75 
L 97.112558 138.75 
L 97.337513 131.502 
L 97.562467 135.126 
L 98.012377 135.126 
L 98.462286 144.186 
L 98.68724 145.998 
L 98.912195 140.562 
L 99.13715 138.75 
L 99.362104 142.374 
L 99.587059 144.186 
L 99.812014 147.81 
L 100.036968 147.81 
L 100.261923 151.434 
L 100.711832 155.058 
L 100.936787 155.058 
L 101.161742 149.622 
L 101.386696 155.058 
L 101.611651 155.058 
L 101.836606 147.81 
L 102.06156 147.81 
L 102.286515 149.622 
L 102.511469 145.998 
L 102.961379 149.622 
L 103.186333 145.998 
L 103.636243 149.622 
L 103.861197 147.81 
L 104.086152 142.374 
L 104.536061 145.998 
L 104.761016 145.998 
L 104.985971 140.562 
L 105.210925 144.186 
L 105.43588 140.562 
L 105.660835 135.126 
L 105.885789 133.314 
L 106.110744 135.126 
L 106.335698 133.314 
L 106.560653 140.562 
L 106.785608 144.186 
L 107.010562 144.186 
L 107.235517 138.75 
L 107.460472 144.186 
L 107.685426 136.938 
L 108.135336 144.186 
L 108.36029 144.186 
L 108.585245 147.81 
L 108.8102 147.81 
L 109.485063 133.314 
L 109.710018 136.938 
L 109.934973 136.938 
L 110.159927 133.314 
L 110.384882 131.502 
L 110.609837 136.938 
L 110.834791 131.502 
L 111.509655 145.998 
L 111.73461 140.562 
L 111.959565 147.81 
L 112.409474 136.938 
L 112.634429 138.75 
L 112.859383 144.186 
L 113.084338 140.562 
L 113.309292 147.81 
L 113.534247 145.998 
L 113.759202 142.374 
L 113.984156 142.374 
L 114.209111 140.562 
L 114.65902 140.562 
L 115.10893 149.622 
L 115.558839 149.622 
L 115.783794 151.434 
L 116.233703 151.434 
L 116.458658 153.246 
L 116.908567 145.998 
L 117.133521 145.998 
L 117.358476 147.81 
L 117.583431 140.562 
L 117.808385 144.186 
L 118.483249 144.186 
L 118.708204 142.374 
L 118.933159 136.938 
L 119.158113 135.126 
L 119.383068 136.938 
L 119.608023 133.314 
L 119.832977 131.502 
L 120.057932 133.314 
L 120.282887 140.562 
L 120.507841 135.126 
L 121.182705 140.562 
L 121.632614 136.938 
L 122.307478 142.374 
L 122.532433 142.374 
L 122.757388 140.562 
L 122.982342 142.374 
L 123.207297 149.622 
L 123.432252 151.434 
L 123.657206 158.682 
L 123.882161 156.87 
L 124.107116 149.622 
L 124.33207 151.434 
L 125.231889 151.434 
L 125.456843 155.058 
L 125.681798 155.058 
L 125.906753 147.81 
L 126.356662 151.434 
L 126.581617 149.622 
L 126.806571 149.622 
L 127.256481 153.246 
L 127.70639 145.998 
L 127.931344 140.562 
L 128.381254 144.186 
L 128.831163 140.562 
L 129.056118 133.314 
L 129.281072 133.314 
L 129.506027 131.502 
L 129.955936 138.75 
L 130.180891 138.75 
L 130.6308 135.126 
L 130.855755 142.374 
L 131.08071 140.562 
L 131.305664 142.374 
L 131.530619 145.998 
L 131.755573 151.434 
L 131.980528 145.998 
L 132.430437 149.622 
L 133.105301 164.118 
L 133.330256 162.306 
L 133.555211 162.306 
L 133.780165 158.682 
L 134.00512 153.246 
L 134.230075 153.246 
L 134.455029 149.622 
L 134.679984 149.622 
L 135.129893 140.562 
L 135.354848 136.938 
L 135.579802 131.502 
L 135.804757 133.314 
L 136.029712 133.314 
L 136.254666 131.502 
L 136.479621 131.502 
L 136.704576 127.878 
L 136.92953 131.502 
L 137.154485 133.314 
L 137.37944 131.502 
L 137.604394 133.314 
L 137.829349 133.314 
L 138.054304 127.878 
L 138.279258 126.066 
L 138.729168 113.382 
L 138.954122 115.194 
L 139.179077 115.194 
L 139.404031 118.818 
L 139.628986 117.006 
L 139.853941 117.006 
L 140.528805 131.502 
L 140.753759 135.126 
L 140.978714 135.126 
L 141.203669 142.374 
L 141.428623 140.562 
L 141.878533 140.562 
L 142.103487 135.126 
L 142.328442 138.75 
L 143.003306 124.254 
L 143.22826 127.878 
L 143.453215 127.878 
L 143.67817 133.314 
L 143.903124 135.126 
L 144.128079 140.562 
L 144.353034 140.562 
L 144.577988 142.374 
L 144.802943 147.81 
L 145.027898 145.998 
L 145.477807 153.246 
L 145.702762 151.434 
L 145.927716 153.246 
L 146.152671 149.622 
L 146.377625 151.434 
L 146.60258 156.87 
L 146.827535 155.058 
L 147.052489 156.87 
L 147.502399 167.742 
L 147.727353 165.93 
L 147.952308 167.742 
L 148.177263 167.742 
L 148.402217 169.554 
L 148.627172 169.554 
L 148.852127 164.118 
L 149.077081 165.93 
L 149.526991 165.93 
L 149.751945 167.742 
L 149.9769 173.178 
L 150.201854 174.99 
L 150.426809 169.554 
L 150.876718 176.802 
L 151.776537 184.05 
L 152.001492 180.426 
L 152.90131 160.494 
L 153.126265 158.682 
L 153.35122 164.118 
L 153.576174 164.118 
L 153.801129 169.554 
L 154.026083 169.554 
L 154.251038 174.99 
L 154.475993 174.99 
L 154.700947 173.178 
L 155.600766 173.178 
L 155.825721 174.99 
L 156.050675 182.238 
L 156.27563 182.238 
L 156.500585 174.99 
L 157.175448 164.118 
L 157.625358 160.494 
L 158.525176 160.494 
L 158.750131 156.87 
L 158.975086 158.682 
L 159.20004 158.682 
L 159.424995 153.246 
L 159.64995 158.682 
L 160.099859 158.682 
L 160.324814 156.87 
L 161.224632 133.314 
L 161.449587 126.066 
L 161.674541 126.066 
L 161.899496 118.818 
L 162.124451 118.818 
L 162.57436 111.57 
L 162.799315 111.57 
L 163.024269 107.946 
L 163.249224 115.194 
L 163.474179 115.194 
L 163.699133 122.442 
L 163.924088 122.442 
L 164.373997 133.314 
L 164.598952 131.502 
L 164.823906 126.066 
L 165.048861 127.878 
L 165.49877 113.382 
L 165.723725 111.57 
L 165.94868 107.946 
L 166.623544 113.382 
L 167.073453 122.442 
L 167.298408 118.818 
L 167.523362 122.442 
L 167.973272 135.126 
L 168.648135 149.622 
L 168.87309 147.81 
L 169.098045 153.246 
L 169.322999 151.434 
L 169.547954 156.87 
L 169.772909 151.434 
L 169.997863 151.434 
L 170.222818 145.998 
L 170.447773 149.622 
L 170.672727 149.622 
L 171.572546 164.118 
L 172.022455 164.118 
L 172.24741 160.494 
L 172.472364 158.682 
L 172.697319 158.682 
L 172.922274 155.058 
L 173.147228 155.058 
L 173.372183 151.434 
L 173.822092 140.562 
L 174.721911 140.562 
L 175.17182 133.314 
L 175.396775 135.126 
L 175.621729 131.502 
L 175.846684 133.314 
L 177.421367 120.63 
L 177.646321 117.006 
L 177.871276 117.006 
L 178.321185 109.758 
L 178.54614 117.006 
L 178.771095 113.382 
L 178.996049 111.57 
L 179.445958 115.194 
L 179.895868 106.134 
L 180.120822 102.51 
L 180.345777 100.698 
L 180.570732 100.698 
L 180.795686 102.51 
L 182.370369 102.51 
L 182.595324 104.322 
L 183.045233 104.322 
L 183.720097 109.758 
L 183.945051 115.194 
L 184.170006 113.382 
L 184.394961 115.194 
L 184.619915 115.194 
L 184.84487 117.006 
L 185.294779 126.066 
L 185.744689 133.314 
L 185.969643 129.69 
L 186.194598 127.878 
L 186.419553 127.878 
L 186.869462 131.502 
L 187.094416 129.69 
L 187.994235 151.434 
L 188.21919 147.81 
L 189.119008 147.81 
L 189.343963 151.434 
L 189.793872 151.434 
L 190.243781 158.682 
L 190.468736 160.494 
L 190.693691 158.682 
L 191.368555 158.682 
L 192.043419 173.178 
L 192.493328 180.426 
L 192.718283 180.426 
L 193.393147 160.494 
L 193.618101 155.058 
L 193.843056 156.87 
L 194.742874 156.87 
L 195.192784 149.622 
L 196.092602 142.374 
L 197.217376 151.434 
L 197.44233 151.434 
L 197.667285 153.246 
L 198.117194 153.246 
L 199.017013 180.426 
L 199.916831 202.17 
L 200.141786 202.17 
L 200.366741 203.982 
L 200.591695 209.418 
L 200.81665 211.23 
L 201.041605 211.23 
L 201.716468 200.358 
L 205.540697 77.142 
L 205.765652 75.33 
L 205.990607 75.33 
L 206.215561 68.082 
L 206.665471 60.834 
L 206.890425 60.834 
L 207.11538 66.27 
L 207.790244 66.27 
L 208.690062 80.766 
L 209.139972 89.826 
L 210.714654 115.194 
L 210.939609 115.194 
L 211.389518 122.442 
L 211.614473 122.442 
L 211.839428 126.066 
L 212.514291 142.374 
L 212.739246 142.374 
L 212.964201 147.81 
L 213.41411 147.81 
L 214.313929 133.314 
L 214.763838 124.254 
L 216.33852 98.886 
L 216.563475 98.886 
L 217.463294 91.638 
L 218.588067 73.518 
L 222.187341 102.51 
L 223.08716 102.51 
L 228.711026 238.41 
L 252.106309 238.41 
L 257.730175 57.21 
L 258.854949 57.21 
L 264.478815 193.11 
L 373.356864 193.11 
L 373.356864 193.11 
" style="fill:none;stroke:#dd8452;stroke-linecap:round;stroke-width:1.5;"/>
   </g>
   <g id="line2d_14">
    <path clip-path="url(#pcf26baf657)" d="M 81.747731 167.742 
L 82.269796 162.306 
L 82.79186 162.306 
L 83.835989 158.682 
L 84.358054 160.494 
L 84.880119 165.93 
L 85.402183 167.742 
L 85.924248 171.366 
L 86.446312 171.366 
L 86.968377 176.802 
L 87.490441 180.426 
L 88.012506 187.674 
L 88.53457 180.426 
L 89.056635 180.426 
L 89.5787 178.614 
L 90.100764 174.99 
L 90.622829 178.614 
L 91.144893 176.802 
L 92.189022 165.93 
L 93.755216 160.494 
L 94.277281 155.058 
L 94.799345 151.434 
L 95.32141 156.87 
L 95.843474 155.058 
L 96.365539 158.682 
L 96.887603 155.058 
L 97.409668 153.246 
L 97.931732 145.998 
L 98.975862 135.126 
L 99.497926 133.314 
L 100.019991 133.314 
L 100.542055 129.69 
L 101.06412 127.878 
L 101.586184 131.502 
L 102.108249 131.502 
L 102.630313 135.126 
L 103.152378 142.374 
L 103.674443 138.75 
L 104.196507 144.186 
L 105.240636 140.562 
L 105.762701 140.562 
L 106.284765 138.75 
L 107.328894 138.75 
L 107.850959 136.938 
L 108.895088 129.69 
L 109.417153 129.69 
L 109.939217 127.878 
L 110.461282 127.878 
L 110.983346 135.126 
L 111.505411 136.938 
L 112.54954 144.186 
L 113.071605 144.186 
L 113.593669 147.81 
L 114.115734 149.622 
L 114.637798 145.998 
L 115.681927 149.622 
L 116.203992 145.998 
L 116.726056 149.622 
L 117.248121 147.81 
L 117.770186 153.246 
L 118.29225 153.246 
L 119.336379 156.87 
L 119.858444 156.87 
L 120.380508 162.306 
L 120.902573 165.93 
L 121.424637 165.93 
L 121.946702 164.118 
L 122.468767 156.87 
L 122.990831 156.87 
L 123.512896 160.494 
L 124.03496 155.058 
L 124.557025 153.246 
L 125.079089 149.622 
L 125.601154 151.434 
L 126.123218 144.186 
L 126.645283 138.75 
L 127.167348 138.75 
L 127.689412 140.562 
L 128.733541 136.938 
L 129.255606 138.75 
L 129.77767 136.938 
L 130.299735 136.938 
L 130.821799 133.314 
L 131.343864 140.562 
L 131.865929 138.75 
L 132.387993 138.75 
L 132.910058 142.374 
L 133.432122 136.938 
L 134.476251 133.314 
L 134.998316 140.562 
L 135.52038 144.186 
L 136.042445 151.434 
L 136.56451 151.434 
L 137.086574 149.622 
L 137.608639 149.622 
L 138.130703 147.81 
L 138.652768 142.374 
L 139.696897 145.998 
L 140.218961 144.186 
L 140.741026 149.622 
L 141.263091 144.186 
L 142.30722 136.938 
L 142.829284 136.938 
L 143.351349 140.562 
L 143.873413 145.998 
L 144.395478 145.998 
L 144.917542 153.246 
L 145.439607 151.434 
L 145.961672 147.81 
L 146.483736 151.434 
L 147.005801 153.246 
L 147.527865 160.494 
L 148.04993 158.682 
L 148.571994 160.494 
L 149.094059 156.87 
L 149.616123 155.058 
L 150.138188 156.87 
L 150.660253 162.306 
L 151.182317 169.554 
L 151.704382 167.742 
L 152.226446 169.554 
L 152.748511 173.178 
L 153.270575 174.99 
L 153.79264 171.366 
L 154.314705 174.99 
L 155.358834 174.99 
L 155.880898 178.614 
L 156.402963 174.99 
L 157.447092 171.366 
L 157.969156 164.118 
L 158.491221 162.306 
L 159.013286 164.118 
L 160.057415 156.87 
L 160.579479 156.87 
L 162.667737 164.118 
L 163.189802 167.742 
L 163.711867 164.118 
L 164.233931 156.87 
L 164.755996 162.306 
L 165.27806 160.494 
L 165.800125 156.87 
L 167.366318 156.87 
L 167.888383 162.306 
L 168.410448 164.118 
L 168.932512 160.494 
L 169.454577 160.494 
L 170.498706 156.87 
L 171.02077 164.118 
L 171.542835 162.306 
L 172.586964 169.554 
L 173.109029 174.99 
L 173.631093 174.99 
L 174.675222 164.118 
L 175.719351 160.494 
L 176.241416 160.494 
L 176.76348 158.682 
L 178.329674 158.682 
L 178.851739 162.306 
L 179.373803 155.058 
L 180.417932 147.81 
L 180.939997 140.562 
L 181.462061 136.938 
L 182.506191 140.562 
L 183.028255 140.562 
L 184.072384 136.938 
L 184.594449 142.374 
L 185.116513 140.562 
L 185.638578 135.126 
L 186.160642 135.126 
L 186.682707 131.502 
L 187.204772 133.314 
L 187.726836 136.938 
L 188.248901 138.75 
L 189.29303 131.502 
L 190.337159 145.998 
L 190.859223 142.374 
L 191.381288 142.374 
L 191.903353 138.75 
L 192.947482 142.374 
L 194.513675 164.118 
L 195.557804 153.246 
L 196.079869 149.622 
L 196.601934 155.058 
L 197.123998 156.87 
L 198.168127 149.622 
L 198.690192 151.434 
L 199.212256 151.434 
L 199.734321 149.622 
L 200.256385 151.434 
L 201.300515 151.434 
L 202.344644 158.682 
L 203.388773 155.058 
L 203.910837 156.87 
L 205.999096 149.622 
L 206.52116 144.186 
L 207.565289 136.938 
L 208.087354 140.562 
L 209.131483 155.058 
L 210.175612 155.058 
L 211.741806 171.366 
L 212.26387 167.742 
L 213.307999 171.366 
L 213.830064 167.742 
L 215.918322 174.99 
L 216.440387 173.178 
L 216.962451 173.178 
L 218.528645 184.05 
L 219.050709 184.05 
L 219.572774 182.238 
L 221.138968 171.366 
L 222.705161 149.622 
L 224.79342 135.126 
L 225.315484 136.938 
L 225.837549 133.314 
L 226.359613 126.066 
L 226.881678 124.254 
L 227.403742 117.006 
L 228.969936 100.698 
L 231.580259 91.638 
L 235.756775 106.134 
L 237.845034 120.63 
L 238.367098 122.442 
L 240.455356 151.434 
L 248.808389 238.41 
L 261.337939 238.41 
L 268.646842 136.938 
L 274.389552 117.006 
L 281.698456 193.11 
L 373.059754 193.11 
L 373.059754 193.11 
" style="fill:none;stroke:#55a868;stroke-linecap:round;stroke-width:1.5;"/>
   </g>
   <g id="line2d_15">
    <path clip-path="url(#pcf26baf657)" d="M 89.176453 126.066 
L 90.008048 126.066 
L 90.839642 127.878 
L 91.671237 124.254 
L 92.502832 122.442 
L 93.334426 124.254 
L 94.166021 122.442 
L 94.997615 124.254 
L 95.82921 117.006 
L 96.660805 111.57 
L 97.492399 111.57 
L 98.323994 107.946 
L 99.155589 109.758 
L 99.987183 107.946 
L 100.818778 109.758 
L 101.650373 113.382 
L 102.481967 113.382 
L 103.313562 118.818 
L 104.976751 122.442 
L 105.808346 127.878 
L 106.63994 129.69 
L 107.471535 126.066 
L 108.30313 127.878 
L 109.134724 133.314 
L 109.966319 131.502 
L 110.797914 133.314 
L 112.461103 144.186 
L 113.292697 144.186 
L 114.124292 147.81 
L 114.955887 144.186 
L 115.787481 147.81 
L 116.619076 147.81 
L 119.945455 169.554 
L 120.777049 173.178 
L 121.608644 171.366 
L 122.440238 171.366 
L 123.271833 173.178 
L 124.103428 171.366 
L 124.935022 171.366 
L 125.766617 173.178 
L 126.598212 169.554 
L 127.429806 164.118 
L 128.261401 162.306 
L 129.092996 162.306 
L 129.92459 156.87 
L 130.756185 155.058 
L 131.587779 156.87 
L 132.419374 151.434 
L 133.250969 153.246 
L 134.082563 156.87 
L 134.914158 155.058 
L 135.745753 162.306 
L 136.577347 156.87 
L 137.408942 158.682 
L 140.73532 158.682 
L 141.566915 156.87 
L 142.39851 162.306 
L 143.230104 158.682 
L 144.061699 158.682 
L 144.893294 162.306 
L 145.724888 162.306 
L 146.556483 158.682 
L 147.388077 158.682 
L 148.219672 156.87 
L 149.051267 162.306 
L 149.882861 162.306 
L 150.714456 167.742 
L 151.546051 164.118 
L 152.377645 165.93 
L 153.20924 171.366 
L 154.040835 171.366 
L 155.704024 178.614 
L 156.535618 176.802 
L 157.367213 182.238 
L 158.198808 184.05 
L 159.030402 182.238 
L 159.861997 178.614 
L 160.693592 173.178 
L 161.525186 173.178 
L 162.356781 171.366 
L 163.188376 171.366 
L 164.01997 176.802 
L 165.683159 162.306 
L 167.346349 173.178 
L 169.841133 173.178 
L 171.504322 162.306 
L 172.335917 167.742 
L 173.167511 167.742 
L 174.8307 164.118 
L 176.49389 149.622 
L 177.325484 149.622 
L 179.820268 138.75 
L 180.651863 140.562 
L 181.483458 140.562 
L 182.315052 136.938 
L 183.146647 138.75 
L 184.809836 131.502 
L 186.473025 138.75 
L 187.30462 135.126 
L 188.136215 127.878 
L 189.799404 127.878 
L 190.630999 126.066 
L 191.462593 127.878 
L 192.294188 131.502 
L 193.125782 127.878 
L 194.788972 127.878 
L 195.620566 124.254 
L 197.283756 127.878 
L 198.11535 124.254 
L 198.946945 126.066 
L 199.778539 126.066 
L 200.610134 127.878 
L 201.441729 124.254 
L 202.273323 122.442 
L 203.104918 118.818 
L 203.936513 122.442 
L 204.768107 122.442 
L 205.599702 120.63 
L 208.094486 126.066 
L 208.92608 133.314 
L 209.757675 133.314 
L 211.420864 140.562 
L 212.252459 145.998 
L 213.084054 145.998 
L 213.915648 144.186 
L 214.747243 136.938 
L 215.578838 131.502 
L 218.073621 126.066 
L 218.905216 131.502 
L 219.736811 129.69 
L 220.568405 136.938 
L 221.4 138.75 
L 223.894784 149.622 
L 224.726379 145.998 
L 225.557973 145.998 
L 226.389568 147.81 
L 228.884352 131.502 
L 230.547541 131.502 
L 231.379136 129.69 
L 233.042325 118.818 
L 233.87392 117.006 
L 235.537109 120.63 
L 238.863487 149.622 
L 239.695082 149.622 
L 240.526677 153.246 
L 241.358271 153.246 
L 247.179434 178.614 
L 249.674218 200.358 
L 250.505812 200.358 
L 253.000596 216.666 
L 255.49538 211.23 
L 256.326975 214.854 
L 273.790462 176.802 
L 276.285246 193.11 
L 372.750224 193.11 
L 372.750224 193.11 
" style="fill:none;stroke:#c44e52;stroke-linecap:round;stroke-width:1.5;"/>
   </g>
   <g id="line2d_16">
    <path clip-path="url(#pcf26baf657)" d="M 69.218182 193.11 
L 373.581818 193.11 
" style="fill:none;stroke:#4c72b0;stroke-dasharray:5.55,2.4;stroke-dashoffset:0;stroke-width:1.5;"/>
   </g>
   <g id="line2d_17">
    <path clip-path="url(#pcf26baf657)" d="M 69.218182 147.81 
L 373.581818 147.81 
" style="fill:none;stroke:#ccb974;stroke-dasharray:5.55,2.4;stroke-dashoffset:0;stroke-width:1.5;"/>
   </g>
   <g id="line2d_18">
    <path clip-path="url(#pcf26baf657)" d="M 69.218182 102.51 
L 373.581818 102.51 
" style="fill:none;stroke:#55a868;stroke-dasharray:5.55,2.4;stroke-dashoffset:0;stroke-width:1.5;"/>
   </g>
   <g id="line2d_19">
    <path clip-path="url(#pcf26baf657)" d="M 69.218182 57.21 
L 373.581818 57.21 
" style="fill:none;stroke:#c44e52;stroke-dasharray:5.55,2.4;stroke-dashoffset:0;stroke-width:1.5;"/>
   </g>
   <g id="line2d_20">
    <path clip-path="url(#pcf26baf657)" d="M 69.218182 238.41 
L 373.581818 238.41 
" style="fill:none;stroke:#1a1a1a;stroke-dasharray:5.55,2.4;stroke-dashoffset:0;stroke-width:1.5;"/>
   </g>
   <g id="patch_3">
    <path d="M 54 252 
L 54 34.56 
" style="fill:none;stroke:#ffffff;stroke-linecap:square;stroke-linejoin:miter;stroke-width:1.25;"/>
   </g>
   <g id="patch_4">
    <path d="M 388.8 252 
L 388.8 34.56 
" style="fill:none;stroke:#ffffff;stroke-linecap:square;stroke-linejoin:miter;stroke-width:1.25;"/>
   </g>
   <g id="patch_5">
    <path d="M 54 252 
L 388.8 252 
" style="fill:none;stroke:#ffffff;stroke-linecap:square;stroke-linejoin:miter;stroke-width:1.25;"/>
   </g>
   <g id="patch_6">
    <path d="M 54 34.56 
L 388.8 34.56 
" style="fill:none;stroke:#ffffff;stroke-linecap:square;stroke-linejoin:miter;stroke-width:1.25;"/>
   </g>
  </g>
 </g>
 <defs>
  <clipPath id="pcf26baf657">
   <rect height="217.44" width="334.8" x="54" y="34.56"/>
  </clipPath>
 </defs>
</svg>
