<?xml version="1.0" encoding="utf-8" standalone="no"?>
<!DOCTYPE svg PUBLIC "-//W3C//DTD SVG 1.1//EN"
  "http://www.w3.org/Graphics/SVG/1.1/DTD/svg11.dtd">
<!-- Created with matplotlib (https://matplotlib.org/) -->
<svg height="288pt" version="1.1" viewBox="0 0 432 288" width="432pt" xmlns="http://www.w3.org/2000/svg" xmlns:xlink="http://www.w3.org/1999/xlink">
 <defs>
  <style type="text/css">
*{stroke-linecap:butt;stroke-linejoin:round;}
  </style>
 </defs>
 <g id="figure_1">
  <g id="patch_1">
   <path d="M 0 288 
L 432 288 
L 432 0 
L 0 0 
z
" style="fill:#ffffff;"/>
  </g>
  <g id="axes_1">
   <g id="patch_2">
    <path d="M 54 252 
L 388.8 252 
L 388.8 34.56 
L 54 34.56 
z
" style="fill:#eaeaf2;"/>
   </g>
   <g id="matplotlib.axis_1">
    <g id="xtick_1">
     <g id="line2d_1">
      <path clip-path="url(#pc5fbc123fd)" d="M 69.218182 252 
L 69.218182 34.56 
" style="fill:none;stroke:#ffffff;stroke-linecap:round;"/>
     </g>
     <g id="text_1">
      <!-- 0.0 -->
      <defs>
       <path d="M 4.15625 35.296875 
Q 4.15625 48 6.765625 55.734375 
Q 9.375 63.484375 14.515625 67.671875 
Q 19.671875 71.875 27.484375 71.875 
Q 33.25 71.875 37.59375 69.546875 
Q 41.9375 67.234375 44.765625 62.859375 
Q 47.609375 58.5 49.21875 52.21875 
Q 50.828125 45.953125 50.828125 35.296875 
Q 50.828125 22.703125 48.234375 14.96875 
Q 45.65625 7.234375 40.5 3 
Q 35.359375 -1.21875 27.484375 -1.21875 
Q 17.140625 -1.21875 11.234375 6.203125 
Q 4.15625 15.140625 4.15625 35.296875 
z
M 13.1875 35.296875 
Q 13.1875 17.671875 17.3125 11.828125 
Q 21.4375 6 27.484375 6 
Q 33.546875 6 37.671875 11.859375 
Q 41.796875 17.71875 41.796875 35.296875 
Q 41.796875 52.984375 37.671875 58.78125 
Q 33.546875 64.59375 27.390625 64.59375 
Q 21.34375 64.59375 17.71875 59.46875 
Q 13.1875 52.9375 13.1875 35.296875 
z
" id="ArialMT-48"/>
       <path d="M 9.078125 0 
L 9.078125 10.015625 
L 19.09375 10.015625 
L 19.09375 0 
z
" id="ArialMT-46"/>
      </defs>
      <g style="fill:#262626;" transform="translate(61.573182 269.373594)scale(0.11 -0.11)">
       <use xlink:href="#ArialMT-48"/>
       <use x="55.615234" xlink:href="#ArialMT-46"/>
       <use x="83.398438" xlink:href="#ArialMT-48"/>
      </g>
     </g>
    </g>
    <g id="xtick_2">
     <g id="line2d_2">
      <path clip-path="url(#pc5fbc123fd)" d="M 130.090909 252 
L 130.090909 34.56 
" style="fill:none;stroke:#ffffff;stroke-linecap:round;"/>
     </g>
     <g id="text_2">
      <!-- 0.2 -->
      <defs>
       <path d="M 50.34375 8.453125 
L 50.34375 0 
L 3.03125 0 
Q 2.9375 3.171875 4.046875 6.109375 
Q 5.859375 10.9375 9.828125 15.625 
Q 13.8125 20.3125 21.34375 26.46875 
Q 33.015625 36.03125 37.109375 41.625 
Q 41.21875 47.21875 41.21875 52.203125 
Q 41.21875 57.421875 37.46875 61 
Q 33.734375 64.59375 27.734375 64.59375 
Q 21.390625 64.59375 17.578125 60.78125 
Q 13.765625 56.984375 13.71875 50.25 
L 4.6875 51.171875 
Q 5.609375 61.28125 11.65625 66.578125 
Q 17.71875 71.875 27.9375 71.875 
Q 38.234375 71.875 44.234375 66.15625 
Q 50.25 60.453125 50.25 52 
Q 50.25 47.703125 48.484375 43.546875 
Q 46.734375 39.40625 42.65625 34.8125 
Q 38.578125 30.21875 29.109375 22.21875 
Q 21.1875 15.578125 18.9375 13.203125 
Q 16.703125 10.84375 15.234375 8.453125 
z
" id="ArialMT-50"/>
      </defs>
      <g style="fill:#262626;" transform="translate(122.445909 269.373594)scale(0.11 -0.11)">
       <use xlink:href="#ArialMT-48"/>
       <use x="55.615234" xlink:href="#ArialMT-46"/>
       <use x="83.398438" xlink:href="#ArialMT-50"/>
      </g>
     </g>
    </g>
    <g id="xtick_3">
     <g id="line2d_3">
      <path clip-path="url(#pc5fbc123fd)" d="M 190.963636 252 
L 190.963636 34.56 
" style="fill:none;stroke:#ffffff;stroke-linecap:round;"/>
     </g>
     <g id="text_3">
      <!-- 0.4 -->
      <defs>
       <path d="M 32.328125 0 
L 32.328125 17.140625 
L 1.265625 17.140625 
L 1.265625 25.203125 
L 33.9375 71.578125 
L 41.109375 71.578125 
L 41.109375 25.203125 
L 50.78125 25.203125 
L 50.78125 17.140625 
L 41.109375 17.140625 
L 41.109375 0 
z
M 32.328125 25.203125 
L 32.328125 57.46875 
L 9.90625 25.203125 
z
" id="ArialMT-52"/>
      </defs>
      <g style="fill:#262626;" transform="translate(183.318636 269.373594)scale(0.11 -0.11)">
       <use xlink:href="#ArialMT-48"/>
       <use x="55.615234" xlink:href="#ArialMT-46"/>
       <use x="83.398438" xlink:href="#ArialMT-52"/>
      </g>
     </g>
    </g>
    <g id="xtick_4">
     <g id="line2d_4">
      <path clip-path="url(#pc5fbc123fd)" d="M 251.836364 252 
L 251.836364 34.56 
" style="fill:none;stroke:#ffffff;stroke-linecap:round;"/>
     </g>
     <g id="text_4">
      <!-- 0.6 -->
      <defs>
       <path d="M 49.75 54.046875 
L 41.015625 53.375 
Q 39.84375 58.546875 37.703125 60.890625 
Q 34.125 64.65625 28.90625 64.65625 
Q 24.703125 64.65625 21.53125 62.3125 
Q 17.390625 59.28125 14.984375 53.46875 
Q 12.59375 47.65625 12.5 36.921875 
Q 15.671875 41.75 20.265625 44.09375 
Q 24.859375 46.4375 29.890625 46.4375 
Q 38.671875 46.4375 44.84375 39.96875 
Q 51.03125 33.5 51.03125 23.25 
Q 51.03125 16.5 48.125 10.71875 
Q 45.21875 4.9375 40.140625 1.859375 
Q 35.0625 -1.21875 28.609375 -1.21875 
Q 17.625 -1.21875 10.6875 6.859375 
Q 3.765625 14.9375 3.765625 33.5 
Q 3.765625 54.25 11.421875 63.671875 
Q 18.109375 71.875 29.4375 71.875 
Q 37.890625 71.875 43.28125 67.140625 
Q 48.6875 62.40625 49.75 54.046875 
z
M 13.875 23.1875 
Q 13.875 18.65625 15.796875 14.5 
Q 17.71875 10.359375 21.1875 8.171875 
Q 24.65625 6 28.46875 6 
Q 34.03125 6 38.03125 10.484375 
Q 42.046875 14.984375 42.046875 22.703125 
Q 42.046875 30.125 38.078125 34.390625 
Q 34.125 38.671875 28.125 38.671875 
Q 22.171875 38.671875 18.015625 34.390625 
Q 13.875 30.125 13.875 23.1875 
z
" id="ArialMT-54"/>
      </defs>
      <g style="fill:#262626;" transform="translate(244.191364 269.373594)scale(0.11 -0.11)">
       <use xlink:href="#ArialMT-48"/>
       <use x="55.615234" xlink:href="#ArialMT-46"/>
       <use x="83.398438" xlink:href="#ArialMT-54"/>
      </g>
     </g>
    </g>
    <g id="xtick_5">
     <g id="line2d_5">
      <path clip-path="url(#pc5fbc123fd)" d="M 312.709091 252 
L 312.709091 34.56 
" style="fill:none;stroke:#ffffff;stroke-linecap:round;"/>
     </g>
     <g id="text_5">
      <!-- 0.8 -->
      <defs>
       <path d="M 17.671875 38.8125 
Q 12.203125 40.828125 9.5625 44.53125 
Q 6.9375 48.25 6.9375 53.421875 
Q 6.9375 61.234375 12.546875 66.546875 
Q 18.171875 71.875 27.484375 71.875 
Q 36.859375 71.875 42.578125 66.421875 
Q 48.296875 60.984375 48.296875 53.171875 
Q 48.296875 48.1875 45.671875 44.5 
Q 43.0625 40.828125 37.75 38.8125 
Q 44.34375 36.671875 47.78125 31.875 
Q 51.21875 27.09375 51.21875 20.453125 
Q 51.21875 11.28125 44.71875 5.03125 
Q 38.234375 -1.21875 27.640625 -1.21875 
Q 17.046875 -1.21875 10.546875 5.046875 
Q 4.046875 11.328125 4.046875 20.703125 
Q 4.046875 27.6875 7.59375 32.390625 
Q 11.140625 37.109375 17.671875 38.8125 
z
M 15.921875 53.71875 
Q 15.921875 48.640625 19.1875 45.40625 
Q 22.46875 42.1875 27.6875 42.1875 
Q 32.765625 42.1875 36.015625 45.375 
Q 39.265625 48.578125 39.265625 53.21875 
Q 39.265625 58.0625 35.90625 61.359375 
Q 32.5625 64.65625 27.59375 64.65625 
Q 22.5625 64.65625 19.234375 61.421875 
Q 15.921875 58.203125 15.921875 53.71875 
z
M 13.09375 20.65625 
Q 13.09375 16.890625 14.875 13.375 
Q 16.65625 9.859375 20.171875 7.921875 
Q 23.6875 6 27.734375 6 
Q 34.03125 6 38.125 10.046875 
Q 42.234375 14.109375 42.234375 20.359375 
Q 42.234375 26.703125 38.015625 30.859375 
Q 33.796875 35.015625 27.4375 35.015625 
Q 21.234375 35.015625 17.15625 30.90625 
Q 13.09375 26.8125 13.09375 20.65625 
z
" id="ArialMT-56"/>
      </defs>
      <g style="fill:#262626;" transform="translate(305.064091 269.373594)scale(0.11 -0.11)">
       <use xlink:href="#ArialMT-48"/>
       <use x="55.615234" xlink:href="#ArialMT-46"/>
       <use x="83.398438" xlink:href="#ArialMT-56"/>
      </g>
     </g>
    </g>
    <g id="xtick_6">
     <g id="line2d_6">
      <path clip-path="url(#pc5fbc123fd)" d="M 373.581818 252 
L 373.581818 34.56 
" style="fill:none;stroke:#ffffff;stroke-linecap:round;"/>
     </g>
     <g id="text_6">
      <!-- 1.0 -->
      <defs>
       <path d="M 37.25 0 
L 28.46875 0 
L 28.46875 56 
Q 25.296875 52.984375 20.140625 49.953125 
Q 14.984375 46.921875 10.890625 45.40625 
L 10.890625 53.90625 
Q 18.265625 57.375 23.78125 62.296875 
Q 29.296875 67.234375 31.59375 71.875 
L 37.25 71.875 
z
" id="ArialMT-49"/>
      </defs>
      <g style="fill:#262626;" transform="translate(365.936818 269.373594)scale(0.11 -0.11)">
       <use xlink:href="#ArialMT-49"/>
       <use x="55.615234" xlink:href="#ArialMT-46"/>
       <use x="83.398438" xlink:href="#ArialMT-48"/>
      </g>
     </g>
    </g>
    <g id="text_7">
     <!-- Training progress -->
     <defs>
      <path d="M 25.921875 0 
L 25.921875 63.140625 
L 2.34375 63.140625 
L 2.34375 71.578125 
L 59.078125 71.578125 
L 59.078125 63.140625 
L 35.40625 63.140625 
L 35.40625 0 
z
" id="ArialMT-84"/>
      <path d="M 6.5 0 
L 6.5 51.859375 
L 14.40625 51.859375 
L 14.40625 44 
Q 17.4375 49.515625 20 51.265625 
Q 22.5625 53.03125 25.640625 53.03125 
Q 30.078125 53.03125 34.671875 50.203125 
L 31.640625 42.046875 
Q 28.421875 43.953125 25.203125 43.953125 
Q 22.3125 43.953125 20.015625 42.21875 
Q 17.71875 40.484375 16.75 37.40625 
Q 15.28125 32.71875 15.28125 27.15625 
L 15.28125 0 
z
" id="ArialMT-114"/>
      <path d="M 40.4375 6.390625 
Q 35.546875 2.25 31.03125 0.53125 
Q 26.515625 -1.171875 21.34375 -1.171875 
Q 12.796875 -1.171875 8.203125 3 
Q 3.609375 7.171875 3.609375 13.671875 
Q 3.609375 17.484375 5.34375 20.625 
Q 7.078125 23.78125 9.890625 25.6875 
Q 12.703125 27.59375 16.21875 28.5625 
Q 18.796875 29.25 24.03125 29.890625 
Q 34.671875 31.15625 39.703125 32.90625 
Q 39.75 34.71875 39.75 35.203125 
Q 39.75 40.578125 37.25 42.78125 
Q 33.890625 45.75 27.25 45.75 
Q 21.046875 45.75 18.09375 43.578125 
Q 15.140625 41.40625 13.71875 35.890625 
L 5.125 37.0625 
Q 6.296875 42.578125 8.984375 45.96875 
Q 11.671875 49.359375 16.75 51.1875 
Q 21.828125 53.03125 28.515625 53.03125 
Q 35.15625 53.03125 39.296875 51.46875 
Q 43.453125 49.90625 45.40625 47.53125 
Q 47.359375 45.171875 48.140625 41.546875 
Q 48.578125 39.3125 48.578125 33.453125 
L 48.578125 21.734375 
Q 48.578125 9.46875 49.140625 6.21875 
Q 49.703125 2.984375 51.375 0 
L 42.1875 0 
Q 40.828125 2.734375 40.4375 6.390625 
z
M 39.703125 26.03125 
Q 34.90625 24.078125 25.34375 22.703125 
Q 19.921875 21.921875 17.671875 20.9375 
Q 15.4375 19.96875 14.203125 18.09375 
Q 12.984375 16.21875 12.984375 13.921875 
Q 12.984375 10.40625 15.640625 8.0625 
Q 18.3125 5.71875 23.4375 5.71875 
Q 28.515625 5.71875 32.46875 7.9375 
Q 36.421875 10.15625 38.28125 14.015625 
Q 39.703125 17 39.703125 22.796875 
z
" id="ArialMT-97"/>
      <path d="M 6.640625 61.46875 
L 6.640625 71.578125 
L 15.4375 71.578125 
L 15.4375 61.46875 
z
M 6.640625 0 
L 6.640625 51.859375 
L 15.4375 51.859375 
L 15.4375 0 
z
" id="ArialMT-105"/>
      <path d="M 6.59375 0 
L 6.59375 51.859375 
L 14.5 51.859375 
L 14.5 44.484375 
Q 20.21875 53.03125 31 53.03125 
Q 35.6875 53.03125 39.625 51.34375 
Q 43.5625 49.65625 45.515625 46.921875 
Q 47.46875 44.1875 48.25 40.4375 
Q 48.734375 37.984375 48.734375 31.890625 
L 48.734375 0 
L 39.9375 0 
L 39.9375 31.546875 
Q 39.9375 36.921875 38.90625 39.578125 
Q 37.890625 42.234375 35.28125 43.8125 
Q 32.671875 45.40625 29.15625 45.40625 
Q 23.53125 45.40625 19.453125 41.84375 
Q 15.375 38.28125 15.375 28.328125 
L 15.375 0 
z
" id="ArialMT-110"/>
      <path d="M 4.984375 -4.296875 
L 13.53125 -5.5625 
Q 14.0625 -9.515625 16.5 -11.328125 
Q 19.78125 -13.765625 25.4375 -13.765625 
Q 31.546875 -13.765625 34.859375 -11.328125 
Q 38.1875 -8.890625 39.359375 -4.5 
Q 40.046875 -1.8125 39.984375 6.78125 
Q 34.234375 0 25.640625 0 
Q 14.9375 0 9.078125 7.71875 
Q 3.21875 15.4375 3.21875 26.21875 
Q 3.21875 33.640625 5.90625 39.90625 
Q 8.59375 46.1875 13.6875 49.609375 
Q 18.796875 53.03125 25.6875 53.03125 
Q 34.859375 53.03125 40.828125 45.609375 
L 40.828125 51.859375 
L 48.921875 51.859375 
L 48.921875 7.03125 
Q 48.921875 -5.078125 46.453125 -10.125 
Q 44 -15.1875 38.640625 -18.109375 
Q 33.296875 -21.046875 25.484375 -21.046875 
Q 16.21875 -21.046875 10.5 -16.875 
Q 4.78125 -12.703125 4.984375 -4.296875 
z
M 12.25 26.859375 
Q 12.25 16.65625 16.296875 11.96875 
Q 20.359375 7.28125 26.46875 7.28125 
Q 32.515625 7.28125 36.609375 11.9375 
Q 40.71875 16.609375 40.71875 26.5625 
Q 40.71875 36.078125 36.5 40.90625 
Q 32.28125 45.75 26.3125 45.75 
Q 20.453125 45.75 16.34375 40.984375 
Q 12.25 36.234375 12.25 26.859375 
z
" id="ArialMT-103"/>
      <path id="ArialMT-32"/>
      <path d="M 6.59375 -19.875 
L 6.59375 51.859375 
L 14.59375 51.859375 
L 14.59375 45.125 
Q 17.4375 49.078125 21 51.046875 
Q 24.5625 53.03125 29.640625 53.03125 
Q 36.28125 53.03125 41.359375 49.609375 
Q 46.4375 46.1875 49.015625 39.953125 
Q 51.609375 33.734375 51.609375 26.3125 
Q 51.609375 18.359375 48.75 11.984375 
Q 45.90625 5.609375 40.453125 2.21875 
Q 35.015625 -1.171875 29 -1.171875 
Q 24.609375 -1.171875 21.109375 0.6875 
Q 17.625 2.546875 15.375 5.375 
L 15.375 -19.875 
z
M 14.546875 25.640625 
Q 14.546875 15.625 18.59375 10.84375 
Q 22.65625 6.0625 28.421875 6.0625 
Q 34.28125 6.0625 38.453125 11.015625 
Q 42.625 15.96875 42.625 26.375 
Q 42.625 36.28125 38.546875 41.203125 
Q 34.46875 46.140625 28.8125 46.140625 
Q 23.1875 46.140625 18.859375 40.890625 
Q 14.546875 35.640625 14.546875 25.640625 
z
" id="ArialMT-112"/>
      <path d="M 3.328125 25.921875 
Q 3.328125 40.328125 11.328125 47.265625 
Q 18.015625 53.03125 27.640625 53.03125 
Q 38.328125 53.03125 45.109375 46.015625 
Q 51.90625 39.015625 51.90625 26.65625 
Q 51.90625 16.65625 48.90625 10.90625 
Q 45.90625 5.171875 40.15625 2 
Q 34.421875 -1.171875 27.640625 -1.171875 
Q 16.75 -1.171875 10.03125 5.8125 
Q 3.328125 12.796875 3.328125 25.921875 
z
M 12.359375 25.921875 
Q 12.359375 15.96875 16.703125 11.015625 
Q 21.046875 6.0625 27.640625 6.0625 
Q 34.1875 6.0625 38.53125 11.03125 
Q 42.875 16.015625 42.875 26.21875 
Q 42.875 35.84375 38.5 40.796875 
Q 34.125 45.75 27.640625 45.75 
Q 21.046875 45.75 16.703125 40.8125 
Q 12.359375 35.890625 12.359375 25.921875 
z
" id="ArialMT-111"/>
      <path d="M 42.09375 16.703125 
L 51.171875 15.578125 
Q 49.03125 7.625 43.21875 3.21875 
Q 37.40625 -1.171875 28.375 -1.171875 
Q 17 -1.171875 10.328125 5.828125 
Q 3.65625 12.84375 3.65625 25.484375 
Q 3.65625 38.578125 10.390625 45.796875 
Q 17.140625 53.03125 27.875 53.03125 
Q 38.28125 53.03125 44.875 45.953125 
Q 51.46875 38.875 51.46875 26.03125 
Q 51.46875 25.25 51.421875 23.6875 
L 12.75 23.6875 
Q 13.234375 15.140625 17.578125 10.59375 
Q 21.921875 6.0625 28.421875 6.0625 
Q 33.25 6.0625 36.671875 8.59375 
Q 40.09375 11.140625 42.09375 16.703125 
z
M 13.234375 30.90625 
L 42.1875 30.90625 
Q 41.609375 37.453125 38.875 40.71875 
Q 34.671875 45.796875 27.984375 45.796875 
Q 21.921875 45.796875 17.796875 41.75 
Q 13.671875 37.703125 13.234375 30.90625 
z
" id="ArialMT-101"/>
      <path d="M 3.078125 15.484375 
L 11.765625 16.84375 
Q 12.5 11.625 15.84375 8.84375 
Q 19.1875 6.0625 25.203125 6.0625 
Q 31.25 6.0625 34.171875 8.515625 
Q 37.109375 10.984375 37.109375 14.3125 
Q 37.109375 17.28125 34.515625 19 
Q 32.71875 20.171875 25.53125 21.96875 
Q 15.875 24.421875 12.140625 26.203125 
Q 8.40625 27.984375 6.46875 31.125 
Q 4.546875 34.28125 4.546875 38.09375 
Q 4.546875 41.546875 6.125 44.5 
Q 7.71875 47.46875 10.453125 49.421875 
Q 12.5 50.921875 16.03125 51.96875 
Q 19.578125 53.03125 23.640625 53.03125 
Q 29.734375 53.03125 34.34375 51.265625 
Q 38.96875 49.515625 41.15625 46.5 
Q 43.359375 43.5 44.1875 38.484375 
L 35.59375 37.3125 
Q 35.015625 41.3125 32.203125 43.546875 
Q 29.390625 45.796875 24.265625 45.796875 
Q 18.21875 45.796875 15.625 43.796875 
Q 13.03125 41.796875 13.03125 39.109375 
Q 13.03125 37.40625 14.109375 36.03125 
Q 15.1875 34.625 17.484375 33.6875 
Q 18.796875 33.203125 25.25 31.453125 
Q 34.578125 28.953125 38.25 27.359375 
Q 41.9375 25.78125 44.03125 22.75 
Q 46.140625 19.734375 46.140625 15.234375 
Q 46.140625 10.84375 43.578125 6.953125 
Q 41.015625 3.078125 36.171875 0.953125 
Q 31.34375 -1.171875 25.25 -1.171875 
Q 15.140625 -1.171875 9.84375 3.03125 
Q 4.546875 7.234375 3.078125 15.484375 
z
" id="ArialMT-115"/>
     </defs>
     <g style="fill:#262626;" transform="translate(174.719063 284.149219)scale(0.12 -0.12)">
      <use xlink:href="#ArialMT-84"/>
      <use x="61.037109" xlink:href="#ArialMT-114"/>
      <use x="94.337891" xlink:href="#ArialMT-97"/>
      <use x="149.953125" xlink:href="#ArialMT-105"/>
      <use x="172.169922" xlink:href="#ArialMT-110"/>
      <use x="227.785156" xlink:href="#ArialMT-105"/>
      <use x="250.001953" xlink:href="#ArialMT-110"/>
      <use x="305.617188" xlink:href="#ArialMT-103"/>
      <use x="361.232422" xlink:href="#ArialMT-32"/>
      <use x="389.015625" xlink:href="#ArialMT-112"/>
      <use x="444.630859" xlink:href="#ArialMT-114"/>
      <use x="477.931641" xlink:href="#ArialMT-111"/>
      <use x="533.546875" xlink:href="#ArialMT-103"/>
      <use x="589.162109" xlink:href="#ArialMT-114"/>
      <use x="622.462891" xlink:href="#ArialMT-101"/>
      <use x="678.078125" xlink:href="#ArialMT-115"/>
      <use x="728.078125" xlink:href="#ArialMT-115"/>
     </g>
    </g>
   </g>
   <g id="matplotlib.axis_2">
    <g id="ytick_1">
     <g id="line2d_7">
      <path clip-path="url(#pc5fbc123fd)" d="M 54 230.256 
L 388.8 230.256 
" style="fill:none;stroke:#ffffff;stroke-linecap:round;"/>
     </g>
     <g id="text_8">
      <!-- 0 -->
      <g style="fill:#262626;" transform="translate(38.382969 234.192797)scale(0.11 -0.11)">
       <use xlink:href="#ArialMT-48"/>
      </g>
     </g>
    </g>
    <g id="ytick_2">
     <g id="line2d_8">
      <path clip-path="url(#pc5fbc123fd)" d="M 54 186.768 
L 388.8 186.768 
" style="fill:none;stroke:#ffffff;stroke-linecap:round;"/>
     </g>
     <g id="text_9">
      <!-- 1 -->
      <g style="fill:#262626;" transform="translate(38.382969 190.704797)scale(0.11 -0.11)">
       <use xlink:href="#ArialMT-49"/>
      </g>
     </g>
    </g>
    <g id="ytick_3">
     <g id="line2d_9">
      <path clip-path="url(#pc5fbc123fd)" d="M 54 143.28 
L 388.8 143.28 
" style="fill:none;stroke:#ffffff;stroke-linecap:round;"/>
     </g>
     <g id="text_10">
      <!-- 2 -->
      <g style="fill:#262626;" transform="translate(38.382969 147.216797)scale(0.11 -0.11)">
       <use xlink:href="#ArialMT-50"/>
      </g>
     </g>
    </g>
    <g id="ytick_4">
     <g id="line2d_10">
      <path clip-path="url(#pc5fbc123fd)" d="M 54 99.792 
L 388.8 99.792 
" style="fill:none;stroke:#ffffff;stroke-linecap:round;"/>
     </g>
     <g id="text_11">
      <!-- 3 -->
      <defs>
       <path d="M 4.203125 18.890625 
L 12.984375 20.0625 
Q 14.5 12.59375 18.140625 9.296875 
Q 21.78125 6 27 6 
Q 33.203125 6 37.46875 10.296875 
Q 41.75 14.59375 41.75 20.953125 
Q 41.75 27 37.796875 30.921875 
Q 33.84375 34.859375 27.734375 34.859375 
Q 25.25 34.859375 21.53125 33.890625 
L 22.515625 41.609375 
Q 23.390625 41.5 23.921875 41.5 
Q 29.546875 41.5 34.03125 44.421875 
Q 38.53125 47.359375 38.53125 53.46875 
Q 38.53125 58.296875 35.25 61.46875 
Q 31.984375 64.65625 26.8125 64.65625 
Q 21.6875 64.65625 18.265625 61.421875 
Q 14.84375 58.203125 13.875 51.765625 
L 5.078125 53.328125 
Q 6.6875 62.15625 12.390625 67.015625 
Q 18.109375 71.875 26.609375 71.875 
Q 32.46875 71.875 37.390625 69.359375 
Q 42.328125 66.84375 44.9375 62.5 
Q 47.5625 58.15625 47.5625 53.265625 
Q 47.5625 48.640625 45.0625 44.828125 
Q 42.578125 41.015625 37.703125 38.765625 
Q 44.046875 37.3125 47.5625 32.6875 
Q 51.078125 28.078125 51.078125 21.140625 
Q 51.078125 11.765625 44.234375 5.25 
Q 37.40625 -1.265625 26.953125 -1.265625 
Q 17.53125 -1.265625 11.296875 4.34375 
Q 5.078125 9.96875 4.203125 18.890625 
z
" id="ArialMT-51"/>
      </defs>
      <g style="fill:#262626;" transform="translate(38.382969 103.728797)scale(0.11 -0.11)">
       <use xlink:href="#ArialMT-51"/>
      </g>
     </g>
    </g>
    <g id="ytick_5">
     <g id="line2d_11">
      <path clip-path="url(#pc5fbc123fd)" d="M 54 56.304 
L 388.8 56.304 
" style="fill:none;stroke:#ffffff;stroke-linecap:round;"/>
     </g>
     <g id="text_12">
      <!-- 4 -->
      <g style="fill:#262626;" transform="translate(38.382969 60.240797)scale(0.11 -0.11)">
       <use xlink:href="#ArialMT-52"/>
      </g>
     </g>
    </g>
    <g id="text_13">
     <!-- Action 1 (Avg. over 25 episodes) -->
     <defs>
      <path d="M -0.140625 0 
L 27.34375 71.578125 
L 37.546875 71.578125 
L 66.84375 0 
L 56.0625 0 
L 47.703125 21.6875 
L 17.78125 21.6875 
L 9.90625 0 
z
M 20.515625 29.390625 
L 44.78125 29.390625 
L 37.3125 49.21875 
Q 33.890625 58.25 32.234375 64.0625 
Q 30.859375 57.171875 28.375 50.390625 
z
" id="ArialMT-65"/>
      <path d="M 40.4375 19 
L 49.078125 17.875 
Q 47.65625 8.9375 41.8125 3.875 
Q 35.984375 -1.171875 27.484375 -1.171875 
Q 16.84375 -1.171875 10.375 5.78125 
Q 3.90625 12.75 3.90625 25.734375 
Q 3.90625 34.125 6.6875 40.421875 
Q 9.46875 46.734375 15.15625 49.875 
Q 20.84375 53.03125 27.546875 53.03125 
Q 35.984375 53.03125 41.359375 48.75 
Q 46.734375 44.484375 48.25 36.625 
L 39.703125 35.296875 
Q 38.484375 40.53125 35.375 43.15625 
Q 32.28125 45.796875 27.875 45.796875 
Q 21.234375 45.796875 17.078125 41.03125 
Q 12.9375 36.28125 12.9375 25.984375 
Q 12.9375 15.53125 16.9375 10.796875 
Q 20.953125 6.0625 27.390625 6.0625 
Q 32.5625 6.0625 36.03125 9.234375 
Q 39.5 12.40625 40.4375 19 
z
" id="ArialMT-99"/>
      <path d="M 25.78125 7.859375 
L 27.046875 0.09375 
Q 23.34375 -0.6875 20.40625 -0.6875 
Q 15.625 -0.6875 12.984375 0.828125 
Q 10.359375 2.34375 9.28125 4.8125 
Q 8.203125 7.28125 8.203125 15.1875 
L 8.203125 45.015625 
L 1.765625 45.015625 
L 1.765625 51.859375 
L 8.203125 51.859375 
L 8.203125 64.703125 
L 16.9375 69.96875 
L 16.9375 51.859375 
L 25.78125 51.859375 
L 25.78125 45.015625 
L 16.9375 45.015625 
L 16.9375 14.703125 
Q 16.9375 10.9375 17.40625 9.859375 
Q 17.875 8.796875 18.921875 8.15625 
Q 19.96875 7.515625 21.921875 7.515625 
Q 23.390625 7.515625 25.78125 7.859375 
z
" id="ArialMT-116"/>
      <path d="M 23.390625 -21.046875 
Q 16.109375 -11.859375 11.078125 0.4375 
Q 6.0625 12.75 6.0625 25.921875 
Q 6.0625 37.546875 9.8125 48.1875 
Q 14.203125 60.546875 23.390625 72.796875 
L 29.6875 72.796875 
Q 23.78125 62.640625 21.875 58.296875 
Q 18.890625 51.5625 17.1875 44.234375 
Q 15.09375 35.109375 15.09375 25.875 
Q 15.09375 2.390625 29.6875 -21.046875 
z
" id="ArialMT-40"/>
      <path d="M 21 0 
L 1.265625 51.859375 
L 10.546875 51.859375 
L 21.6875 20.796875 
Q 23.484375 15.765625 25 10.359375 
Q 26.171875 14.453125 28.265625 20.21875 
L 39.796875 51.859375 
L 48.828125 51.859375 
L 29.203125 0 
z
" id="ArialMT-118"/>
      <path d="M 4.15625 18.75 
L 13.375 19.53125 
Q 14.40625 12.796875 18.140625 9.390625 
Q 21.875 6 27.15625 6 
Q 33.5 6 37.890625 10.78125 
Q 42.28125 15.578125 42.28125 23.484375 
Q 42.28125 31 38.0625 35.34375 
Q 33.84375 39.703125 27 39.703125 
Q 22.75 39.703125 19.328125 37.765625 
Q 15.921875 35.84375 13.96875 32.765625 
L 5.71875 33.84375 
L 12.640625 70.609375 
L 48.25 70.609375 
L 48.25 62.203125 
L 19.671875 62.203125 
L 15.828125 42.96875 
Q 22.265625 47.46875 29.34375 47.46875 
Q 38.71875 47.46875 45.15625 40.96875 
Q 51.609375 34.46875 51.609375 24.265625 
Q 51.609375 14.546875 45.953125 7.46875 
Q 39.0625 -1.21875 27.15625 -1.21875 
Q 17.390625 -1.21875 11.203125 4.25 
Q 5.03125 9.71875 4.15625 18.75 
z
" id="ArialMT-53"/>
      <path d="M 40.234375 0 
L 40.234375 6.546875 
Q 35.296875 -1.171875 25.734375 -1.171875 
Q 19.53125 -1.171875 14.328125 2.25 
Q 9.125 5.671875 6.265625 11.796875 
Q 3.421875 17.921875 3.421875 25.875 
Q 3.421875 33.640625 6 39.96875 
Q 8.59375 46.296875 13.765625 49.65625 
Q 18.953125 53.03125 25.34375 53.03125 
Q 30.03125 53.03125 33.6875 51.046875 
Q 37.359375 49.078125 39.65625 45.90625 
L 39.65625 71.578125 
L 48.390625 71.578125 
L 48.390625 0 
z
M 12.453125 25.875 
Q 12.453125 15.921875 16.640625 10.984375 
Q 20.84375 6.0625 26.5625 6.0625 
Q 32.328125 6.0625 36.34375 10.765625 
Q 40.375 15.484375 40.375 25.140625 
Q 40.375 35.796875 36.265625 40.765625 
Q 32.171875 45.75 26.171875 45.75 
Q 20.3125 45.75 16.375 40.96875 
Q 12.453125 36.1875 12.453125 25.875 
z
" id="ArialMT-100"/>
      <path d="M 12.359375 -21.046875 
L 6.0625 -21.046875 
Q 20.65625 2.390625 20.65625 25.875 
Q 20.65625 35.0625 18.5625 44.09375 
Q 16.890625 51.421875 13.921875 58.15625 
Q 12.015625 62.546875 6.0625 72.796875 
L 12.359375 72.796875 
Q 21.53125 60.546875 25.921875 48.1875 
Q 29.6875 37.546875 29.6875 25.921875 
Q 29.6875 12.75 24.625 0.4375 
Q 19.578125 -11.859375 12.359375 -21.046875 
z
" id="ArialMT-41"/>
     </defs>
     <g style="fill:#262626;" transform="translate(31.857344 229.986562)rotate(-90)scale(0.12 -0.12)">
      <use xlink:href="#ArialMT-65"/>
      <use x="66.699219" xlink:href="#ArialMT-99"/>
      <use x="116.699219" xlink:href="#ArialMT-116"/>
      <use x="144.482422" xlink:href="#ArialMT-105"/>
      <use x="166.699219" xlink:href="#ArialMT-111"/>
      <use x="222.314453" xlink:href="#ArialMT-110"/>
      <use x="277.929688" xlink:href="#ArialMT-32"/>
      <use x="305.712891" xlink:href="#ArialMT-49"/>
      <use x="361.328125" xlink:href="#ArialMT-32"/>
      <use x="389.111328" xlink:href="#ArialMT-40"/>
      <use x="422.412109" xlink:href="#ArialMT-65"/>
      <use x="489.095703" xlink:href="#ArialMT-118"/>
      <use x="539.095703" xlink:href="#ArialMT-103"/>
      <use x="594.710938" xlink:href="#ArialMT-46"/>
      <use x="622.494141" xlink:href="#ArialMT-32"/>
      <use x="650.277344" xlink:href="#ArialMT-111"/>
      <use x="705.892578" xlink:href="#ArialMT-118"/>
      <use x="755.892578" xlink:href="#ArialMT-101"/>
      <use x="811.507812" xlink:href="#ArialMT-114"/>
      <use x="844.808594" xlink:href="#ArialMT-32"/>
      <use x="872.591797" xlink:href="#ArialMT-50"/>
      <use x="928.207031" xlink:href="#ArialMT-53"/>
      <use x="983.822266" xlink:href="#ArialMT-32"/>
      <use x="1011.605469" xlink:href="#ArialMT-101"/>
      <use x="1067.220703" xlink:href="#ArialMT-112"/>
      <use x="1122.835938" xlink:href="#ArialMT-105"/>
      <use x="1145.052734" xlink:href="#ArialMT-115"/>
      <use x="1195.052734" xlink:href="#ArialMT-111"/>
      <use x="1250.667969" xlink:href="#ArialMT-100"/>
      <use x="1306.283203" xlink:href="#ArialMT-101"/>
      <use x="1361.898438" xlink:href="#ArialMT-115"/>
      <use x="1411.898438" xlink:href="#ArialMT-41"/>
     </g>
    </g>
   </g>
   <g id="line2d_12">
    <path clip-path="url(#pc5fbc123fd)" d="M 71.925642 146.75904 
L 72.151264 138.06144 
L 72.264074 141.54048 
L 72.376885 138.06144 
L 72.489696 141.54048 
L 72.602507 141.54048 
L 72.940939 129.36384 
L 73.05375 125.8848 
L 73.166561 125.8848 
L 73.730615 141.54048 
L 73.843426 141.54048 
L 73.956237 145.01952 
L 74.069048 151.9776 
L 74.181859 150.23808 
L 74.520291 139.80096 
L 74.633102 139.80096 
L 74.858724 143.28 
L 74.971534 148.49856 
L 75.084345 145.01952 
L 75.197156 145.01952 
L 75.309967 143.28 
L 75.535589 150.23808 
L 75.648399 148.49856 
L 75.76121 155.45664 
L 75.874021 153.71712 
L 75.986832 153.71712 
L 76.099643 151.9776 
L 76.889319 118.92672 
L 77.340562 136.32192 
L 77.453373 138.06144 
L 77.566184 136.32192 
L 77.678995 132.84288 
L 77.791805 125.8848 
L 78.017427 134.5824 
L 78.243049 131.10336 
L 78.581481 122.40576 
L 78.694292 124.14528 
L 78.807103 127.62432 
L 78.919914 125.8848 
L 79.032725 125.8848 
L 79.258346 134.5824 
L 79.483968 141.54048 
L 79.596779 139.80096 
L 79.935211 131.10336 
L 80.048022 131.10336 
L 80.160833 124.14528 
L 80.273644 124.14528 
L 80.386455 122.40576 
L 80.612076 129.36384 
L 80.724887 127.62432 
L 80.837698 127.62432 
L 80.950509 129.36384 
L 81.06332 129.36384 
L 81.401752 141.54048 
L 81.514563 145.01952 
L 81.627374 143.28 
L 81.852995 143.28 
L 81.965806 145.01952 
L 82.078617 145.01952 
L 82.191428 141.54048 
L 82.304239 141.54048 
L 82.529861 151.9776 
L 82.642671 150.23808 
L 82.755482 155.45664 
L 82.868293 151.9776 
L 82.981104 158.93568 
L 83.093915 153.71712 
L 83.206726 155.45664 
L 83.319536 151.9776 
L 83.545158 158.93568 
L 83.77078 155.45664 
L 83.883591 151.9776 
L 83.996401 151.9776 
L 84.222023 141.54048 
L 84.447645 145.01952 
L 84.560456 145.01952 
L 84.673266 150.23808 
L 84.786077 150.23808 
L 84.898888 145.01952 
L 85.011699 146.75904 
L 85.12451 146.75904 
L 85.237321 145.01952 
L 85.350131 138.06144 
L 85.462942 141.54048 
L 85.575753 139.80096 
L 85.688564 139.80096 
L 85.801375 134.5824 
L 86.026996 138.06144 
L 86.139807 136.32192 
L 86.252618 129.36384 
L 86.591051 129.36384 
L 86.703861 132.84288 
L 86.816672 132.84288 
L 86.929483 134.5824 
L 87.042294 138.06144 
L 87.267916 129.36384 
L 87.380726 132.84288 
L 87.606348 122.40576 
L 87.719159 129.36384 
L 87.83197 129.36384 
L 87.944781 134.5824 
L 88.057591 132.84288 
L 88.170402 139.80096 
L 88.283213 139.80096 
L 88.396024 138.06144 
L 88.734456 148.49856 
L 88.847267 148.49856 
L 88.960078 146.75904 
L 89.072889 153.71712 
L 89.1857 148.49856 
L 89.524132 157.19616 
L 89.749754 148.49856 
L 89.862565 150.23808 
L 89.975376 148.49856 
L 90.088187 150.23808 
L 90.200997 153.71712 
L 90.313808 153.71712 
L 90.426619 157.19616 
L 90.53943 155.45664 
L 90.652241 151.9776 
L 90.877862 143.28 
L 90.990673 139.80096 
L 91.103484 139.80096 
L 91.329106 136.32192 
L 91.667538 127.62432 
L 91.780349 131.10336 
L 91.89316 125.8848 
L 92.005971 131.10336 
L 92.118782 125.8848 
L 92.231592 127.62432 
L 92.457214 120.66624 
L 92.570025 127.62432 
L 92.795647 127.62432 
L 92.908457 131.10336 
L 93.021268 125.8848 
L 93.134079 132.84288 
L 93.24689 132.84288 
L 93.359701 131.10336 
L 93.472512 131.10336 
L 94.036566 148.49856 
L 94.149377 145.01952 
L 94.262187 145.01952 
L 94.374998 143.28 
L 94.713431 151.9776 
L 94.939052 155.45664 
L 95.051863 148.49856 
L 95.277485 155.45664 
L 95.390296 153.71712 
L 95.503107 155.45664 
L 95.841539 165.89376 
L 95.95435 164.15424 
L 96.067161 160.6752 
L 96.179972 164.15424 
L 96.405593 164.15424 
L 96.518404 158.93568 
L 96.631215 158.93568 
L 96.744026 157.19616 
L 96.856837 158.93568 
L 97.30808 172.85184 
L 97.646513 158.93568 
L 97.759323 158.93568 
L 97.872134 160.6752 
L 97.984945 160.6752 
L 98.097756 165.89376 
L 98.210567 164.15424 
L 98.323378 158.93568 
L 98.436188 162.41472 
L 98.548999 155.45664 
L 98.887432 155.45664 
L 99.000243 153.71712 
L 99.338675 169.3728 
L 99.451486 164.15424 
L 99.564297 164.15424 
L 99.789918 160.6752 
L 100.128351 145.01952 
L 100.353973 153.71712 
L 100.466783 155.45664 
L 100.579594 153.71712 
L 100.692405 153.71712 
L 100.918027 139.80096 
L 101.143648 148.49856 
L 101.256459 143.28 
L 101.36927 143.28 
L 101.594892 134.5824 
L 101.707703 139.80096 
L 101.820514 134.5824 
L 101.933324 134.5824 
L 102.046135 129.36384 
L 102.158946 129.36384 
L 102.384568 136.32192 
L 102.610189 129.36384 
L 102.723 131.10336 
L 102.948622 141.54048 
L 103.061433 141.54048 
L 103.174244 143.28 
L 103.287054 146.75904 
L 103.512676 143.28 
L 103.738298 150.23808 
L 103.963919 139.80096 
L 104.07673 139.80096 
L 104.302352 150.23808 
L 104.415163 153.71712 
L 104.527974 153.71712 
L 104.640784 158.93568 
L 104.753595 157.19616 
L 104.866406 158.93568 
L 104.979217 153.71712 
L 105.092028 155.45664 
L 105.317649 155.45664 
L 105.43046 158.93568 
L 105.543271 157.19616 
L 105.656082 158.93568 
L 106.107325 146.75904 
L 106.332947 155.45664 
L 106.558569 148.49856 
L 106.78419 157.19616 
L 106.897001 155.45664 
L 107.009812 150.23808 
L 107.122623 153.71712 
L 107.235434 151.9776 
L 107.573866 134.5824 
L 107.686677 139.80096 
L 107.799488 138.06144 
L 108.02511 124.14528 
L 108.13792 129.36384 
L 108.250731 127.62432 
L 108.363542 131.10336 
L 108.476353 125.8848 
L 108.701975 131.10336 
L 108.814785 129.36384 
L 109.040407 117.1872 
L 109.266029 127.62432 
L 109.37884 127.62432 
L 109.49165 120.66624 
L 109.604461 122.40576 
L 109.717272 122.40576 
L 109.830083 120.66624 
L 109.942894 113.70816 
L 110.281326 113.70816 
L 110.394137 115.44768 
L 110.506948 111.96864 
L 110.619759 111.96864 
L 110.84538 122.40576 
L 111.183813 111.96864 
L 111.296624 117.1872 
L 111.522245 113.70816 
L 111.635056 118.92672 
L 111.860678 118.92672 
L 111.973489 117.1872 
L 112.0863 117.1872 
L 112.311921 127.62432 
L 112.424732 125.8848 
L 112.763165 146.75904 
L 112.875975 145.01952 
L 113.214408 145.01952 
L 113.327219 146.75904 
L 113.44003 153.71712 
L 113.665651 145.01952 
L 113.778462 146.75904 
L 113.891273 146.75904 
L 114.004084 153.71712 
L 114.229706 143.28 
L 114.342516 145.01952 
L 114.79376 145.01952 
L 115.019381 136.32192 
L 115.132192 136.32192 
L 115.583436 118.92672 
L 115.696246 118.92672 
L 115.809057 124.14528 
L 116.14749 124.14528 
L 116.373111 115.44768 
L 116.485922 118.92672 
L 116.598733 115.44768 
L 116.711544 122.40576 
L 116.824355 115.44768 
L 116.937166 115.44768 
L 117.049976 117.1872 
L 117.162787 120.66624 
L 117.275598 120.66624 
L 117.50122 132.84288 
L 117.614031 131.10336 
L 117.839652 143.28 
L 117.952463 141.54048 
L 118.065274 148.49856 
L 118.178085 148.49856 
L 118.516517 162.41472 
L 118.629328 157.19616 
L 118.742139 157.19616 
L 118.85495 162.41472 
L 118.967761 157.19616 
L 119.080571 157.19616 
L 119.193382 164.15424 
L 119.306193 160.6752 
L 119.419004 164.15424 
L 119.531815 158.93568 
L 119.757436 158.93568 
L 119.870247 157.19616 
L 119.983058 157.19616 
L 120.321491 139.80096 
L 120.434302 138.06144 
L 120.659923 125.8848 
L 120.772734 124.14528 
L 120.885545 124.14528 
L 121.336788 106.75008 
L 121.56241 110.22912 
L 121.675221 106.75008 
L 121.788032 108.4896 
L 121.900842 115.44768 
L 122.013653 110.22912 
L 122.126464 117.1872 
L 122.239275 113.70816 
L 122.352086 113.70816 
L 122.690518 127.62432 
L 122.803329 122.40576 
L 123.254572 129.36384 
L 123.367383 129.36384 
L 123.480194 134.5824 
L 123.593005 134.5824 
L 123.705816 129.36384 
L 123.818627 131.10336 
L 123.931437 131.10336 
L 124.044248 132.84288 
L 124.157059 127.62432 
L 124.382681 127.62432 
L 124.495492 124.14528 
L 124.946735 124.14528 
L 125.059546 129.36384 
L 125.172357 129.36384 
L 125.285167 131.10336 
L 125.397978 136.32192 
L 125.510789 136.32192 
L 125.6236 141.54048 
L 125.736411 139.80096 
L 125.962032 148.49856 
L 126.074843 146.75904 
L 126.187654 148.49856 
L 126.300465 145.01952 
L 126.413276 148.49856 
L 126.526087 146.75904 
L 126.638897 148.49856 
L 126.864519 145.01952 
L 127.202952 158.93568 
L 127.315763 160.6752 
L 127.428573 164.15424 
L 127.541384 158.93568 
L 127.654195 158.93568 
L 127.879817 151.9776 
L 127.992628 150.23808 
L 128.105438 150.23808 
L 128.218249 148.49856 
L 128.443871 139.80096 
L 128.556682 141.54048 
L 128.669493 139.80096 
L 128.782303 136.32192 
L 129.007925 136.32192 
L 129.120736 138.06144 
L 129.233547 136.32192 
L 129.459168 143.28 
L 129.571979 150.23808 
L 129.68479 150.23808 
L 129.797601 146.75904 
L 129.910412 139.80096 
L 130.023223 141.54048 
L 130.136033 146.75904 
L 130.248844 146.75904 
L 130.361655 150.23808 
L 130.587277 146.75904 
L 130.812898 146.75904 
L 131.03852 138.06144 
L 131.264142 141.54048 
L 131.376953 141.54048 
L 131.489763 139.80096 
L 131.602574 136.32192 
L 131.828196 136.32192 
L 132.053818 131.10336 
L 132.166628 129.36384 
L 132.39225 118.92672 
L 132.505061 120.66624 
L 132.730683 129.36384 
L 133.069115 117.1872 
L 133.181926 117.1872 
L 133.407548 124.14528 
L 133.520359 120.66624 
L 133.633169 120.66624 
L 133.74598 122.40576 
L 133.858791 120.66624 
L 133.971602 120.66624 
L 134.197224 117.1872 
L 134.422845 120.66624 
L 134.874089 138.06144 
L 134.986899 136.32192 
L 135.09971 138.06144 
L 135.212521 138.06144 
L 135.325332 143.28 
L 135.438143 141.54048 
L 135.550954 141.54048 
L 135.889386 151.9776 
L 136.002197 148.49856 
L 136.115008 148.49856 
L 136.340629 157.19616 
L 136.45344 158.93568 
L 136.679062 169.3728 
L 136.791873 167.63328 
L 136.904684 169.3728 
L 137.017494 176.33088 
L 137.130305 176.33088 
L 137.243116 181.54944 
L 137.355927 179.80992 
L 137.694359 167.63328 
L 137.80717 174.59136 
L 138.032792 171.11232 
L 138.145603 165.89376 
L 138.258414 165.89376 
L 138.709657 148.49856 
L 138.822468 146.75904 
L 138.935279 148.49856 
L 139.048089 146.75904 
L 139.1609 148.49856 
L 139.386522 148.49856 
L 139.499333 143.28 
L 139.612144 150.23808 
L 139.724955 150.23808 
L 140.063387 139.80096 
L 140.176198 141.54048 
L 140.289009 146.75904 
L 140.40182 146.75904 
L 140.51463 145.01952 
L 140.627441 145.01952 
L 140.965874 158.93568 
L 141.078685 160.6752 
L 141.304306 171.11232 
L 141.417117 169.3728 
L 141.529928 169.3728 
L 141.642739 172.85184 
L 141.75555 172.85184 
L 141.981171 165.89376 
L 142.093982 171.11232 
L 142.206793 171.11232 
L 142.319604 176.33088 
L 142.432415 169.3728 
L 142.545225 169.3728 
L 142.658036 171.11232 
L 142.770847 171.11232 
L 142.883658 174.59136 
L 142.996469 171.11232 
L 143.10928 171.11232 
L 143.334901 183.28896 
L 143.447712 178.0704 
L 143.560523 178.0704 
L 143.673334 179.80992 
L 143.786145 174.59136 
L 143.898955 174.59136 
L 144.011766 171.11232 
L 144.124577 171.11232 
L 144.237388 174.59136 
L 144.46301 174.59136 
L 144.57582 172.85184 
L 144.688631 176.33088 
L 144.914253 171.11232 
L 145.027064 169.3728 
L 145.139875 162.41472 
L 145.252685 164.15424 
L 145.365496 158.93568 
L 145.478307 158.93568 
L 145.591118 162.41472 
L 145.81674 158.93568 
L 145.929551 155.45664 
L 146.155172 143.28 
L 146.380794 139.80096 
L 146.493605 139.80096 
L 146.606416 143.28 
L 146.719226 141.54048 
L 146.832037 145.01952 
L 146.944848 143.28 
L 147.057659 145.01952 
L 147.17047 145.01952 
L 147.283281 146.75904 
L 147.396091 146.75904 
L 147.734524 136.32192 
L 147.847335 136.32192 
L 148.072956 145.01952 
L 148.185767 146.75904 
L 148.5242 132.84288 
L 148.637011 131.10336 
L 148.749821 127.62432 
L 148.862632 127.62432 
L 148.975443 125.8848 
L 149.088254 131.10336 
L 149.201065 127.62432 
L 149.313876 127.62432 
L 149.539497 118.92672 
L 149.765119 108.4896 
L 149.87793 108.4896 
L 149.990741 111.96864 
L 150.216362 103.27104 
L 150.329173 105.01056 
L 150.554795 111.96864 
L 150.780416 103.27104 
L 150.893227 103.27104 
L 151.006038 101.53152 
L 151.23166 108.4896 
L 151.344471 108.4896 
L 151.682903 120.66624 
L 151.795714 122.40576 
L 151.908525 118.92672 
L 152.021336 120.66624 
L 152.134147 117.1872 
L 152.359768 120.66624 
L 152.58539 131.10336 
L 152.923822 122.40576 
L 153.036633 124.14528 
L 153.149444 124.14528 
L 153.375066 117.1872 
L 153.600687 125.8848 
L 153.713498 122.40576 
L 153.826309 125.8848 
L 153.93912 125.8848 
L 154.164742 132.84288 
L 154.390363 132.84288 
L 154.615985 141.54048 
L 154.728796 139.80096 
L 154.841607 141.54048 
L 154.954417 141.54048 
L 155.405661 153.71712 
L 155.518472 151.9776 
L 155.744093 164.15424 
L 155.856904 162.41472 
L 155.969715 164.15424 
L 156.308147 178.0704 
L 156.420958 179.80992 
L 156.533769 183.28896 
L 156.64658 183.28896 
L 156.759391 185.02848 
L 156.872202 183.28896 
L 156.985012 185.02848 
L 157.097823 179.80992 
L 157.210634 181.54944 
L 157.323445 178.0704 
L 157.436256 171.11232 
L 157.549067 174.59136 
L 157.774688 167.63328 
L 157.887499 164.15424 
L 158.113121 155.45664 
L 158.225932 153.71712 
L 158.338743 160.6752 
L 158.564364 157.19616 
L 158.677175 162.41472 
L 159.128418 148.49856 
L 159.35404 139.80096 
L 159.579662 132.84288 
L 159.692473 136.32192 
L 159.805283 129.36384 
L 159.918094 132.84288 
L 160.030905 127.62432 
L 160.143716 127.62432 
L 160.369338 131.10336 
L 160.482148 131.10336 
L 160.70777 134.5824 
L 160.820581 138.06144 
L 160.933392 138.06144 
L 161.046203 134.5824 
L 161.271824 125.8848 
L 161.497446 125.8848 
L 161.723068 132.84288 
L 161.835878 132.84288 
L 161.948689 131.10336 
L 162.174311 138.06144 
L 162.287122 141.54048 
L 162.399933 141.54048 
L 162.512743 139.80096 
L 162.851176 151.9776 
L 162.963987 150.23808 
L 163.076798 150.23808 
L 163.189608 148.49856 
L 163.41523 157.19616 
L 163.640852 160.6752 
L 163.753663 157.19616 
L 163.866473 160.6752 
L 163.979284 167.63328 
L 164.092095 165.89376 
L 164.317717 158.93568 
L 164.430528 160.6752 
L 164.543338 160.6752 
L 164.656149 162.41472 
L 164.881771 158.93568 
L 164.994582 160.6752 
L 165.107393 164.15424 
L 165.333014 164.15424 
L 165.445825 165.89376 
L 165.558636 164.15424 
L 165.671447 164.15424 
L 165.897069 172.85184 
L 166.461123 157.19616 
L 166.573934 160.6752 
L 166.799555 151.9776 
L 167.025177 158.93568 
L 167.137988 157.19616 
L 167.250799 157.19616 
L 167.363609 155.45664 
L 167.47642 151.9776 
L 167.702042 157.19616 
L 167.814853 155.45664 
L 167.927664 150.23808 
L 168.040474 150.23808 
L 168.266096 145.01952 
L 168.378907 146.75904 
L 168.491718 146.75904 
L 168.604529 143.28 
L 168.717339 143.28 
L 169.055772 158.93568 
L 169.168583 160.6752 
L 169.394204 167.63328 
L 169.732637 176.33088 
L 169.845448 178.0704 
L 169.958259 185.02848 
L 170.071069 183.28896 
L 170.296691 195.4656 
L 170.409502 197.20512 
L 170.522313 197.20512 
L 170.635124 198.94464 
L 170.747934 204.1632 
L 170.860745 204.1632 
L 171.086367 211.12128 
L 171.199178 211.12128 
L 171.311989 207.64224 
L 171.4248 207.64224 
L 171.763232 198.94464 
L 171.876043 197.20512 
L 171.988854 191.98656 
L 172.101665 191.98656 
L 172.214475 186.768 
L 172.327286 186.768 
L 172.77853 169.3728 
L 173.342584 153.71712 
L 173.455395 153.71712 
L 173.568205 151.9776 
L 173.681016 151.9776 
L 173.793827 150.23808 
L 174.019449 143.28 
L 174.24507 150.23808 
L 174.357881 148.49856 
L 174.470692 148.49856 
L 174.583503 151.9776 
L 174.696314 150.23808 
L 174.809125 150.23808 
L 174.921935 148.49856 
L 175.034746 153.71712 
L 175.260368 148.49856 
L 175.373179 148.49856 
L 175.48599 146.75904 
L 175.5988 148.49856 
L 175.711611 148.49856 
L 175.824422 153.71712 
L 175.937233 150.23808 
L 176.050044 150.23808 
L 176.162855 151.9776 
L 176.501287 139.80096 
L 176.614098 136.32192 
L 176.726909 136.32192 
L 176.83972 132.84288 
L 177.065341 132.84288 
L 177.178152 134.5824 
L 177.290963 134.5824 
L 177.403774 131.10336 
L 177.629396 136.32192 
L 177.742206 138.06144 
L 177.855017 138.06144 
L 178.531882 169.3728 
L 178.644693 169.3728 
L 178.870315 178.0704 
L 178.983126 178.0704 
L 179.208747 186.768 
L 179.772801 209.38176 
L 179.885612 211.12128 
L 179.998423 216.33984 
L 180.111234 216.33984 
L 180.224045 221.5584 
L 180.336856 221.5584 
L 180.449666 225.03744 
L 180.675288 225.03744 
L 180.788099 219.81888 
L 181.013721 219.81888 
L 181.126531 216.33984 
L 181.239342 216.33984 
L 181.577775 207.64224 
L 181.690586 209.38176 
L 181.803396 209.38176 
L 181.916207 211.12128 
L 182.029018 211.12128 
L 182.367451 195.4656 
L 182.593072 195.4656 
L 182.705883 191.98656 
L 182.818694 191.98656 
L 182.931505 188.50752 
L 183.044316 188.50752 
L 183.269937 185.02848 
L 183.495559 185.02848 
L 183.60837 190.24704 
L 183.721181 190.24704 
L 183.833992 183.28896 
L 183.946802 186.768 
L 184.059613 186.768 
L 184.398046 195.4656 
L 184.510857 193.72608 
L 184.9621 193.72608 
L 185.074911 197.20512 
L 185.187722 204.1632 
L 185.413343 204.1632 
L 185.526154 200.68416 
L 185.638965 200.68416 
L 185.751776 198.94464 
L 185.864587 198.94464 
L 185.977397 200.68416 
L 186.090208 198.94464 
L 186.541452 198.94464 
L 186.654262 205.90272 
L 186.767073 204.1632 
L 186.879884 200.68416 
L 187.218317 200.68416 
L 187.331127 202.42368 
L 187.556749 202.42368 
L 187.782371 198.94464 
L 188.233614 198.94464 
L 188.346425 205.90272 
L 188.459236 198.94464 
L 188.572047 200.68416 
L 188.684857 197.20512 
L 188.797668 190.24704 
L 188.910479 191.98656 
L 189.02329 188.50752 
L 189.136101 188.50752 
L 189.812966 151.9776 
L 189.925777 146.75904 
L 190.038588 146.75904 
L 190.264209 136.32192 
L 190.37702 134.5824 
L 190.489831 129.36384 
L 190.828263 129.36384 
L 191.053885 120.66624 
L 191.166696 118.92672 
L 191.392318 127.62432 
L 191.505128 129.36384 
L 191.617939 134.5824 
L 191.73075 134.5824 
L 191.843561 138.06144 
L 191.956372 131.10336 
L 192.294804 131.10336 
L 192.407615 138.06144 
L 192.633237 138.06144 
L 192.746048 136.32192 
L 192.858858 129.36384 
L 192.971669 136.32192 
L 193.310102 127.62432 
L 193.422913 127.62432 
L 193.648534 113.70816 
L 193.761345 113.70816 
L 194.663832 73.6992 
L 194.776643 80.65728 
L 195.115075 80.65728 
L 195.227886 73.6992 
L 195.679129 73.6992 
L 195.79194 66.74112 
L 197.032859 66.74112 
L 197.14567 63.26208 
L 197.484103 63.26208 
L 197.596914 56.304 
L 197.709724 58.04352 
L 197.822535 58.04352 
L 198.048157 61.52256 
L 198.160968 61.52256 
L 198.273779 63.26208 
L 199.176265 63.26208 
L 199.289076 65.0016 
L 199.627509 65.0016 
L 199.740319 66.74112 
L 199.965941 66.74112 
L 200.078752 68.48064 
L 200.417184 68.48064 
L 200.529995 66.74112 
L 200.642806 66.74112 
L 200.868428 63.26208 
L 200.981239 63.26208 
L 201.094049 61.52256 
L 201.319671 61.52256 
L 201.996536 89.35488 
L 202.222158 98.05248 
L 202.786212 122.40576 
L 202.899023 122.40576 
L 204.139942 179.80992 
L 204.252753 179.80992 
L 204.365564 174.59136 
L 204.591185 174.59136 
L 204.703996 178.0704 
L 205.493672 178.0704 
L 205.606483 172.85184 
L 205.719294 174.59136 
L 205.832105 174.59136 
L 205.944915 172.85184 
L 206.960213 188.50752 
L 207.073024 183.28896 
L 207.185835 188.50752 
L 207.298645 188.50752 
L 207.411456 190.24704 
L 207.524267 190.24704 
L 207.637078 191.98656 
L 207.749889 190.24704 
L 207.97551 193.72608 
L 208.313943 193.72608 
L 208.539565 200.68416 
L 208.652375 200.68416 
L 208.765186 204.1632 
L 208.990808 204.1632 
L 209.103619 202.42368 
L 209.21643 197.20512 
L 209.329241 197.20512 
L 209.442051 190.24704 
L 209.554862 190.24704 
L 209.667673 188.50752 
L 209.780484 185.02848 
L 210.006106 185.02848 
L 210.118916 186.768 
L 210.344538 179.80992 
L 210.457349 178.0704 
L 210.57016 174.59136 
L 211.134214 145.01952 
L 211.698268 115.44768 
L 211.92389 103.27104 
L 212.036701 101.53152 
L 212.149511 94.57344 
L 212.262322 94.57344 
L 212.600755 78.91776 
L 212.713566 78.91776 
L 213.051998 65.0016 
L 213.164809 63.26208 
L 213.27762 58.04352 
L 213.390431 58.04352 
L 213.616052 66.74112 
L 213.728863 66.74112 
L 213.841674 71.95968 
L 215.533837 71.95968 
L 215.646647 75.43872 
L 216.210702 75.43872 
L 216.436323 66.74112 
L 216.549134 70.22016 
L 216.661945 65.0016 
L 217.33881 65.0016 
L 217.677242 82.3968 
L 218.015675 92.83392 
L 218.354107 92.83392 
L 218.466918 89.35488 
L 218.69254 89.35488 
L 218.805351 87.61536 
L 219.256594 87.61536 
L 219.369405 84.13632 
L 220.159081 84.13632 
L 220.497513 66.74112 
L 220.835946 56.304 
L 274.759526 56.304 
L 277.579796 143.28 
L 373.469007 143.28 
L 373.469007 143.28 
" style="fill:none;stroke:#4c72b0;stroke-linecap:round;stroke-width:1.5;"/>
   </g>
   <g id="line2d_13">
    <path clip-path="url(#pc5fbc123fd)" d="M 74.617093 153.71712 
L 74.842048 153.71712 
L 75.291957 150.23808 
L 75.516912 145.01952 
L 75.741867 146.75904 
L 76.191776 146.75904 
L 76.41673 141.54048 
L 77.091594 136.32192 
L 77.316549 141.54048 
L 77.541504 136.32192 
L 77.766458 134.5824 
L 77.991413 127.62432 
L 78.216368 124.14528 
L 78.441322 124.14528 
L 78.666277 117.1872 
L 78.891232 117.1872 
L 79.116186 118.92672 
L 79.341141 122.40576 
L 79.566096 124.14528 
L 79.79105 120.66624 
L 80.240959 108.4896 
L 80.690869 108.4896 
L 81.140778 115.44768 
L 81.365733 111.96864 
L 81.815642 122.40576 
L 82.040597 120.66624 
L 82.265551 124.14528 
L 82.715461 120.66624 
L 83.16537 120.66624 
L 83.390325 118.92672 
L 83.615279 122.40576 
L 84.065188 125.8848 
L 84.290143 129.36384 
L 84.515098 127.62432 
L 84.740052 127.62432 
L 84.965007 129.36384 
L 85.189962 125.8848 
L 85.414916 125.8848 
L 85.639871 124.14528 
L 85.864826 124.14528 
L 86.08978 120.66624 
L 86.314735 122.40576 
L 86.53969 125.8848 
L 86.764644 122.40576 
L 86.989599 120.66624 
L 87.439508 111.96864 
L 87.664463 117.1872 
L 87.889417 113.70816 
L 88.339327 124.14528 
L 88.564281 124.14528 
L 88.789236 127.62432 
L 89.014191 125.8848 
L 89.239145 122.40576 
L 89.4641 124.14528 
L 89.689055 120.66624 
L 89.914009 122.40576 
L 90.138964 125.8848 
L 90.363919 127.62432 
L 90.588873 122.40576 
L 90.813828 127.62432 
L 91.263737 127.62432 
L 91.488692 134.5824 
L 91.938601 138.06144 
L 92.163556 131.10336 
L 92.38851 132.84288 
L 92.613465 132.84288 
L 92.83842 136.32192 
L 93.513284 141.54048 
L 93.738238 141.54048 
L 93.963193 139.80096 
L 94.413102 132.84288 
L 94.638057 138.06144 
L 94.863011 138.06144 
L 95.087966 132.84288 
L 95.312921 139.80096 
L 95.537875 134.5824 
L 95.76283 132.84288 
L 96.437694 132.84288 
L 96.662649 131.10336 
L 96.887603 138.06144 
L 97.112558 132.84288 
L 97.562467 129.36384 
L 97.787422 136.32192 
L 98.012377 134.5824 
L 98.237331 141.54048 
L 98.68724 145.01952 
L 99.13715 145.01952 
L 99.362104 141.54048 
L 99.587059 139.80096 
L 99.812014 136.32192 
L 100.036968 138.06144 
L 100.261923 132.84288 
L 100.486878 136.32192 
L 100.711832 141.54048 
L 100.936787 136.32192 
L 101.161742 136.32192 
L 101.386696 138.06144 
L 101.611651 131.10336 
L 101.836606 134.5824 
L 102.06156 129.36384 
L 102.286515 129.36384 
L 102.511469 125.8848 
L 102.736424 124.14528 
L 103.186333 134.5824 
L 103.411288 127.62432 
L 103.636243 134.5824 
L 103.861197 131.10336 
L 104.311107 118.92672 
L 104.536061 117.1872 
L 104.761016 122.40576 
L 104.985971 120.66624 
L 105.210925 122.40576 
L 105.885789 122.40576 
L 106.110744 120.66624 
L 106.335698 117.1872 
L 106.560653 118.92672 
L 106.785608 118.92672 
L 107.010562 120.66624 
L 107.235517 127.62432 
L 107.460472 129.36384 
L 107.910381 138.06144 
L 108.135336 139.80096 
L 108.36029 145.01952 
L 108.585245 145.01952 
L 108.8102 143.28 
L 109.035154 143.28 
L 109.485063 134.5824 
L 109.934973 145.01952 
L 110.159927 139.80096 
L 110.384882 139.80096 
L 110.609837 146.75904 
L 110.834791 150.23808 
L 111.284701 162.41472 
L 112.409474 188.50752 
L 112.859383 188.50752 
L 113.084338 190.24704 
L 113.309292 185.02848 
L 113.534247 186.768 
L 113.984156 176.33088 
L 114.209111 178.0704 
L 114.434066 172.85184 
L 114.65902 179.80992 
L 114.883975 179.80992 
L 115.10893 186.768 
L 115.333884 183.28896 
L 115.558839 178.0704 
L 115.783794 179.80992 
L 116.908567 146.75904 
L 117.133521 141.54048 
L 117.358476 141.54048 
L 118.03334 125.8848 
L 118.258295 124.14528 
L 118.483249 124.14528 
L 118.708204 118.92672 
L 118.933159 125.8848 
L 119.158113 120.66624 
L 119.383068 127.62432 
L 119.608023 127.62432 
L 119.832977 120.66624 
L 120.057932 127.62432 
L 120.732796 127.62432 
L 120.95775 125.8848 
L 121.182705 127.62432 
L 121.40766 127.62432 
L 121.632614 131.10336 
L 121.857569 131.10336 
L 122.082524 138.06144 
L 122.532433 141.54048 
L 122.757388 145.01952 
L 122.982342 139.80096 
L 123.207297 139.80096 
L 123.432252 138.06144 
L 123.657206 141.54048 
L 124.107116 138.06144 
L 124.33207 138.06144 
L 124.557025 132.84288 
L 124.781979 134.5824 
L 125.006934 129.36384 
L 125.456843 141.54048 
L 125.906753 141.54048 
L 126.131707 145.01952 
L 126.356662 143.28 
L 126.581617 150.23808 
L 127.031526 157.19616 
L 127.256481 157.19616 
L 127.481435 162.41472 
L 127.70639 160.6752 
L 127.931344 162.41472 
L 128.156299 160.6752 
L 128.381254 162.41472 
L 128.606208 165.89376 
L 128.831163 167.63328 
L 129.056118 172.85184 
L 129.506027 176.33088 
L 129.730982 172.85184 
L 130.180891 172.85184 
L 130.6308 176.33088 
L 130.855755 176.33088 
L 131.08071 171.11232 
L 131.305664 171.11232 
L 131.530619 169.3728 
L 131.755573 169.3728 
L 131.980528 164.15424 
L 132.205483 162.41472 
L 132.430437 158.93568 
L 132.655392 158.93568 
L 132.880347 157.19616 
L 133.105301 153.71712 
L 133.330256 151.9776 
L 133.555211 148.49856 
L 134.00512 151.9776 
L 134.230075 151.9776 
L 134.455029 150.23808 
L 134.679984 145.01952 
L 135.129893 141.54048 
L 135.579802 141.54048 
L 135.804757 145.01952 
L 136.029712 145.01952 
L 136.254666 143.28 
L 136.479621 138.06144 
L 136.704576 143.28 
L 136.92953 143.28 
L 137.154485 139.80096 
L 137.37944 141.54048 
L 137.604394 148.49856 
L 137.829349 148.49856 
L 138.054304 145.01952 
L 138.279258 146.75904 
L 138.504213 150.23808 
L 138.729168 150.23808 
L 138.954122 153.71712 
L 139.179077 158.93568 
L 139.404031 160.6752 
L 139.628986 153.71712 
L 139.853941 151.9776 
L 140.30385 164.15424 
L 140.528805 164.15424 
L 141.203669 174.59136 
L 141.653578 174.59136 
L 141.878533 178.0704 
L 142.103487 183.28896 
L 142.328442 181.54944 
L 142.553396 174.59136 
L 143.22826 169.3728 
L 143.453215 169.3728 
L 143.67817 171.11232 
L 143.903124 164.15424 
L 145.027898 155.45664 
L 145.252852 162.41472 
L 145.702762 158.93568 
L 146.152671 146.75904 
L 146.827535 136.32192 
L 147.277444 127.62432 
L 147.502399 129.36384 
L 147.952308 122.40576 
L 148.402217 132.84288 
L 148.627172 129.36384 
L 148.852127 129.36384 
L 149.077081 125.8848 
L 149.9769 145.01952 
L 150.426809 134.5824 
L 150.651764 139.80096 
L 151.101673 139.80096 
L 151.326628 141.54048 
L 151.551582 145.01952 
L 151.776537 151.9776 
L 152.001492 151.9776 
L 152.226446 153.71712 
L 152.90131 171.11232 
L 153.126265 164.15424 
L 153.576174 171.11232 
L 153.801129 167.63328 
L 154.026083 162.41472 
L 154.251038 160.6752 
L 154.475993 155.45664 
L 154.700947 155.45664 
L 155.150857 143.28 
L 155.375811 141.54048 
L 155.600766 143.28 
L 155.825721 148.49856 
L 156.050675 148.49856 
L 156.500585 145.01952 
L 156.725539 148.49856 
L 156.950494 146.75904 
L 157.175448 148.49856 
L 157.400403 145.01952 
L 157.625358 146.75904 
L 158.075267 139.80096 
L 158.525176 136.32192 
L 158.750131 141.54048 
L 159.20004 134.5824 
L 159.874904 139.80096 
L 160.099859 146.75904 
L 160.774723 146.75904 
L 160.999677 143.28 
L 161.674541 143.28 
L 161.899496 139.80096 
L 162.124451 139.80096 
L 162.349405 138.06144 
L 162.799315 138.06144 
L 163.024269 139.80096 
L 163.249224 139.80096 
L 163.699133 143.28 
L 163.924088 141.54048 
L 164.373997 145.01952 
L 164.823906 153.71712 
L 165.048861 155.45664 
L 165.49877 164.15424 
L 165.723725 164.15424 
L 165.94868 167.63328 
L 166.848498 167.63328 
L 167.073453 165.89376 
L 167.298408 171.11232 
L 167.523362 171.11232 
L 167.973272 174.59136 
L 168.198226 174.59136 
L 168.648135 178.0704 
L 168.87309 174.59136 
L 169.098045 179.80992 
L 169.322999 179.80992 
L 169.547954 178.0704 
L 170.222818 164.15424 
L 170.447773 160.6752 
L 170.672727 162.41472 
L 170.897682 157.19616 
L 171.122637 158.93568 
L 171.347591 158.93568 
L 171.572546 160.6752 
L 172.24741 176.33088 
L 172.472364 178.0704 
L 172.697319 181.54944 
L 172.922274 183.28896 
L 173.147228 181.54944 
L 173.372183 181.54944 
L 173.822092 185.02848 
L 174.272002 185.02848 
L 174.496956 190.24704 
L 174.721911 190.24704 
L 174.946866 191.98656 
L 176.071639 216.33984 
L 176.296593 216.33984 
L 176.521548 221.5584 
L 176.746503 214.60032 
L 177.196412 214.60032 
L 177.421367 216.33984 
L 179.221004 216.33984 
L 179.445958 211.12128 
L 180.120822 211.12128 
L 180.345777 204.1632 
L 180.570732 204.1632 
L 180.795686 200.68416 
L 181.020641 193.72608 
L 181.245596 193.72608 
L 181.47055 191.98656 
L 181.695505 185.02848 
L 181.92046 181.54944 
L 182.145414 174.59136 
L 182.370369 181.54944 
L 183.720097 181.54944 
L 184.170006 167.63328 
L 184.84487 167.63328 
L 185.069825 172.85184 
L 185.519734 165.89376 
L 185.744689 158.93568 
L 185.969643 164.15424 
L 186.194598 162.41472 
L 186.419553 164.15424 
L 186.644507 169.3728 
L 186.869462 165.89376 
L 187.094416 160.6752 
L 187.319371 167.63328 
L 187.544326 164.15424 
L 187.76928 164.15424 
L 189.343963 117.1872 
L 190.018827 117.1872 
L 190.693691 98.05248 
L 190.918645 96.31296 
L 191.1436 92.83392 
L 191.368555 92.83392 
L 192.493328 68.48064 
L 192.718283 68.48064 
L 192.943237 61.52256 
L 193.168192 61.52256 
L 193.393147 63.26208 
L 195.867648 118.92672 
L 196.092602 118.92672 
L 196.317557 117.1872 
L 196.542512 120.66624 
L 196.992421 132.84288 
L 198.117194 165.89376 
L 198.567103 178.0704 
L 198.792058 185.02848 
L 199.017013 188.50752 
L 199.691877 188.50752 
L 199.916831 190.24704 
L 200.366741 183.28896 
L 200.591695 181.54944 
L 201.491514 160.6752 
L 201.941423 160.6752 
L 202.616287 143.28 
L 203.74106 110.22912 
L 204.19097 98.05248 
L 204.640879 85.87584 
L 205.765652 61.52256 
L 205.990607 66.74112 
L 206.215561 63.26208 
L 207.790244 63.26208 
L 208.015199 70.22016 
L 208.240153 71.95968 
L 208.690062 84.13632 
L 211.389518 84.13632 
L 211.614473 77.17824 
L 213.41411 77.17824 
L 213.639065 70.22016 
L 213.864019 68.48064 
L 214.313929 56.304 
L 267.178271 56.304 
L 272.802137 143.28 
L 373.356864 143.28 
L 373.356864 143.28 
" style="fill:none;stroke:#dd8452;stroke-linecap:round;stroke-width:1.5;"/>
   </g>
   <g id="line2d_14">
    <path clip-path="url(#pc5fbc123fd)" d="M 81.747731 139.80096 
L 82.269796 141.54048 
L 82.79186 145.01952 
L 83.313925 145.01952 
L 83.835989 150.23808 
L 84.358054 157.19616 
L 84.880119 162.41472 
L 85.402183 162.41472 
L 85.924248 164.15424 
L 86.446312 162.41472 
L 88.53457 162.41472 
L 89.056635 155.45664 
L 90.100764 155.45664 
L 90.622829 158.93568 
L 91.144893 157.19616 
L 91.666958 150.23808 
L 92.711087 153.71712 
L 93.233151 151.9776 
L 93.755216 146.75904 
L 94.277281 145.01952 
L 95.32141 145.01952 
L 95.843474 141.54048 
L 96.365539 146.75904 
L 96.887603 146.75904 
L 97.409668 141.54048 
L 98.975862 146.75904 
L 99.497926 150.23808 
L 100.019991 150.23808 
L 100.542055 146.75904 
L 101.06412 150.23808 
L 101.586184 148.49856 
L 102.108249 153.71712 
L 102.630313 151.9776 
L 103.152378 155.45664 
L 103.674443 150.23808 
L 104.196507 148.49856 
L 104.718572 153.71712 
L 105.240636 157.19616 
L 105.762701 157.19616 
L 106.284765 155.45664 
L 106.80683 155.45664 
L 107.328894 158.93568 
L 107.850959 153.71712 
L 108.373024 150.23808 
L 109.417153 150.23808 
L 109.939217 151.9776 
L 110.461282 157.19616 
L 111.505411 157.19616 
L 112.027475 151.9776 
L 113.071605 155.45664 
L 114.115734 151.9776 
L 114.637798 153.71712 
L 115.159863 148.49856 
L 115.681927 145.01952 
L 116.726056 141.54048 
L 117.770186 134.5824 
L 119.858444 134.5824 
L 120.380508 132.84288 
L 120.902573 134.5824 
L 121.424637 134.5824 
L 121.946702 141.54048 
L 122.468767 139.80096 
L 122.990831 139.80096 
L 123.512896 138.06144 
L 124.03496 131.10336 
L 125.079089 134.5824 
L 126.123218 131.10336 
L 126.645283 136.32192 
L 127.167348 136.32192 
L 127.689412 134.5824 
L 128.211477 134.5824 
L 128.733541 141.54048 
L 129.255606 139.80096 
L 129.77767 146.75904 
L 130.299735 151.9776 
L 130.821799 151.9776 
L 131.343864 148.49856 
L 132.387993 145.01952 
L 132.910058 146.75904 
L 133.432122 146.75904 
L 134.476251 143.28 
L 134.998316 136.32192 
L 135.52038 136.32192 
L 136.042445 129.36384 
L 136.56451 129.36384 
L 137.086574 134.5824 
L 137.608639 132.84288 
L 138.130703 138.06144 
L 138.652768 139.80096 
L 139.174832 134.5824 
L 139.696897 136.32192 
L 140.218961 141.54048 
L 141.263091 145.01952 
L 141.785155 138.06144 
L 142.30722 139.80096 
L 142.829284 138.06144 
L 143.351349 134.5824 
L 143.873413 134.5824 
L 144.395478 136.32192 
L 144.917542 143.28 
L 145.439607 148.49856 
L 146.483736 155.45664 
L 147.005801 153.71712 
L 147.527865 160.6752 
L 148.04993 160.6752 
L 148.571994 157.19616 
L 149.094059 164.15424 
L 149.616123 165.89376 
L 150.138188 160.6752 
L 150.660253 157.19616 
L 151.182317 151.9776 
L 151.704382 151.9776 
L 152.226446 158.93568 
L 152.748511 155.45664 
L 153.79264 155.45664 
L 154.314705 158.93568 
L 154.836769 158.93568 
L 155.358834 153.71712 
L 156.402963 157.19616 
L 156.925027 155.45664 
L 157.447092 157.19616 
L 157.969156 150.23808 
L 158.491221 145.01952 
L 159.013286 138.06144 
L 159.53535 134.5824 
L 160.579479 134.5824 
L 161.101544 141.54048 
L 161.623608 145.01952 
L 162.145673 138.06144 
L 162.667737 138.06144 
L 163.189802 145.01952 
L 163.711867 148.49856 
L 164.233931 146.75904 
L 165.27806 132.84288 
L 165.800125 129.36384 
L 166.322189 122.40576 
L 167.366318 118.92672 
L 168.410448 129.36384 
L 168.932512 127.62432 
L 169.454577 131.10336 
L 169.976641 136.32192 
L 170.498706 136.32192 
L 171.02077 143.28 
L 172.064899 146.75904 
L 172.586964 145.01952 
L 173.109029 146.75904 
L 173.631093 139.80096 
L 174.153158 138.06144 
L 174.675222 134.5824 
L 175.197287 136.32192 
L 176.241416 125.8848 
L 176.76348 125.8848 
L 177.285545 131.10336 
L 177.80761 138.06144 
L 178.329674 141.54048 
L 178.851739 148.49856 
L 179.373803 148.49856 
L 179.895868 151.9776 
L 180.417932 148.49856 
L 180.939997 146.75904 
L 181.462061 146.75904 
L 181.984126 143.28 
L 182.506191 138.06144 
L 183.028255 138.06144 
L 183.55032 139.80096 
L 185.116513 134.5824 
L 185.638578 134.5824 
L 186.160642 139.80096 
L 186.682707 146.75904 
L 187.204772 148.49856 
L 187.726836 148.49856 
L 189.29303 164.15424 
L 189.815094 165.89376 
L 190.859223 165.89376 
L 191.381288 169.3728 
L 191.903353 167.63328 
L 192.425417 169.3728 
L 192.947482 165.89376 
L 193.469546 172.85184 
L 193.991611 176.33088 
L 194.513675 178.0704 
L 195.03574 181.54944 
L 195.557804 179.80992 
L 196.079869 174.59136 
L 196.601934 167.63328 
L 197.123998 162.41472 
L 197.646063 160.6752 
L 198.168127 160.6752 
L 198.690192 158.93568 
L 200.256385 138.06144 
L 200.77845 141.54048 
L 201.822579 127.62432 
L 202.344644 125.8848 
L 202.866708 118.92672 
L 203.388773 113.70816 
L 204.432902 99.792 
L 204.954966 94.57344 
L 205.477031 92.83392 
L 205.999096 92.83392 
L 207.565289 87.61536 
L 208.609418 87.61536 
L 209.131483 89.35488 
L 210.175612 99.792 
L 210.697677 101.53152 
L 211.219741 101.53152 
L 211.741806 103.27104 
L 212.785935 117.1872 
L 213.307999 122.40576 
L 213.830064 122.40576 
L 214.874193 136.32192 
L 215.396258 136.32192 
L 215.918322 143.28 
L 216.440387 148.49856 
L 219.050709 148.49856 
L 221.138968 127.62432 
L 221.661032 127.62432 
L 222.183097 125.8848 
L 222.705161 120.66624 
L 223.227226 122.40576 
L 223.749291 120.66624 
L 224.271355 120.66624 
L 224.79342 118.92672 
L 225.837549 105.01056 
L 226.881678 94.57344 
L 227.925807 80.65728 
L 228.447872 75.43872 
L 228.969936 68.48064 
L 229.492001 63.26208 
L 235.756775 63.26208 
L 236.27884 56.304 
L 274.389552 56.304 
L 287.441166 143.28 
L 373.059754 143.28 
L 373.059754 143.28 
" style="fill:none;stroke:#55a868;stroke-linecap:round;stroke-width:1.5;"/>
   </g>
   <g id="line2d_15">
    <path clip-path="url(#pc5fbc123fd)" d="M 89.176453 153.71712 
L 90.008048 150.23808 
L 91.671237 153.71712 
L 92.502832 153.71712 
L 93.334426 150.23808 
L 94.997615 153.71712 
L 95.82921 157.19616 
L 96.660805 158.93568 
L 97.492399 155.45664 
L 98.323994 150.23808 
L 99.155589 153.71712 
L 99.987183 151.9776 
L 100.818778 148.49856 
L 101.650373 148.49856 
L 102.481967 143.28 
L 103.313562 141.54048 
L 104.145156 143.28 
L 104.976751 143.28 
L 105.808346 136.32192 
L 106.63994 138.06144 
L 107.471535 132.84288 
L 108.30313 136.32192 
L 109.134724 136.32192 
L 109.966319 129.36384 
L 110.797914 127.62432 
L 111.629508 131.10336 
L 112.461103 125.8848 
L 113.292697 131.10336 
L 114.124292 134.5824 
L 114.955887 132.84288 
L 115.787481 134.5824 
L 117.450671 124.14528 
L 118.282265 125.8848 
L 119.11386 129.36384 
L 120.777049 122.40576 
L 121.608644 122.40576 
L 122.440238 129.36384 
L 123.271833 131.10336 
L 124.103428 129.36384 
L 124.935022 125.8848 
L 125.766617 132.84288 
L 126.598212 138.06144 
L 127.429806 138.06144 
L 128.261401 141.54048 
L 129.092996 141.54048 
L 129.92459 138.06144 
L 130.756185 145.01952 
L 131.587779 148.49856 
L 132.419374 145.01952 
L 133.250969 150.23808 
L 134.082563 150.23808 
L 135.745753 153.71712 
L 136.577347 153.71712 
L 137.408942 155.45664 
L 138.240537 162.41472 
L 139.072131 165.89376 
L 139.903726 160.6752 
L 140.73532 165.89376 
L 141.566915 167.63328 
L 142.39851 174.59136 
L 143.230104 174.59136 
L 144.061699 178.0704 
L 144.893294 183.28896 
L 145.724888 186.768 
L 146.556483 185.02848 
L 147.388077 185.02848 
L 149.051267 181.54944 
L 149.882861 176.33088 
L 150.714456 176.33088 
L 151.546051 172.85184 
L 152.377645 176.33088 
L 153.20924 181.54944 
L 155.704024 186.768 
L 156.535618 190.24704 
L 157.367213 188.50752 
L 158.198808 188.50752 
L 159.030402 185.02848 
L 159.861997 178.0704 
L 160.693592 183.28896 
L 162.356781 179.80992 
L 163.188376 172.85184 
L 164.01997 167.63328 
L 164.851565 165.89376 
L 165.683159 160.6752 
L 167.346349 153.71712 
L 168.177943 153.71712 
L 169.009538 150.23808 
L 172.335917 164.15424 
L 173.167511 162.41472 
L 174.8307 162.41472 
L 177.325484 157.19616 
L 178.157079 153.71712 
L 178.988674 153.71712 
L 179.820268 151.9776 
L 180.651863 157.19616 
L 182.315052 160.6752 
L 183.146647 164.15424 
L 183.978241 171.11232 
L 184.809836 176.33088 
L 186.473025 179.80992 
L 187.30462 183.28896 
L 188.136215 188.50752 
L 188.967809 188.50752 
L 189.799404 193.72608 
L 190.630999 193.72608 
L 191.462593 195.4656 
L 192.294188 191.98656 
L 193.125782 185.02848 
L 193.957377 186.768 
L 195.620566 186.768 
L 196.452161 188.50752 
L 197.283756 186.768 
L 198.11535 181.54944 
L 198.946945 183.28896 
L 199.778539 186.768 
L 200.610134 191.98656 
L 201.441729 191.98656 
L 202.273323 190.24704 
L 203.104918 183.28896 
L 204.768107 183.28896 
L 205.599702 178.0704 
L 206.431297 171.11232 
L 208.094486 164.15424 
L 208.92608 157.19616 
L 209.757675 157.19616 
L 210.58927 151.9776 
L 213.084054 146.75904 
L 213.915648 146.75904 
L 215.578838 132.84288 
L 216.410432 131.10336 
L 217.242027 124.14528 
L 218.073621 120.66624 
L 218.905216 120.66624 
L 219.736811 117.1872 
L 220.568405 111.96864 
L 221.4 105.01056 
L 223.063189 94.57344 
L 223.894784 94.57344 
L 224.726379 89.35488 
L 225.557973 82.3968 
L 226.389568 80.65728 
L 228.052757 80.65728 
L 228.884352 78.91776 
L 229.715946 78.91776 
L 230.547541 73.6992 
L 231.379136 71.95968 
L 233.042325 61.52256 
L 236.368703 61.52256 
L 237.200298 56.304 
L 267.137705 56.304 
L 287.927571 143.28 
L 372.750224 143.28 
L 372.750224 143.28 
" style="fill:none;stroke:#c44e52;stroke-linecap:round;stroke-width:1.5;"/>
   </g>
   <g id="line2d_16">
    <path clip-path="url(#pc5fbc123fd)" d="M 69.218182 186.768 
L 373.581818 186.768 
" style="fill:none;stroke:#4c72b0;stroke-dasharray:5.55,2.4;stroke-dashoffset:0;stroke-width:1.5;"/>
   </g>
   <g id="line2d_17">
    <path clip-path="url(#pc5fbc123fd)" d="M 69.218182 143.28 
L 373.581818 143.28 
" style="fill:none;stroke:#ccb974;stroke-dasharray:5.55,2.4;stroke-dashoffset:0;stroke-width:1.5;"/>
   </g>
   <g id="line2d_18">
    <path clip-path="url(#pc5fbc123fd)" d="M 69.218182 99.792 
L 373.581818 99.792 
" style="fill:none;stroke:#55a868;stroke-dasharray:5.55,2.4;stroke-dashoffset:0;stroke-width:1.5;"/>
   </g>
   <g id="line2d_19">
    <path clip-path="url(#pc5fbc123fd)" d="M 69.218182 56.304 
L 373.581818 56.304 
" style="fill:none;stroke:#c44e52;stroke-dasharray:5.55,2.4;stroke-dashoffset:0;stroke-width:1.5;"/>
   </g>
   <g id="line2d_20">
    <path clip-path="url(#pc5fbc123fd)" d="M 69.218182 230.256 
L 373.581818 230.256 
" style="fill:none;stroke:#1a1a1a;stroke-dasharray:5.55,2.4;stroke-dashoffset:0;stroke-width:1.5;"/>
   </g>
   <g id="patch_3">
    <path d="M 54 252 
L 54 34.56 
" style="fill:none;stroke:#ffffff;stroke-linecap:square;stroke-linejoin:miter;stroke-width:1.25;"/>
   </g>
   <g id="patch_4">
    <path d="M 388.8 252 
L 388.8 34.56 
" style="fill:none;stroke:#ffffff;stroke-linecap:square;stroke-linejoin:miter;stroke-width:1.25;"/>
   </g>
   <g id="patch_5">
    <path d="M 54 252 
L 388.8 252 
" style="fill:none;stroke:#ffffff;stroke-linecap:square;stroke-linejoin:miter;stroke-width:1.25;"/>
   </g>
   <g id="patch_6">
    <path d="M 54 34.56 
L 388.8 34.56 
" style="fill:none;stroke:#ffffff;stroke-linecap:square;stroke-linejoin:miter;stroke-width:1.25;"/>
   </g>
   <g id="legend_1">
    <g id="patch_7">
     <path d="M 61.7 105.599375 
L 202.682188 105.599375 
Q 204.882188 105.599375 204.882188 103.399375 
L 204.882188 42.26 
Q 204.882188 40.06 202.682188 40.06 
L 61.7 40.06 
Q 59.5 40.06 59.5 42.26 
L 59.5 103.399375 
Q 59.5 105.599375 61.7 105.599375 
z
" style="fill:#eaeaf2;opacity:0.8;stroke:#cccccc;stroke-linejoin:miter;"/>
    </g>
    <g id="line2d_21">
     <path d="M 63.9 48.483594 
L 85.9 48.483594 
" style="fill:none;stroke:#4c72b0;stroke-linecap:round;stroke-width:1.5;"/>
    </g>
    <g id="line2d_22"/>
    <g id="text_14">
     <!-- Box landed in Zone A -->
     <defs>
      <path d="M 7.328125 0 
L 7.328125 71.578125 
L 34.1875 71.578125 
Q 42.390625 71.578125 47.34375 69.40625 
Q 52.296875 67.234375 55.09375 62.71875 
Q 57.90625 58.203125 57.90625 53.265625 
Q 57.90625 48.6875 55.421875 44.625 
Q 52.9375 40.578125 47.90625 38.09375 
Q 54.390625 36.1875 57.875 31.59375 
Q 61.375 27 61.375 20.75 
Q 61.375 15.71875 59.25 11.390625 
Q 57.125 7.078125 54 4.734375 
Q 50.875 2.390625 46.15625 1.1875 
Q 41.453125 0 34.625 0 
z
M 16.796875 41.5 
L 32.28125 41.5 
Q 38.578125 41.5 41.3125 42.328125 
Q 44.921875 43.40625 46.75 45.890625 
Q 48.578125 48.390625 48.578125 52.15625 
Q 48.578125 55.71875 46.875 58.421875 
Q 45.171875 61.140625 41.984375 62.140625 
Q 38.8125 63.140625 31.109375 63.140625 
L 16.796875 63.140625 
z
M 16.796875 8.453125 
L 34.625 8.453125 
Q 39.203125 8.453125 41.0625 8.796875 
Q 44.34375 9.375 46.53125 10.734375 
Q 48.734375 12.109375 50.140625 14.71875 
Q 51.5625 17.328125 51.5625 20.75 
Q 51.5625 24.75 49.515625 27.703125 
Q 47.46875 30.671875 43.828125 31.859375 
Q 40.1875 33.0625 33.34375 33.0625 
L 16.796875 33.0625 
z
" id="ArialMT-66"/>
      <path d="M 0.734375 0 
L 19.671875 26.953125 
L 2.15625 51.859375 
L 13.140625 51.859375 
L 21.09375 39.703125 
Q 23.34375 36.234375 24.703125 33.890625 
Q 26.859375 37.109375 28.65625 39.59375 
L 37.40625 51.859375 
L 47.90625 51.859375 
L 29.984375 27.4375 
L 49.265625 0 
L 38.484375 0 
L 27.828125 16.109375 
L 25 20.453125 
L 11.375 0 
z
" id="ArialMT-120"/>
      <path d="M 6.390625 0 
L 6.390625 71.578125 
L 15.1875 71.578125 
L 15.1875 0 
z
" id="ArialMT-108"/>
      <path d="M 2 0 
L 2 8.796875 
L 38.671875 54.640625 
Q 42.578125 59.515625 46.09375 63.140625 
L 6.15625 63.140625 
L 6.15625 71.578125 
L 57.421875 71.578125 
L 57.421875 63.140625 
L 17.234375 13.484375 
L 12.890625 8.453125 
L 58.59375 8.453125 
L 58.59375 0 
z
" id="ArialMT-90"/>
     </defs>
     <g style="fill:#262626;" transform="translate(94.7 52.333594)scale(0.11 -0.11)">
      <use xlink:href="#ArialMT-66"/>
      <use x="66.699219" xlink:href="#ArialMT-111"/>
      <use x="122.314453" xlink:href="#ArialMT-120"/>
      <use x="172.314453" xlink:href="#ArialMT-32"/>
      <use x="200.097656" xlink:href="#ArialMT-108"/>
      <use x="222.314453" xlink:href="#ArialMT-97"/>
      <use x="277.929688" xlink:href="#ArialMT-110"/>
      <use x="333.544922" xlink:href="#ArialMT-100"/>
      <use x="389.160156" xlink:href="#ArialMT-101"/>
      <use x="444.775391" xlink:href="#ArialMT-100"/>
      <use x="500.390625" xlink:href="#ArialMT-32"/>
      <use x="528.173828" xlink:href="#ArialMT-105"/>
      <use x="550.390625" xlink:href="#ArialMT-110"/>
      <use x="606.005859" xlink:href="#ArialMT-32"/>
      <use x="633.789062" xlink:href="#ArialMT-90"/>
      <use x="694.873047" xlink:href="#ArialMT-111"/>
      <use x="750.488281" xlink:href="#ArialMT-110"/>
      <use x="806.103516" xlink:href="#ArialMT-101"/>
      <use x="861.71875" xlink:href="#ArialMT-32"/>
      <use x="889.423828" xlink:href="#ArialMT-65"/>
     </g>
    </g>
    <g id="line2d_23">
     <path d="M 63.9 64.043438 
L 85.9 64.043438 
" style="fill:none;stroke:#dd8452;stroke-linecap:round;stroke-width:1.5;"/>
    </g>
    <g id="line2d_24"/>
    <g id="text_15">
     <!-- Box landed in Zone B -->
     <g style="fill:#262626;" transform="translate(94.7 67.893438)scale(0.11 -0.11)">
      <use xlink:href="#ArialMT-66"/>
      <use x="66.699219" xlink:href="#ArialMT-111"/>
      <use x="122.314453" xlink:href="#ArialMT-120"/>
      <use x="172.314453" xlink:href="#ArialMT-32"/>
      <use x="200.097656" xlink:href="#ArialMT-108"/>
      <use x="222.314453" xlink:href="#ArialMT-97"/>
      <use x="277.929688" xlink:href="#ArialMT-110"/>
      <use x="333.544922" xlink:href="#ArialMT-100"/>
      <use x="389.160156" xlink:href="#ArialMT-101"/>
      <use x="444.775391" xlink:href="#ArialMT-100"/>
      <use x="500.390625" xlink:href="#ArialMT-32"/>
      <use x="528.173828" xlink:href="#ArialMT-105"/>
      <use x="550.390625" xlink:href="#ArialMT-110"/>
      <use x="606.005859" xlink:href="#ArialMT-32"/>
      <use x="633.789062" xlink:href="#ArialMT-90"/>
      <use x="694.873047" xlink:href="#ArialMT-111"/>
      <use x="750.488281" xlink:href="#ArialMT-110"/>
      <use x="806.103516" xlink:href="#ArialMT-101"/>
      <use x="861.71875" xlink:href="#ArialMT-32"/>
      <use x="889.501953" xlink:href="#ArialMT-66"/>
     </g>
    </g>
    <g id="line2d_25">
     <path d="M 63.9 79.603281 
L 85.9 79.603281 
" style="fill:none;stroke:#55a868;stroke-linecap:round;stroke-width:1.5;"/>
    </g>
    <g id="line2d_26"/>
    <g id="text_16">
     <!-- Box landed in Zone C -->
     <defs>
      <path d="M 58.796875 25.09375 
L 68.265625 22.703125 
Q 65.28125 11.03125 57.546875 4.90625 
Q 49.8125 -1.21875 38.625 -1.21875 
Q 27.046875 -1.21875 19.796875 3.484375 
Q 12.546875 8.203125 8.765625 17.140625 
Q 4.984375 26.078125 4.984375 36.328125 
Q 4.984375 47.515625 9.25 55.828125 
Q 13.53125 64.15625 21.40625 68.46875 
Q 29.296875 72.796875 38.765625 72.796875 
Q 49.515625 72.796875 56.828125 67.328125 
Q 64.15625 61.859375 67.046875 51.953125 
L 57.71875 49.75 
Q 55.21875 57.5625 50.484375 61.125 
Q 45.75 64.703125 38.578125 64.703125 
Q 30.328125 64.703125 24.78125 60.734375 
Q 19.234375 56.78125 16.984375 50.109375 
Q 14.75 43.453125 14.75 36.375 
Q 14.75 27.25 17.40625 20.4375 
Q 20.0625 13.625 25.671875 10.25 
Q 31.296875 6.890625 37.84375 6.890625 
Q 45.796875 6.890625 51.3125 11.46875 
Q 56.84375 16.0625 58.796875 25.09375 
z
" id="ArialMT-67"/>
     </defs>
     <g style="fill:#262626;" transform="translate(94.7 83.453281)scale(0.11 -0.11)">
      <use xlink:href="#ArialMT-66"/>
      <use x="66.699219" xlink:href="#ArialMT-111"/>
      <use x="122.314453" xlink:href="#ArialMT-120"/>
      <use x="172.314453" xlink:href="#ArialMT-32"/>
      <use x="200.097656" xlink:href="#ArialMT-108"/>
      <use x="222.314453" xlink:href="#ArialMT-97"/>
      <use x="277.929688" xlink:href="#ArialMT-110"/>
      <use x="333.544922" xlink:href="#ArialMT-100"/>
      <use x="389.160156" xlink:href="#ArialMT-101"/>
      <use x="444.775391" xlink:href="#ArialMT-100"/>
      <use x="500.390625" xlink:href="#ArialMT-32"/>
      <use x="528.173828" xlink:href="#ArialMT-105"/>
      <use x="550.390625" xlink:href="#ArialMT-110"/>
      <use x="606.005859" xlink:href="#ArialMT-32"/>
      <use x="633.789062" xlink:href="#ArialMT-90"/>
      <use x="694.873047" xlink:href="#ArialMT-111"/>
      <use x="750.488281" xlink:href="#ArialMT-110"/>
      <use x="806.103516" xlink:href="#ArialMT-101"/>
      <use x="861.71875" xlink:href="#ArialMT-32"/>
      <use x="889.501953" xlink:href="#ArialMT-67"/>
     </g>
    </g>
    <g id="line2d_27">
     <path d="M 63.9 95.163125 
L 85.9 95.163125 
" style="fill:none;stroke:#c44e52;stroke-linecap:round;stroke-width:1.5;"/>
    </g>
    <g id="line2d_28"/>
    <g id="text_17">
     <!-- Box landed in Zone D -->
     <defs>
      <path d="M 7.71875 0 
L 7.71875 71.578125 
L 32.375 71.578125 
Q 40.71875 71.578125 45.125 70.5625 
Q 51.265625 69.140625 55.609375 65.4375 
Q 61.28125 60.640625 64.078125 53.1875 
Q 66.890625 45.75 66.890625 36.1875 
Q 66.890625 28.03125 64.984375 21.734375 
Q 63.09375 15.4375 60.109375 11.296875 
Q 57.125 7.171875 53.578125 4.796875 
Q 50.046875 2.4375 45.046875 1.21875 
Q 40.046875 0 33.546875 0 
z
M 17.1875 8.453125 
L 32.46875 8.453125 
Q 39.546875 8.453125 43.578125 9.765625 
Q 47.609375 11.078125 50 13.484375 
Q 53.375 16.84375 55.25 22.53125 
Q 57.125 28.21875 57.125 36.328125 
Q 57.125 47.5625 53.4375 53.59375 
Q 49.75 59.625 44.484375 61.671875 
Q 40.671875 63.140625 32.234375 63.140625 
L 17.1875 63.140625 
z
" id="ArialMT-68"/>
     </defs>
     <g style="fill:#262626;" transform="translate(94.7 99.013125)scale(0.11 -0.11)">
      <use xlink:href="#ArialMT-66"/>
      <use x="66.699219" xlink:href="#ArialMT-111"/>
      <use x="122.314453" xlink:href="#ArialMT-120"/>
      <use x="172.314453" xlink:href="#ArialMT-32"/>
      <use x="200.097656" xlink:href="#ArialMT-108"/>
      <use x="222.314453" xlink:href="#ArialMT-97"/>
      <use x="277.929688" xlink:href="#ArialMT-110"/>
      <use x="333.544922" xlink:href="#ArialMT-100"/>
      <use x="389.160156" xlink:href="#ArialMT-101"/>
      <use x="444.775391" xlink:href="#ArialMT-100"/>
      <use x="500.390625" xlink:href="#ArialMT-32"/>
      <use x="528.173828" xlink:href="#ArialMT-105"/>
      <use x="550.390625" xlink:href="#ArialMT-110"/>
      <use x="606.005859" xlink:href="#ArialMT-32"/>
      <use x="633.789062" xlink:href="#ArialMT-90"/>
      <use x="694.873047" xlink:href="#ArialMT-111"/>
      <use x="750.488281" xlink:href="#ArialMT-110"/>
      <use x="806.103516" xlink:href="#ArialMT-101"/>
      <use x="861.71875" xlink:href="#ArialMT-32"/>
      <use x="889.501953" xlink:href="#ArialMT-68"/>
     </g>
    </g>
   </g>
  </g>
 </g>
 <defs>
  <clipPath id="pc5fbc123fd">
   <rect height="217.44" width="334.8" x="54" y="34.56"/>
  </clipPath>
 </defs>
</svg>
