<?xml version="1.0" encoding="utf-8" standalone="no"?>
<!DOCTYPE svg PUBLIC "-//W3C//DTD SVG 1.1//EN"
  "http://www.w3.org/Graphics/SVG/1.1/DTD/svg11.dtd">
<!-- Created with matplotlib (https://matplotlib.org/) -->
<svg height="288pt" version="1.1" viewBox="0 0 432 288" width="432pt" xmlns="http://www.w3.org/2000/svg" xmlns:xlink="http://www.w3.org/1999/xlink">
 <defs>
  <style type="text/css">
*{stroke-linecap:butt;stroke-linejoin:round;}
  </style>
 </defs>
 <g id="figure_1">
  <g id="patch_1">
   <path d="M 0 288 
L 432 288 
L 432 0 
L 0 0 
z
" style="fill:#ffffff;"/>
  </g>
  <g id="axes_1">
   <g id="patch_2">
    <path d="M 54 252 
L 388.8 252 
L 388.8 34.56 
L 54 34.56 
z
" style="fill:#eaeaf2;"/>
   </g>
   <g id="matplotlib.axis_1">
    <g id="xtick_1">
     <g id="line2d_1">
      <path clip-path="url(#p2b98f77be6)" d="M 69.218182 252 
L 69.218182 34.56 
" style="fill:none;stroke:#ffffff;stroke-linecap:round;"/>
     </g>
     <g id="text_1">
      <!-- 0 -->
      <defs>
       <path d="M 4.15625 35.296875 
Q 4.15625 48 6.765625 55.734375 
Q 9.375 63.484375 14.515625 67.671875 
Q 19.671875 71.875 27.484375 71.875 
Q 33.25 71.875 37.59375 69.546875 
Q 41.9375 67.234375 44.765625 62.859375 
Q 47.609375 58.5 49.21875 52.21875 
Q 50.828125 45.953125 50.828125 35.296875 
Q 50.828125 22.703125 48.234375 14.96875 
Q 45.65625 7.234375 40.5 3 
Q 35.359375 -1.21875 27.484375 -1.21875 
Q 17.140625 -1.21875 11.234375 6.203125 
Q 4.15625 15.140625 4.15625 35.296875 
z
M 13.1875 35.296875 
Q 13.1875 17.671875 17.3125 11.828125 
Q 21.4375 6 27.484375 6 
Q 33.546875 6 37.671875 11.859375 
Q 41.796875 17.71875 41.796875 35.296875 
Q 41.796875 52.984375 37.671875 58.78125 
Q 33.546875 64.59375 27.390625 64.59375 
Q 21.34375 64.59375 17.71875 59.46875 
Q 13.1875 52.9375 13.1875 35.296875 
z
" id="ArialMT-48"/>
      </defs>
      <g style="fill:#262626;" transform="translate(66.159666 269.373594)scale(0.11 -0.11)">
       <use xlink:href="#ArialMT-48"/>
      </g>
     </g>
    </g>
    <g id="xtick_2">
     <g id="line2d_2">
      <path clip-path="url(#p2b98f77be6)" d="M 110.76758 252 
L 110.76758 34.56 
" style="fill:none;stroke:#ffffff;stroke-linecap:round;"/>
     </g>
     <g id="text_2">
      <!-- 1 -->
      <defs>
       <path d="M 37.25 0 
L 28.46875 0 
L 28.46875 56 
Q 25.296875 52.984375 20.140625 49.953125 
Q 14.984375 46.921875 10.890625 45.40625 
L 10.890625 53.90625 
Q 18.265625 57.375 23.78125 62.296875 
Q 29.296875 67.234375 31.59375 71.875 
L 37.25 71.875 
z
" id="ArialMT-49"/>
      </defs>
      <g style="fill:#262626;" transform="translate(107.709064 269.373594)scale(0.11 -0.11)">
       <use xlink:href="#ArialMT-49"/>
      </g>
     </g>
    </g>
    <g id="xtick_3">
     <g id="line2d_3">
      <path clip-path="url(#p2b98f77be6)" d="M 152.316978 252 
L 152.316978 34.56 
" style="fill:none;stroke:#ffffff;stroke-linecap:round;"/>
     </g>
     <g id="text_3">
      <!-- 2 -->
      <defs>
       <path d="M 50.34375 8.453125 
L 50.34375 0 
L 3.03125 0 
Q 2.9375 3.171875 4.046875 6.109375 
Q 5.859375 10.9375 9.828125 15.625 
Q 13.8125 20.3125 21.34375 26.46875 
Q 33.015625 36.03125 37.109375 41.625 
Q 41.21875 47.21875 41.21875 52.203125 
Q 41.21875 57.421875 37.46875 61 
Q 33.734375 64.59375 27.734375 64.59375 
Q 21.390625 64.59375 17.578125 60.78125 
Q 13.765625 56.984375 13.71875 50.25 
L 4.6875 51.171875 
Q 5.609375 61.28125 11.65625 66.578125 
Q 17.71875 71.875 27.9375 71.875 
Q 38.234375 71.875 44.234375 66.15625 
Q 50.25 60.453125 50.25 52 
Q 50.25 47.703125 48.484375 43.546875 
Q 46.734375 39.40625 42.65625 34.8125 
Q 38.578125 30.21875 29.109375 22.21875 
Q 21.1875 15.578125 18.9375 13.203125 
Q 16.703125 10.84375 15.234375 8.453125 
z
" id="ArialMT-50"/>
      </defs>
      <g style="fill:#262626;" transform="translate(149.258463 269.373594)scale(0.11 -0.11)">
       <use xlink:href="#ArialMT-50"/>
      </g>
     </g>
    </g>
    <g id="xtick_4">
     <g id="line2d_4">
      <path clip-path="url(#p2b98f77be6)" d="M 193.866377 252 
L 193.866377 34.56 
" style="fill:none;stroke:#ffffff;stroke-linecap:round;"/>
     </g>
     <g id="text_4">
      <!-- 3 -->
      <defs>
       <path d="M 4.203125 18.890625 
L 12.984375 20.0625 
Q 14.5 12.59375 18.140625 9.296875 
Q 21.78125 6 27 6 
Q 33.203125 6 37.46875 10.296875 
Q 41.75 14.59375 41.75 20.953125 
Q 41.75 27 37.796875 30.921875 
Q 33.84375 34.859375 27.734375 34.859375 
Q 25.25 34.859375 21.53125 33.890625 
L 22.515625 41.609375 
Q 23.390625 41.5 23.921875 41.5 
Q 29.546875 41.5 34.03125 44.421875 
Q 38.53125 47.359375 38.53125 53.46875 
Q 38.53125 58.296875 35.25 61.46875 
Q 31.984375 64.65625 26.8125 64.65625 
Q 21.6875 64.65625 18.265625 61.421875 
Q 14.84375 58.203125 13.875 51.765625 
L 5.078125 53.328125 
Q 6.6875 62.15625 12.390625 67.015625 
Q 18.109375 71.875 26.609375 71.875 
Q 32.46875 71.875 37.390625 69.359375 
Q 42.328125 66.84375 44.9375 62.5 
Q 47.5625 58.15625 47.5625 53.265625 
Q 47.5625 48.640625 45.0625 44.828125 
Q 42.578125 41.015625 37.703125 38.765625 
Q 44.046875 37.3125 47.5625 32.6875 
Q 51.078125 28.078125 51.078125 21.140625 
Q 51.078125 11.765625 44.234375 5.25 
Q 37.40625 -1.265625 26.953125 -1.265625 
Q 17.53125 -1.265625 11.296875 4.34375 
Q 5.078125 9.96875 4.203125 18.890625 
z
" id="ArialMT-51"/>
      </defs>
      <g style="fill:#262626;" transform="translate(190.807861 269.373594)scale(0.11 -0.11)">
       <use xlink:href="#ArialMT-51"/>
      </g>
     </g>
    </g>
    <g id="xtick_5">
     <g id="line2d_5">
      <path clip-path="url(#p2b98f77be6)" d="M 235.415775 252 
L 235.415775 34.56 
" style="fill:none;stroke:#ffffff;stroke-linecap:round;"/>
     </g>
     <g id="text_5">
      <!-- 4 -->
      <defs>
       <path d="M 32.328125 0 
L 32.328125 17.140625 
L 1.265625 17.140625 
L 1.265625 25.203125 
L 33.9375 71.578125 
L 41.109375 71.578125 
L 41.109375 25.203125 
L 50.78125 25.203125 
L 50.78125 17.140625 
L 41.109375 17.140625 
L 41.109375 0 
z
M 32.328125 25.203125 
L 32.328125 57.46875 
L 9.90625 25.203125 
z
" id="ArialMT-52"/>
      </defs>
      <g style="fill:#262626;" transform="translate(232.357259 269.373594)scale(0.11 -0.11)">
       <use xlink:href="#ArialMT-52"/>
      </g>
     </g>
    </g>
    <g id="xtick_6">
     <g id="line2d_6">
      <path clip-path="url(#p2b98f77be6)" d="M 276.965173 252 
L 276.965173 34.56 
" style="fill:none;stroke:#ffffff;stroke-linecap:round;"/>
     </g>
     <g id="text_6">
      <!-- 5 -->
      <defs>
       <path d="M 4.15625 18.75 
L 13.375 19.53125 
Q 14.40625 12.796875 18.140625 9.390625 
Q 21.875 6 27.15625 6 
Q 33.5 6 37.890625 10.78125 
Q 42.28125 15.578125 42.28125 23.484375 
Q 42.28125 31 38.0625 35.34375 
Q 33.84375 39.703125 27 39.703125 
Q 22.75 39.703125 19.328125 37.765625 
Q 15.921875 35.84375 13.96875 32.765625 
L 5.71875 33.84375 
L 12.640625 70.609375 
L 48.25 70.609375 
L 48.25 62.203125 
L 19.671875 62.203125 
L 15.828125 42.96875 
Q 22.265625 47.46875 29.34375 47.46875 
Q 38.71875 47.46875 45.15625 40.96875 
Q 51.609375 34.46875 51.609375 24.265625 
Q 51.609375 14.546875 45.953125 7.46875 
Q 39.0625 -1.21875 27.15625 -1.21875 
Q 17.390625 -1.21875 11.203125 4.25 
Q 5.03125 9.71875 4.15625 18.75 
z
" id="ArialMT-53"/>
      </defs>
      <g style="fill:#262626;" transform="translate(273.906657 269.373594)scale(0.11 -0.11)">
       <use xlink:href="#ArialMT-53"/>
      </g>
     </g>
    </g>
    <g id="xtick_7">
     <g id="line2d_7">
      <path clip-path="url(#p2b98f77be6)" d="M 318.514571 252 
L 318.514571 34.56 
" style="fill:none;stroke:#ffffff;stroke-linecap:round;"/>
     </g>
     <g id="text_7">
      <!-- 6 -->
      <defs>
       <path d="M 49.75 54.046875 
L 41.015625 53.375 
Q 39.84375 58.546875 37.703125 60.890625 
Q 34.125 64.65625 28.90625 64.65625 
Q 24.703125 64.65625 21.53125 62.3125 
Q 17.390625 59.28125 14.984375 53.46875 
Q 12.59375 47.65625 12.5 36.921875 
Q 15.671875 41.75 20.265625 44.09375 
Q 24.859375 46.4375 29.890625 46.4375 
Q 38.671875 46.4375 44.84375 39.96875 
Q 51.03125 33.5 51.03125 23.25 
Q 51.03125 16.5 48.125 10.71875 
Q 45.21875 4.9375 40.140625 1.859375 
Q 35.0625 -1.21875 28.609375 -1.21875 
Q 17.625 -1.21875 10.6875 6.859375 
Q 3.765625 14.9375 3.765625 33.5 
Q 3.765625 54.25 11.421875 63.671875 
Q 18.109375 71.875 29.4375 71.875 
Q 37.890625 71.875 43.28125 67.140625 
Q 48.6875 62.40625 49.75 54.046875 
z
M 13.875 23.1875 
Q 13.875 18.65625 15.796875 14.5 
Q 17.71875 10.359375 21.1875 8.171875 
Q 24.65625 6 28.46875 6 
Q 34.03125 6 38.03125 10.484375 
Q 42.046875 14.984375 42.046875 22.703125 
Q 42.046875 30.125 38.078125 34.390625 
Q 34.125 38.671875 28.125 38.671875 
Q 22.171875 38.671875 18.015625 34.390625 
Q 13.875 30.125 13.875 23.1875 
z
" id="ArialMT-54"/>
      </defs>
      <g style="fill:#262626;" transform="translate(315.456056 269.373594)scale(0.11 -0.11)">
       <use xlink:href="#ArialMT-54"/>
      </g>
     </g>
    </g>
    <g id="xtick_8">
     <g id="line2d_8">
      <path clip-path="url(#p2b98f77be6)" d="M 360.06397 252 
L 360.06397 34.56 
" style="fill:none;stroke:#ffffff;stroke-linecap:round;"/>
     </g>
     <g id="text_8">
      <!-- 7 -->
      <defs>
       <path d="M 4.734375 62.203125 
L 4.734375 70.65625 
L 51.078125 70.65625 
L 51.078125 63.8125 
Q 44.234375 56.546875 37.515625 44.484375 
Q 30.8125 32.421875 27.15625 19.671875 
Q 24.515625 10.6875 23.78125 0 
L 14.75 0 
Q 14.890625 8.453125 18.0625 20.40625 
Q 21.234375 32.375 27.171875 43.484375 
Q 33.109375 54.59375 39.796875 62.203125 
z
" id="ArialMT-55"/>
      </defs>
      <g style="fill:#262626;" transform="translate(357.005454 269.373594)scale(0.11 -0.11)">
       <use xlink:href="#ArialMT-55"/>
      </g>
     </g>
    </g>
    <g id="text_9">
     <!-- d test -->
     <defs>
      <path d="M 40.234375 0 
L 40.234375 6.546875 
Q 35.296875 -1.171875 25.734375 -1.171875 
Q 19.53125 -1.171875 14.328125 2.25 
Q 9.125 5.671875 6.265625 11.796875 
Q 3.421875 17.921875 3.421875 25.875 
Q 3.421875 33.640625 6 39.96875 
Q 8.59375 46.296875 13.765625 49.65625 
Q 18.953125 53.03125 25.34375 53.03125 
Q 30.03125 53.03125 33.6875 51.046875 
Q 37.359375 49.078125 39.65625 45.90625 
L 39.65625 71.578125 
L 48.390625 71.578125 
L 48.390625 0 
z
M 12.453125 25.875 
Q 12.453125 15.921875 16.640625 10.984375 
Q 20.84375 6.0625 26.5625 6.0625 
Q 32.328125 6.0625 36.34375 10.765625 
Q 40.375 15.484375 40.375 25.140625 
Q 40.375 35.796875 36.265625 40.765625 
Q 32.171875 45.75 26.171875 45.75 
Q 20.3125 45.75 16.375 40.96875 
Q 12.453125 36.1875 12.453125 25.875 
z
" id="ArialMT-100"/>
      <path id="ArialMT-32"/>
      <path d="M 25.78125 7.859375 
L 27.046875 0.09375 
Q 23.34375 -0.6875 20.40625 -0.6875 
Q 15.625 -0.6875 12.984375 0.828125 
Q 10.359375 2.34375 9.28125 4.8125 
Q 8.203125 7.28125 8.203125 15.1875 
L 8.203125 45.015625 
L 1.765625 45.015625 
L 1.765625 51.859375 
L 8.203125 51.859375 
L 8.203125 64.703125 
L 16.9375 69.96875 
L 16.9375 51.859375 
L 25.78125 51.859375 
L 25.78125 45.015625 
L 16.9375 45.015625 
L 16.9375 14.703125 
Q 16.9375 10.9375 17.40625 9.859375 
Q 17.875 8.796875 18.921875 8.15625 
Q 19.96875 7.515625 21.921875 7.515625 
Q 23.390625 7.515625 25.78125 7.859375 
z
" id="ArialMT-116"/>
      <path d="M 42.09375 16.703125 
L 51.171875 15.578125 
Q 49.03125 7.625 43.21875 3.21875 
Q 37.40625 -1.171875 28.375 -1.171875 
Q 17 -1.171875 10.328125 5.828125 
Q 3.65625 12.84375 3.65625 25.484375 
Q 3.65625 38.578125 10.390625 45.796875 
Q 17.140625 53.03125 27.875 53.03125 
Q 38.28125 53.03125 44.875 45.953125 
Q 51.46875 38.875 51.46875 26.03125 
Q 51.46875 25.25 51.421875 23.6875 
L 12.75 23.6875 
Q 13.234375 15.140625 17.578125 10.59375 
Q 21.921875 6.0625 28.421875 6.0625 
Q 33.25 6.0625 36.671875 8.59375 
Q 40.09375 11.140625 42.09375 16.703125 
z
M 13.234375 30.90625 
L 42.1875 30.90625 
Q 41.609375 37.453125 38.875 40.71875 
Q 34.671875 45.796875 27.984375 45.796875 
Q 21.921875 45.796875 17.796875 41.75 
Q 13.671875 37.703125 13.234375 30.90625 
z
" id="ArialMT-101"/>
      <path d="M 3.078125 15.484375 
L 11.765625 16.84375 
Q 12.5 11.625 15.84375 8.84375 
Q 19.1875 6.0625 25.203125 6.0625 
Q 31.25 6.0625 34.171875 8.515625 
Q 37.109375 10.984375 37.109375 14.3125 
Q 37.109375 17.28125 34.515625 19 
Q 32.71875 20.171875 25.53125 21.96875 
Q 15.875 24.421875 12.140625 26.203125 
Q 8.40625 27.984375 6.46875 31.125 
Q 4.546875 34.28125 4.546875 38.09375 
Q 4.546875 41.546875 6.125 44.5 
Q 7.71875 47.46875 10.453125 49.421875 
Q 12.5 50.921875 16.03125 51.96875 
Q 19.578125 53.03125 23.640625 53.03125 
Q 29.734375 53.03125 34.34375 51.265625 
Q 38.96875 49.515625 41.15625 46.5 
Q 43.359375 43.5 44.1875 38.484375 
L 35.59375 37.3125 
Q 35.015625 41.3125 32.203125 43.546875 
Q 29.390625 45.796875 24.265625 45.796875 
Q 18.21875 45.796875 15.625 43.796875 
Q 13.03125 41.796875 13.03125 39.109375 
Q 13.03125 37.40625 14.109375 36.03125 
Q 15.1875 34.625 17.484375 33.6875 
Q 18.796875 33.203125 25.25 31.453125 
Q 34.578125 28.953125 38.25 27.359375 
Q 41.9375 25.78125 44.03125 22.75 
Q 46.140625 19.734375 46.140625 15.234375 
Q 46.140625 10.84375 43.578125 6.953125 
Q 41.015625 3.078125 36.171875 0.953125 
Q 31.34375 -1.171875 25.25 -1.171875 
Q 15.140625 -1.171875 9.84375 3.03125 
Q 4.546875 7.234375 3.078125 15.484375 
z
" id="ArialMT-115"/>
     </defs>
     <g style="fill:#262626;" transform="translate(206.72625 284.149219)scale(0.12 -0.12)">
      <use xlink:href="#ArialMT-100"/>
      <use x="55.615234" xlink:href="#ArialMT-32"/>
      <use x="83.398438" xlink:href="#ArialMT-116"/>
      <use x="111.181641" xlink:href="#ArialMT-101"/>
      <use x="166.796875" xlink:href="#ArialMT-115"/>
      <use x="216.796875" xlink:href="#ArialMT-116"/>
     </g>
    </g>
   </g>
   <g id="matplotlib.axis_2">
    <g id="ytick_1">
     <g id="line2d_9">
      <path clip-path="url(#p2b98f77be6)" d="M 54 242.116364 
L 388.8 242.116364 
" style="fill:none;stroke:#ffffff;stroke-linecap:round;"/>
     </g>
     <g id="text_10">
      <!-- 0 -->
      <g style="fill:#262626;" transform="translate(38.382969 246.053161)scale(0.11 -0.11)">
       <use xlink:href="#ArialMT-48"/>
      </g>
     </g>
    </g>
    <g id="ytick_2">
     <g id="line2d_10">
      <path clip-path="url(#p2b98f77be6)" d="M 54 213.877403 
L 388.8 213.877403 
" style="fill:none;stroke:#ffffff;stroke-linecap:round;"/>
     </g>
     <g id="text_11">
      <!-- 1 -->
      <g style="fill:#262626;" transform="translate(38.382969 217.814199)scale(0.11 -0.11)">
       <use xlink:href="#ArialMT-49"/>
      </g>
     </g>
    </g>
    <g id="ytick_3">
     <g id="line2d_11">
      <path clip-path="url(#p2b98f77be6)" d="M 54 185.638442 
L 388.8 185.638442 
" style="fill:none;stroke:#ffffff;stroke-linecap:round;"/>
     </g>
     <g id="text_12">
      <!-- 2 -->
      <g style="fill:#262626;" transform="translate(38.382969 189.575238)scale(0.11 -0.11)">
       <use xlink:href="#ArialMT-50"/>
      </g>
     </g>
    </g>
    <g id="ytick_4">
     <g id="line2d_12">
      <path clip-path="url(#p2b98f77be6)" d="M 54 157.399481 
L 388.8 157.399481 
" style="fill:none;stroke:#ffffff;stroke-linecap:round;"/>
     </g>
     <g id="text_13">
      <!-- 3 -->
      <g style="fill:#262626;" transform="translate(38.382969 161.336277)scale(0.11 -0.11)">
       <use xlink:href="#ArialMT-51"/>
      </g>
     </g>
    </g>
    <g id="ytick_5">
     <g id="line2d_13">
      <path clip-path="url(#p2b98f77be6)" d="M 54 129.160519 
L 388.8 129.160519 
" style="fill:none;stroke:#ffffff;stroke-linecap:round;"/>
     </g>
     <g id="text_14">
      <!-- 4 -->
      <g style="fill:#262626;" transform="translate(38.382969 133.097316)scale(0.11 -0.11)">
       <use xlink:href="#ArialMT-52"/>
      </g>
     </g>
    </g>
    <g id="ytick_6">
     <g id="line2d_14">
      <path clip-path="url(#p2b98f77be6)" d="M 54 100.921558 
L 388.8 100.921558 
" style="fill:none;stroke:#ffffff;stroke-linecap:round;"/>
     </g>
     <g id="text_15">
      <!-- 5 -->
      <g style="fill:#262626;" transform="translate(38.382969 104.858355)scale(0.11 -0.11)">
       <use xlink:href="#ArialMT-53"/>
      </g>
     </g>
    </g>
    <g id="ytick_7">
     <g id="line2d_15">
      <path clip-path="url(#p2b98f77be6)" d="M 54 72.682597 
L 388.8 72.682597 
" style="fill:none;stroke:#ffffff;stroke-linecap:round;"/>
     </g>
     <g id="text_16">
      <!-- 6 -->
      <g style="fill:#262626;" transform="translate(38.382969 76.619394)scale(0.11 -0.11)">
       <use xlink:href="#ArialMT-54"/>
      </g>
     </g>
    </g>
    <g id="ytick_8">
     <g id="line2d_16">
      <path clip-path="url(#p2b98f77be6)" d="M 54 44.443636 
L 388.8 44.443636 
" style="fill:none;stroke:#ffffff;stroke-linecap:round;"/>
     </g>
     <g id="text_17">
      <!-- 7 -->
      <g style="fill:#262626;" transform="translate(38.382969 48.380433)scale(0.11 -0.11)">
       <use xlink:href="#ArialMT-55"/>
      </g>
     </g>
    </g>
    <g id="text_18">
     <!-- d predicted -->
     <defs>
      <path d="M 6.59375 -19.875 
L 6.59375 51.859375 
L 14.59375 51.859375 
L 14.59375 45.125 
Q 17.4375 49.078125 21 51.046875 
Q 24.5625 53.03125 29.640625 53.03125 
Q 36.28125 53.03125 41.359375 49.609375 
Q 46.4375 46.1875 49.015625 39.953125 
Q 51.609375 33.734375 51.609375 26.3125 
Q 51.609375 18.359375 48.75 11.984375 
Q 45.90625 5.609375 40.453125 2.21875 
Q 35.015625 -1.171875 29 -1.171875 
Q 24.609375 -1.171875 21.109375 0.6875 
Q 17.625 2.546875 15.375 5.375 
L 15.375 -19.875 
z
M 14.546875 25.640625 
Q 14.546875 15.625 18.59375 10.84375 
Q 22.65625 6.0625 28.421875 6.0625 
Q 34.28125 6.0625 38.453125 11.015625 
Q 42.625 15.96875 42.625 26.375 
Q 42.625 36.28125 38.546875 41.203125 
Q 34.46875 46.140625 28.8125 46.140625 
Q 23.1875 46.140625 18.859375 40.890625 
Q 14.546875 35.640625 14.546875 25.640625 
z
" id="ArialMT-112"/>
      <path d="M 6.5 0 
L 6.5 51.859375 
L 14.40625 51.859375 
L 14.40625 44 
Q 17.4375 49.515625 20 51.265625 
Q 22.5625 53.03125 25.640625 53.03125 
Q 30.078125 53.03125 34.671875 50.203125 
L 31.640625 42.046875 
Q 28.421875 43.953125 25.203125 43.953125 
Q 22.3125 43.953125 20.015625 42.21875 
Q 17.71875 40.484375 16.75 37.40625 
Q 15.28125 32.71875 15.28125 27.15625 
L 15.28125 0 
z
" id="ArialMT-114"/>
      <path d="M 6.640625 61.46875 
L 6.640625 71.578125 
L 15.4375 71.578125 
L 15.4375 61.46875 
z
M 6.640625 0 
L 6.640625 51.859375 
L 15.4375 51.859375 
L 15.4375 0 
z
" id="ArialMT-105"/>
      <path d="M 40.4375 19 
L 49.078125 17.875 
Q 47.65625 8.9375 41.8125 3.875 
Q 35.984375 -1.171875 27.484375 -1.171875 
Q 16.84375 -1.171875 10.375 5.78125 
Q 3.90625 12.75 3.90625 25.734375 
Q 3.90625 34.125 6.6875 40.421875 
Q 9.46875 46.734375 15.15625 49.875 
Q 20.84375 53.03125 27.546875 53.03125 
Q 35.984375 53.03125 41.359375 48.75 
Q 46.734375 44.484375 48.25 36.625 
L 39.703125 35.296875 
Q 38.484375 40.53125 35.375 43.15625 
Q 32.28125 45.796875 27.875 45.796875 
Q 21.234375 45.796875 17.078125 41.03125 
Q 12.9375 36.28125 12.9375 25.984375 
Q 12.9375 15.53125 16.9375 10.796875 
Q 20.953125 6.0625 27.390625 6.0625 
Q 32.5625 6.0625 36.03125 9.234375 
Q 39.5 12.40625 40.4375 19 
z
" id="ArialMT-99"/>
     </defs>
     <g style="fill:#262626;" transform="translate(31.997969 172.964063)rotate(-90)scale(0.12 -0.12)">
      <use xlink:href="#ArialMT-100"/>
      <use x="55.615234" xlink:href="#ArialMT-32"/>
      <use x="83.398438" xlink:href="#ArialMT-112"/>
      <use x="139.013672" xlink:href="#ArialMT-114"/>
      <use x="172.314453" xlink:href="#ArialMT-101"/>
      <use x="227.929688" xlink:href="#ArialMT-100"/>
      <use x="283.544922" xlink:href="#ArialMT-105"/>
      <use x="305.761719" xlink:href="#ArialMT-99"/>
      <use x="355.761719" xlink:href="#ArialMT-116"/>
      <use x="383.544922" xlink:href="#ArialMT-101"/>
      <use x="439.160156" xlink:href="#ArialMT-100"/>
     </g>
    </g>
   </g>
   <g id="line2d_17">
    <defs>
     <path d="M 0 1.5 
C 0.397805 1.5 0.77937 1.341951 1.06066 1.06066 
C 1.341951 0.77937 1.5 0.397805 1.5 0 
C 1.5 -0.397805 1.341951 -0.77937 1.06066 -1.06066 
C 0.77937 -1.341951 0.397805 -1.5 0 -1.5 
C -0.397805 -1.5 -0.77937 -1.341951 -1.06066 -1.06066 
C -1.341951 -0.77937 -1.5 -0.397805 -1.5 0 
C -1.5 0.397805 -1.341951 0.77937 -1.06066 1.06066 
C -0.77937 1.341951 -0.397805 1.5 0 1.5 
z
" id="m7ed453c7ac" style="stroke:#4c72b0;"/>
    </defs>
    <g clip-path="url(#p2b98f77be6)">
     <use style="fill:#4c72b0;stroke:#4c72b0;" x="119.145668" xlink:href="#m7ed453c7ac" y="198.649145"/>
     <use style="fill:#4c72b0;stroke:#4c72b0;" x="148.34188" xlink:href="#m7ed453c7ac" y="179.26415"/>
     <use style="fill:#4c72b0;stroke:#4c72b0;" x="205.072162" xlink:href="#m7ed453c7ac" y="148.14427"/>
     <use style="fill:#4c72b0;stroke:#4c72b0;" x="314.719605" xlink:href="#m7ed453c7ac" y="113.384568"/>
     <use style="fill:#4c72b0;stroke:#4c72b0;" x="99.436902" xlink:href="#m7ed453c7ac" y="210.482119"/>
     <use style="fill:#4c72b0;stroke:#4c72b0;" x="151.793167" xlink:href="#m7ed453c7ac" y="161.301386"/>
     <use style="fill:#4c72b0;stroke:#4c72b0;" x="110.613701" xlink:href="#m7ed453c7ac" y="204.374004"/>
     <use style="fill:#4c72b0;stroke:#4c72b0;" x="165.739297" xlink:href="#m7ed453c7ac" y="165.179814"/>
     <use style="fill:#4c72b0;stroke:#4c72b0;" x="124.31767" xlink:href="#m7ed453c7ac" y="174.295288"/>
     <use style="fill:#4c72b0;stroke:#4c72b0;" x="257.239254" xlink:href="#m7ed453c7ac" y="128.193435"/>
     <use style="fill:#4c72b0;stroke:#4c72b0;" x="148.911548" xlink:href="#m7ed453c7ac" y="175.506654"/>
     <use style="fill:#4c72b0;stroke:#4c72b0;" x="184.19429" xlink:href="#m7ed453c7ac" y="155.562856"/>
     <use style="fill:#4c72b0;stroke:#4c72b0;" x="181.441087" xlink:href="#m7ed453c7ac" y="158.21487"/>
     <use style="fill:#4c72b0;stroke:#4c72b0;" x="184.292543" xlink:href="#m7ed453c7ac" y="160.703624"/>
     <use style="fill:#4c72b0;stroke:#4c72b0;" x="140.258535" xlink:href="#m7ed453c7ac" y="184.606481"/>
     <use style="fill:#4c72b0;stroke:#4c72b0;" x="120.842077" xlink:href="#m7ed453c7ac" y="199.048663"/>
     <use style="fill:#4c72b0;stroke:#4c72b0;" x="300.640481" xlink:href="#m7ed453c7ac" y="117.834029"/>
     <use style="fill:#4c72b0;stroke:#4c72b0;" x="265.659679" xlink:href="#m7ed453c7ac" y="128.778937"/>
     <use style="fill:#4c72b0;stroke:#4c72b0;" x="150.401804" xlink:href="#m7ed453c7ac" y="175.746459"/>
     <use style="fill:#4c72b0;stroke:#4c72b0;" x="195.515319" xlink:href="#m7ed453c7ac" y="156.71894"/>
     <use style="fill:#4c72b0;stroke:#4c72b0;" x="217.839409" xlink:href="#m7ed453c7ac" y="146.557892"/>
     <use style="fill:#4c72b0;stroke:#4c72b0;" x="120.688033" xlink:href="#m7ed453c7ac" y="197.612462"/>
     <use style="fill:#4c72b0;stroke:#4c72b0;" x="199.7186" xlink:href="#m7ed453c7ac" y="153.713903"/>
     <use style="fill:#4c72b0;stroke:#4c72b0;" x="280.619604" xlink:href="#m7ed453c7ac" y="119.300356"/>
     <use style="fill:#4c72b0;stroke:#4c72b0;" x="230.35721" xlink:href="#m7ed453c7ac" y="141.086684"/>
     <use style="fill:#4c72b0;stroke:#4c72b0;" x="203.605116" xlink:href="#m7ed453c7ac" y="148.862008"/>
     <use style="fill:#4c72b0;stroke:#4c72b0;" x="179.564957" xlink:href="#m7ed453c7ac" y="150.0603"/>
     <use style="fill:#4c72b0;stroke:#4c72b0;" x="183.257695" xlink:href="#m7ed453c7ac" y="158.319469"/>
     <use style="fill:#4c72b0;stroke:#4c72b0;" x="117.955993" xlink:href="#m7ed453c7ac" y="197.733277"/>
     <use style="fill:#4c72b0;stroke:#4c72b0;" x="212.317296" xlink:href="#m7ed453c7ac" y="142.25723"/>
     <use style="fill:#4c72b0;stroke:#4c72b0;" x="321.853188" xlink:href="#m7ed453c7ac" y="104.280001"/>
     <use style="fill:#4c72b0;stroke:#4c72b0;" x="111.440204" xlink:href="#m7ed453c7ac" y="194.662203"/>
     <use style="fill:#4c72b0;stroke:#4c72b0;" x="92.460501" xlink:href="#m7ed453c7ac" y="220.197762"/>
     <use style="fill:#4c72b0;stroke:#4c72b0;" x="134.041166" xlink:href="#m7ed453c7ac" y="182.219156"/>
     <use style="fill:#4c72b0;stroke:#4c72b0;" x="135.033527" xlink:href="#m7ed453c7ac" y="185.860819"/>
     <use style="fill:#4c72b0;stroke:#4c72b0;" x="161.956186" xlink:href="#m7ed453c7ac" y="167.773611"/>
     <use style="fill:#4c72b0;stroke:#4c72b0;" x="273.738573" xlink:href="#m7ed453c7ac" y="122.240967"/>
     <use style="fill:#4c72b0;stroke:#4c72b0;" x="171.714655" xlink:href="#m7ed453c7ac" y="155.804209"/>
     <use style="fill:#4c72b0;stroke:#4c72b0;" x="161.039106" xlink:href="#m7ed453c7ac" y="168.569207"/>
     <use style="fill:#4c72b0;stroke:#4c72b0;" x="285.097692" xlink:href="#m7ed453c7ac" y="118.162746"/>
     <use style="fill:#4c72b0;stroke:#4c72b0;" x="111.057429" xlink:href="#m7ed453c7ac" y="203.339859"/>
     <use style="fill:#4c72b0;stroke:#4c72b0;" x="211.659021" xlink:href="#m7ed453c7ac" y="140.008362"/>
     <use style="fill:#4c72b0;stroke:#4c72b0;" x="197.576994" xlink:href="#m7ed453c7ac" y="139.268015"/>
     <use style="fill:#4c72b0;stroke:#4c72b0;" x="230.220867" xlink:href="#m7ed453c7ac" y="129.136551"/>
     <use style="fill:#4c72b0;stroke:#4c72b0;" x="355.730078" xlink:href="#m7ed453c7ac" y="91.661803"/>
     <use style="fill:#4c72b0;stroke:#4c72b0;" x="214.885388" xlink:href="#m7ed453c7ac" y="135.940994"/>
     <use style="fill:#4c72b0;stroke:#4c72b0;" x="126.200365" xlink:href="#m7ed453c7ac" y="183.297356"/>
     <use style="fill:#4c72b0;stroke:#4c72b0;" x="185.92246" xlink:href="#m7ed453c7ac" y="153.455738"/>
     <use style="fill:#4c72b0;stroke:#4c72b0;" x="143.621566" xlink:href="#m7ed453c7ac" y="178.712588"/>
     <use style="fill:#4c72b0;stroke:#4c72b0;" x="142.927219" xlink:href="#m7ed453c7ac" y="182.062628"/>
     <use style="fill:#4c72b0;stroke:#4c72b0;" x="364.294732" xlink:href="#m7ed453c7ac" y="96.460826"/>
     <use style="fill:#4c72b0;stroke:#4c72b0;" x="215.822219" xlink:href="#m7ed453c7ac" y="144.599668"/>
     <use style="fill:#4c72b0;stroke:#4c72b0;" x="236.140237" xlink:href="#m7ed453c7ac" y="132.507112"/>
     <use style="fill:#4c72b0;stroke:#4c72b0;" x="282.868969" xlink:href="#m7ed453c7ac" y="117.96459"/>
     <use style="fill:#4c72b0;stroke:#4c72b0;" x="251.752257" xlink:href="#m7ed453c7ac" y="121.293085"/>
     <use style="fill:#4c72b0;stroke:#4c72b0;" x="178.604665" xlink:href="#m7ed453c7ac" y="153.61605"/>
     <use style="fill:#4c72b0;stroke:#4c72b0;" x="299.198942" xlink:href="#m7ed453c7ac" y="112.562991"/>
     <use style="fill:#4c72b0;stroke:#4c72b0;" x="373.581818" xlink:href="#m7ed453c7ac" y="91.376862"/>
     <use style="fill:#4c72b0;stroke:#4c72b0;" x="245.213813" xlink:href="#m7ed453c7ac" y="128.395888"/>
     <use style="fill:#4c72b0;stroke:#4c72b0;" x="245.55413" xlink:href="#m7ed453c7ac" y="112.892637"/>
     <use style="fill:#4c72b0;stroke:#4c72b0;" x="178.680113" xlink:href="#m7ed453c7ac" y="152.557685"/>
     <use style="fill:#4c72b0;stroke:#4c72b0;" x="162.492797" xlink:href="#m7ed453c7ac" y="159.872123"/>
     <use style="fill:#4c72b0;stroke:#4c72b0;" x="257.30584" xlink:href="#m7ed453c7ac" y="118.378758"/>
     <use style="fill:#4c72b0;stroke:#4c72b0;" x="258.777664" xlink:href="#m7ed453c7ac" y="118.730366"/>
     <use style="fill:#4c72b0;stroke:#4c72b0;" x="122.38511" xlink:href="#m7ed453c7ac" y="189.534281"/>
     <use style="fill:#4c72b0;stroke:#4c72b0;" x="118.244492" xlink:href="#m7ed453c7ac" y="181.374876"/>
     <use style="fill:#4c72b0;stroke:#4c72b0;" x="149.124417" xlink:href="#m7ed453c7ac" y="170.970442"/>
     <use style="fill:#4c72b0;stroke:#4c72b0;" x="113.669552" xlink:href="#m7ed453c7ac" y="198.218367"/>
     <use style="fill:#4c72b0;stroke:#4c72b0;" x="361.534726" xlink:href="#m7ed453c7ac" y="92.413751"/>
     <use style="fill:#4c72b0;stroke:#4c72b0;" x="327.936682" xlink:href="#m7ed453c7ac" y="111.056227"/>
     <use style="fill:#4c72b0;stroke:#4c72b0;" x="296.380699" xlink:href="#m7ed453c7ac" y="120.84221"/>
     <use style="fill:#4c72b0;stroke:#4c72b0;" x="149.33522" xlink:href="#m7ed453c7ac" y="184.616264"/>
     <use style="fill:#4c72b0;stroke:#4c72b0;" x="130.410568" xlink:href="#m7ed453c7ac" y="201.469578"/>
     <use style="fill:#4c72b0;stroke:#4c72b0;" x="173.058779" xlink:href="#m7ed453c7ac" y="174.835789"/>
     <use style="fill:#4c72b0;stroke:#4c72b0;" x="104.001713" xlink:href="#m7ed453c7ac" y="224.520481"/>
     <use style="fill:#4c72b0;stroke:#4c72b0;" x="248.751606" xlink:href="#m7ed453c7ac" y="140.794"/>
     <use style="fill:#4c72b0;stroke:#4c72b0;" x="170.088723" xlink:href="#m7ed453c7ac" y="174.737653"/>
     <use style="fill:#4c72b0;stroke:#4c72b0;" x="123.475657" xlink:href="#m7ed453c7ac" y="202.854853"/>
     <use style="fill:#4c72b0;stroke:#4c72b0;" x="200.916752" xlink:href="#m7ed453c7ac" y="156.043408"/>
     <use style="fill:#4c72b0;stroke:#4c72b0;" x="120.691583" xlink:href="#m7ed453c7ac" y="195.726372"/>
     <use style="fill:#4c72b0;stroke:#4c72b0;" x="178.259833" xlink:href="#m7ed453c7ac" y="159.010197"/>
     <use style="fill:#4c72b0;stroke:#4c72b0;" x="174.959964" xlink:href="#m7ed453c7ac" y="156.990463"/>
     <use style="fill:#4c72b0;stroke:#4c72b0;" x="226.504124" xlink:href="#m7ed453c7ac" y="135.183789"/>
     <use style="fill:#4c72b0;stroke:#4c72b0;" x="100.393755" xlink:href="#m7ed453c7ac" y="212.286269"/>
     <use style="fill:#4c72b0;stroke:#4c72b0;" x="159.898554" xlink:href="#m7ed453c7ac" y="170.228526"/>
     <use style="fill:#4c72b0;stroke:#4c72b0;" x="222.601108" xlink:href="#m7ed453c7ac" y="134.169737"/>
     <use style="fill:#4c72b0;stroke:#4c72b0;" x="325.846884" xlink:href="#m7ed453c7ac" y="102.960514"/>
     <use style="fill:#4c72b0;stroke:#4c72b0;" x="106.461756" xlink:href="#m7ed453c7ac" y="211.000489"/>
     <use style="fill:#4c72b0;stroke:#4c72b0;" x="136.402422" xlink:href="#m7ed453c7ac" y="183.02786"/>
     <use style="fill:#4c72b0;stroke:#4c72b0;" x="196.208613" xlink:href="#m7ed453c7ac" y="152.123594"/>
     <use style="fill:#4c72b0;stroke:#4c72b0;" x="273.071318" xlink:href="#m7ed453c7ac" y="122.796549"/>
     <use style="fill:#4c72b0;stroke:#4c72b0;" x="149.420853" xlink:href="#m7ed453c7ac" y="179.168465"/>
     <use style="fill:#4c72b0;stroke:#4c72b0;" x="101.028244" xlink:href="#m7ed453c7ac" y="215.289699"/>
     <use style="fill:#4c72b0;stroke:#4c72b0;" x="171.134994" xlink:href="#m7ed453c7ac" y="158.379794"/>
     <use style="fill:#4c72b0;stroke:#4c72b0;" x="116.191374" xlink:href="#m7ed453c7ac" y="198.613896"/>
     <use style="fill:#4c72b0;stroke:#4c72b0;" x="189.710953" xlink:href="#m7ed453c7ac" y="143.049614"/>
     <use style="fill:#4c72b0;stroke:#4c72b0;" x="107.122131" xlink:href="#m7ed453c7ac" y="208.075902"/>
     <use style="fill:#4c72b0;stroke:#4c72b0;" x="107.325567" xlink:href="#m7ed453c7ac" y="205.852985"/>
     <use style="fill:#4c72b0;stroke:#4c72b0;" x="193.309763" xlink:href="#m7ed453c7ac" y="149.700491"/>
     <use style="fill:#4c72b0;stroke:#4c72b0;" x="191.634775" xlink:href="#m7ed453c7ac" y="147.706436"/>
     <use style="fill:#4c72b0;stroke:#4c72b0;" x="108.619941" xlink:href="#m7ed453c7ac" y="201.817981"/>
     <use style="fill:#4c72b0;stroke:#4c72b0;" x="102.258025" xlink:href="#m7ed453c7ac" y="214.308478"/>
     <use style="fill:#4c72b0;stroke:#4c72b0;" x="172.291543" xlink:href="#m7ed453c7ac" y="161.415485"/>
     <use style="fill:#4c72b0;stroke:#4c72b0;" x="363.945589" xlink:href="#m7ed453c7ac" y="89.402958"/>
     <use style="fill:#4c72b0;stroke:#4c72b0;" x="272.840947" xlink:href="#m7ed453c7ac" y="116.633577"/>
     <use style="fill:#4c72b0;stroke:#4c72b0;" x="126.681233" xlink:href="#m7ed453c7ac" y="186.582964"/>
     <use style="fill:#4c72b0;stroke:#4c72b0;" x="241.181428" xlink:href="#m7ed453c7ac" y="125.964443"/>
     <use style="fill:#4c72b0;stroke:#4c72b0;" x="109.849476" xlink:href="#m7ed453c7ac" y="206.992305"/>
     <use style="fill:#4c72b0;stroke:#4c72b0;" x="110.928872" xlink:href="#m7ed453c7ac" y="206.624074"/>
     <use style="fill:#4c72b0;stroke:#4c72b0;" x="97.103672" xlink:href="#m7ed453c7ac" y="220.999762"/>
     <use style="fill:#4c72b0;stroke:#4c72b0;" x="228.554437" xlink:href="#m7ed453c7ac" y="131.134781"/>
     <use style="fill:#4c72b0;stroke:#4c72b0;" x="341.227571" xlink:href="#m7ed453c7ac" y="97.320079"/>
     <use style="fill:#4c72b0;stroke:#4c72b0;" x="154.079414" xlink:href="#m7ed453c7ac" y="172.259483"/>
     <use style="fill:#4c72b0;stroke:#4c72b0;" x="127.531494" xlink:href="#m7ed453c7ac" y="182.81069"/>
     <use style="fill:#4c72b0;stroke:#4c72b0;" x="106.265582" xlink:href="#m7ed453c7ac" y="198.056884"/>
     <use style="fill:#4c72b0;stroke:#4c72b0;" x="117.938885" xlink:href="#m7ed453c7ac" y="195.62077"/>
     <use style="fill:#4c72b0;stroke:#4c72b0;" x="167.272039" xlink:href="#m7ed453c7ac" y="156.282628"/>
     <use style="fill:#4c72b0;stroke:#4c72b0;" x="137.14022" xlink:href="#m7ed453c7ac" y="183.787409"/>
     <use style="fill:#4c72b0;stroke:#4c72b0;" x="121.010292" xlink:href="#m7ed453c7ac" y="197.870637"/>
     <use style="fill:#4c72b0;stroke:#4c72b0;" x="110.031154" xlink:href="#m7ed453c7ac" y="202.691148"/>
     <use style="fill:#4c72b0;stroke:#4c72b0;" x="203.617143" xlink:href="#m7ed453c7ac" y="145.055027"/>
     <use style="fill:#4c72b0;stroke:#4c72b0;" x="202.536468" xlink:href="#m7ed453c7ac" y="144.13454"/>
     <use style="fill:#4c72b0;stroke:#4c72b0;" x="182.967651" xlink:href="#m7ed453c7ac" y="154.045118"/>
     <use style="fill:#4c72b0;stroke:#4c72b0;" x="156.847771" xlink:href="#m7ed453c7ac" y="176.600872"/>
     <use style="fill:#4c72b0;stroke:#4c72b0;" x="179.326305" xlink:href="#m7ed453c7ac" y="167.926376"/>
     <use style="fill:#4c72b0;stroke:#4c72b0;" x="111.820058" xlink:href="#m7ed453c7ac" y="203.93981"/>
     <use style="fill:#4c72b0;stroke:#4c72b0;" x="221.143774" xlink:href="#m7ed453c7ac" y="150.761146"/>
     <use style="fill:#4c72b0;stroke:#4c72b0;" x="177.01162" xlink:href="#m7ed453c7ac" y="171.472654"/>
     <use style="fill:#4c72b0;stroke:#4c72b0;" x="202.088375" xlink:href="#m7ed453c7ac" y="158.31881"/>
     <use style="fill:#4c72b0;stroke:#4c72b0;" x="98.754168" xlink:href="#m7ed453c7ac" y="226.948317"/>
     <use style="fill:#4c72b0;stroke:#4c72b0;" x="97.131856" xlink:href="#m7ed453c7ac" y="229.761988"/>
     <use style="fill:#4c72b0;stroke:#4c72b0;" x="174.19001" xlink:href="#m7ed453c7ac" y="169.277203"/>
     <use style="fill:#4c72b0;stroke:#4c72b0;" x="302.777225" xlink:href="#m7ed453c7ac" y="115.904426"/>
     <use style="fill:#4c72b0;stroke:#4c72b0;" x="348.718721" xlink:href="#m7ed453c7ac" y="100.421292"/>
     <use style="fill:#4c72b0;stroke:#4c72b0;" x="175.110882" xlink:href="#m7ed453c7ac" y="169.024209"/>
     <use style="fill:#4c72b0;stroke:#4c72b0;" x="247.891937" xlink:href="#m7ed453c7ac" y="132.534992"/>
     <use style="fill:#4c72b0;stroke:#4c72b0;" x="199.056836" xlink:href="#m7ed453c7ac" y="151.637426"/>
    </g>
   </g>
   <g id="line2d_18">
    <path clip-path="url(#p2b98f77be6)" d="M 69.218182 242.116364 
L 110.76758 213.877403 
L 152.316978 185.638442 
L 193.866377 157.399481 
L 235.415775 129.160519 
L 276.965173 100.921558 
L 318.514571 72.682597 
L 360.06397 44.443636 
" style="fill:none;stroke:#dd8452;stroke-dasharray:5.55,2.4;stroke-dashoffset:0;stroke-width:1.5;"/>
   </g>
   <g id="patch_3">
    <path d="M 54 252 
L 54 34.56 
" style="fill:none;stroke:#ffffff;stroke-linecap:square;stroke-linejoin:miter;stroke-width:1.25;"/>
   </g>
   <g id="patch_4">
    <path d="M 388.8 252 
L 388.8 34.56 
" style="fill:none;stroke:#ffffff;stroke-linecap:square;stroke-linejoin:miter;stroke-width:1.25;"/>
   </g>
   <g id="patch_5">
    <path d="M 54 252 
L 388.8 252 
" style="fill:none;stroke:#ffffff;stroke-linecap:square;stroke-linejoin:miter;stroke-width:1.25;"/>
   </g>
   <g id="patch_6">
    <path d="M 54 34.56 
L 388.8 34.56 
" style="fill:none;stroke:#ffffff;stroke-linecap:square;stroke-linejoin:miter;stroke-width:1.25;"/>
   </g>
   <g id="legend_1">
    <g id="patch_7">
     <path d="M 61.7 74.608594 
L 151.312187 74.608594 
Q 153.512187 74.608594 153.512187 72.408594 
L 153.512187 42.26 
Q 153.512187 40.06 151.312187 40.06 
L 61.7 40.06 
Q 59.5 40.06 59.5 42.26 
L 59.5 72.408594 
Q 59.5 74.608594 61.7 74.608594 
z
" style="fill:#eaeaf2;opacity:0.8;stroke:#cccccc;stroke-linejoin:miter;"/>
    </g>
    <g id="line2d_19"/>
    <g id="line2d_20">
     <g>
      <use style="fill:#4c72b0;stroke:#4c72b0;" x="74.9" xlink:href="#m7ed453c7ac" y="48.483594"/>
     </g>
    </g>
    <g id="text_19">
     <!-- Predictions -->
     <defs>
      <path d="M 7.71875 0 
L 7.71875 71.578125 
L 34.71875 71.578125 
Q 41.84375 71.578125 45.609375 70.90625 
Q 50.875 70.015625 54.4375 67.546875 
Q 58.015625 65.09375 60.1875 60.640625 
Q 62.359375 56.203125 62.359375 50.875 
Q 62.359375 41.75 56.546875 35.421875 
Q 50.734375 29.109375 35.546875 29.109375 
L 17.1875 29.109375 
L 17.1875 0 
z
M 17.1875 37.546875 
L 35.6875 37.546875 
Q 44.875 37.546875 48.734375 40.96875 
Q 52.59375 44.390625 52.59375 50.59375 
Q 52.59375 55.078125 50.3125 58.265625 
Q 48.046875 61.46875 44.34375 62.5 
Q 41.9375 63.140625 35.5 63.140625 
L 17.1875 63.140625 
z
" id="ArialMT-80"/>
      <path d="M 3.328125 25.921875 
Q 3.328125 40.328125 11.328125 47.265625 
Q 18.015625 53.03125 27.640625 53.03125 
Q 38.328125 53.03125 45.109375 46.015625 
Q 51.90625 39.015625 51.90625 26.65625 
Q 51.90625 16.65625 48.90625 10.90625 
Q 45.90625 5.171875 40.15625 2 
Q 34.421875 -1.171875 27.640625 -1.171875 
Q 16.75 -1.171875 10.03125 5.8125 
Q 3.328125 12.796875 3.328125 25.921875 
z
M 12.359375 25.921875 
Q 12.359375 15.96875 16.703125 11.015625 
Q 21.046875 6.0625 27.640625 6.0625 
Q 34.1875 6.0625 38.53125 11.03125 
Q 42.875 16.015625 42.875 26.21875 
Q 42.875 35.84375 38.5 40.796875 
Q 34.125 45.75 27.640625 45.75 
Q 21.046875 45.75 16.703125 40.8125 
Q 12.359375 35.890625 12.359375 25.921875 
z
" id="ArialMT-111"/>
      <path d="M 6.59375 0 
L 6.59375 51.859375 
L 14.5 51.859375 
L 14.5 44.484375 
Q 20.21875 53.03125 31 53.03125 
Q 35.6875 53.03125 39.625 51.34375 
Q 43.5625 49.65625 45.515625 46.921875 
Q 47.46875 44.1875 48.25 40.4375 
Q 48.734375 37.984375 48.734375 31.890625 
L 48.734375 0 
L 39.9375 0 
L 39.9375 31.546875 
Q 39.9375 36.921875 38.90625 39.578125 
Q 37.890625 42.234375 35.28125 43.8125 
Q 32.671875 45.40625 29.15625 45.40625 
Q 23.53125 45.40625 19.453125 41.84375 
Q 15.375 38.28125 15.375 28.328125 
L 15.375 0 
z
" id="ArialMT-110"/>
     </defs>
     <g style="fill:#262626;" transform="translate(94.7 52.333594)scale(0.11 -0.11)">
      <use xlink:href="#ArialMT-80"/>
      <use x="66.699219" xlink:href="#ArialMT-114"/>
      <use x="100" xlink:href="#ArialMT-101"/>
      <use x="155.615234" xlink:href="#ArialMT-100"/>
      <use x="211.230469" xlink:href="#ArialMT-105"/>
      <use x="233.447266" xlink:href="#ArialMT-99"/>
      <use x="283.447266" xlink:href="#ArialMT-116"/>
      <use x="311.230469" xlink:href="#ArialMT-105"/>
      <use x="333.447266" xlink:href="#ArialMT-111"/>
      <use x="389.0625" xlink:href="#ArialMT-110"/>
      <use x="444.677734" xlink:href="#ArialMT-115"/>
     </g>
    </g>
    <g id="line2d_21">
     <path d="M 63.9 64.043438 
L 85.9 64.043438 
" style="fill:none;stroke:#dd8452;stroke-dasharray:5.55,2.4;stroke-dashoffset:0;stroke-width:1.5;"/>
    </g>
    <g id="line2d_22"/>
    <g id="text_20">
     <!-- y=x -->
     <defs>
      <path d="M 6.203125 -19.96875 
L 5.21875 -11.71875 
Q 8.109375 -12.5 10.25 -12.5 
Q 13.1875 -12.5 14.9375 -11.515625 
Q 16.703125 -10.546875 17.828125 -8.796875 
Q 18.65625 -7.46875 20.515625 -2.25 
Q 20.75 -1.515625 21.296875 -0.09375 
L 1.609375 51.859375 
L 11.078125 51.859375 
L 21.875 21.828125 
Q 23.96875 16.109375 25.640625 9.8125 
Q 27.15625 15.875 29.25 21.625 
L 40.328125 51.859375 
L 49.125 51.859375 
L 29.390625 -0.875 
Q 26.21875 -9.421875 24.46875 -12.640625 
Q 22.125 -17 19.09375 -19.015625 
Q 16.0625 -21.046875 11.859375 -21.046875 
Q 9.328125 -21.046875 6.203125 -19.96875 
z
" id="ArialMT-121"/>
      <path d="M 52.828125 42.09375 
L 5.5625 42.09375 
L 5.5625 50.296875 
L 52.828125 50.296875 
z
M 52.828125 20.359375 
L 5.5625 20.359375 
L 5.5625 28.5625 
L 52.828125 28.5625 
z
" id="ArialMT-61"/>
      <path d="M 0.734375 0 
L 19.671875 26.953125 
L 2.15625 51.859375 
L 13.140625 51.859375 
L 21.09375 39.703125 
Q 23.34375 36.234375 24.703125 33.890625 
Q 26.859375 37.109375 28.65625 39.59375 
L 37.40625 51.859375 
L 47.90625 51.859375 
L 29.984375 27.4375 
L 49.265625 0 
L 38.484375 0 
L 27.828125 16.109375 
L 25 20.453125 
L 11.375 0 
z
" id="ArialMT-120"/>
     </defs>
     <g style="fill:#262626;" transform="translate(94.7 67.893438)scale(0.11 -0.11)">
      <use xlink:href="#ArialMT-121"/>
      <use x="50" xlink:href="#ArialMT-61"/>
      <use x="108.398438" xlink:href="#ArialMT-120"/>
     </g>
    </g>
   </g>
  </g>
 </g>
 <defs>
  <clipPath id="p2b98f77be6">
   <rect height="217.44" width="334.8" x="54" y="34.56"/>
  </clipPath>
 </defs>
</svg>
