<svg id="Layer_1" data-name="Layer 1" xmlns="http://www.w3.org/2000/svg" viewBox="0 0 428.5447 325.6525">
  <title>TwoSensorDiagram(3)</title>
  <rect x="78.6738" y="129.4661" width="44.8539" height="128.303" rx="15.2106" fill="#f2ebc3" stroke="#231f20" stroke-miterlimit="10" stroke-width="2"/>
  <rect x="54.3197" y="1" width="93.0787" height="93.0787" fill="#cdddb3" stroke="#231f20" stroke-miterlimit="10" stroke-width="2"/>
  <polygon points="320.073 94.079 233.107 94.079 226.994 94.079 226.994 1 320.073 1 320.073 94.079" fill="#cdddb3" stroke="#231f20" stroke-miterlimit="10" stroke-width="2"/>
  <g>
    <line x1="59.4941" y1="272.299" x2="59.4941" y2="208.0148" fill="none" stroke="#231f20" stroke-miterlimit="10" stroke-width="2"/>
    <g>
      <line x1="60.4942" y1="209.0517" x2="69.1651" y2="209.0517" fill="none" stroke="#231f20" stroke-miterlimit="10" stroke-width="2"/>
      <polygon points="67.268 215.534 78.494 209.052 67.268 202.569 67.268 215.534" fill="#231f20"/>
    </g>
  </g>
  <g>
    <polyline points="147.843 43.903 169.511 43.903 169.511 193.346 133.955 193.346" fill="none" stroke="#231f20" stroke-miterlimit="10" stroke-width="2.0898"/>
    <polygon points="135.937 186.572 124.207 193.346 135.937 200.119 135.937 186.572" fill="#231f20"/>
  </g>
  <rect x="251.1068" y="129.4661" width="44.8539" height="128.303" rx="15.2106" fill="#f2ebc3" stroke="#231f20" stroke-miterlimit="10" stroke-width="2"/>
  <g>
    <line x1="232.1068" y1="274.9226" x2="232.1068" y2="205.3912" fill="none" stroke="#231f20" stroke-miterlimit="10" stroke-width="2"/>
    <g>
      <line x1="233.1068" y1="206.5127" x2="241.7777" y2="206.5127" fill="none" stroke="#231f20" stroke-miterlimit="10" stroke-width="2"/>
      <polygon points="239.881 212.995 251.107 206.513 239.881 200.03 239.881 212.995" fill="#231f20"/>
    </g>
  </g>
  <g>
    <polyline points="233.107 94.079 233.107 180.779 251.107 180.779" fill="#fff"/>
    <g>
      <polyline points="233.107 94.079 233.107 180.779 241.778 180.779" fill="none" stroke="#231f20" stroke-miterlimit="10" stroke-width="2"/>
      <polygon points="239.881 187.261 251.107 180.779 239.881 174.297 239.881 187.261" fill="#231f20"/>
    </g>
  </g>
  <g>
    <polyline points="319.304 44.228 388.511 44.228 388.511 161.557" fill="none" stroke="#231f20" stroke-miterlimit="10" stroke-width="2"/>
    <polygon points="382.029 159.661 388.511 170.886 394.994 159.661 382.029 159.661" fill="#231f20"/>
  </g>
  <ellipse cx="389.2807" cy="193.3456" rx="38.264" ry="22.7842" fill="#d1d3d4" stroke="#231f20" stroke-miterlimit="10" stroke-width="2"/>
  <g>
    <line x1="296.8539" y1="193.3456" x2="340.6137" y2="193.3456" fill="none" stroke="#231f20" stroke-miterlimit="10" stroke-width="2"/>
    <polygon points="338.717 199.828 349.943 193.346 338.717 186.863 338.717 199.828" fill="#231f20"/>
  </g>
  <g>
    <path d="M392.2412,204.7119a12.7079,12.7079,0,0,1,2.34-.1953,3.8575,3.8575,0,0,1,2.7314.77,2.3529,2.3529,0,0,1,.7422,1.793,2.48,2.48,0,0,1-1.7793,2.4092v.042a2.35,2.35,0,0,1,1.3867,1.9042,15.034,15.034,0,0,0,.7285,2.5918H397.13a12.1817,12.1817,0,0,1-.63-2.2548c-.28-1.3028-.7852-1.793-1.8916-1.835H393.46v4.09h-1.2188Zm1.2188,4.3008h1.247c1.3028,0,2.1289-.7148,2.1289-1.793,0-1.2187-.8828-1.7509-2.1709-1.7646a5.0457,5.0457,0,0,0-1.205.1113Z" transform="translate(-23.8604 -16.6076)" fill="#231f20"/>
    <path d="M400.4736,210.8613a2.1723,2.1723,0,0,0,2.3252,2.3535,4.453,4.453,0,0,0,1.877-.3505l.21.8828a5.4862,5.4862,0,0,1-2.2548.42,3.148,3.148,0,0,1-3.334-3.417c0-2.0459,1.2051-3.6562,3.18-3.6562,2.2129,0,2.8017,1.9472,2.8017,3.1933a4.71,4.71,0,0,1-.042.5742Zm3.6143-.8818a1.7548,1.7548,0,0,0-1.709-2.0029,2.0433,2.0433,0,0,0-1.8916,2.0029Z" transform="translate(-23.8604 -16.6076)" fill="#231f20"/>
    <path d="M407.291,207.248l.8965,3.4454c.1963.7568.3779,1.457.5049,2.1572h.042c.1533-.6865.3779-1.4151.6015-2.1426l1.1065-3.46H411.48l1.0508,3.39c.2519.8125.4482,1.5264.6015,2.2129h.043a20.3308,20.3308,0,0,1,.5176-2.1992l.9668-3.4034h1.2187l-2.1855,6.7793h-1.12l-1.0371-3.2353a22.8093,22.8093,0,0,1-.6026-2.2275h-.0273a20.0342,20.0342,0,0,1-.6162,2.2412l-1.0928,3.2216h-1.1211L406.03,207.248Z" transform="translate(-23.8604 -16.6076)" fill="#231f20"/>
    <path d="M420.8027,214.0273l-.0976-.8544h-.042a2.5265,2.5265,0,0,1-2.0733,1.0087,1.9316,1.9316,0,0,1-2.0732-1.9472c0-1.6387,1.457-2.5352,4.0762-2.5215v-.14a1.398,1.398,0,0,0-1.541-1.5693,3.3756,3.3756,0,0,0-1.7647.5049l-.28-.8125a4.2089,4.2089,0,0,1,2.2276-.6025c2.0732,0,2.5771,1.415,2.5771,2.7734v2.5351a9.5433,9.5433,0,0,0,.1123,1.625Zm-.1816-3.46c-1.3447-.0283-2.8721.21-2.8721,1.5273a1.0906,1.0906,0,0,0,1.1631,1.1758,1.6869,1.6869,0,0,0,1.6387-1.1338,1.2949,1.2949,0,0,0,.07-.3926Z" transform="translate(-23.8604 -16.6076)" fill="#231f20"/>
    <path d="M423.7969,209.3633c0-.7988-.0137-1.4854-.0557-2.1153h1.0781l.042,1.33h.0567a2.0328,2.0328,0,0,1,1.8769-1.4843,1.32,1.32,0,0,1,.35.0419v1.1622a1.884,1.884,0,0,0-.42-.042,1.73,1.73,0,0,0-1.6533,1.583,3.5368,3.5368,0,0,0-.0557.5742v3.6142h-1.2187Z" transform="translate(-23.8604 -16.6076)" fill="#231f20"/>
    <path d="M434.0908,204.082v8.1944c0,.6025.0137,1.289.0557,1.7509H433.04l-.0556-1.1767h-.0283a2.5077,2.5077,0,0,1-2.3116,1.331c-1.6386,0-2.8994-1.3867-2.8994-3.4462-.0137-2.2549,1.3867-3.6416,3.04-3.6416A2.2681,2.2681,0,0,1,432.83,208.13h.0283V204.082Zm-1.2324,5.9248a2.1714,2.1714,0,0,0-.0566-.5175,1.8119,1.8119,0,0,0-1.7793-1.4288c-1.2745,0-2.03,1.12-2.03,2.6192,0,1.373.6719,2.5068,2.0029,2.5068a1.8522,1.8522,0,0,0,1.8067-1.4707,2.1388,2.1388,0,0,0,.0566-.5322Z" transform="translate(-23.8604 -16.6076)" fill="#231f20"/>
  </g>
  <g>
    <line x1="7.1155" y1="276.0441" x2="58.7076" y2="276.0441" fill="none" stroke="#231f20" stroke-miterlimit="10"/>
    <polygon points="55.394 280.134 54.712 279.402 58.324 276.045 54.712 272.688 55.394 271.955 59.792 276.045 55.394 280.134" fill="#231f20"/>
  </g>
  <g>
    <line x1="57.792" y1="276.0441" x2="159.4211" y2="276.0441" fill="none" stroke="#231f20" stroke-miterlimit="10"/>
    <polygon points="156.108 280.134 155.425 279.402 159.037 276.045 155.425 272.688 156.108 271.955 160.506 276.045 156.108 280.134" fill="#231f20"/>
  </g>
  <g>
    <line x1="127.2074" y1="276.0441" x2="230.3502" y2="276.0441" fill="none" stroke="#231f20" stroke-miterlimit="10"/>
    <polygon points="227.037 280.134 226.355 279.402 229.966 276.045 226.355 272.688 227.037 271.955 231.435 276.045 227.037 280.134" fill="#231f20"/>
  </g>
  <g>
    <polyline points="59.494 94.079 59.494 180.779 69.165 180.779" fill="none" stroke="#231f20" stroke-miterlimit="10" stroke-width="2"/>
    <polygon points="67.268 187.261 78.494 180.779 67.268 174.297 67.268 187.261" fill="#231f20"/>
  </g>
  <g>
    <polyline points="389.281 216.13 389.281 319.066 35.391 319.066 16.595 319.066" fill="none" stroke="#c1444b" stroke-miterlimit="10" stroke-width="2.0321"/>
    <polygon points="18.522 312.48 7.115 319.066 18.522 325.653 18.522 312.48" fill="#c1444b"/>
  </g>
  <rect x="6.3398" y="271.9542" width="225.7669" height="8.1798" fill="none" stroke="#231f20" stroke-miterlimit="10" stroke-width="2.0848"/>
  <path d="M122.0581,210.73l-1.54,4.665h-1.9805l5.0391-14.83h2.3105l5.0606,14.83h-2.0469l-1.584-4.665Zm4.8633-1.4961-1.4522-4.2686c-.33-.9677-.5507-1.8476-.77-2.706h-.0439c-.22.88-.4619,1.7822-.7481,2.6846l-1.4521,4.29Z" transform="translate(-23.8604 -16.6076)" fill="#231f20"/>
  <path d="M294.7334,210.28l-1.54,4.665h-1.9805l5.0391-14.83h2.31l5.06,14.83h-2.0459l-1.5849-4.665Zm4.8633-1.4961-1.4522-4.2686c-.33-.9677-.5507-1.8476-.77-2.706H297.33c-.22.88-.4619,1.7822-.7481,2.6845l-1.4521,4.29Z" transform="translate(-23.8604 -16.6076)" fill="#231f20"/>
  <g>
    <path d="M117.6479,53.5576h-5.7646v5.3467h6.4248v1.6064h-8.34v-14.83h8.01v1.6064h-6.0947v4.6865h5.7646Z" transform="translate(-23.8604 -16.6076)" fill="#231f20"/>
    <path d="M120.7271,52.7432c0-1.1-.0225-2.002-.0879-2.8819h1.7158l.11,1.76h.044a3.9164,3.9164,0,0,1,3.52-2.002c1.4736,0,3.7627.88,3.7627,4.5323v6.3593H127.856V54.3721c0-1.7168-.6387-3.1465-2.4649-3.1465a2.8387,2.8387,0,0,0-2.7275,2.8818v6.4033h-1.9365Z" transform="translate(-23.8604 -16.6076)" fill="#231f20"/>
    <path d="M133.3989,49.8613l2.09,5.9844a27.2877,27.2877,0,0,1,.8584,2.7285h.0664c.2412-.88.55-1.76.9013-2.7285l2.0684-5.9844h2.0244l-4.1806,10.6494h-1.8477l-4.0488-10.6494Z" transform="translate(-23.8604 -16.6076)" fill="#231f20"/>
    <path d="M103.3579,71.6406a14.51,14.51,0,0,0-2.7725,9,14.8321,14.8321,0,0,0,2.7725,8.9326H101.84a14.2181,14.2181,0,0,1-2.8828-8.9326,14.5257,14.5257,0,0,1,2.8828-9Z" transform="translate(-23.8604 -16.6076)" fill="#231f20"/>
    <path d="M107.7358,73.2031v3.0586h2.7725v1.4737h-2.7725v5.7431c0,1.32.3741,2.0684,1.4522,2.0684a4.333,4.333,0,0,0,1.1221-.1319l.0878,1.4522a4.7321,4.7321,0,0,1-1.7158.2637,2.6877,2.6877,0,0,1-2.0908-.8135,3.9478,3.9478,0,0,1-.748-2.7725V77.7354h-1.65V76.2617h1.65V73.709Z" transform="translate(-23.8604 -16.6076)" fill="#231f20"/>
    <path d="M112.6851,79.584c0-1.2539-.0225-2.332-.0879-3.3223h1.6943l.0654,2.09h.0879a3.196,3.196,0,0,1,2.9483-2.3321,2.0976,2.0976,0,0,1,.5507.0664v1.8262a2.9163,2.9163,0,0,0-.66-.0664,2.7169,2.7169,0,0,0-2.5967,2.4863,5.4722,5.4722,0,0,0-.0879.9024v5.6767h-1.914Z" transform="translate(-23.8604 -16.6076)" fill="#231f20"/>
    <path d="M125.6665,86.9111l-.1543-1.3418h-.0654a3.968,3.968,0,0,1-3.2569,1.584,3.0337,3.0337,0,0,1-3.2558-3.0586c0-2.5742,2.2881-3.9824,6.4023-3.9609v-.22a2.1951,2.1951,0,0,0-2.42-2.4639,5.3031,5.3031,0,0,0-2.7725.792l-.44-1.2764a6.6082,6.6082,0,0,1,3.499-.9463c3.2559,0,4.0479,2.2227,4.0479,4.3565v3.9824a14.9125,14.9125,0,0,0,.1767,2.5527Zm-.2861-5.4345c-2.1123-.044-4.5108.33-4.5108,2.3984a1.7135,1.7135,0,0,0,1.8262,1.8477A2.65,2.65,0,0,0,125.271,83.94a2.0387,2.0387,0,0,0,.1094-.6162Z" transform="translate(-23.8604 -16.6076)" fill="#231f20"/>
    <path d="M132.53,73.27a1.1993,1.1993,0,0,1-2.3985,0,1.18,1.18,0,0,1,1.21-1.2109A1.15,1.15,0,0,1,132.53,73.27Zm-2.1563,13.6416V76.2617H132.31V86.9111Z" transform="translate(-23.8604 -16.6076)" fill="#231f20"/>
    <path d="M135.521,79.1436c0-1.1-.0225-2.002-.0879-2.8819h1.7158l.11,1.76h.0439a3.9165,3.9165,0,0,1,3.52-2.002c1.4737,0,3.7627.88,3.7627,4.5323v6.3593H142.65V80.7725c0-1.7168-.6377-3.1465-2.4648-3.1465a2.751,2.751,0,0,0-2.5957,1.98,2.7793,2.7793,0,0,0-.1319.9014v6.4033H135.521Z" transform="translate(-23.8604 -16.6076)" fill="#231f20"/>
    <path d="M146.5649,89.5732a14.892,14.892,0,0,0,2.7725-8.999,14.5892,14.5892,0,0,0-2.7725-8.9336h1.4961a14.0167,14.0167,0,0,1,2.8819,8.9561,14.28,14.28,0,0,1-2.8819,8.9765Z" transform="translate(-23.8604 -16.6076)" fill="#231f20"/>
  </g>
  <g>
    <path d="M290.0811,53.5566h-5.7647v5.3467h6.4248V60.51h-8.34V45.68h8.01v1.6064h-6.0947v4.6866h5.7647Z" transform="translate(-23.8604 -16.6076)" fill="#231f20"/>
    <path d="M293.16,52.7422c0-1.1-.0225-2.002-.0879-2.8818h1.7158l.11,1.76h.044a3.9164,3.9164,0,0,1,3.52-2.0019c1.4736,0,3.7627.88,3.7627,4.5322V60.51h-1.9365V54.3711c0-1.7168-.6377-3.1465-2.4649-3.1465a2.7512,2.7512,0,0,0-2.5957,1.98,2.7788,2.7788,0,0,0-.1318.9013V60.51H293.16Z" transform="translate(-23.8604 -16.6076)" fill="#231f20"/>
    <path d="M305.832,49.86l2.09,5.9843a27.2958,27.2958,0,0,1,.8584,2.7285h.0664c.2412-.88.55-1.76.9013-2.7285l2.0684-5.9843h2.0244L309.66,60.51h-1.8477L303.7637,49.86Z" transform="translate(-23.8604 -16.6076)" fill="#231f20"/>
    <path d="M279.8721,71.64a14.5094,14.5094,0,0,0-2.7725,9,14.8315,14.8315,0,0,0,2.7725,8.9327h-1.5176a14.2186,14.2186,0,0,1-2.8828-8.9327,14.5251,14.5251,0,0,1,2.8828-9Z" transform="translate(-23.8604 -16.6076)" fill="#231f20"/>
    <path d="M284.25,73.2021v3.0586h2.7725v1.4737H284.25v5.7431c0,1.32.374,2.0684,1.4521,2.0684a4.3377,4.3377,0,0,0,1.1221-.1318l.0879,1.4521a4.7325,4.7325,0,0,1-1.7158.2637,2.6872,2.6872,0,0,1-2.0908-.8135,3.9476,3.9476,0,0,1-.7481-2.7725V77.7344H280.708V76.2607h1.6494V73.708Z" transform="translate(-23.8604 -16.6076)" fill="#231f20"/>
    <path d="M290.1455,81.9375a3.4113,3.4113,0,0,0,3.6524,3.6963,7.0083,7.0083,0,0,0,2.9482-.55l.33,1.3857a8.6113,8.6113,0,0,1-3.542.66c-3.2793,0-5.2373-2.1563-5.2373-5.3682s1.8926-5.7431,4.9951-5.7431c3.4766,0,4.4,3.0585,4.4,5.0166a7.2092,7.2092,0,0,1-.0664.9023Zm5.6768-1.3867c.0215-1.2315-.5059-3.1465-2.6846-3.1465-1.958,0-2.8164,1.8047-2.9707,3.1465Z" transform="translate(-23.8604 -16.6076)" fill="#231f20"/>
    <path d="M299.8252,84.93a5.0785,5.0785,0,0,0,2.5527.77c1.4082,0,2.0684-.7041,2.0684-1.584,0-.9248-.55-1.4307-1.9805-1.959-1.914-.6816-2.8164-1.7383-2.8164-3.0146,0-1.7158,1.3867-3.124,3.6748-3.124a5.3091,5.3091,0,0,1,2.6182.66l-.4844,1.4082a4.1448,4.1448,0,0,0-2.1777-.6162c-1.1446,0-1.7823.66-1.7823,1.4522,0,.88.6377,1.2763,2.0245,1.8046,1.8476.7041,2.7939,1.628,2.7939,3.212,0,1.87-1.4521,3.19-3.9824,3.19a6.0786,6.0786,0,0,1-2.9922-.7256Z" transform="translate(-23.8604 -16.6076)" fill="#231f20"/>
    <path d="M311.1338,73.2021v3.0586h2.7725v1.4737h-2.7725v5.7431c0,1.32.374,2.0684,1.4521,2.0684a4.3377,4.3377,0,0,0,1.1221-.1318l.0879,1.4521a4.7325,4.7325,0,0,1-1.7158.2637,2.6871,2.6871,0,0,1-2.0908-.8135,3.9476,3.9476,0,0,1-.7481-2.7725V77.7344h-1.6494V76.2607h1.6494V73.708Z" transform="translate(-23.8604 -16.6076)" fill="#231f20"/>
    <path d="M314.917,89.5723a14.8932,14.8932,0,0,0,2.7725-8.9991A14.59,14.59,0,0,0,314.917,71.64h1.4961a14.0167,14.0167,0,0,1,2.8818,8.9561,14.2807,14.2807,0,0,1-2.8818,8.9766Z" transform="translate(-23.8604 -16.6076)" fill="#231f20"/>
  </g>
  <g>
    <path d="M31.2241,135.7715a10.832,10.832,0,0,1,2.003-.168,3.3034,3.3034,0,0,1,2.3388.66,2.01,2.01,0,0,1,.6358,1.5351,2.1224,2.1224,0,0,1-1.5235,2.0625v.0362a2.0122,2.0122,0,0,1,1.1875,1.6308,12.8458,12.8458,0,0,0,.624,2.2188H35.4106a10.3637,10.3637,0,0,1-.54-1.9307c-.24-1.1152-.6719-1.5351-1.6191-1.5713h-.9834v3.502h-1.044Zm1.044,3.6816h1.0673c1.1153,0,1.8233-.6113,1.8233-1.5351,0-1.043-.7559-1.4991-1.8594-1.5108a4.3026,4.3026,0,0,0-1.0312.0957Z" transform="translate(-23.8604 -16.6076)" fill="#231f20"/>
    <path d="M41.0024,143.7471l-.0839-.7315h-.0362a2.1614,2.1614,0,0,1-1.7754.8633,1.6533,1.6533,0,0,1-1.7744-1.667c0-1.4033,1.2471-2.1709,3.49-2.1592v-.1191a1.1967,1.1967,0,0,0-1.3194-1.3438,2.8958,2.8958,0,0,0-1.5117.4317l-.2393-.6953a3.6019,3.6019,0,0,1,1.9063-.5157c1.7754,0,2.207,1.211,2.207,2.3741v2.1709a8.2442,8.2442,0,0,0,.0957,1.3916Zm-.1562-2.9619c-1.1514-.0245-2.458.18-2.458,1.3066a.9339.9339,0,0,0,.9951,1.0078,1.4436,1.4436,0,0,0,1.4033-.9717,1.0949,1.0949,0,0,0,.06-.3359Z" transform="translate(-23.8604 -16.6076)" fill="#231f20"/>
    <path d="M43.5728,139.5137c0-.6-.0127-1.0918-.0489-1.5713H44.46l.0605.959h.0235a2.1348,2.1348,0,0,1,1.9189-1.0909c.8037,0,2.0508.48,2.0508,2.4708v3.4658H47.4585v-3.3457c0-.9356-.3477-1.7159-1.3438-1.7159a1.5,1.5,0,0,0-1.415,1.08,1.5192,1.5192,0,0,0-.0723.4912v3.49H43.5728Z" transform="translate(-23.8604 -16.6076)" fill="#231f20"/>
    <path d="M55.2456,135.2314v7.0166c0,.5157.0117,1.1036.0479,1.4991h-.9473l-.0479-1.0078h-.0244a2.1449,2.1449,0,0,1-1.9785,1.14c-1.4033,0-2.4824-1.1875-2.4824-2.95-.0127-1.9307,1.1875-3.1182,2.6025-3.1182a1.9406,1.9406,0,0,1,1.751.8877H54.19v-3.4668ZM54.19,140.3047a1.8543,1.8543,0,0,0-.0478-.4434,1.5517,1.5517,0,0,0-1.5234-1.2236c-1.0909,0-1.7383.96-1.7383,2.2432,0,1.1748.5752,2.1464,1.7148,2.1464a1.5856,1.5856,0,0,0,1.5469-1.2587,1.8337,1.8337,0,0,0,.0478-.4561Z" transform="translate(-23.8604 -16.6076)" fill="#231f20"/>
    <path d="M62.2534,140.7969a2.837,2.837,0,0,1-2.8906,3.082,2.76,2.76,0,0,1-2.7822-2.9863,2.8335,2.8335,0,0,1,2.8779-3.0821A2.7491,2.7491,0,0,1,62.2534,140.7969Zm-4.6055.06c0,1.2715.7315,2.2315,1.7627,2.2315,1.0079,0,1.7627-.9483,1.7627-2.2549,0-.9834-.4912-2.2314-1.7382-2.2314S57.6479,139.7529,57.6479,140.8564Z" transform="translate(-23.8604 -16.6076)" fill="#231f20"/>
    <path d="M63.5884,139.5137c0-.6-.0127-1.0918-.0488-1.5713h.9238l.0478.9355h.0362a2.0009,2.0009,0,0,1,1.8232-1.0674,1.7158,1.7158,0,0,1,1.6426,1.1631h.0244a2.3874,2.3874,0,0,1,.6475-.7558,1.9808,1.9808,0,0,1,1.2832-.4073c.7675,0,1.9072.504,1.9072,2.5186v3.418H70.8442v-3.2862c0-1.1152-.4082-1.7871-1.26-1.7871a1.3653,1.3653,0,0,0-1.2471.96,1.7363,1.7363,0,0,0-.084.5273v3.586H67.2222v-3.4785c0-.9229-.4082-1.5948-1.2119-1.5948a1.5737,1.5737,0,0,0-1.3907,1.5713v3.502H63.5884Z" transform="translate(-23.8604 -16.6076)" fill="#231f20"/>
    <path d="M33.3,152.3428l1.14,3.2617a15.1756,15.1756,0,0,1,.4678,1.4873h.0361c.1319-.48.3-.959.4913-1.4873l1.1279-3.2617h1.1025l-2.2783,5.8047H34.3794l-2.2061-5.8047Z" transform="translate(-23.8604 -16.6076)" fill="#231f20"/>
    <path d="M39.1313,155.4365a1.86,1.86,0,0,0,1.9913,2.0156,3.8184,3.8184,0,0,0,1.6074-.3l.18.7549a4.7,4.7,0,0,1-1.9307.36,2.696,2.696,0,0,1-2.8545-2.9268c0-1.751,1.0313-3.13,2.7227-3.13a2.4593,2.4593,0,0,1,2.3984,2.7344,4.0165,4.0165,0,0,1-.0361.4912Zm3.0948-.7549a1.5028,1.5028,0,0,0-1.4629-1.7148,1.7492,1.7492,0,0,0-1.6192,1.7148Z" transform="translate(-23.8604 -16.6076)" fill="#231f20"/>
    <path d="M44.5562,149.6318h1.0546v8.5157H44.5562Z" transform="translate(-23.8604 -16.6076)" fill="#231f20"/>
    <path d="M52.6411,155.1973a2.837,2.837,0,0,1-2.8906,3.082,2.76,2.76,0,0,1-2.7822-2.9863,2.834,2.834,0,0,1,2.8779-3.0821A2.7491,2.7491,0,0,1,52.6411,155.1973Zm-4.6055.0595c0,1.2715.7315,2.2315,1.7627,2.2315,1.0079,0,1.7627-.9483,1.7627-2.2549,0-.9834-.4912-2.2314-1.7382-2.2314S48.0356,154.1533,48.0356,155.2568Z" transform="translate(-23.8604 -16.6076)" fill="#231f20"/>
    <path d="M58.1138,157.9316a3.8961,3.8961,0,0,1-1.668.336,2.7574,2.7574,0,0,1-2.89-2.9629,2.9487,2.9487,0,0,1,3.1181-3.082,3.5348,3.5348,0,0,1,1.4629.3l-.2393.8154a2.4544,2.4544,0,0,0-1.2236-.2754,2.1882,2.1882,0,0,0-.0361,4.3652,2.9964,2.9964,0,0,0,1.2949-.2881Z" transform="translate(-23.8604 -16.6076)" fill="#231f20"/>
    <path d="M60.5269,150.7119a.6539.6539,0,0,1-1.3077,0,.6438.6438,0,0,1,.66-.66A.6267.6267,0,0,1,60.5269,150.7119Zm-1.1748,7.4356v-5.8047h1.0546v5.8047Z" transform="translate(-23.8604 -16.6076)" fill="#231f20"/>
    <path d="M63.43,150.6758v1.667h1.5117v.8037H63.43v3.13c0,.72.2041,1.1279.792,1.1279a2.3339,2.3339,0,0,0,.6113-.0723l.0478.791a2.5755,2.5755,0,0,1-.9355.1446,1.4615,1.4615,0,0,1-1.1387-.4444,2.1488,2.1488,0,0,1-.4082-1.5107v-3.166H61.5v-.8037h.8994v-1.3916Z" transform="translate(-23.8604 -16.6076)" fill="#231f20"/>
    <path d="M66.6235,152.3428l1.27,3.43c.1319.3838.2764.84.3721,1.1875h.0244c.1074-.3477.2276-.7911.3711-1.211l1.1514-3.4062h1.1162l-1.584,4.1377c-.7549,1.9912-1.27,3.01-1.99,3.6338a2.8536,2.8536,0,0,1-1.2959.6836l-.2637-.8877a2.8044,2.8044,0,0,0,.9238-.5157,3.2,3.2,0,0,0,.8877-1.1748.7665.7665,0,0,0,.084-.2519.9251.9251,0,0,0-.0722-.2764l-2.1465-5.3486Z" transform="translate(-23.8604 -16.6076)" fill="#231f20"/>
    <path d="M39.731,164.2246A7.9111,7.9111,0,0,0,38.22,169.13a8.0814,8.0814,0,0,0,1.5108,4.8691h-.8272a7.7485,7.7485,0,0,1-1.5713-4.8691,7.9094,7.9094,0,0,1,1.5713-4.9053Z" transform="translate(-23.8604 -16.6076)" fill="#231f20"/>
    <path d="M42.12,165.0762v1.667h1.5117v.8037H42.12v3.13c0,.72.2041,1.1279.792,1.1279a2.3339,2.3339,0,0,0,.6113-.0723l.0479.791a2.5755,2.5755,0,0,1-.9355.1446,1.4612,1.4612,0,0,1-1.1387-.4444,2.1488,2.1488,0,0,1-.4082-1.5107v-3.166H40.189v-.8037h.8994v-1.3916Z" transform="translate(-23.8604 -16.6076)" fill="#231f20"/>
    <path d="M44.8208,168.5537c0-.6836-.0127-1.27-.0488-1.81h.9238l.0361,1.14H45.78a1.7407,1.7407,0,0,1,1.6074-1.2715,1.1176,1.1176,0,0,1,.3.0362v.9951a1.5651,1.5651,0,0,0-.36-.0362,1.4811,1.4811,0,0,0-1.4151,1.3555,3.028,3.028,0,0,0-.0478.4912v3.0948h-1.043Z" transform="translate(-23.8604 -16.6076)" fill="#231f20"/>
    <path d="M51.8989,172.5479l-.084-.7315h-.0361a2.1615,2.1615,0,0,1-1.7754.8633,1.6534,1.6534,0,0,1-1.7744-1.667c0-1.4033,1.2471-2.1709,3.49-2.1592v-.1191A1.1967,1.1967,0,0,0,50.4,167.3906a2.8958,2.8958,0,0,0-1.5117.4317l-.2393-.6953a3.6019,3.6019,0,0,1,1.9063-.5157c1.7754,0,2.207,1.211,2.207,2.3741v2.1709a8.2449,8.2449,0,0,0,.0957,1.3916Zm-.1562-2.962c-1.1514-.0244-2.458.18-2.458,1.3067A.9338.9338,0,0,0,50.28,171.9a1.4438,1.4438,0,0,0,1.4033-.9717,1.0979,1.0979,0,0,0,.06-.3359Z" transform="translate(-23.8604 -16.6076)" fill="#231f20"/>
    <path d="M55.644,165.1123a.6538.6538,0,0,1-1.3076,0,.6438.6438,0,0,1,.66-.66A.6267.6267,0,0,1,55.644,165.1123Zm-1.1748,7.4356v-5.8047h1.0547v5.8047Z" transform="translate(-23.8604 -16.6076)" fill="#231f20"/>
    <path d="M57.2769,168.3145c0-.6-.0127-1.0918-.0489-1.5713h.9356l.06.9589h.0235a2.1349,2.1349,0,0,1,1.9189-1.0908c.8037,0,2.0508.48,2.0508,2.4707v3.4659H61.1626v-3.3458c0-.9355-.3486-1.7158-1.3438-1.7158a1.5,1.5,0,0,0-1.415,1.08,1.5188,1.5188,0,0,0-.0723.4912v3.49H57.2769Z" transform="translate(-23.8604 -16.6076)" fill="#231f20"/>
    <path d="M63.3013,173.999a8.1164,8.1164,0,0,0,1.5107-4.9052,7.9524,7.9524,0,0,0-1.5107-4.8692h.8154a7.6378,7.6378,0,0,1,1.5713,4.8809,7.786,7.786,0,0,1-1.5713,4.8935Z" transform="translate(-23.8604 -16.6076)" fill="#231f20"/>
  </g>
  <g>
    <path d="M39.6162,234.0225l-.84,2.5429H37.6973l2.7461-8.084h1.26l2.7588,8.084H43.3457l-.8633-2.5429Zm2.65-.8155-.791-2.3261c-.1807-.5284-.3-1.0079-.42-1.4756h-.0244c-.12.48-.252.9717-.4073,1.4629l-.792,2.3388Z" transform="translate(-23.8604 -16.6076)" fill="#231f20"/>
    <path d="M49.6113,236.35a3.8959,3.8959,0,0,1-1.6679.3359,2.7575,2.7575,0,0,1-2.89-2.9628,2.9488,2.9488,0,0,1,3.1182-3.0821,3.5368,3.5368,0,0,1,1.4629.3l-.24.8155a2.447,2.447,0,0,0-1.2226-.2754,2.1882,2.1882,0,0,0-.0362,4.3652,2.9965,2.9965,0,0,0,1.295-.2881Z" transform="translate(-23.8604 -16.6076)" fill="#231f20"/>
    <path d="M52.2754,229.0938v1.6669h1.5117v.8038H52.2754v3.13c0,.72.2041,1.128.792,1.128a2.3383,2.3383,0,0,0,.6113-.0723l.0479.791a2.5769,2.5769,0,0,1-.9356.1445,1.4614,1.4614,0,0,1-1.1387-.4443,2.1488,2.1488,0,0,1-.4082-1.5107v-3.166h-.8994v-.8038h.8994v-1.3916Z" transform="translate(-23.8604 -16.6076)" fill="#231f20"/>
    <path d="M56.1514,229.13a.6538.6538,0,0,1-1.3076,0,.6438.6438,0,0,1,.66-.66A.6268.6268,0,0,1,56.1514,229.13Zm-1.1748,7.4355v-5.8047h1.0547v5.8047Z" transform="translate(-23.8604 -16.6076)" fill="#231f20"/>
    <path d="M63.0371,233.6152a2.8371,2.8371,0,0,1-2.8906,3.0821,2.76,2.76,0,0,1-2.7822-2.9864,2.834,2.834,0,0,1,2.8779-3.082A2.749,2.749,0,0,1,63.0371,233.6152Zm-4.6055.06c0,1.2715.7315,2.2315,1.7627,2.2315,1.0078,0,1.7627-.9483,1.7627-2.2549,0-.9834-.4912-2.2315-1.7382-2.2315S58.4316,232.5713,58.4316,233.6748Z" transform="translate(-23.8604 -16.6076)" fill="#231f20"/>
    <path d="M64.3721,232.332c0-.6-.0127-1.0918-.0489-1.5713h.9356l.0605.959h.0235a2.135,2.135,0,0,1,1.9189-1.0908c.8037,0,2.0508.48,2.0508,2.4707v3.4658H68.2578V233.22c0-.9355-.3476-1.7158-1.3437-1.7158a1.5,1.5,0,0,0-1.4151,1.08,1.5189,1.5189,0,0,0-.0722.4912v3.49H64.3721Z" transform="translate(-23.8604 -16.6076)" fill="#231f20"/>
    <path d="M75.53,229.7529h-.0235l-1.3554.7315-.2041-.8028L75.65,228.77H76.55v7.7959H75.53Z" transform="translate(-23.8604 -16.6076)" fill="#231f20"/>
    <path d="M31.248,246.84c0,2.7823-1.69,4.2579-3.7539,4.2579-2.1347,0-3.6337-1.6553-3.6337-4.1016,0-2.5664,1.5957-4.2461,3.7539-4.2461C29.8213,242.75,31.248,244.4414,31.248,246.84Zm-6.2724.1319c0,1.7275.9355,3.2744,2.5791,3.2744,1.6553,0,2.59-1.5234,2.59-3.3584,0-1.6064-.8388-3.2861-2.5781-3.2861C25.84,243.6016,24.9756,245.1973,24.9756,246.9717Z" transform="translate(-23.8604 -16.6076)" fill="#231f20"/>
    <path d="M37.4648,249.3828c0,.6.0127,1.127.0489,1.583h-.9356l-.06-.9472h-.0235a2.1848,2.1848,0,0,1-1.9189,1.0791c-.9121,0-2.0029-.5039-2.0029-2.543v-3.3936H33.627v3.2139c0,1.1035.3359,1.8477,1.2959,1.8477a1.4878,1.4878,0,0,0,1.4873-1.5v-3.5616h1.0546Z" transform="translate(-23.8604 -16.6076)" fill="#231f20"/>
    <path d="M40.4912,243.4941v1.667h1.5117v.8037H40.4912v3.13c0,.72.2041,1.128.792,1.128a2.3383,2.3383,0,0,0,.6113-.0723l.0479.791a2.5765,2.5765,0,0,1-.9356.1445,1.4611,1.4611,0,0,1-1.1386-.4443,2.1488,2.1488,0,0,1-.4082-1.5107v-3.1661h-.9v-.8037h.9V243.77Z" transform="translate(-23.8604 -16.6076)" fill="#231f20"/>
    <path d="M47.2578,250.75a3.8964,3.8964,0,0,1-1.668.3359,2.7575,2.7575,0,0,1-2.89-2.9629,2.9488,2.9488,0,0,1,3.1182-3.082,3.5368,3.5368,0,0,1,1.4629.3l-.24.8155a2.4473,2.4473,0,0,0-1.2226-.2754,2.1882,2.1882,0,0,0-.0362,4.3652,2.9978,2.9978,0,0,0,1.2949-.2881Z" transform="translate(-23.8604 -16.6076)" fill="#231f20"/>
    <path d="M53.6768,248.0156a2.8371,2.8371,0,0,1-2.8907,3.0821,2.76,2.76,0,0,1-2.7822-2.9864,2.8345,2.8345,0,0,1,2.8779-3.082A2.7491,2.7491,0,0,1,53.6768,248.0156Zm-4.6055.06c0,1.2715.7314,2.2314,1.7627,2.2314,1.0078,0,1.7627-.9482,1.7627-2.2548,0-.9834-.4912-2.2315-1.7383-2.2315S49.0713,246.9717,49.0713,248.0752Z" transform="translate(-23.8604 -16.6076)" fill="#231f20"/>
    <path d="M55.0117,246.7324c0-.6-.0127-1.0918-.0488-1.5713h.9238l.0479.9356h.0361a2.0008,2.0008,0,0,1,1.8232-1.0674,1.7157,1.7157,0,0,1,1.6426,1.1631h.0244a2.39,2.39,0,0,1,.6475-.7559,1.9815,1.9815,0,0,1,1.2832-.4072c.7676,0,1.9072.5039,1.9072,2.5186v3.4179H62.2676V247.68c0-1.1152-.4082-1.7871-1.26-1.7871a1.3652,1.3652,0,0,0-1.2471.96,1.7371,1.7371,0,0,0-.0839.5274v3.5859H58.6455v-3.4785c0-.9228-.4082-1.5947-1.2119-1.5947a1.5736,1.5736,0,0,0-1.3906,1.5713v3.5019H55.0117Z" transform="translate(-23.8604 -16.6076)" fill="#231f20"/>
    <path d="M65.6064,248.2549a1.86,1.86,0,0,0,1.9913,2.0156,3.8184,3.8184,0,0,0,1.6074-.3l.18.7549a4.7005,4.7005,0,0,1-1.9307.36A2.6959,2.6959,0,0,1,64.6,248.1592c0-1.751,1.0313-3.13,2.7227-3.13a2.4593,2.4593,0,0,1,2.3984,2.7344,4.0165,4.0165,0,0,1-.0361.4912Zm3.0948-.7549a1.5036,1.5036,0,0,0-1.4629-1.7158A1.75,1.75,0,0,0,65.6191,247.5Z" transform="translate(-23.8604 -16.6076)" fill="#231f20"/>
    <path d="M75.5293,244.1533h-.0234l-1.3555.7315-.2041-.8028,1.7031-.9121h.8994v7.7959H75.5293Z" transform="translate(-23.8604 -16.6076)" fill="#231f20"/>
    <path d="M39.6162,262.8232l-.84,2.543H37.6973l2.7461-8.084h1.26l2.7588,8.084H43.3457l-.8633-2.543Zm2.65-.8154-.791-2.3262c-.1807-.5283-.3-1.0078-.42-1.4755h-.0244c-.12.4794-.252.9716-.4073,1.4628l-.792,2.3389Z" transform="translate(-23.8604 -16.6076)" fill="#231f20"/>
    <path d="M49.6113,265.15a3.8974,3.8974,0,0,1-1.6679.3359,2.7575,2.7575,0,0,1-2.89-2.9629,2.9488,2.9488,0,0,1,3.1182-3.082,3.5368,3.5368,0,0,1,1.4629.3l-.24.8154a2.4483,2.4483,0,0,0-1.2226-.2753,2.1882,2.1882,0,0,0-.0362,4.3652,2.998,2.998,0,0,0,1.295-.2881Z" transform="translate(-23.8604 -16.6076)" fill="#231f20"/>
    <path d="M52.2754,257.8945v1.667h1.5117v.8037H52.2754v3.13c0,.72.2041,1.1279.792,1.1279a2.3392,2.3392,0,0,0,.6113-.0722l.0479.791a2.5769,2.5769,0,0,1-.9356.1445,1.4614,1.4614,0,0,1-1.1387-.4443,2.149,2.149,0,0,1-.4082-1.5107v-3.1661h-.8994v-.8037h.8994V258.17Z" transform="translate(-23.8604 -16.6076)" fill="#231f20"/>
    <path d="M56.1514,257.9307a.6538.6538,0,0,1-1.3076,0,.6438.6438,0,0,1,.66-.66A.6268.6268,0,0,1,56.1514,257.9307Zm-1.1748,7.4355v-5.8047h1.0547v5.8047Z" transform="translate(-23.8604 -16.6076)" fill="#231f20"/>
    <path d="M63.0371,262.416a2.837,2.837,0,0,1-2.8906,3.082,2.7594,2.7594,0,0,1-2.7822-2.9863,2.8339,2.8339,0,0,1,2.8779-3.082A2.749,2.749,0,0,1,63.0371,262.416Zm-4.6055.06c0,1.2715.7315,2.2314,1.7627,2.2314,1.0078,0,1.7627-.9482,1.7627-2.2549,0-.9833-.4912-2.2314-1.7382-2.2314S58.4316,261.3721,58.4316,262.4756Z" transform="translate(-23.8604 -16.6076)" fill="#231f20"/>
    <path d="M64.3721,261.1328c0-.6-.0127-1.0918-.0489-1.5713h.9356l.0605.959h.0235a2.135,2.135,0,0,1,1.9189-1.0908c.8037,0,2.0508.4795,2.0508,2.4707v3.4658H68.2578v-3.3457c0-.9355-.3476-1.7158-1.3437-1.7158a1.5,1.5,0,0,0-1.4151,1.08,1.5189,1.5189,0,0,0-.0722.4912v3.49H64.3721Z" transform="translate(-23.8604 -16.6076)" fill="#231f20"/>
    <path d="M73.24,265.3662v-.6474l.8272-.8038c1.9912-1.8945,2.8906-2.9023,2.9023-4.0781a1.39,1.39,0,0,0-1.5468-1.5224,2.6532,2.6532,0,0,0-1.6553.6591l-.336-.7431a3.4209,3.4209,0,0,1,2.2071-.792,2.1937,2.1937,0,0,1,2.3867,2.2666c0,1.4394-1.044,2.6025-2.6865,4.1855l-.6241.5762v.0234h3.502v.876Z" transform="translate(-23.8604 -16.6076)" fill="#231f20"/>
    <path d="M31.248,275.64c0,2.7833-1.69,4.2579-3.7539,4.2579-2.1347,0-3.6337-1.6553-3.6337-4.1016,0-2.5664,1.5957-4.2461,3.7539-4.2461C29.8213,271.55,31.248,273.2412,31.248,275.64Zm-6.2724.1319c0,1.7275.9355,3.2744,2.5791,3.2744,1.6553,0,2.59-1.5234,2.59-3.3584,0-1.6064-.8388-3.2861-2.5781-3.2861C25.84,272.4014,24.9756,273.9971,24.9756,275.7715Z" transform="translate(-23.8604 -16.6076)" fill="#231f20"/>
    <path d="M37.4648,278.1826c0,.6.0127,1.127.0489,1.583h-.9356l-.06-.9472h-.0235a2.1848,2.1848,0,0,1-1.9189,1.0791c-.9121,0-2.0029-.5039-2.0029-2.543v-3.3936H33.627v3.2139c0,1.1035.3359,1.8477,1.2959,1.8477a1.4878,1.4878,0,0,0,1.4873-1.5v-3.5616h1.0546Z" transform="translate(-23.8604 -16.6076)" fill="#231f20"/>
    <path d="M40.4912,272.2939v1.667h1.5117v.8037H40.4912v3.13c0,.72.2041,1.128.792,1.128a2.3383,2.3383,0,0,0,.6113-.0723l.0479.791a2.5765,2.5765,0,0,1-.9356.1445,1.4611,1.4611,0,0,1-1.1386-.4443,2.1488,2.1488,0,0,1-.4082-1.5107v-3.1661h-.9v-.8037h.9v-1.3916Z" transform="translate(-23.8604 -16.6076)" fill="#231f20"/>
    <path d="M47.2578,279.55a3.8964,3.8964,0,0,1-1.668.3359,2.7575,2.7575,0,0,1-2.89-2.9628,2.9488,2.9488,0,0,1,3.1182-3.0821,3.5368,3.5368,0,0,1,1.4629.3l-.24.8155a2.4473,2.4473,0,0,0-1.2226-.2754,2.1882,2.1882,0,0,0-.0362,4.3652,2.9978,2.9978,0,0,0,1.2949-.2881Z" transform="translate(-23.8604 -16.6076)" fill="#231f20"/>
    <path d="M53.6768,276.8154a2.8371,2.8371,0,0,1-2.8907,3.0821,2.76,2.76,0,0,1-2.7822-2.9864,2.834,2.834,0,0,1,2.8779-3.082A2.7491,2.7491,0,0,1,53.6768,276.8154Zm-4.6055.06c0,1.2715.7314,2.2314,1.7627,2.2314,1.0078,0,1.7627-.9482,1.7627-2.2548,0-.9834-.4912-2.2315-1.7383-2.2315S49.0713,275.7715,49.0713,276.875Z" transform="translate(-23.8604 -16.6076)" fill="#231f20"/>
    <path d="M55.0117,275.5322c0-.6-.0127-1.0918-.0488-1.5713h.9238l.0479.9356h.0361a2.0008,2.0008,0,0,1,1.8232-1.0674,1.7157,1.7157,0,0,1,1.6426,1.1631h.0244a2.39,2.39,0,0,1,.6475-.7559,1.9815,1.9815,0,0,1,1.2832-.4072c.7676,0,1.9072.5039,1.9072,2.5186v3.4179H62.2676V276.48c0-1.1152-.4082-1.7871-1.26-1.7871a1.3652,1.3652,0,0,0-1.2471.96,1.7371,1.7371,0,0,0-.0839.5274v3.5859H58.6455v-3.4785c0-.9228-.4082-1.5947-1.2119-1.5947a1.5736,1.5736,0,0,0-1.3906,1.5713v3.5019H55.0117Z" transform="translate(-23.8604 -16.6076)" fill="#231f20"/>
    <path d="M65.6064,277.0547a1.86,1.86,0,0,0,1.9913,2.0156,3.8184,3.8184,0,0,0,1.6074-.3l.18.7549a4.7005,4.7005,0,0,1-1.9307.36A2.6959,2.6959,0,0,1,64.6,276.959c0-1.751,1.0313-3.13,2.7227-3.13a2.4593,2.4593,0,0,1,2.3984,2.7344,4.0165,4.0165,0,0,1-.0361.4912Zm3.0948-.7549a1.5028,1.5028,0,0,0-1.4629-1.7148A1.7492,1.7492,0,0,0,65.6191,276.3Z" transform="translate(-23.8604 -16.6076)" fill="#231f20"/>
    <path d="M73.2393,279.7656v-.6474l.8271-.8037c1.9912-1.8946,2.8906-2.9024,2.9024-4.0782a1.39,1.39,0,0,0-1.5469-1.5224,2.6535,2.6535,0,0,0-1.6553.6591l-.3359-.7431a3.42,3.42,0,0,1,2.207-.792,2.1937,2.1937,0,0,1,2.3867,2.2666c0,1.4394-1.0439,2.6025-2.6865,4.1855l-.624.5762v.0234h3.5019v.876Z" transform="translate(-23.8604 -16.6076)" fill="#231f20"/>
  </g>
  <g>
    <path d="M212.4961,234.0225l-.84,2.5429h-1.0792l2.7461-8.084h1.26l2.7588,8.084h-1.1162l-.8633-2.5429Zm2.65-.8155-.791-2.3261c-.1807-.5284-.3-1.0079-.42-1.4756h-.0244c-.12.48-.2519.9717-.4072,1.4629l-.792,2.3388Z" transform="translate(-23.8604 -16.6076)" fill="#231f20"/>
    <path d="M222.4912,236.35a3.8964,3.8964,0,0,1-1.668.3359,2.7575,2.7575,0,0,1-2.89-2.9628,2.9488,2.9488,0,0,1,3.1182-3.0821,3.5359,3.5359,0,0,1,1.4628.3l-.24.8155a2.4473,2.4473,0,0,0-1.2226-.2754,2.1882,2.1882,0,0,0-.0362,4.3652,2.9964,2.9964,0,0,0,1.2949-.2881Z" transform="translate(-23.8604 -16.6076)" fill="#231f20"/>
    <path d="M225.1553,229.0938v1.6669h1.5117v.8038h-1.5117v3.13c0,.72.2041,1.128.792,1.128a2.3383,2.3383,0,0,0,.6113-.0723l.0478.791a2.5759,2.5759,0,0,1-.9355.1445,1.4614,1.4614,0,0,1-1.1387-.4443,2.1488,2.1488,0,0,1-.4082-1.5107v-3.166h-.8994v-.8038h.8994v-1.3916Z" transform="translate(-23.8604 -16.6076)" fill="#231f20"/>
    <path d="M229.0313,229.13a.6539.6539,0,0,1-1.3077,0,.6438.6438,0,0,1,.66-.66A.6268.6268,0,0,1,229.0313,229.13Zm-1.1749,7.4355v-5.8047h1.0547v5.8047Z" transform="translate(-23.8604 -16.6076)" fill="#231f20"/>
    <path d="M235.917,233.6152a2.8371,2.8371,0,0,1-2.8906,3.0821,2.76,2.76,0,0,1-2.7823-2.9864,2.834,2.834,0,0,1,2.878-3.082A2.749,2.749,0,0,1,235.917,233.6152Zm-4.6055.06c0,1.2715.7315,2.2315,1.7627,2.2315,1.0078,0,1.7627-.9483,1.7627-2.2549,0-.9834-.4912-2.2315-1.7383-2.2315S231.3115,232.5713,231.3115,233.6748Z" transform="translate(-23.8604 -16.6076)" fill="#231f20"/>
    <path d="M237.252,232.332c0-.6-.0127-1.0918-.0489-1.5713h.9356l.06.959h.0235a2.1349,2.1349,0,0,1,1.9189-1.0908c.8037,0,2.0508.48,2.0508,2.4707v3.4658h-1.0547V233.22c0-.9355-.3477-1.7158-1.3438-1.7158a1.5,1.5,0,0,0-1.415,1.08,1.5188,1.5188,0,0,0-.0723.4912v3.49H237.252Z" transform="translate(-23.8604 -16.6076)" fill="#231f20"/>
    <path d="M248.41,229.7529h-.0235l-1.3554.7315-.2042-.8028,1.7032-.9121h.8994v7.7959H248.41Z" transform="translate(-23.8604 -16.6076)" fill="#231f20"/>
    <path d="M204.1279,246.84c0,2.7823-1.69,4.2579-3.7539,4.2579-2.1347,0-3.6338-1.6553-3.6338-4.1016,0-2.5664,1.5957-4.2461,3.7539-4.2461C202.7012,242.75,204.1279,244.4414,204.1279,246.84Zm-6.2724.1319c0,1.7275.9355,3.2744,2.5791,3.2744,1.6552,0,2.59-1.5234,2.59-3.3584,0-1.6064-.8389-3.2861-2.5781-3.2861C198.72,243.6016,197.8555,245.1973,197.8555,246.9717Z" transform="translate(-23.8604 -16.6076)" fill="#231f20"/>
    <path d="M210.3447,249.3828c0,.6.0127,1.127.0489,1.583h-.9356l-.06-.9472h-.0235a2.1848,2.1848,0,0,1-1.9189,1.0791c-.9121,0-2.003-.5039-2.003-2.543v-3.3936h1.0547v3.2139c0,1.1035.336,1.8477,1.2959,1.8477a1.4874,1.4874,0,0,0,1.4873-1.5v-3.5616h1.0547Z" transform="translate(-23.8604 -16.6076)" fill="#231f20"/>
    <path d="M213.3711,243.4941v1.667h1.5117v.8037h-1.5117v3.13c0,.72.2041,1.128.792,1.128a2.3383,2.3383,0,0,0,.6113-.0723l.0479.791a2.5769,2.5769,0,0,1-.9356.1445,1.4614,1.4614,0,0,1-1.1387-.4443,2.1488,2.1488,0,0,1-.4082-1.5107v-3.1661H211.44v-.8037h.8994V243.77Z" transform="translate(-23.8604 -16.6076)" fill="#231f20"/>
    <path d="M220.1377,250.75a3.8964,3.8964,0,0,1-1.668.3359,2.7575,2.7575,0,0,1-2.89-2.9629,2.9487,2.9487,0,0,1,3.1181-3.082,3.5364,3.5364,0,0,1,1.4629.3l-.24.8155a2.4478,2.4478,0,0,0-1.2227-.2754,2.1882,2.1882,0,0,0-.0361,4.3652,2.9978,2.9978,0,0,0,1.2949-.2881Z" transform="translate(-23.8604 -16.6076)" fill="#231f20"/>
    <path d="M226.5566,248.0156a2.8371,2.8371,0,0,1-2.8906,3.0821,2.76,2.76,0,0,1-2.7822-2.9864,2.8345,2.8345,0,0,1,2.8779-3.082A2.749,2.749,0,0,1,226.5566,248.0156Zm-4.6054.06c0,1.2715.7314,2.2314,1.7627,2.2314,1.0078,0,1.7627-.9482,1.7627-2.2548,0-.9834-.4912-2.2315-1.7383-2.2315S221.9512,246.9717,221.9512,248.0752Z" transform="translate(-23.8604 -16.6076)" fill="#231f20"/>
    <path d="M227.8916,246.7324c0-.6-.0127-1.0918-.0488-1.5713h.9238l.0479.9356h.0361a2.0008,2.0008,0,0,1,1.8232-1.0674,1.7158,1.7158,0,0,1,1.6426,1.1631h.0244a2.389,2.389,0,0,1,.6475-.7559,1.9813,1.9813,0,0,1,1.2832-.4072c.7676,0,1.9072.5039,1.9072,2.5186v3.4179h-1.0312V247.68c0-1.1152-.4082-1.7871-1.26-1.7871a1.3652,1.3652,0,0,0-1.2471.96,1.737,1.737,0,0,0-.084.5274v3.5859h-1.0312v-3.4785c0-.9228-.4082-1.5947-1.2119-1.5947a1.5732,1.5732,0,0,0-1.3906,1.5713v3.5019h-1.0313Z" transform="translate(-23.8604 -16.6076)" fill="#231f20"/>
    <path d="M238.4863,248.2549a1.86,1.86,0,0,0,1.9912,2.0156,3.8186,3.8186,0,0,0,1.6075-.3l.18.7549a4.7,4.7,0,0,1-1.9306.36,2.6959,2.6959,0,0,1-2.8545-2.9267c0-1.751,1.0312-3.13,2.7226-3.13a2.4593,2.4593,0,0,1,2.3985,2.7344,4.0165,4.0165,0,0,1-.0361.4912Zm3.0948-.7549a1.5036,1.5036,0,0,0-1.4629-1.7158A1.75,1.75,0,0,0,238.499,247.5Z" transform="translate(-23.8604 -16.6076)" fill="#231f20"/>
    <path d="M248.4092,244.1533h-.0235l-1.3554.7315-.2041-.8028,1.7031-.9121h.8994v7.7959h-1.0195Z" transform="translate(-23.8604 -16.6076)" fill="#231f20"/>
    <path d="M212.4961,262.8232l-.84,2.543h-1.0792l2.7461-8.084h1.26l2.7588,8.084h-1.1162l-.8633-2.543Zm2.65-.8154-.791-2.3262c-.1807-.5283-.3-1.0078-.42-1.4755h-.0244c-.12.4794-.2519.9716-.4072,1.4628l-.792,2.3389Z" transform="translate(-23.8604 -16.6076)" fill="#231f20"/>
    <path d="M222.4912,265.15a3.898,3.898,0,0,1-1.668.3359,2.7575,2.7575,0,0,1-2.89-2.9629,2.9488,2.9488,0,0,1,3.1182-3.082,3.5359,3.5359,0,0,1,1.4628.3l-.24.8154a2.4485,2.4485,0,0,0-1.2226-.2753,2.1882,2.1882,0,0,0-.0362,4.3652,2.9978,2.9978,0,0,0,1.2949-.2881Z" transform="translate(-23.8604 -16.6076)" fill="#231f20"/>
    <path d="M225.1553,257.8945v1.667h1.5117v.8037h-1.5117v3.13c0,.72.2041,1.1279.792,1.1279a2.3392,2.3392,0,0,0,.6113-.0722l.0478.791a2.5759,2.5759,0,0,1-.9355.1445,1.4614,1.4614,0,0,1-1.1387-.4443,2.149,2.149,0,0,1-.4082-1.5107v-3.1661h-.8994v-.8037h.8994V258.17Z" transform="translate(-23.8604 -16.6076)" fill="#231f20"/>
    <path d="M229.0313,257.9307a.6539.6539,0,0,1-1.3077,0,.6438.6438,0,0,1,.66-.66A.6268.6268,0,0,1,229.0313,257.9307Zm-1.1749,7.4355v-5.8047h1.0547v5.8047Z" transform="translate(-23.8604 -16.6076)" fill="#231f20"/>
    <path d="M235.917,262.416a2.837,2.837,0,0,1-2.8906,3.082,2.76,2.76,0,0,1-2.7823-2.9863,2.834,2.834,0,0,1,2.878-3.082A2.749,2.749,0,0,1,235.917,262.416Zm-4.6055.06c0,1.2715.7315,2.2314,1.7627,2.2314,1.0078,0,1.7627-.9482,1.7627-2.2549,0-.9833-.4912-2.2314-1.7383-2.2314S231.3115,261.3721,231.3115,262.4756Z" transform="translate(-23.8604 -16.6076)" fill="#231f20"/>
    <path d="M237.252,261.1328c0-.6-.0127-1.0918-.0489-1.5713h.9356l.06.959h.0235a2.1349,2.1349,0,0,1,1.9189-1.0908c.8037,0,2.0508.4795,2.0508,2.4707v3.4658h-1.0547v-3.3457c0-.9355-.3477-1.7158-1.3438-1.7158a1.5,1.5,0,0,0-1.415,1.08,1.5188,1.5188,0,0,0-.0723.4912v3.49H237.252Z" transform="translate(-23.8604 -16.6076)" fill="#231f20"/>
    <path d="M246.12,265.3662v-.6474l.8272-.8038c1.9912-1.8945,2.8906-2.9023,2.9023-4.0781a1.39,1.39,0,0,0-1.5469-1.5224,2.6529,2.6529,0,0,0-1.6552.6591l-.336-.7431a3.4207,3.4207,0,0,1,2.2071-.792,2.1937,2.1937,0,0,1,2.3867,2.2666c0,1.4394-1.044,2.6025-2.6865,4.1855l-.6241.5762v.0234h3.502v.876Z" transform="translate(-23.8604 -16.6076)" fill="#231f20"/>
    <path d="M204.1279,275.64c0,2.7833-1.69,4.2579-3.7539,4.2579-2.1347,0-3.6338-1.6553-3.6338-4.1016,0-2.5664,1.5957-4.2461,3.7539-4.2461C202.7012,271.55,204.1279,273.2412,204.1279,275.64Zm-6.2724.1319c0,1.7275.9355,3.2744,2.5791,3.2744,1.6552,0,2.59-1.5234,2.59-3.3584,0-1.6064-.8389-3.2861-2.5781-3.2861C198.72,272.4014,197.8555,273.9971,197.8555,275.7715Z" transform="translate(-23.8604 -16.6076)" fill="#231f20"/>
    <path d="M210.3447,278.1826c0,.6.0127,1.127.0489,1.583h-.9356l-.06-.9472h-.0235a2.1848,2.1848,0,0,1-1.9189,1.0791c-.9121,0-2.003-.5039-2.003-2.543v-3.3936h1.0547v3.2139c0,1.1035.336,1.8477,1.2959,1.8477a1.4874,1.4874,0,0,0,1.4873-1.5v-3.5616h1.0547Z" transform="translate(-23.8604 -16.6076)" fill="#231f20"/>
    <path d="M213.3711,272.2939v1.667h1.5117v.8037h-1.5117v3.13c0,.72.2041,1.128.792,1.128a2.3383,2.3383,0,0,0,.6113-.0723l.0479.791a2.5769,2.5769,0,0,1-.9356.1445,1.4614,1.4614,0,0,1-1.1387-.4443,2.1488,2.1488,0,0,1-.4082-1.5107v-3.1661H211.44v-.8037h.8994v-1.3916Z" transform="translate(-23.8604 -16.6076)" fill="#231f20"/>
    <path d="M220.1377,279.55a3.8964,3.8964,0,0,1-1.668.3359,2.7575,2.7575,0,0,1-2.89-2.9628,2.9487,2.9487,0,0,1,3.1181-3.0821,3.5364,3.5364,0,0,1,1.4629.3l-.24.8155a2.4478,2.4478,0,0,0-1.2227-.2754,2.1882,2.1882,0,0,0-.0361,4.3652,2.9978,2.9978,0,0,0,1.2949-.2881Z" transform="translate(-23.8604 -16.6076)" fill="#231f20"/>
    <path d="M226.5566,276.8154a2.8371,2.8371,0,0,1-2.8906,3.0821,2.76,2.76,0,0,1-2.7822-2.9864,2.834,2.834,0,0,1,2.8779-3.082A2.749,2.749,0,0,1,226.5566,276.8154Zm-4.6054.06c0,1.2715.7314,2.2314,1.7627,2.2314,1.0078,0,1.7627-.9482,1.7627-2.2548,0-.9834-.4912-2.2315-1.7383-2.2315S221.9512,275.7715,221.9512,276.875Z" transform="translate(-23.8604 -16.6076)" fill="#231f20"/>
    <path d="M227.8916,275.5322c0-.6-.0127-1.0918-.0488-1.5713h.9238l.0479.9356h.0361a2.0008,2.0008,0,0,1,1.8232-1.0674,1.7158,1.7158,0,0,1,1.6426,1.1631h.0244a2.389,2.389,0,0,1,.6475-.7559,1.9813,1.9813,0,0,1,1.2832-.4072c.7676,0,1.9072.5039,1.9072,2.5186v3.4179h-1.0312V276.48c0-1.1152-.4082-1.7871-1.26-1.7871a1.3652,1.3652,0,0,0-1.2471.96,1.737,1.737,0,0,0-.084.5274v3.5859h-1.0312v-3.4785c0-.9228-.4082-1.5947-1.2119-1.5947a1.5732,1.5732,0,0,0-1.3906,1.5713v3.5019h-1.0313Z" transform="translate(-23.8604 -16.6076)" fill="#231f20"/>
    <path d="M238.4863,277.0547a1.86,1.86,0,0,0,1.9912,2.0156,3.8186,3.8186,0,0,0,1.6075-.3l.18.7549a4.7,4.7,0,0,1-1.9306.36,2.6959,2.6959,0,0,1-2.8545-2.9267c0-1.751,1.0312-3.13,2.7226-3.13a2.4593,2.4593,0,0,1,2.3985,2.7344,4.0165,4.0165,0,0,1-.0361.4912Zm3.0948-.7549a1.5028,1.5028,0,0,0-1.4629-1.7148A1.7492,1.7492,0,0,0,238.499,276.3Z" transform="translate(-23.8604 -16.6076)" fill="#231f20"/>
    <path d="M246.1191,279.7656v-.6474l.8272-.8037c1.9912-1.8946,2.8906-2.9024,2.9023-4.0782a1.39,1.39,0,0,0-1.5468-1.5224,2.6535,2.6535,0,0,0-1.6553.6591l-.336-.7431a3.4209,3.4209,0,0,1,2.2071-.792,2.1937,2.1937,0,0,1,2.3867,2.2666c0,1.4394-1.0439,2.6025-2.6865,4.1855l-.624.5762v.0234h3.5019v.876Z" transform="translate(-23.8604 -16.6076)" fill="#231f20"/>
  </g>
  <g>
    <path d="M208.4512,135.9409a10.8317,10.8317,0,0,1,2.0029-.168,3.3058,3.3058,0,0,1,2.3389.66,2.0106,2.0106,0,0,1,.6357,1.5352,2.1226,2.1226,0,0,1-1.5234,2.0625v.0361a2.0122,2.0122,0,0,1,1.1875,1.6309,12.8247,12.8247,0,0,0,.624,2.2187h-1.0791a10.3586,10.3586,0,0,1-.54-1.9307c-.24-1.1152-.6719-1.5351-1.6192-1.5712h-.9834v3.5019h-1.0439Zm1.0439,3.6817h1.0674c1.1152,0,1.8232-.6114,1.8232-1.5352,0-1.043-.7558-1.499-1.8593-1.5107a4.2989,4.2989,0,0,0-1.0313.0957Z" transform="translate(-23.8604 -16.6076)" fill="#231f20"/>
    <path d="M218.23,143.9165l-.084-.7314h-.0361a2.16,2.16,0,0,1-1.7754.8632,1.6533,1.6533,0,0,1-1.7744-1.667c0-1.4033,1.247-2.1709,3.49-2.1591v-.1192a1.1966,1.1966,0,0,0-1.3193-1.3437,2.8955,2.8955,0,0,0-1.5117.4316l-.2393-.6953a3.6027,3.6027,0,0,1,1.9062-.5156c1.7754,0,2.2071,1.2109,2.2071,2.374v2.1709a8.2442,8.2442,0,0,0,.0957,1.3916Zm-.1563-2.9619c-1.1513-.0244-2.458.18-2.458,1.3066a.9339.9339,0,0,0,.9952,1.0078,1.4437,1.4437,0,0,0,1.4033-.9716,1.0983,1.0983,0,0,0,.06-.336Z" transform="translate(-23.8604 -16.6076)" fill="#231f20"/>
    <path d="M220.8,139.6831c0-.6-.0127-1.0918-.0488-1.5713h.9355l.0606.959h.0234a2.135,2.135,0,0,1,1.919-1.0908c.8037,0,2.0507.48,2.0507,2.4707v3.4658h-1.0547v-3.3457c0-.9355-.3486-1.7158-1.3437-1.7158a1.5,1.5,0,0,0-1.415,1.08,1.5161,1.5161,0,0,0-.0723.4912v3.49H220.8Z" transform="translate(-23.8604 -16.6076)" fill="#231f20"/>
    <path d="M232.4727,135.4009v7.0166c0,.5156.0117,1.1035.0478,1.499h-.9473l-.0478-1.0078h-.0244a2.1451,2.1451,0,0,1-1.9785,1.14c-1.4034,0-2.4825-1.1875-2.4825-2.95-.0127-1.9306,1.1875-3.1181,2.6026-3.1181a1.94,1.94,0,0,1,1.751.8877h.0234v-3.4668Zm-1.0557,5.0732a1.848,1.848,0,0,0-.0479-.4433,1.5513,1.5513,0,0,0-1.5224-1.2237c-1.0918,0-1.7393.96-1.7393,2.2432,0,1.1748.5752,2.1465,1.7149,2.1465a1.5856,1.5856,0,0,0,1.5468-1.2588,1.8284,1.8284,0,0,0,.0479-.4561Z" transform="translate(-23.8604 -16.6076)" fill="#231f20"/>
    <path d="M239.4805,140.9663a2.837,2.837,0,0,1-2.8907,3.082,2.76,2.76,0,0,1-2.7822-2.9863,2.834,2.834,0,0,1,2.8779-3.082A2.7491,2.7491,0,0,1,239.4805,140.9663Zm-4.6055.06c0,1.2715.7314,2.2314,1.7627,2.2314,1.0078,0,1.7627-.9482,1.7627-2.2549,0-.9834-.4912-2.2314-1.7383-2.2314S234.875,139.9224,234.875,141.0259Z" transform="translate(-23.8604 -16.6076)" fill="#231f20"/>
    <path d="M240.8154,139.6831c0-.6-.0127-1.0918-.0488-1.5713h.9238l.0479.9356h.0361a2.0009,2.0009,0,0,1,1.8233-1.0674,1.7156,1.7156,0,0,1,1.6425,1.1631h.0244a2.3891,2.3891,0,0,1,.6475-.7559,1.9811,1.9811,0,0,1,1.2832-.4072c.7676,0,1.9072.5039,1.9072,2.5185v3.418h-1.0312V140.63c0-1.1153-.4082-1.7871-1.26-1.7871a1.365,1.365,0,0,0-1.247.96,1.7339,1.7339,0,0,0-.084.5274v3.5859h-1.0313V140.438c0-.9229-.4082-1.5947-1.2119-1.5947a1.5736,1.5736,0,0,0-1.3906,1.5713v3.5019h-1.0313Z" transform="translate(-23.8604 -16.6076)" fill="#231f20"/>
    <path d="M210.5273,152.5122l1.14,3.2617a15.2027,15.2027,0,0,1,.4678,1.4873h.0361c.1318-.48.3-.959.4912-1.4873l1.1279-3.2617h1.1026l-2.2783,5.8047h-1.0079l-2.206-5.8047Z" transform="translate(-23.8604 -16.6076)" fill="#231f20"/>
    <path d="M216.3594,155.606a1.86,1.86,0,0,0,1.9912,2.0156,3.82,3.82,0,0,0,1.6074-.3l.18.7549a4.7022,4.7022,0,0,1-1.9307.36,2.6959,2.6959,0,0,1-2.8545-2.9267c0-1.751,1.0313-3.13,2.7227-3.13a2.4593,2.4593,0,0,1,2.3984,2.7343,4.0185,4.0185,0,0,1-.0361.4913Zm3.0947-.7549a1.5029,1.5029,0,0,0-1.4629-1.7149,1.7491,1.7491,0,0,0-1.6191,1.7149Z" transform="translate(-23.8604 -16.6076)" fill="#231f20"/>
    <path d="M221.7842,149.8013h1.0547v8.5156h-1.0547Z" transform="translate(-23.8604 -16.6076)" fill="#231f20"/>
    <path d="M229.8691,155.3667a2.837,2.837,0,0,1-2.8906,3.082,2.7594,2.7594,0,0,1-2.7822-2.9863,2.8339,2.8339,0,0,1,2.8779-3.082A2.749,2.749,0,0,1,229.8691,155.3667Zm-4.6054.06c0,1.2715.7314,2.2314,1.7627,2.2314,1.0078,0,1.7627-.9482,1.7627-2.2549,0-.9834-.4912-2.2314-1.7383-2.2314S225.2637,154.3228,225.2637,155.4263Z" transform="translate(-23.8604 -16.6076)" fill="#231f20"/>
    <path d="M235.3418,158.1011a3.898,3.898,0,0,1-1.668.3359,2.7575,2.7575,0,0,1-2.89-2.9629,2.9487,2.9487,0,0,1,3.1181-3.082,3.5348,3.5348,0,0,1,1.4629.3l-.2392.8154a2.4562,2.4562,0,0,0-1.2237-.2754,2.1883,2.1883,0,0,0-.0361,4.3653,2.9978,2.9978,0,0,0,1.2949-.2881Z" transform="translate(-23.8604 -16.6076)" fill="#231f20"/>
    <path d="M237.7549,150.8813a.6538.6538,0,0,1-1.3076,0,.6437.6437,0,0,1,.66-.66A.6268.6268,0,0,1,237.7549,150.8813Zm-1.1748,7.4356v-5.8047h1.0547v5.8047Z" transform="translate(-23.8604 -16.6076)" fill="#231f20"/>
    <path d="M240.6582,150.8452v1.667H242.17v.8037h-1.5117v3.13c0,.72.2041,1.1279.792,1.1279a2.3392,2.3392,0,0,0,.6113-.0722l.0479.791a2.5765,2.5765,0,0,1-.9356.1445,1.4611,1.4611,0,0,1-1.1386-.4443,2.1491,2.1491,0,0,1-.4082-1.5108v-3.166h-.9v-.8037h.9v-1.3916Z" transform="translate(-23.8604 -16.6076)" fill="#231f20"/>
    <path d="M243.8516,152.5122l1.27,3.43c.1318.3838.2763.84.372,1.1875h.0245c.1074-.3477.2275-.791.371-1.2109l1.1514-3.4063h1.1162l-1.584,4.1377c-.7548,1.9912-1.2705,3.01-1.99,3.6338a2.8531,2.8531,0,0,1-1.2959.6836l-.2637-.8877a2.8061,2.8061,0,0,0,.9239-.5156,3.2031,3.2031,0,0,0,.8877-1.1748.7678.7678,0,0,0,.0839-.252.9265.9265,0,0,0-.0722-.2764L242.7,152.5122Z" transform="translate(-23.8604 -16.6076)" fill="#231f20"/>
    <path d="M220.4561,164.3931a7.9108,7.9108,0,0,0-1.5108,4.9052,8.0815,8.0815,0,0,0,1.5108,4.8692h-.8272a7.7488,7.7488,0,0,1-1.5713-4.8692,7.9093,7.9093,0,0,1,1.5713-4.9052Z" transform="translate(-23.8604 -16.6076)" fill="#231f20"/>
    <path d="M222.8447,165.2446v1.667h1.5117v.8037h-1.5117v3.13c0,.72.2041,1.1279.792,1.1279a2.3392,2.3392,0,0,0,.6113-.0722l.0479.791a2.5759,2.5759,0,0,1-.9355.1445,1.4612,1.4612,0,0,1-1.1387-.4443,2.1491,2.1491,0,0,1-.4082-1.5108v-3.166h-.8994v-.8037h.8994V165.52Z" transform="translate(-23.8604 -16.6076)" fill="#231f20"/>
    <path d="M226.0605,170.0054a1.86,1.86,0,0,0,1.9913,2.0156,3.8184,3.8184,0,0,0,1.6074-.3l.18.7549a4.7022,4.7022,0,0,1-1.9307.36,2.6959,2.6959,0,0,1-2.8545-2.9267c0-1.751,1.0313-3.13,2.7227-3.13a2.4593,2.4593,0,0,1,2.3984,2.7344,4.0182,4.0182,0,0,1-.0361.4912Zm3.0948-.7549a1.5036,1.5036,0,0,0-1.4629-1.7158,1.75,1.75,0,0,0-1.6192,1.7158Z" transform="translate(-23.8604 -16.6076)" fill="#231f20"/>
    <path d="M231.3418,171.6372a2.7723,2.7723,0,0,0,1.3916.42c.7676,0,1.127-.3838,1.127-.8642,0-.5039-.3-.7793-1.0791-1.0674-1.044-.3711-1.5352-.9473-1.5352-1.6426a1.7905,1.7905,0,0,1,2.0029-1.7031,2.8989,2.8989,0,0,1,1.4268.3594l-.2637.7675a2.2615,2.2615,0,0,0-1.1875-.3359c-.623,0-.9707.36-.9707.792,0,.48.3477.6953,1.1025.9834,1.0079.3838,1.5235.8877,1.5235,1.751,0,1.02-.791,1.7392-2.1709,1.7392a3.3165,3.3165,0,0,1-1.6309-.3955Z" transform="translate(-23.8604 -16.6076)" fill="#231f20"/>
    <path d="M237.5088,165.2446v1.667h1.5117v.8037h-1.5117v3.13c0,.72.2041,1.1279.792,1.1279a2.3392,2.3392,0,0,0,.6113-.0722l.0479.791a2.5769,2.5769,0,0,1-.9356.1445,1.4614,1.4614,0,0,1-1.1387-.4443,2.1491,2.1491,0,0,1-.4082-1.5108v-3.166h-.8994v-.8037h.8994V165.52Z" transform="translate(-23.8604 -16.6076)" fill="#231f20"/>
    <path d="M239.5742,174.1675a8.1158,8.1158,0,0,0,1.5108-4.9053,7.9521,7.9521,0,0,0-1.5108-4.8691h.8154a7.6375,7.6375,0,0,1,1.5713,4.8808,7.7865,7.7865,0,0,1-1.5713,4.8936Z" transform="translate(-23.8604 -16.6076)" fill="#231f20"/>
  </g>
  <g>
    <path d="M122.877,120.9731a10.8759,10.8759,0,0,1,2.0029-.1679,3.3068,3.3068,0,0,1,2.3389.66A2.0123,2.0123,0,0,1,127.8545,123a2.1231,2.1231,0,0,1-1.5234,2.063v.0356a2.0148,2.0148,0,0,1,1.1875,1.6314,12.8247,12.8247,0,0,0,.624,2.2187h-1.0791a10.3616,10.3616,0,0,1-.54-1.9311c-.24-1.1153-.6718-1.5352-1.6191-1.5708h-.9834v3.5019H122.877Zm1.0439,3.6822h1.0674c1.1152,0,1.8232-.6118,1.8232-1.5352,0-1.0434-.7558-1.4995-1.8594-1.5112a4.2979,4.2979,0,0,0-1.0312.0957Z" transform="translate(-23.8604 -16.6076)" fill="#231f20"/>
    <path d="M129.9326,126.2383a1.86,1.86,0,0,0,1.9912,2.0146,3.8186,3.8186,0,0,0,1.6075-.3l.18.7559a4.7017,4.7017,0,0,1-1.9306.36,2.6959,2.6959,0,0,1-2.8545-2.9267c0-1.751,1.0312-3.13,2.7226-3.13a2.4593,2.4593,0,0,1,2.3985,2.7344,4.01,4.01,0,0,1-.0362.4917Zm3.0947-.7559a1.5029,1.5029,0,0,0-1.4628-1.7148,1.7492,1.7492,0,0,0-1.6192,1.7148Z" transform="translate(-23.8604 -16.6076)" fill="#231f20"/>
    <path d="M138.5713,128.9487l-.084-.7314h-.0361a2.1629,2.1629,0,0,1-1.7754.8633,1.6536,1.6536,0,0,1-1.7744-1.667c0-1.4033,1.247-2.1709,3.49-2.1587v-.12a1.1967,1.1967,0,0,0-1.3193-1.3433,2.897,2.897,0,0,0-1.5118.4316l-.2392-.6953a3.5982,3.5982,0,0,1,1.9062-.5156c1.7754,0,2.2071,1.2109,2.2071,2.3745v2.1709a8.2456,8.2456,0,0,0,.0957,1.3911Zm-.1563-2.9624c-1.1513-.0239-2.458.18-2.458,1.3072a.9339.9339,0,0,0,.9951,1.0078,1.4445,1.4445,0,0,0,1.4034-.9717,1.0977,1.0977,0,0,0,.0595-.3359Z" transform="translate(-23.8604 -16.6076)" fill="#231f20"/>
    <path d="M141.1416,120.4336h1.0547v8.5151h-1.0547Z" transform="translate(-23.8604 -16.6076)" fill="#231f20"/>
    <path d="M151.53,120.4336V127.45c0,.5156.0117,1.103.0478,1.499h-.9472l-.0479-1.0073h-.0244a2.1463,2.1463,0,0,1-1.9785,1.1392c-1.4033,0-2.4824-1.1875-2.4824-2.95-.0127-1.9312,1.1875-3.1182,2.6025-3.1182a1.94,1.94,0,0,1,1.751.8872h.0234v-3.4658Zm-1.0557,5.0732a1.8543,1.8543,0,0,0-.0478-.4438,1.5514,1.5514,0,0,0-1.5225-1.2236c-1.0918,0-1.7393.9594-1.7393,2.2431,0,1.1753.5752,2.1465,1.7149,2.1465a1.5857,1.5857,0,0,0,1.5469-1.2593,1.8263,1.8263,0,0,0,.0478-.4555Z" transform="translate(-23.8604 -16.6076)" fill="#231f20"/>
    <path d="M154.46,121.5127a.6539.6539,0,0,1-1.3077,0,.6437.6437,0,0,1,.66-.66A.6267.6267,0,0,1,154.46,121.5127Zm-1.1748,7.436V123.144H154.34v5.8047Z" transform="translate(-23.8604 -16.6076)" fill="#231f20"/>
    <path d="M155.9482,127.8691a2.7627,2.7627,0,0,0,1.3916.42c.7676,0,1.127-.3838,1.127-.8633,0-.5039-.3-.78-1.0791-1.0679-1.0439-.3716-1.5352-.9473-1.5352-1.6431a1.79,1.79,0,0,1,2.003-1.7026,2.8928,2.8928,0,0,1,1.4267.3594l-.2636.7676a2.2613,2.2613,0,0,0-1.1875-.3355c-.6231,0-.9707.36-.9707.7915,0,.48.3476.6953,1.1025.9834,1.0078.3838,1.5234.8877,1.5234,1.751,0,1.0195-.791,1.7392-2.1709,1.7392a3.312,3.312,0,0,1-1.6308-.3959Z" transform="translate(-23.8604 -16.6076)" fill="#231f20"/>
    <path d="M162.1152,121.4771v1.6669h1.5118v.8033h-1.5118v3.13c0,.72.2041,1.1275.792,1.1275a2.3663,2.3663,0,0,0,.6114-.0718l.0478.7915a2.5776,2.5776,0,0,1-.9355.144,1.4626,1.4626,0,0,1-1.1387-.4438,2.151,2.151,0,0,1-.4082-1.5112v-3.1665h-.8994v-.8033h.8994v-1.3916Z" transform="translate(-23.8604 -16.6076)" fill="#231f20"/>
    <path d="M168.0313,128.9487l-.084-.7314h-.0362a2.1613,2.1613,0,0,1-1.7754.8633,1.6536,1.6536,0,0,1-1.7744-1.667c0-1.4033,1.2471-2.1709,3.49-2.1587v-.12a1.1968,1.1968,0,0,0-1.3194-1.3433,2.8967,2.8967,0,0,0-1.5117.4316l-.2392-.6953a3.5979,3.5979,0,0,1,1.9062-.5156c1.7754,0,2.207,1.2109,2.207,2.3745v2.1709a8.2456,8.2456,0,0,0,.0957,1.3911Zm-.1563-2.9624c-1.1514-.0239-2.458.18-2.458,1.3072a.9339.9339,0,0,0,.9951,1.0078,1.4442,1.4442,0,0,0,1.4033-.9717,1.0949,1.0949,0,0,0,.06-.3359Z" transform="translate(-23.8604 -16.6076)" fill="#231f20"/>
    <path d="M170.6006,124.7148c0-.6-.0127-1.0913-.0488-1.5708h.9355l.0606.9595h.0234a2.1355,2.1355,0,0,1,1.9189-1.0913c.8037,0,2.0508.4795,2.0508,2.47v3.4663h-1.0547v-3.3462c0-.9355-.3476-1.7148-1.3437-1.7148a1.5,1.5,0,0,0-1.4151,1.0791,1.5221,1.5221,0,0,0-.0722.4917v3.49h-1.0547Z" transform="translate(-23.8604 -16.6076)" fill="#231f20"/>
    <path d="M181.3984,128.7329a3.8882,3.8882,0,0,1-1.6679.3359,2.7574,2.7574,0,0,1-2.89-2.9624,2.9492,2.9492,0,0,1,3.1182-3.0825,3.5287,3.5287,0,0,1,1.4629.3l-.24.8155a2.447,2.447,0,0,0-1.2226-.2754,2.1882,2.1882,0,0,0-.0361,4.3652,2.9988,2.9988,0,0,0,1.2949-.2876Z" transform="translate(-23.8604 -16.6076)" fill="#231f20"/>
    <path d="M183.1523,126.2383a1.86,1.86,0,0,0,1.9913,2.0146,3.8184,3.8184,0,0,0,1.6074-.3l.18.7559a4.7022,4.7022,0,0,1-1.9307.36,2.6959,2.6959,0,0,1-2.8545-2.9267c0-1.751,1.0313-3.13,2.7227-3.13a2.4593,2.4593,0,0,1,2.3984,2.7344,4.0351,4.0351,0,0,1-.0361.4917Zm3.0948-.7559a1.503,1.503,0,0,0-1.4629-1.7148,1.7492,1.7492,0,0,0-1.6192,1.7148Z" transform="translate(-23.8604 -16.6076)" fill="#231f20"/>
    <path d="M144.3193,135.0254a7.9122,7.9122,0,0,0-1.5107,4.9053,8.082,8.082,0,0,0,1.5107,4.8691h-.8271a7.751,7.751,0,0,1-1.5713-4.8691,7.9118,7.9118,0,0,1,1.5713-4.9053Z" transform="translate(-23.8604 -16.6076)" fill="#231f20"/>
    <path d="M146.708,135.877v1.6669H148.22v.8033H146.708v3.13c0,.72.2041,1.1275.792,1.1275a2.3648,2.3648,0,0,0,.6113-.0718l.0479.7915a2.5779,2.5779,0,0,1-.9356.1441,1.4626,1.4626,0,0,1-1.1386-.4439,2.151,2.151,0,0,1-.4082-1.5112v-3.1665h-.8995v-.8033h.8995v-1.3911Z" transform="translate(-23.8604 -16.6076)" fill="#231f20"/>
    <path d="M149.4092,139.355c0-.6836-.0127-1.2715-.0488-1.8111h.9238l.0361,1.1392h.0479a1.7414,1.7414,0,0,1,1.6074-1.271,1.1391,1.1391,0,0,1,.3.0357v.9956a1.5879,1.5879,0,0,0-.36-.0362,1.4814,1.4814,0,0,0-1.415,1.3555,3.0327,3.0327,0,0,0-.0479.4917v3.0942h-1.0429Z" transform="translate(-23.8604 -16.6076)" fill="#231f20"/>
    <path d="M156.4873,143.3486l-.084-.7314h-.0361a2.1629,2.1629,0,0,1-1.7754.8633,1.6536,1.6536,0,0,1-1.7744-1.667c0-1.4033,1.2471-2.1709,3.49-2.1587v-.12a1.1967,1.1967,0,0,0-1.3193-1.3433,2.8964,2.8964,0,0,0-1.5117.4316l-.2393-.6953a3.5983,3.5983,0,0,1,1.9063-.5156c1.7753,0,2.207,1.2109,2.207,2.3745v2.1709a8.2456,8.2456,0,0,0,.0957,1.3911Zm-.1562-2.9624c-1.1514-.0239-2.4581.18-2.4581,1.3072a.9339.9339,0,0,0,.9952,1.0078,1.4444,1.4444,0,0,0,1.4033-.9717,1.0979,1.0979,0,0,0,.06-.3359Z" transform="translate(-23.8604 -16.6076)" fill="#231f20"/>
    <path d="M160.2324,135.9126a.6538.6538,0,0,1-1.3076,0,.6437.6437,0,0,1,.66-.66A.6266.6266,0,0,1,160.2324,135.9126Zm-1.1748,7.436v-5.8047h1.0547v5.8047Z" transform="translate(-23.8604 -16.6076)" fill="#231f20"/>
    <path d="M161.8652,139.1147c0-.6-.0127-1.0913-.0488-1.5708h.9356l.06.9595h.0234a2.1355,2.1355,0,0,1,1.919-1.0913c.8037,0,2.0508.48,2.0508,2.47v3.4663H165.751v-3.3462c0-.9355-.3487-1.7148-1.3438-1.7148a1.4994,1.4994,0,0,0-1.415,1.0791,1.5192,1.5192,0,0,0-.0723.4917v3.49h-1.0547Z" transform="translate(-23.8604 -16.6076)" fill="#231f20"/>
    <path d="M167.89,144.8a8.117,8.117,0,0,0,1.5108-4.9053,7.95,7.95,0,0,0-1.5108-4.8691h.8155a7.638,7.638,0,0,1,1.5713,4.8813,7.7847,7.7847,0,0,1-1.5713,4.8931Z" transform="translate(-23.8604 -16.6076)" fill="#231f20"/>
  </g>
  <g>
    <path d="M340.5742,127.2563a10.8324,10.8324,0,0,1,2.0029-.1679,3.3056,3.3056,0,0,1,2.3389.66,2.0108,2.0108,0,0,1,.6358,1.5352,2.1224,2.1224,0,0,1-1.5235,2.0625v.0361a2.0122,2.0122,0,0,1,1.1875,1.6309,12.8437,12.8437,0,0,0,.624,2.2187h-1.0791a10.3592,10.3592,0,0,1-.54-1.9306c-.24-1.1153-.6719-1.5352-1.6191-1.5713h-.9834v3.5019h-1.044Zm1.044,3.6817h1.0673c1.1153,0,1.8233-.6113,1.8233-1.5352,0-1.0429-.7559-1.499-1.8594-1.5107a4.2972,4.2972,0,0,0-1.0312.0957Z" transform="translate(-23.8604 -16.6076)" fill="#231f20"/>
    <path d="M347.63,132.521a1.86,1.86,0,0,0,1.9912,2.0156,3.8181,3.8181,0,0,0,1.6074-.3l.18.7549a4.7,4.7,0,0,1-1.9307.36,2.696,2.696,0,0,1-2.8545-2.9268c0-1.751,1.0313-3.13,2.7227-3.13a2.4593,2.4593,0,0,1,2.3984,2.7344,4.0165,4.0165,0,0,1-.0361.4912Zm3.0947-.7549a1.5028,1.5028,0,0,0-1.4629-1.7148,1.7491,1.7491,0,0,0-1.6191,1.7148Z" transform="translate(-23.8604 -16.6076)" fill="#231f20"/>
    <path d="M356.2686,135.2319l-.084-.7314h-.0362a2.16,2.16,0,0,1-1.7754.8633,1.6534,1.6534,0,0,1-1.7744-1.667c0-1.4033,1.2471-2.1709,3.49-2.1592v-.1191a1.1967,1.1967,0,0,0-1.3194-1.3438,2.8967,2.8967,0,0,0-1.5117.4316l-.2392-.6953a3.6024,3.6024,0,0,1,1.9062-.5156c1.7754,0,2.207,1.2109,2.207,2.374V133.84a8.2546,8.2546,0,0,0,.0957,1.3916Zm-.1563-2.9619c-1.1514-.0244-2.458.18-2.458,1.3067a.9339.9339,0,0,0,.9951,1.0078,1.4436,1.4436,0,0,0,1.4033-.9717,1.0949,1.0949,0,0,0,.06-.3359Z" transform="translate(-23.8604 -16.6076)" fill="#231f20"/>
    <path d="M358.8389,126.7163h1.0547v8.5156h-1.0547Z" transform="translate(-23.8604 -16.6076)" fill="#231f20"/>
    <path d="M369.2275,126.7163v7.0166c0,.5156.0118,1.1035.0479,1.499h-.9473l-.0478-1.0078h-.0244a2.145,2.145,0,0,1-1.9786,1.14c-1.4033,0-2.4824-1.1875-2.4824-2.95-.0127-1.9307,1.1875-3.1182,2.6026-3.1182a1.94,1.94,0,0,1,1.7509.8877h.0235v-3.4668Zm-1.0556,5.0733a1.8483,1.8483,0,0,0-.0479-.4434,1.5515,1.5515,0,0,0-1.5234-1.2236c-1.0908,0-1.7383.96-1.7383,2.2431,0,1.1748.5752,2.1465,1.7148,2.1465a1.5856,1.5856,0,0,0,1.5469-1.2588,1.8281,1.8281,0,0,0,.0479-.456Z" transform="translate(-23.8604 -16.6076)" fill="#231f20"/>
    <path d="M372.1572,127.7964a.6538.6538,0,0,1-1.3076,0,.6438.6438,0,0,1,.66-.66A.6267.6267,0,0,1,372.1572,127.7964Zm-1.1748,7.4355v-5.8047h1.0547v5.8047Z" transform="translate(-23.8604 -16.6076)" fill="#231f20"/>
    <path d="M373.6455,134.1528a2.7713,2.7713,0,0,0,1.3916.42c.7676,0,1.127-.3838,1.127-.8643,0-.5039-.3-.7793-1.0791-1.0674-1.044-.3711-1.5352-.9473-1.5352-1.6426a1.7905,1.7905,0,0,1,2.0029-1.7031,2.8986,2.8986,0,0,1,1.4268.3594l-.2637.7676a2.26,2.26,0,0,0-1.1875-.336c-.623,0-.9707.36-.9707.792,0,.48.3477.6953,1.1026.9834,1.0078.3838,1.5234.8877,1.5234,1.751,0,1.0195-.791,1.7393-2.1709,1.7393a3.3168,3.3168,0,0,1-1.6309-.3956Z" transform="translate(-23.8604 -16.6076)" fill="#231f20"/>
    <path d="M379.8125,127.76v1.6669h1.5117v.8038h-1.5117v3.13c0,.72.2041,1.128.792,1.128a2.3383,2.3383,0,0,0,.6113-.0723l.0479.791a2.5765,2.5765,0,0,1-.9356.1446,1.4611,1.4611,0,0,1-1.1386-.4444,2.1483,2.1483,0,0,1-.4082-1.5107v-3.166h-.8995v-.8038h.8995v-1.3916Z" transform="translate(-23.8604 -16.6076)" fill="#231f20"/>
    <path d="M385.7285,135.2319l-.084-.7314h-.0361a2.1618,2.1618,0,0,1-1.7754.8633,1.6534,1.6534,0,0,1-1.7744-1.667c0-1.4033,1.2471-2.1709,3.49-2.1592v-.1191a1.1967,1.1967,0,0,0-1.3193-1.3438,2.8967,2.8967,0,0,0-1.5117.4316l-.2393-.6953a3.6028,3.6028,0,0,1,1.9063-.5156c1.7754,0,2.207,1.2109,2.207,2.374V133.84a8.2442,8.2442,0,0,0,.0957,1.3916Zm-.1562-2.9619c-1.1514-.0244-2.458.18-2.458,1.3067a.9338.9338,0,0,0,.9951,1.0078,1.4438,1.4438,0,0,0,1.4033-.9717,1.0979,1.0979,0,0,0,.06-.3359Z" transform="translate(-23.8604 -16.6076)" fill="#231f20"/>
    <path d="M388.2979,130.9985c0-.6-.0127-1.0918-.0489-1.5713h.9356l.06.959h.0235a2.1349,2.1349,0,0,1,1.9189-1.0908c.8037,0,2.0508.48,2.0508,2.4707v3.4658h-1.0547v-3.3457c0-.9355-.3486-1.7158-1.3438-1.7158a1.5,1.5,0,0,0-1.415,1.08,1.5188,1.5188,0,0,0-.0723.4912v3.49h-1.0546Z" transform="translate(-23.8604 -16.6076)" fill="#231f20"/>
    <path d="M399.0957,135.0161a3.8961,3.8961,0,0,1-1.668.336,2.7575,2.7575,0,0,1-2.89-2.9629,2.9488,2.9488,0,0,1,3.1182-3.0821,3.5359,3.5359,0,0,1,1.4628.3l-.2392.8155a2.4549,2.4549,0,0,0-1.2236-.2754,2.1882,2.1882,0,0,0-.0362,4.3652,2.9964,2.9964,0,0,0,1.2949-.2881Z" transform="translate(-23.8604 -16.6076)" fill="#231f20"/>
    <path d="M400.8486,132.521a1.86,1.86,0,0,0,1.9912,2.0156,3.8186,3.8186,0,0,0,1.6075-.3l.18.7549a4.7006,4.7006,0,0,1-1.9307.36,2.696,2.696,0,0,1-2.8545-2.9268c0-1.751,1.0312-3.13,2.7227-3.13a2.4593,2.4593,0,0,1,2.3984,2.7344,4.0165,4.0165,0,0,1-.0361.4912Zm3.0948-.7549a1.5028,1.5028,0,0,0-1.4629-1.7148,1.7492,1.7492,0,0,0-1.6192,1.7148Z" transform="translate(-23.8604 -16.6076)" fill="#231f20"/>
    <path d="M364.2432,141.3091a7.9111,7.9111,0,0,0-1.5108,4.9053,8.0814,8.0814,0,0,0,1.5108,4.8691h-.8272a7.7493,7.7493,0,0,1-1.5713-4.8691,7.91,7.91,0,0,1,1.5713-4.9053Z" transform="translate(-23.8604 -16.6076)" fill="#231f20"/>
    <path d="M366.6318,142.1606v1.667h1.5118v.8037h-1.5118v3.13c0,.72.2041,1.128.792,1.128a2.34,2.34,0,0,0,.6114-.0723l.0478.791a2.5759,2.5759,0,0,1-.9355.1445,1.4613,1.4613,0,0,1-1.1387-.4443,2.1488,2.1488,0,0,1-.4082-1.5107v-3.1661h-.8994v-.8037h.8994V142.436Z" transform="translate(-23.8604 -16.6076)" fill="#231f20"/>
    <path d="M369.8477,146.9214a1.86,1.86,0,0,0,1.9912,2.0156,3.8184,3.8184,0,0,0,1.6074-.3l.18.7549a4.7005,4.7005,0,0,1-1.9307.36,2.6959,2.6959,0,0,1-2.8545-2.9267c0-1.751,1.0313-3.13,2.7227-3.13a2.4593,2.4593,0,0,1,2.3984,2.7344,4.0165,4.0165,0,0,1-.0361.4912Zm3.0947-.7549a1.5028,1.5028,0,0,0-1.4629-1.7148,1.749,1.749,0,0,0-1.6191,1.7148Z" transform="translate(-23.8604 -16.6076)" fill="#231f20"/>
    <path d="M375.1289,148.5532a2.7723,2.7723,0,0,0,1.3916.42c.7676,0,1.127-.3837,1.127-.8642,0-.5039-.3-.7793-1.0791-1.0674-1.044-.3711-1.5352-.9473-1.5352-1.6426a1.7905,1.7905,0,0,1,2.0029-1.7031,2.8989,2.8989,0,0,1,1.4268.3594l-.2637.7676a2.26,2.26,0,0,0-1.1875-.336c-.623,0-.9707.36-.9707.792,0,.48.3477.6953,1.1026.9834,1.0078.3838,1.5234.8877,1.5234,1.751,0,1.0195-.791,1.7392-2.1709,1.7392a3.3168,3.3168,0,0,1-1.6309-.3955Z" transform="translate(-23.8604 -16.6076)" fill="#231f20"/>
    <path d="M381.2959,142.1606v1.667h1.5117v.8037h-1.5117v3.13c0,.72.2041,1.128.792,1.128a2.3383,2.3383,0,0,0,.6113-.0723l.0479.791a2.5769,2.5769,0,0,1-.9356.1445,1.4611,1.4611,0,0,1-1.1386-.4443,2.1483,2.1483,0,0,1-.4083-1.5107v-3.1661h-.8994v-.8037h.8994V142.436Z" transform="translate(-23.8604 -16.6076)" fill="#231f20"/>
    <path d="M383.3613,151.0835a8.1158,8.1158,0,0,0,1.5108-4.9053,7.9521,7.9521,0,0,0-1.5108-4.8691h.8155a7.6381,7.6381,0,0,1,1.5712,4.8808,7.7869,7.7869,0,0,1-1.5712,4.8936Z" transform="translate(-23.8604 -16.6076)" fill="#231f20"/>
  </g>
  <g>
    <path d="M323,217.6719a12.0908,12.0908,0,0,1,2.0029-.1563,3.3192,3.3192,0,0,1,2.2666.6719,2.1712,2.1712,0,0,1,.708,1.69,2.3782,2.3782,0,0,1-.624,1.7276,3.3462,3.3462,0,0,1-2.47.8877,3.6071,3.6071,0,0,1-.84-.0723v3.2383H323Zm1.0439,3.8974a3.4663,3.4663,0,0,0,.8633.084c1.26,0,2.0274-.6113,2.0274-1.7265,0-1.0674-.7559-1.584-1.9073-1.584a4.3788,4.3788,0,0,0-.9834.084Z" transform="translate(-23.8604 -16.6076)" fill="#231f20"/>
    <path d="M329.1572,221.665c0-.6836-.0127-1.27-.0488-1.81h.9238l.0362,1.14h.0478a1.7407,1.7407,0,0,1,1.6074-1.2714,1.1213,1.1213,0,0,1,.3.0361v.9951a1.5655,1.5655,0,0,0-.36-.0361,1.4811,1.4811,0,0,0-1.4151,1.3554,3.0293,3.0293,0,0,0-.0478.4913v3.0947h-1.043Z" transform="translate(-23.8604 -16.6076)" fill="#231f20"/>
    <path d="M333.5479,222.9482a1.86,1.86,0,0,0,1.9912,2.0157,3.82,3.82,0,0,0,1.6074-.3l.18.7548a4.7,4.7,0,0,1-1.9307.36,2.696,2.696,0,0,1-2.8545-2.9268c0-1.7509,1.0313-3.13,2.7227-3.13a2.4592,2.4592,0,0,1,2.3984,2.7343,4.0148,4.0148,0,0,1-.0361.4912Zm3.0947-.7548a1.5037,1.5037,0,0,0-1.4629-1.7159,1.75,1.75,0,0,0-1.6192,1.7159Z" transform="translate(-23.8604 -16.6076)" fill="#231f20"/>
    <path d="M343.9854,217.1436V224.16c0,.5156.0117,1.1035.0478,1.499h-.9473l-.0478-1.0078h-.0244a2.1451,2.1451,0,0,1-1.9785,1.14c-1.4034,0-2.4825-1.1875-2.4825-2.95-.0127-1.9306,1.1875-3.1181,2.6026-3.1181a1.94,1.94,0,0,1,1.751.8877h.0234v-3.4668Zm-1.0557,5.0732a1.8493,1.8493,0,0,0-.0479-.4434,1.5513,1.5513,0,0,0-1.5224-1.2236c-1.0918,0-1.7393.96-1.7393,2.2432,0,1.1748.5752,2.1465,1.7149,2.1465a1.5856,1.5856,0,0,0,1.5468-1.2588,1.8289,1.8289,0,0,0,.0479-.4561Z" transform="translate(-23.8604 -16.6076)" fill="#231f20"/>
    <path d="M346.916,218.2236a.6538.6538,0,0,1-1.3076,0,.6438.6438,0,0,1,.66-.66A.6267.6267,0,0,1,346.916,218.2236Zm-1.1748,7.4356v-5.8047h1.0547v5.8047Z" transform="translate(-23.8604 -16.6076)" fill="#231f20"/>
    <path d="M352.6865,225.4434a3.8974,3.8974,0,0,1-1.6679.3359,2.7575,2.7575,0,0,1-2.89-2.9629,2.9488,2.9488,0,0,1,3.1182-3.082,3.5352,3.5352,0,0,1,1.4629.3l-.2393.8154a2.4554,2.4554,0,0,0-1.2236-.2754,2.1883,2.1883,0,0,0-.0362,4.3653,2.9984,2.9984,0,0,0,1.295-.2881Z" transform="translate(-23.8604 -16.6076)" fill="#231f20"/>
    <path d="M355.3506,218.1875v1.667h1.5117v.8037h-1.5117v3.13c0,.72.2041,1.1279.792,1.1279a2.3392,2.3392,0,0,0,.6113-.0722l.0479.791a2.5769,2.5769,0,0,1-.9356.1445,1.4618,1.4618,0,0,1-1.1387-.4443,2.1493,2.1493,0,0,1-.4082-1.5108v-3.166H353.42v-.8037h.8994v-1.3916Z" transform="translate(-23.8604 -16.6076)" fill="#231f20"/>
    <path d="M358.5674,222.9482a1.86,1.86,0,0,0,1.9912,2.0157,3.82,3.82,0,0,0,1.6074-.3l.18.7548a4.7,4.7,0,0,1-1.9307.36,2.696,2.696,0,0,1-2.8545-2.9268c0-1.7509,1.0313-3.13,2.7227-3.13a2.4592,2.4592,0,0,1,2.3984,2.7343,4.0148,4.0148,0,0,1-.0361.4912Zm3.0947-.7548a1.5037,1.5037,0,0,0-1.4629-1.7159,1.75,1.75,0,0,0-1.6191,1.7159Z" transform="translate(-23.8604 -16.6076)" fill="#231f20"/>
    <path d="M369.0049,217.1436V224.16c0,.5156.0117,1.1035.0478,1.499h-.9472l-.0479-1.0078h-.0244a2.1449,2.1449,0,0,1-1.9785,1.14c-1.4033,0-2.4824-1.1875-2.4824-2.95-.0127-1.9306,1.1875-3.1181,2.6025-3.1181a1.94,1.94,0,0,1,1.751.8877h.0234v-3.4668Zm-1.0557,5.0732a1.8543,1.8543,0,0,0-.0478-.4434,1.5515,1.5515,0,0,0-1.5225-1.2236c-1.0918,0-1.7393.96-1.7393,2.2432,0,1.1748.5752,2.1465,1.7149,2.1465a1.5857,1.5857,0,0,0,1.5469-1.2588,1.8337,1.8337,0,0,0,.0478-.4561Z" transform="translate(-23.8604 -16.6076)" fill="#231f20"/>
    <path d="M332.1182,231.5439v7.0166c0,.5157.0117,1.1036.0478,1.4991h-.9472l-.0479-1.0078h-.0244a2.1451,2.1451,0,0,1-1.9785,1.14c-1.4034,0-2.4825-1.1875-2.4825-2.95-.0126-1.9307,1.1875-3.1182,2.6026-3.1182a1.9406,1.9406,0,0,1,1.751.8877h.0234v-3.4668Zm-1.0557,5.0733a1.8493,1.8493,0,0,0-.0479-.4434,1.5513,1.5513,0,0,0-1.5224-1.2236c-1.0918,0-1.7393.96-1.7393,2.2432,0,1.1748.5752,2.1464,1.7149,2.1464a1.5855,1.5855,0,0,0,1.5468-1.2587,1.8289,1.8289,0,0,0,.0479-.4561Z" transform="translate(-23.8604 -16.6076)" fill="#231f20"/>
    <path d="M335.0479,232.624a.6539.6539,0,0,1-1.3077,0,.6438.6438,0,0,1,.66-.66A.6268.6268,0,0,1,335.0479,232.624ZM333.873,240.06v-5.8047h1.0547V240.06Z" transform="translate(-23.8604 -16.6076)" fill="#231f20"/>
    <path d="M336.5371,238.9805a2.7723,2.7723,0,0,0,1.3916.42c.7676,0,1.127-.3838,1.127-.8643,0-.5039-.3-.7793-1.0791-1.0673-1.044-.3711-1.5352-.9473-1.5352-1.6426a1.7905,1.7905,0,0,1,2.0029-1.7032,2.8986,2.8986,0,0,1,1.4268.3594l-.2637.7676a2.26,2.26,0,0,0-1.1875-.3359c-.623,0-.9707.36-.9707.792,0,.4794.3477.6953,1.1026.9834,1.0078.3837,1.5234.8876,1.5234,1.7509,0,1.02-.791,1.7393-2.1709,1.7393a3.3179,3.3179,0,0,1-1.6309-.3955Z" transform="translate(-23.8604 -16.6076)" fill="#231f20"/>
    <path d="M342.7041,232.5879v1.667h1.5117v.8037h-1.5117v3.13c0,.72.2041,1.1279.792,1.1279a2.3339,2.3339,0,0,0,.6113-.0723l.0479.7911a2.579,2.579,0,0,1-.9356.1445,1.4614,1.4614,0,0,1-1.1386-.4443,2.1493,2.1493,0,0,1-.4082-1.5108v-3.166h-.9v-.8037h.9v-1.3916Z" transform="translate(-23.8604 -16.6076)" fill="#231f20"/>
    <path d="M348.6191,240.06l-.0839-.7315h-.0362a2.16,2.16,0,0,1-1.7754.8633,1.6533,1.6533,0,0,1-1.7744-1.667c0-1.4033,1.2471-2.1709,3.49-2.1592v-.1191a1.1967,1.1967,0,0,0-1.3194-1.3438,2.8958,2.8958,0,0,0-1.5117.4317l-.2393-.6953a3.6019,3.6019,0,0,1,1.9063-.5157c1.7754,0,2.207,1.211,2.207,2.3741v2.1709a8.2442,8.2442,0,0,0,.0957,1.3916Zm-.1562-2.9619c-1.1514-.0245-2.458.18-2.458,1.3066A.9339.9339,0,0,0,347,239.4121a1.4436,1.4436,0,0,0,1.4033-.9717,1.09,1.09,0,0,0,.06-.3359Z" transform="translate(-23.8604 -16.6076)" fill="#231f20"/>
    <path d="M351.19,235.8262c0-.6-.0127-1.0918-.0489-1.5713h.9356l.0605.959h.0235a2.1348,2.1348,0,0,1,1.9189-1.0909c.8037,0,2.0508.48,2.0508,2.4708V240.06h-1.0547v-3.3457c0-.9356-.3486-1.7159-1.3438-1.7159a1.5,1.5,0,0,0-1.415,1.08,1.5192,1.5192,0,0,0-.0723.4912v3.49H351.19Z" transform="translate(-23.8604 -16.6076)" fill="#231f20"/>
    <path d="M361.9863,239.8438a3.8974,3.8974,0,0,1-1.6679.3359,2.7575,2.7575,0,0,1-2.89-2.9629,2.9488,2.9488,0,0,1,3.1182-3.082,3.5352,3.5352,0,0,1,1.4629.3l-.24.8154a2.447,2.447,0,0,0-1.2226-.2754,2.1882,2.1882,0,0,0-.0362,4.3652,2.9982,2.9982,0,0,0,1.295-.288Z" transform="translate(-23.8604 -16.6076)" fill="#231f20"/>
    <path d="M363.74,237.3486a1.86,1.86,0,0,0,1.9912,2.0157,3.82,3.82,0,0,0,1.6075-.3l.18.7548a4.7006,4.7006,0,0,1-1.9307.36,2.696,2.696,0,0,1-2.8545-2.9268c0-1.7509,1.0312-3.13,2.7227-3.13a2.4593,2.4593,0,0,1,2.3984,2.7344,4.0165,4.0165,0,0,1-.0361.4912Zm3.0948-.7548a1.5037,1.5037,0,0,0-1.4629-1.7159,1.75,1.75,0,0,0-1.6192,1.7159Z" transform="translate(-23.8604 -16.6076)" fill="#231f20"/>
  </g>
</svg>
