<svg id="Layer_1" data-name="Layer 1" xmlns="http://www.w3.org/2000/svg" viewBox="0 0 304.7821 175.6854">
  <title>TwoSensorDiagram(1)</title>
  <rect x="1" y="11.5393" width="72" height="72" rx="21.0337" fill="#f9c7dd" stroke="#231f20" stroke-miterlimit="10" stroke-width="2"/>
  <rect x="140.2809" y="1" width="93.0787" height="93.0787" fill="#cdddb3" stroke="#231f20" stroke-miterlimit="10" stroke-width="2"/>
  <g>
    <line x1="71.9888" y1="47.9438" x2="129.9412" y2="47.247" fill="none" stroke="#231f20" stroke-miterlimit="10" stroke-width="2"/>
    <polygon points="128.123 53.752 139.27 47.135 127.967 40.788 128.123 53.752" fill="#231f20"/>
  </g>
  <path d="M256.21,58.54" transform="translate(-21.9824 -21.6811)" fill="none"/>
  <g>
    <line x1="103.708" y1="47.5624" x2="103.7178" y2="115.2961" fill="none" stroke="#231f20" stroke-miterlimit="10" stroke-width="2"/>
    <polygon points="97.235 113.4 103.719 124.625 110.2 113.398 97.235 113.4" fill="#231f20"/>
  </g>
  <path d="M268.3769,146.3062" transform="translate(-21.9824 -21.6811)" fill="none"/>
  <path d="M228.41,151.6469" transform="translate(-21.9824 -21.6811)" fill="none"/>
  <path d="M125.6959,151.6469" transform="translate(-21.9824 -21.6811)" fill="none"/>
  <path d="M227.7155,151.6469" transform="translate(-21.9824 -21.6811)" fill="none"/>
  <g>
    <line x1="103.0195" y1="129.9658" x2="204.6486" y2="129.9658" fill="none" stroke="#231f20" stroke-miterlimit="10"/>
    <polygon points="201.335 134.056 200.653 133.323 204.265 129.967 200.653 126.609 201.335 125.877 205.733 129.967 201.335 134.056" fill="#231f20"/>
  </g>
  <path d="M313.8906,178.2424" transform="translate(-21.9824 -21.6811)" fill="none"/>
  <path d="M279.1627,151.6469" transform="translate(-21.9824 -21.6811)" fill="none"/>
  <path d="M227.8059,151.6469" transform="translate(-21.9824 -21.6811)" fill="none"/>
  <g>
    <polyline points="233.36 47.539 246.395 47.539 246.395 115.296" fill="none" stroke="#231f20" stroke-miterlimit="10" stroke-width="2"/>
    <polygon points="239.912 113.399 246.395 124.625 252.877 113.399 239.912 113.399" fill="#231f20"/>
  </g>
  <g>
    <polyline points="257.18 174.685 37 174.685 37 92.868" fill="none" stroke="#c1444b" stroke-miterlimit="10" stroke-width="2"/>
    <polygon points="43.482 94.765 37 83.539 30.518 94.765 43.482 94.765" fill="#c1444b"/>
  </g>
  <rect x="103.7191" y="125.8764" width="153.4612" height="8.1798" fill="none" stroke="#231f20" stroke-miterlimit="10" stroke-width="2"/>
  <g>
    <path d="M52.1868,69.0537H46.4217V74.4h6.4248v1.6064H44.5076v-14.83h8.0093v1.6059H46.4217V67.47h5.7651Z" transform="translate(-21.9824 -21.6811)" fill="#231f20"/>
    <path d="M56.1673,65.3574l1.5181,2.2881c.3964.5942.726,1.1441,1.0786,1.7383H58.83c.352-.6382.7041-1.188,1.0561-1.76l1.4961-2.2661h2.09l-3.63,5.1485,3.74,5.5009h-2.2L59.82,73.6084c-.4179-.6162-.77-1.21-1.144-1.8481h-.044c-.352.6381-.726,1.21-1.122,1.8481l-1.54,2.3984H53.8353l3.7841-5.4345L54.011,65.3574Z" transform="translate(-21.9824 -21.6811)" fill="#231f20"/>
    <path d="M69.0379,63.5093H68.994l-2.4864,1.3418-.3745-1.4741,3.1245-1.6724h1.65V76.0068h-1.87Z" transform="translate(-21.9824 -21.6811)" fill="#231f20"/>
  </g>
  <g>
    <path d="M199.6688,68.1313h-5.7647V73.478h6.4248v1.6065H191.99v-14.83h8.0088V61.86h-6.0947v4.687h5.7647Z" transform="translate(-21.9824 -21.6811)" fill="#231f20"/>
    <path d="M202.7479,67.3174c0-1.1-.0225-2.0025-.0889-2.8823h1.7168l.11,1.76h.044a3.9146,3.9146,0,0,1,3.52-2.0024c1.4736,0,3.7617.88,3.7617,4.5327v6.3589h-1.9355V68.9458c0-1.7163-.6387-3.1465-2.4649-3.1465a2.7511,2.7511,0,0,0-2.5967,1.98,2.7922,2.7922,0,0,0-.1318.9023v6.4029h-1.9355Z" transform="translate(-21.9824 -21.6811)" fill="#231f20"/>
    <path d="M215.42,64.4351l2.0909,5.9848a27.4927,27.4927,0,0,1,.8574,2.728h.0664c.2422-.88.55-1.76.9023-2.728l2.0684-5.9848h2.0234l-4.18,10.6494H217.4l-4.0488-10.6494Z" transform="translate(-21.9824 -21.6811)" fill="#231f20"/>
  </g>
  <path d="M308.0949,181.4339" transform="translate(-21.9824 -21.6811)" fill="none"/>
  <line x1="205.8235" y1="129.9658" x2="257.1803" y2="129.9658" fill="none" stroke="#231f20" stroke-miterlimit="10"/>
  <g>
    <path d="M64.3162,182.9033a10.8285,10.8285,0,0,1,2.0029-.1679,3.3084,3.3084,0,0,1,2.3384.6591,2.0137,2.0137,0,0,1,.6358,1.5352,2.1224,2.1224,0,0,1-1.523,2.0635v.0361a2.0135,2.0135,0,0,1,1.187,1.6309,12.8788,12.8788,0,0,0,.6241,2.2187h-1.08a10.4541,10.4541,0,0,1-.54-1.9307c-.24-1.1152-.6719-1.5351-1.6191-1.5712H65.36v3.5019H64.3162ZM65.36,186.585h1.0674c1.1152,0,1.8227-.6114,1.8227-1.5352,0-1.043-.7554-1.499-1.8589-1.5107a4.2972,4.2972,0,0,0-1.0312.0957Z" transform="translate(-21.9824 -21.6811)" fill="#231f20"/>
    <path d="M71.3719,188.168a1.86,1.86,0,0,0,1.9907,2.0156,3.8137,3.8137,0,0,0,1.6069-.3l.18.7549a4.701,4.701,0,0,1-1.9311.36,2.6959,2.6959,0,0,1-2.8545-2.9267c0-1.751,1.0317-3.13,2.7226-3.13a2.46,2.46,0,0,1,2.399,2.7344,4.0139,4.0139,0,0,1-.0362.4912Zm3.0942-.7549a1.5034,1.5034,0,0,0-1.4634-1.7158,1.75,1.75,0,0,0-1.6191,1.7158Z" transform="translate(-21.9824 -21.6811)" fill="#231f20"/>
    <path d="M77.2156,185.0742l.7676,2.95c.168.6475.3237,1.2471.4317,1.8467h.0361c.1318-.5869.3237-1.2109.5156-1.835l.9473-2.9619h.8877l.8994,2.9024c.2158.6953.3838,1.3076.5156,1.8945h.0361a17.5566,17.5566,0,0,1,.4439-1.8828l.8276-2.9141h1.0435l-1.8711,5.8047h-.96l-.8877-2.77a19.4435,19.4435,0,0,1-.5156-1.9072H80.31a17.0886,17.0886,0,0,1-.5279,1.9189l-.9355,2.7588h-.96l-1.751-5.8047Z" transform="translate(-21.9824 -21.6811)" fill="#231f20"/>
    <path d="M88.7942,190.8789l-.0839-.7314h-.0362a2.1606,2.1606,0,0,1-1.7749.8632,1.6534,1.6534,0,0,1-1.7749-1.6669c0-1.4034,1.2471-2.1709,3.49-2.1592v-.1192a1.1966,1.1966,0,0,0-1.3189-1.3437,2.8926,2.8926,0,0,0-1.5112.4316l-.24-.6953a3.6058,3.6058,0,0,1,1.9072-.5156c1.7749,0,2.2065,1.2109,2.2065,2.374v2.1709a8.148,8.148,0,0,0,.0962,1.3916Zm-.1562-2.9619c-1.1514-.0244-2.4585.18-2.4585,1.3066a.9345.9345,0,0,0,.9956,1.0078,1.444,1.444,0,0,0,1.4033-.9716,1.1058,1.1058,0,0,0,.06-.336Z" transform="translate(-21.9824 -21.6811)" fill="#231f20"/>
    <path d="M91.3641,186.8848c0-.6836-.0122-1.2705-.0479-1.8106H92.24l.0361,1.14h.0478a1.7407,1.7407,0,0,1,1.607-1.2715,1.1283,1.1283,0,0,1,.3.0361v.9951a1.5673,1.5673,0,0,0-.36-.0361,1.4807,1.4807,0,0,0-1.4155,1.3555,2.9713,2.9713,0,0,0-.0479.4912v3.0947H91.3641Z" transform="translate(-21.9824 -21.6811)" fill="#231f20"/>
    <path d="M100.181,182.3633V189.38c0,.5156.0122,1.1035.0478,1.499h-.9473l-.0478-1.0078H99.21a2.1469,2.1469,0,0,1-1.979,1.14c-1.4034,0-2.4829-1.1875-2.4829-2.95-.0118-1.9306,1.1875-3.1181,2.6025-3.1181a1.9419,1.9419,0,0,1,1.7515.8877h.0239v-3.4668Zm-1.0552,5.0732a1.8486,1.8486,0,0,0-.0484-.4433,1.5518,1.5518,0,0,0-1.5229-1.2237c-1.0913,0-1.7393.96-1.7393,2.2432,0,1.1748.5757,2.1465,1.7154,2.1465A1.5863,1.5863,0,0,0,99.0774,188.9a1.8278,1.8278,0,0,0,.0484-.4561Z" transform="translate(-21.9824 -21.6811)" fill="#231f20"/>
    <path d="M104.5877,190.8789v-5.001h-.8154v-.8037h.8154v-.2763a2.7357,2.7357,0,0,1,.6719-2.0264,2.019,2.019,0,0,1,1.415-.54,2.4452,2.4452,0,0,1,.8994.168l-.144.8154a1.5865,1.5865,0,0,0-.6714-.1318c-.8994,0-1.1274.792-1.1274,1.68v.3115h1.4033v.8037h-1.4033v5.001Z" transform="translate(-21.9824 -21.6811)" fill="#231f20"/>
    <path d="M107.9837,186.8848c0-.6836-.0117-1.2705-.0479-1.8106h.9234l.0361,1.14h.0479a1.7405,1.7405,0,0,1,1.6069-1.2715,1.1218,1.1218,0,0,1,.3.0361v.9951a1.56,1.56,0,0,0-.3594-.0361,1.4807,1.4807,0,0,0-1.4155,1.3555,2.9719,2.9719,0,0,0-.0478.4912v3.0947h-1.0435Z" transform="translate(-21.9824 -21.6811)" fill="#231f20"/>
    <path d="M117.0408,187.9287a2.8366,2.8366,0,0,1-2.89,3.082,2.76,2.76,0,0,1-2.7827-2.9863,2.8346,2.8346,0,0,1,2.8784-3.082A2.7483,2.7483,0,0,1,117.0408,187.9287Zm-4.6054.06c0,1.2715.7319,2.2314,1.7631,2.2314,1.0074,0,1.7632-.9482,1.7632-2.2549,0-.9834-.4917-2.2314-1.7392-2.2314S112.4354,186.8848,112.4354,187.9883Z" transform="translate(-21.9824 -21.6811)" fill="#231f20"/>
    <path d="M118.3758,186.6455c0-.6-.0122-1.0918-.0479-1.5713h.9234l.0478.9356h.0362a2.0007,2.0007,0,0,1,1.8232-1.0674,1.716,1.716,0,0,1,1.6431,1.1631h.0239a2.3953,2.3953,0,0,1,.6475-.7559,1.9807,1.9807,0,0,1,1.2832-.4072c.7675,0,1.9072.5039,1.9072,2.5185v3.418h-1.0318v-3.2861c0-1.1153-.4077-1.7871-1.2592-1.7871a1.3652,1.3652,0,0,0-1.2471.96,1.7339,1.7339,0,0,0-.084.5274v3.5859H122.01V187.4c0-.9229-.4082-1.5947-1.2115-1.5947a1.4421,1.4421,0,0,0-1.3076,1.0556,1.4637,1.4637,0,0,0-.084.5157v3.5019h-1.0312Z" transform="translate(-21.9824 -21.6811)" fill="#231f20"/>
    <path d="M130.9275,182.3633h1.0557v8.5156h-1.0557Z" transform="translate(-21.9824 -21.6811)" fill="#231f20"/>
    <path d="M136.9739,190.8789l-.084-.7314h-.0361a2.1607,2.1607,0,0,1-1.7749.8632,1.6534,1.6534,0,0,1-1.7749-1.6669c0-1.4034,1.2471-2.1709,3.49-2.1592v-.1192a1.1966,1.1966,0,0,0-1.3189-1.3437,2.8926,2.8926,0,0,0-1.5112.4316l-.24-.6953a3.6065,3.6065,0,0,1,1.9073-.5156c1.7749,0,2.2065,1.2109,2.2065,2.374v2.1709a8.1378,8.1378,0,0,0,.0962,1.3916Zm-.1562-2.9619c-1.1514-.0244-2.4585.18-2.4585,1.3066a.9344.9344,0,0,0,.9956,1.0078,1.4441,1.4441,0,0,0,1.4033-.9716,1.1058,1.1058,0,0,0,.06-.336Z" transform="translate(-21.9824 -21.6811)" fill="#231f20"/>
    <path d="M139.3992,189.8a2.7755,2.7755,0,0,0,1.3916.42c.7676,0,1.127-.3838,1.127-.8642,0-.5039-.3-.7793-1.0791-1.0674-1.0435-.3711-1.5352-.9473-1.5352-1.6426a1.79,1.79,0,0,1,2.003-1.7031,2.9048,2.9048,0,0,1,1.4272.3594l-.2642.7675a2.2607,2.2607,0,0,0-1.187-.3359c-.624,0-.9717.36-.9717.792,0,.48.3477.6953,1.1036.9834,1.0073.3838,1.5229.8877,1.5229,1.751,0,1.0195-.7915,1.7392-2.1709,1.7392a3.3164,3.3164,0,0,1-1.6308-.3955Z" transform="translate(-21.9824 -21.6811)" fill="#231f20"/>
    <path d="M145.5667,183.4072v1.667h1.5112v.8037h-1.5112v3.13c0,.72.2036,1.1279.7915,1.1279a2.3436,2.3436,0,0,0,.6118-.0722l.0479.791a2.5825,2.5825,0,0,1-.9356.1445,1.4626,1.4626,0,0,1-1.14-.4443,2.1492,2.1492,0,0,1-.4077-1.5108v-3.166h-.8994v-.8037h.8994v-1.3916Z" transform="translate(-21.9824 -21.6811)" fill="#231f20"/>
    <path d="M151.3987,188.168a1.86,1.86,0,0,0,1.9908,2.0156,3.8141,3.8141,0,0,0,1.6069-.3l.18.7549a4.7015,4.7015,0,0,1-1.9312.36,2.6959,2.6959,0,0,1-2.8545-2.9267c0-1.751,1.0318-3.13,2.7227-3.13a2.4594,2.4594,0,0,1,2.3989,2.7344,4.0182,4.0182,0,0,1-.0361.4912Zm3.0943-.7549a1.5034,1.5034,0,0,0-1.4634-1.7158,1.75,1.75,0,0,0-1.6191,1.7158Z" transform="translate(-21.9824 -21.6811)" fill="#231f20"/>
    <path d="M156.8226,186.9688c0-.7432-.024-1.3428-.0479-1.8946h.9473l.0478.9951h.0244a2.2825,2.2825,0,0,1,2.0625-1.1269c1.4034,0,2.459,1.1875,2.459,2.95,0,2.0869-1.2715,3.1181-2.6386,3.1181A2.0366,2.0366,0,0,1,157.89,190.1h-.0239v3.1543h-1.0434Zm1.0434,1.5478a2.3788,2.3788,0,0,0,.0479.4316,1.6289,1.6289,0,0,0,1.5835,1.2354c1.1152,0,1.7627-.9121,1.7627-2.2432,0-1.1631-.6114-2.1591-1.7271-2.1591a1.6852,1.6852,0,0,0-1.5952,1.3076,1.73,1.73,0,0,0-.0718.4316Z" transform="translate(-21.9824 -21.6811)" fill="#231f20"/>
    <path d="M164.8255,183.4434a.6536.6536,0,0,1-1.3071,0,.6433.6433,0,0,1,.66-.66A.6268.6268,0,0,1,164.8255,183.4434Zm-1.1753,7.4355v-5.8047h1.0557v5.8047Z" transform="translate(-21.9824 -21.6811)" fill="#231f20"/>
    <path d="M166.3143,189.8a2.7752,2.7752,0,0,0,1.3916.42c.7675,0,1.1269-.3838,1.1269-.8642,0-.5039-.3-.7793-1.0791-1.0674-1.0434-.3711-1.5351-.9473-1.5351-1.6426a1.79,1.79,0,0,1,2.0029-1.7031,2.9048,2.9048,0,0,1,1.4272.3594l-.2641.7675a2.2613,2.2613,0,0,0-1.187-.3359c-.6241,0-.9717.36-.9717.792,0,.48.3476.6953,1.1035.9834,1.0073.3838,1.523.8877,1.523,1.751,0,1.0195-.7916,1.7392-2.1709,1.7392a3.3165,3.3165,0,0,1-1.6309-.3955Z" transform="translate(-21.9824 -21.6811)" fill="#231f20"/>
    <path d="M176.4627,187.9287a2.8363,2.8363,0,0,1-2.89,3.082,2.76,2.76,0,0,1-2.7832-2.9863,2.8346,2.8346,0,0,1,2.8789-3.082A2.7483,2.7483,0,0,1,176.4627,187.9287Zm-4.6055.06c0,1.2715.7325,2.2314,1.7637,2.2314,1.0068,0,1.7627-.9482,1.7627-2.2549,0-.9834-.4912-2.2314-1.7393-2.2314S171.8572,186.8848,171.8572,187.9883Z" transform="translate(-21.9824 -21.6811)" fill="#231f20"/>
    <path d="M182.8113,182.3633V189.38c0,.5156.0118,1.1035.0479,1.499h-.9473l-.0478-1.0078H181.84a2.1462,2.1462,0,0,1-1.9786,1.14c-1.4033,0-2.4834-1.1875-2.4834-2.95-.0117-1.9306,1.1875-3.1181,2.6026-3.1181a1.9431,1.9431,0,0,1,1.7519.8877h.0235v-3.4668Zm-1.0556,5.0732a1.848,1.848,0,0,0-.0479-.4433,1.5524,1.5524,0,0,0-1.5234-1.2237c-1.0908,0-1.7393.96-1.7393,2.2432,0,1.1748.5762,2.1465,1.7158,2.1465a1.5873,1.5873,0,0,0,1.5469-1.2588,1.8284,1.8284,0,0,0,.0479-.4561Z" transform="translate(-21.9824 -21.6811)" fill="#231f20"/>
    <path d="M185.1541,188.168a1.8591,1.8591,0,0,0,1.99,2.0156,3.8151,3.8151,0,0,0,1.6075-.3l.18.7549a4.6987,4.6987,0,0,1-1.9307.36,2.6959,2.6959,0,0,1-2.8545-2.9267c0-1.751,1.0312-3.13,2.7227-3.13a2.4593,2.4593,0,0,1,2.3984,2.7344,4.0182,4.0182,0,0,1-.0361.4912Zm3.0938-.7549a1.503,1.503,0,0,0-1.4629-1.7158,1.75,1.75,0,0,0-1.6192,1.7158Z" transform="translate(-21.9824 -21.6811)" fill="#231f20"/>
  </g>
  <g>
    <path d="M107.3021,61.5425l-.8394,2.5425h-1.08l2.7466-8.0835h1.2593l2.7583,8.0835H111.032l-.8632-2.5425Zm2.65-.8154L109.1609,58.4c-.18-.5273-.3-1.0073-.4194-1.4751h-.0244c-.12.48-.2515.9717-.4077,1.4634l-.7915,2.3389Z" transform="translate(-21.9824 -21.6811)" fill="#231f20"/>
    <path d="M117.2967,63.8691a3.8849,3.8849,0,0,1-1.667.336,2.7581,2.7581,0,0,1-2.8906-2.9624,2.95,2.95,0,0,1,3.1186-3.0825,3.5229,3.5229,0,0,1,1.4629.3l-.24.8154A2.4507,2.4507,0,0,0,115.8577,59a2.1884,2.1884,0,0,0-.0361,4.3657,3,3,0,0,0,1.2954-.2876Z" transform="translate(-21.9824 -21.6811)" fill="#231f20"/>
    <path d="M119.9622,56.6133V58.28h1.5112v.8032h-1.5112v3.13c0,.72.2036,1.1274.7915,1.1274a2.3572,2.3572,0,0,0,.6113-.0718l.0484.7915a2.5834,2.5834,0,0,1-.9356.1441,1.4641,1.4641,0,0,1-1.14-.4439,2.1511,2.1511,0,0,1-.4077-1.5112V59.0835h-.8994V58.28h.8994V56.8892Z" transform="translate(-21.9824 -21.6811)" fill="#231f20"/>
    <path d="M123.8377,56.6489a.6536.6536,0,0,1-1.3071,0,.6432.6432,0,0,1,.66-.66A.6266.6266,0,0,1,123.8377,56.6489Zm-1.1753,7.4361V58.28h1.0557V64.085Z" transform="translate(-21.9824 -21.6811)" fill="#231f20"/>
    <path d="M130.7234,61.1348a2.8366,2.8366,0,0,1-2.89,3.082,2.76,2.76,0,0,1-2.7827-2.9863,2.8344,2.8344,0,0,1,2.8784-3.0821A2.7484,2.7484,0,0,1,130.7234,61.1348Zm-4.6054.0595c0,1.2715.7319,2.231,1.7632,2.231,1.0073,0,1.7631-.9473,1.7631-2.2549,0-.9834-.4917-2.23-1.7392-2.23S126.118,60.0913,126.118,61.1943Z" transform="translate(-21.9824 -21.6811)" fill="#231f20"/>
    <path d="M132.0584,59.8511c0-.6-.0117-1.0913-.0478-1.5708h.9355l.06.9594h.0244a2.1343,2.1343,0,0,1,1.9189-1.0913c.8033,0,2.0508.4795,2.0508,2.47V64.085h-1.0557V60.7388c0-.9356-.3476-1.7149-1.3432-1.7149a1.5,1.5,0,0,0-1.4151,1.0791,1.5232,1.5232,0,0,0-.0717.4917v3.49h-1.0557Z" transform="translate(-21.9824 -21.6811)" fill="#231f20"/>
    <path d="M143.2171,57.2729h-.0239l-1.3555.7315-.2041-.8037,1.7031-.9116h.9V64.085h-1.02Z" transform="translate(-21.9824 -21.6811)" fill="#231f20"/>
  </g>
  <g>
    <path d="M281.4627,100.9858c0,2.7823-1.6914,4.2574-3.7539,4.2574-2.1348,0-3.6348-1.6548-3.6348-4.1016,0-2.5669,1.5957-4.2456,3.7539-4.2456C280.035,96.896,281.4627,98.5869,281.4627,100.9858Zm-6.2725.1319c0,1.727.9346,3.2739,2.5782,3.2739,1.6552,0,2.5908-1.5229,2.5908-3.3579,0-1.6074-.84-3.2861-2.5791-3.2861C276.0535,97.7476,275.19,99.3423,275.19,101.1177Z" transform="translate(-21.9824 -21.6811)" fill="#231f20"/>
    <path d="M287.68,103.5283c0,.6.0117,1.1275.0479,1.583h-.9356l-.06-.9472h-.0244a2.1833,2.1833,0,0,1-1.9189,1.0791c-.9112,0-2.003-.5035-2.003-2.5425V99.3066h1.0557v3.2144c0,1.103.3359,1.8467,1.2959,1.8467a1.484,1.484,0,0,0,1.4863-1.499V99.3066H287.68Z" transform="translate(-21.9824 -21.6811)" fill="#231f20"/>
    <path d="M290.7049,97.64v1.667h1.5117v.8033h-1.5117v3.13c0,.72.2041,1.1275.792,1.1275a2.3648,2.3648,0,0,0,.6113-.0718l.0479.7915a2.5822,2.5822,0,0,1-.9356.144,1.4648,1.4648,0,0,1-1.14-.4438,2.1511,2.1511,0,0,1-.4073-1.5112V100.11h-.8994v-.8033h.8994V97.9155Z" transform="translate(-21.9824 -21.6811)" fill="#231f20"/>
    <path d="M297.4715,104.8955a3.88,3.88,0,0,1-1.667.3359,2.7581,2.7581,0,0,1-2.8906-2.9624,2.95,2.95,0,0,1,3.1191-3.0825,3.5283,3.5283,0,0,1,1.4629.3l-.24.8155a2.45,2.45,0,0,0-1.2227-.2759,2.1884,2.1884,0,0,0-.0361,4.3657,2.9988,2.9988,0,0,0,1.2949-.2876Z" transform="translate(-21.9824 -21.6811)" fill="#231f20"/>
    <path d="M303.8914,102.1611a2.8371,2.8371,0,0,1-2.8906,3.0821,2.76,2.76,0,0,1-2.7822-2.9864,2.8342,2.8342,0,0,1,2.8779-3.082A2.7485,2.7485,0,0,1,303.8914,102.1611Zm-4.6055.06c0,1.2715.7315,2.231,1.7627,2.231,1.0079,0,1.7637-.9473,1.7637-2.2549,0-.9834-.4922-2.23-1.7392-2.23S299.2859,101.1177,299.2859,102.2207Z" transform="translate(-21.9824 -21.6811)" fill="#231f20"/>
    <path d="M305.2264,100.8774c0-.6-.0117-1.0913-.0479-1.5708h.9229l.0478.9356h.0362a2.0019,2.0019,0,0,1,1.8232-1.0674,1.7162,1.7162,0,0,1,1.6436,1.1631h.0234a2.3939,2.3939,0,0,1,.6475-.7554,1.9787,1.9787,0,0,1,1.2832-.4077c.7675,0,1.9072.5034,1.9072,2.5186v3.4179h-1.0313v-3.2861c0-1.1152-.4082-1.7871-1.26-1.7871a1.366,1.366,0,0,0-1.2471.96,1.7413,1.7413,0,0,0-.084.5278v3.5859H308.86v-3.478c0-.9233-.4082-1.5952-1.211-1.5952a1.4422,1.4422,0,0,0-1.3076,1.0557,1.46,1.46,0,0,0-.084.5156v3.5019h-1.0312Z" transform="translate(-21.9824 -21.6811)" fill="#231f20"/>
    <path d="M315.8221,102.4009a1.8589,1.8589,0,0,0,1.99,2.0146,3.8146,3.8146,0,0,0,1.6074-.3l.18.7559a4.6978,4.6978,0,0,1-1.9306.36,2.6956,2.6956,0,0,1-2.8545-2.9267c0-1.751,1.0312-3.13,2.7226-3.13a2.4593,2.4593,0,0,1,2.3985,2.7344,4.0308,4.0308,0,0,1-.0362.4917Zm3.0937-.7559a1.5024,1.5024,0,0,0-1.4629-1.7148,1.7492,1.7492,0,0,0-1.6191,1.7148Z" transform="translate(-21.9824 -21.6811)" fill="#231f20"/>
    <path d="M325.7449,98.2993h-.0244l-1.3555.7315-.2031-.8037,1.7022-.9117h.9v7.7959h-1.02Z" transform="translate(-21.9824 -21.6811)" fill="#231f20"/>
  </g>
</svg>
