<svg id="Layer_1" data-name="Layer 1" xmlns="http://www.w3.org/2000/svg" viewBox="0 0 429.4831 160.8818">
  <title>TwoSensorDiagram</title>
  <g>
    <rect x="0.5" y="78.8088" width="36" height="36" rx="10.5169" fill="#f9c7dd" stroke="#231f20" stroke-miterlimit="10"/>
    <rect x="70.1404" y="73.5391" width="46.5393" height="46.5393" fill="#cdddb3" stroke="#231f20" stroke-miterlimit="10"/>
    <rect x="139.2753" y="78.8088" width="36" height="36" rx="10.5169" fill="#c7a794" stroke="#231f20" stroke-miterlimit="10"/>
    <rect x="197.8708" y="73.5391" width="46.5393" height="46.5393" fill="#cdddb3" stroke="#231f20" stroke-miterlimit="10"/>
    <rect x="267.0477" y="64.7331" width="22.427" height="64.1515" rx="7.6053" fill="#f2ebc3" stroke="#231f20" stroke-miterlimit="10"/>
    <rect x="254.8707" y="0.5" width="46.5393" height="46.5393" fill="#cdddb3" stroke="#231f20" stroke-miterlimit="10"/>
    <polygon points="378.747 47.039 335.264 47.039 332.208 47.039 332.208 0.5 378.747 0.5 378.747 47.039" fill="#cdddb3" stroke="#231f20" stroke-miterlimit="10"/>
    <g>
      <line x1="35.9944" y1="97.011" x2="64.9706" y2="96.6626" fill="none" stroke="#231f20" stroke-miterlimit="10"/>
      <polygon points="64.061 99.915 69.635 96.607 63.983 93.433 64.061 99.915" fill="#231f20"/>
    </g>
    <path d="M159.6854,111.5732" transform="translate(-20.4101 -20.2923)" fill="none"/>
    <path d="M137.5241,111.7611" transform="translate(-20.4101 -20.2923)" fill="none"/>
    <g>
      <line x1="175.2753" y1="96.9028" x2="192.7722" y2="96.7544" fill="none" stroke="#231f20" stroke-miterlimit="10"/>
      <polygon points="191.851 100.003 197.437 96.715 191.796 93.521 191.851 100.003" fill="#231f20"/>
    </g>
    <g>
      <line x1="51.854" y1="96.8203" x2="51.8589" y2="130.6872" fill="none" stroke="#231f20" stroke-miterlimit="10"/>
      <polygon points="48.618 129.739 51.86 135.352 55.1 129.738 48.618 129.739" fill="#231f20"/>
    </g>
    <path d="M143.6074,155.644" transform="translate(-20.4101 -20.2923)" fill="none"/>
    <g>
      <line x1="257.4579" y1="136.1495" x2="257.4579" y2="104.0074" fill="none" stroke="#231f20" stroke-miterlimit="10"/>
      <g>
        <line x1="257.9579" y1="104.5258" x2="262.2933" y2="104.5258" fill="none" stroke="#231f20" stroke-miterlimit="10"/>
        <polygon points="261.345 107.767 266.958 104.526 261.345 101.285 261.345 107.767" fill="#231f20"/>
      </g>
    </g>
    <g>
      <polyline points="301.632 21.951 312.466 21.951 312.466 96.796 294.692 96.796" fill="none" stroke="#231f20" stroke-miterlimit="10" stroke-width="1.0458"/>
      <polygon points="295.684 93.407 289.814 96.796 295.684 100.186 295.684 93.407" fill="#231f20"/>
    </g>
    <g>
      <line x1="184.6645" y1="96.8088" x2="184.6693" y2="130.6872" fill="none" stroke="#231f20" stroke-miterlimit="10"/>
      <polygon points="181.428 129.739 184.67 135.352 187.91 129.738 181.428 129.739" fill="#231f20"/>
    </g>
    <rect x="344.2642" y="64.7331" width="22.427" height="64.1515" rx="7.6053" fill="#f2ebc3" stroke="#231f20" stroke-miterlimit="10"/>
    <g>
      <line x1="334.7642" y1="137.4613" x2="334.7642" y2="102.6956" fill="none" stroke="#231f20" stroke-miterlimit="10"/>
      <g>
        <line x1="335.2642" y1="103.2564" x2="339.5996" y2="103.2564" fill="none" stroke="#231f20" stroke-miterlimit="10"/>
        <polygon points="338.651 106.497 344.264 103.256 338.651 100.015 338.651 106.497" fill="#231f20"/>
      </g>
    </g>
    <g>
      <polyline points="335.264 47.039 335.264 90.39 344.264 90.39" fill="#fff"/>
      <g>
        <polyline points="335.264 47.039 335.264 90.39 339.6 90.39" fill="none" stroke="#231f20" stroke-miterlimit="10"/>
        <polygon points="338.651 93.631 344.264 90.39 338.651 87.149 338.651 93.631" fill="#231f20"/>
      </g>
    </g>
    <g>
      <polyline points="378.747 21.951 409.851 21.951 409.851 80.616" fill="none" stroke="#231f20" stroke-miterlimit="10"/>
      <polygon points="406.61 79.668 409.851 85.281 413.092 79.668 406.61 79.668" fill="#231f20"/>
    </g>
    <ellipse cx="409.8512" cy="96.6728" rx="19.132" ry="11.3921" fill="#d1d3d4" stroke="#231f20" stroke-miterlimit="10"/>
    <g>
      <line x1="367.0056" y1="96.6728" x2="386.0546" y2="96.6728" fill="none" stroke="#231f20" stroke-miterlimit="10"/>
      <polygon points="385.106 99.914 390.719 96.673 385.106 93.432 385.106 99.914" fill="#231f20"/>
    </g>
    <g>
      <path d="M419.8113,114.3452a6.3546,6.3546,0,0,1,1.17-.0977,1.9267,1.9267,0,0,1,1.3652.3853,1.1746,1.1746,0,0,1,.3711.8965,1.24,1.24,0,0,1-.8887,1.2046v.0209a1.1782,1.1782,0,0,1,.6934.9522,7.3824,7.3824,0,0,0,.3642,1.2959h-.6308a6.1565,6.1565,0,0,1-.3155-1.1274c-.14-.6514-.3916-.8965-.9453-.9175h-.5742v2.0449h-.6094Zm.6094,2.15h.6231c.6513,0,1.0644-.3574,1.0644-.8965,0-.6094-.44-.8755-1.0849-.8823a2.5271,2.5271,0,0,0-.6026.0556Z" transform="translate(-20.4101 -20.2923)" fill="#231f20"/>
      <path d="M423.9275,117.42a1.0858,1.0858,0,0,0,1.1631,1.1767,2.2313,2.2313,0,0,0,.9385-.1752l.1045.4414a2.7433,2.7433,0,0,1-1.1279.21,1.5735,1.5735,0,0,1-1.666-1.7085,1.645,1.645,0,0,1,1.59-1.8281,1.436,1.436,0,0,1,1.4,1.5967,2.1577,2.1577,0,0,1-.0215.2871Zm1.8067-.4409a.8775.8775,0,0,0-.8545-1.0015,1.0212,1.0212,0,0,0-.9453,1.0015Z" transform="translate(-20.4101 -20.2923)" fill="#231f20"/>
      <path d="M427.3367,115.6132l.4483,1.7227c.0976.3784.1884.7285.2519,1.0786h.02c.0772-.3432.19-.7075.3018-1.0713l.5527-1.73h.5186l.5254,1.6949c.1259.4062.2236.7632.3007,1.1064h.0215a10.0628,10.0628,0,0,1,.2588-1.1l.4834-1.7017h.6094l-1.0928,3.39h-.56l-.5176-1.6177a11.2792,11.2792,0,0,1-.3018-1.1137h-.0136a10.02,10.02,0,0,1-.3086,1.1206l-.5459,1.6108h-.5606l-1.0224-3.39Z" transform="translate(-20.4101 -20.2923)" fill="#231f20"/>
      <path d="M434.0926,119.0029l-.05-.4272h-.0205a1.2642,1.2642,0,0,1-1.0371.5043.966.966,0,0,1-1.0362-.9736c0-.8193.7285-1.2676,2.0381-1.2607v-.07a.699.699,0,0,0-.77-.7846,1.6881,1.6881,0,0,0-.8828.2524l-.14-.4062a2.1036,2.1036,0,0,1,1.1133-.3013c1.0371,0,1.2891.7075,1.2891,1.3867V118.19a4.7754,4.7754,0,0,0,.0557.8125Zm-.0918-1.73c-.6719-.0141-1.4356.105-1.4356.7637a.5454.5454,0,0,0,.5811.5879.8447.8447,0,0,0,.82-.5669.6617.6617,0,0,0,.0342-.1963Z" transform="translate(-20.4101 -20.2923)" fill="#231f20"/>
      <path d="M435.59,116.6709c0-.3994-.0079-.7427-.0284-1.0577H436.1l.0215.6651h.0273a1.0173,1.0173,0,0,1,.9385-.7422.6663.6663,0,0,1,.1758.021v.5811a.9491.9491,0,0,0-.211-.021.8651.8651,0,0,0-.8261.7915,1.765,1.765,0,0,0-.0283.2871v1.8071H435.59Z" transform="translate(-20.4101 -20.2923)" fill="#231f20"/>
      <path d="M440.7352,114.03v4.0972c0,.3013.0078.6445.0283.8755H440.21l-.0274-.5884h-.0146a1.252,1.252,0,0,1-1.1553.6655,1.5451,1.5451,0,0,1-1.4492-1.7231,1.6209,1.6209,0,0,1,1.5195-1.8208,1.1334,1.1334,0,0,1,1.0225.5181h.0137V114.03Zm-.6162,2.9624a1.11,1.11,0,0,0-.0274-.2587.9071.9071,0,0,0-.89-.7144c-.6377,0-1.0157.56-1.0157,1.31,0,.6865.336,1.2534,1.001,1.2534a.9267.9267,0,0,0,.9043-.7354,1.0942,1.0942,0,0,0,.0274-.2661Z" transform="translate(-20.4101 -20.2923)" fill="#231f20"/>
    </g>
    <path d="M123.6237,158.3144" transform="translate(-20.4101 -20.2923)" fill="none"/>
    <path d="M72.2669,158.3144" transform="translate(-20.4101 -20.2923)" fill="none"/>
    <path d="M174.6334,158.3144" transform="translate(-20.4101 -20.2923)" fill="none"/>
    <path d="M123.2767,158.3144" transform="translate(-20.4101 -20.2923)" fill="none"/>
    <g>
      <line x1="51.5098" y1="138.022" x2="102.3243" y2="138.022" fill="none" stroke="#231f20" stroke-miterlimit="10" stroke-width="0.5"/>
      <polygon points="100.668 140.067 100.326 139.701 102.132 138.023 100.326 136.344 100.668 135.978 102.867 138.023 100.668 140.067" fill="#231f20"/>
    </g>
    <g>
      <line x1="102.9118" y1="138.022" x2="153.7263" y2="138.022" fill="none" stroke="#231f20" stroke-miterlimit="10" stroke-width="0.5"/>
      <polygon points="152.07 140.067 151.728 139.701 153.534 138.023 151.728 136.344 152.07 135.978 154.269 138.023 152.07 140.067" fill="#231f20"/>
    </g>
    <g>
      <line x1="154.2233" y1="138.022" x2="205.0379" y2="138.022" fill="none" stroke="#231f20" stroke-miterlimit="10" stroke-width="0.5"/>
      <polygon points="203.381 140.067 203.04 139.701 204.846 138.023 203.04 136.344 203.381 135.978 205.58 138.023 203.381 140.067" fill="#231f20"/>
    </g>
    <g>
      <line x1="205.25" y1="138.022" x2="256.0646" y2="138.022" fill="none" stroke="#231f20" stroke-miterlimit="10" stroke-width="0.5"/>
      <polygon points="254.408 140.067 254.067 139.701 255.873 138.023 254.067 136.344 254.408 135.978 256.607 138.023 254.408 140.067" fill="#231f20"/>
    </g>
    <g>
      <line x1="256.6068" y1="138.022" x2="307.4213" y2="138.022" fill="none" stroke="#231f20" stroke-miterlimit="10" stroke-width="0.5"/>
      <polygon points="305.765 140.067 305.424 139.701 307.229 138.023 305.424 136.344 305.765 135.978 307.964 138.023 305.765 140.067" fill="#231f20"/>
    </g>
    <g>
      <line x1="282.2852" y1="138.022" x2="333.8566" y2="138.022" fill="none" stroke="#231f20" stroke-miterlimit="10" stroke-width="0.5"/>
      <polygon points="332.2 140.067 331.859 139.701 333.665 138.023 331.859 136.344 332.2 135.978 334.399 138.023 332.2 140.067" fill="#231f20"/>
    </g>
    <g>
      <polyline points="116.68 96.809 123.197 96.809 123.197 130.687" fill="none" stroke="#231f20" stroke-miterlimit="10"/>
      <polygon points="119.956 129.739 123.197 135.352 126.438 129.739 119.956 129.739" fill="#231f20"/>
    </g>
    <g>
      <polyline points="130.691 135.352 130.691 96.809 134.116 96.809" fill="none" stroke="#231f20" stroke-miterlimit="10"/>
      <polygon points="133.168 100.05 138.781 96.809 133.168 93.568 133.168 100.05" fill="#231f20"/>
    </g>
    <g>
      <polyline points="244.643 96.796 251.16 96.796 251.16 130.675" fill="none" stroke="#231f20" stroke-miterlimit="10"/>
      <polygon points="247.919 129.726 251.16 135.339 254.402 129.726 247.919 129.726" fill="#231f20"/>
    </g>
    <g>
      <polyline points="257.458 47.039 257.458 90.39 262.293 90.39" fill="none" stroke="#231f20" stroke-miterlimit="10"/>
      <polygon points="261.345 93.631 266.958 90.39 261.345 87.149 261.345 93.631" fill="#231f20"/>
    </g>
    <g>
      <polyline points="409.851 108.065 409.851 160.382 157.275 160.382 18.5 160.382 18.5 119.473" fill="none" stroke="#c1444b" stroke-miterlimit="10"/>
      <polygon points="21.741 120.422 18.5 114.809 15.259 120.422 21.741 120.422" fill="#c1444b"/>
    </g>
    <g>
      <line x1="157.2753" y1="119.4733" x2="157.2753" y2="160.3818" fill="none" stroke="#c1444b" stroke-miterlimit="10"/>
      <polygon points="154.034 120.422 157.275 114.809 160.516 120.422 154.034 120.422" fill="#c1444b"/>
    </g>
    <rect x="51.8595" y="135.9773" width="282.9046" height="4.0899" fill="none" stroke="#231f20" stroke-miterlimit="10"/>
    <g>
      <path d="M35.512,117.018H32.63v2.6734h3.2124v.8032h-4.17V113.08h4.0049v.8032H32.63v2.3432H35.512Z" transform="translate(-20.4101 -20.2923)" fill="#231f20"/>
      <path d="M37.5027,115.17l.7588,1.144c.1983.2969.3633.5723.5391.8692h.0332c.1758-.3189.352-.5943.5278-.88L40.11,115.17h1.0454L39.34,117.7441l1.8706,2.7505H40.11l-.7808-1.1992c-.209-.3081-.3852-.605-.5723-.9243h-.0219c-.1758.3193-.3628.6054-.5611.9243l-.77,1.1992H36.3362l1.8926-2.7173L36.4241,115.17Z" transform="translate(-20.4101 -20.2923)" fill="#231f20"/>
      <path d="M43.9373,114.2456h-.022l-1.2431.6714-.187-.7373,1.5625-.836h.8252v7.1509h-.9356Z" transform="translate(-20.4101 -20.2923)" fill="#231f20"/>
    </g>
    <g>
      <path d="M174.2874,117.018h-2.8823v2.6734h3.2124v.8032h-4.17V113.08h4.0049v.8032h-3.0474v2.3432h2.8823Z" transform="translate(-20.4101 -20.2923)" fill="#231f20"/>
      <path d="M176.2781,115.17l.7588,1.144c.1983.2969.3633.5723.5391.8692h.0332c.1758-.3189.352-.5943.5278-.88l.7481-1.1333h1.0454l-1.8155,2.5742,1.8707,2.7505h-1.1006l-.7808-1.1992c-.209-.3081-.3852-.605-.5723-.9243H177.51c-.1758.3193-.3628.6054-.5611.9243l-.77,1.1992h-1.0674l1.8926-2.7173L175.2,115.17Z" transform="translate(-20.4101 -20.2923)" fill="#231f20"/>
      <path d="M180.6116,120.4946V119.9l.7593-.7369c1.8262-1.7382,2.6514-2.6626,2.6621-3.7407a1.2755,1.2755,0,0,0-1.4189-1.397,2.4365,2.4365,0,0,0-1.5186.605l-.3081-.6821a3.1383,3.1383,0,0,1,2.0244-.7261,2.012,2.012,0,0,1,2.1895,2.0791c0,1.32-.9571,2.3877-2.4644,3.84l-.5722.5278v.022h3.2124v.8032Z" transform="translate(-20.4101 -20.2923)" fill="#231f20"/>
    </g>
    <g>
      <path d="M109.2532,116.5566h-2.8823V119.23h3.2124v.8033h-4.17v-7.4151h4.0049v.8033h-3.0474v2.3432h2.8823Z" transform="translate(-20.4101 -20.2923)" fill="#231f20"/>
      <path d="M110.7928,116.1494c0-.55-.0112-1.001-.044-1.4409h.8579l.0552.88h.022a1.9583,1.9583,0,0,1,1.76-1.0009c.7369,0,1.8814.44,1.8814,2.2661v3.18h-.9683v-3.0694c0-.8584-.3188-1.5732-1.2324-1.5732a1.42,1.42,0,0,0-1.3638,1.4409v3.2017h-.9682Z" transform="translate(-20.4101 -20.2923)" fill="#231f20"/>
      <path d="M117.1287,114.7085l1.0449,2.9922a13.6,13.6,0,0,1,.4292,1.3642h.0332c.1206-.44.2749-.88.4507-1.3642l1.0342-2.9922h1.0122l-2.09,5.3247h-.9238l-2.0245-5.3247Z" transform="translate(-20.4101 -20.2923)" fill="#231f20"/>
    </g>
    <g>
      <path d="M237.8939,116.5566h-2.8824V119.23h3.2124v.8033h-4.17v-7.4151h4.0049v.8033h-3.0474v2.3432h2.8824Z" transform="translate(-20.4101 -20.2923)" fill="#231f20"/>
      <path d="M239.4334,116.1494c0-.55-.0112-1.001-.0439-1.4409h.8579l.0551.88h.022a1.9584,1.9584,0,0,1,1.76-1.0009c.7368,0,1.8813.44,1.8813,2.2661v3.18h-.9682v-3.0694c0-.8584-.3189-1.5732-1.2325-1.5732a1.4193,1.4193,0,0,0-1.3637,1.4409v3.2017h-.9683Z" transform="translate(-20.4101 -20.2923)" fill="#231f20"/>
      <path d="M245.7693,114.7085l1.045,2.9922a13.652,13.652,0,0,1,.4292,1.3642h.0332c.1206-.44.2749-.88.4507-1.3642l1.0341-2.9922h1.0122l-2.09,5.3247H246.76l-2.0244-5.3247Z" transform="translate(-20.4101 -20.2923)" fill="#231f20"/>
    </g>
    <path d="M297.22,117.353l-.7695,2.3325h-.99l2.5185-7.415h1.1553l2.53,7.415h-1.0225l-.792-2.3325Zm2.4317-.7481-.7266-2.1342c-.165-.4839-.2744-.9239-.3847-1.3531h-.0225c-.1094.44-.2305.8912-.374,1.3423l-.7256,2.145Z" transform="translate(-20.4101 -20.2923)" fill="#231f20"/>
    <path d="M374.5565,117.1284l-.77,2.3325h-.99l2.5185-7.415h1.1553l2.53,7.415h-1.0225l-.792-2.3325Zm2.4316-.7481-.7266-2.1342c-.165-.4839-.2744-.9239-.3847-1.3531h-.0225c-.1094.44-.2305.8911-.374,1.3423l-.7256,2.145Z" transform="translate(-20.4101 -20.2923)" fill="#231f20"/>
    <g>
      <path d="M295.0154,38.7675h-2.8828v2.6734h3.2129v.8032h-4.17v-7.415h4.0049v.8032h-3.0479v2.3433h2.8828Z" transform="translate(-20.4101 -20.2923)" fill="#231f20"/>
      <path d="M296.5545,38.36c0-.55-.0107-1.001-.0439-1.4409h.8584l.0546.88h.0225a1.9574,1.9574,0,0,1,1.76-1.001c.7373,0,1.8818.44,1.8818,2.2661v3.18h-.9687V39.1748c0-.8584-.3184-1.5733-1.2325-1.5733a1.4176,1.4176,0,0,0-1.3632,1.4409v3.2017h-.9688Z" transform="translate(-20.4101 -20.2923)" fill="#231f20"/>
      <path d="M302.89,36.9194l1.045,2.9922a13.641,13.641,0,0,1,.43,1.3642h.0333c.12-.44.2744-.88.45-1.3642l1.0342-2.9922h1.0127l-2.0908,5.3247h-.9238l-2.0244-5.3247Z" transform="translate(-20.4101 -20.2923)" fill="#231f20"/>
      <path d="M287.87,47.809a7.2581,7.2581,0,0,0-1.3857,4.5,7.42,7.42,0,0,0,1.3857,4.4664h-.7588A7.11,7.11,0,0,1,285.67,52.309a7.2668,7.2668,0,0,1,1.4414-4.5Z" transform="translate(-20.4101 -20.2923)" fill="#231f20"/>
      <path d="M290.0594,48.59V50.12h1.3857v.7368h-1.3857V53.728c0,.66.1865,1.0342.7256,1.0342a2.1732,2.1732,0,0,0,.5615-.0659l.0439.726a2.37,2.37,0,0,1-.8584.1319,1.3427,1.3427,0,0,1-1.0449-.4068,1.9711,1.9711,0,0,1-.374-1.3862V50.8564h-.8252V50.12h.8252V48.8432Z" transform="translate(-20.4101 -20.2923)" fill="#231f20"/>
      <path d="M292.534,51.7807c0-.6269-.0107-1.166-.044-1.6611h.8477l.0322,1.0449h.044a1.5981,1.5981,0,0,1,1.4746-1.166,1.0476,1.0476,0,0,1,.2754.0332v.9131a1.4591,1.4591,0,0,0-.33-.0332,1.3589,1.3589,0,0,0-1.2988,1.2432,2.7842,2.7842,0,0,0-.044.4511v2.8384h-.957Z" transform="translate(-20.4101 -20.2923)" fill="#231f20"/>
      <path d="M299.0242,55.4443l-.0771-.6709h-.0322a1.9837,1.9837,0,0,1-1.629.792,1.5169,1.5169,0,0,1-1.6279-1.5293c0-1.2871,1.1445-1.9912,3.2012-1.98v-.11a1.0976,1.0976,0,0,0-1.21-1.232,2.65,2.65,0,0,0-1.3857.396l-.2207-.6382a3.3057,3.3057,0,0,1,1.75-.4731c1.6279,0,2.0234,1.1113,2.0234,2.1782v1.9912a7.4536,7.4536,0,0,0,.0889,1.2764Zm-.1426-2.7173c-1.0566-.022-2.2558.1651-2.2558,1.1992a.857.857,0,0,0,.9131.9239,1.3261,1.3261,0,0,0,1.2881-.8911,1.0357,1.0357,0,0,0,.0546-.3082Z" transform="translate(-20.4101 -20.2923)" fill="#231f20"/>
      <path d="M302.4559,48.6235a.6.6,0,0,1-1.1993,0,.59.59,0,0,1,.6055-.6055A.5745.5745,0,0,1,302.4559,48.6235Zm-1.0782,6.8208V50.12h.9688v5.3247Z" transform="translate(-20.4101 -20.2923)" fill="#231f20"/>
      <path d="M303.952,51.5605c0-.55-.0118-1.001-.044-1.4409h.8574l.0557.88h.0215a1.9589,1.9589,0,0,1,1.7607-1.001c.7364,0,1.8809.44,1.8809,2.2661v3.18h-.9678V52.375c0-.8584-.3193-1.5733-1.2324-1.5733a1.3757,1.3757,0,0,0-1.2979.99,1.39,1.39,0,0,0-.0664.4506v3.2017h-.9677Z" transform="translate(-20.4101 -20.2923)" fill="#231f20"/>
      <path d="M309.4734,56.7754a7.4432,7.4432,0,0,0,1.3868-4.5,7.2949,7.2949,0,0,0-1.3868-4.4668h.7481a7.0085,7.0085,0,0,1,1.4414,4.4781,7.14,7.14,0,0,1-1.4414,4.4883Z" transform="translate(-20.4101 -20.2923)" fill="#231f20"/>
    </g>
    <g>
      <path d="M372.2313,38.7671h-2.8829V41.44h3.2129v.8032h-4.17v-7.415h4.0049v.8032h-3.0479v2.3433h2.8829Z" transform="translate(-20.4101 -20.2923)" fill="#231f20"/>
      <path d="M373.77,38.36c0-.55-.0107-1.0009-.0439-1.4409h.8584l.0547.88h.0224a1.9574,1.9574,0,0,1,1.76-1.001c.7373,0,1.8818.44,1.8818,2.2661v3.18h-.9687V39.1743c0-.8584-.3184-1.5733-1.2324-1.5733a1.3756,1.3756,0,0,0-1.2979.99,1.3913,1.3913,0,0,0-.0654.4507v3.2016H373.77Z" transform="translate(-20.4101 -20.2923)" fill="#231f20"/>
      <path d="M380.1063,36.9189l1.0449,2.9922a13.662,13.662,0,0,1,.43,1.3643h.0332c.12-.44.2744-.88.45-1.3643l1.0341-2.9922h1.0127L382.02,42.2436h-.9238l-2.0244-5.3247Z" transform="translate(-20.4101 -20.2923)" fill="#231f20"/>
      <path d="M367.1268,47.8086a7.2517,7.2517,0,0,0-1.3868,4.5,7.4125,7.4125,0,0,0,1.3868,4.4663h-.7588a7.109,7.109,0,0,1-1.4414-4.4663,7.2589,7.2589,0,0,1,1.4414-4.5Z" transform="translate(-20.4101 -20.2923)" fill="#231f20"/>
      <path d="M369.3152,48.59v1.5293h1.3868v.7368h-1.3868v2.8716c0,.66.1875,1.0342.7266,1.0342a2.1651,2.1651,0,0,0,.5606-.0659l.0439.726a2.36,2.36,0,0,1-.8574.1319,1.3447,1.3447,0,0,1-1.0459-.4068,1.9761,1.9761,0,0,1-.374-1.3862V50.8559h-.8243v-.7368h.8243V48.8427Z" transform="translate(-20.4101 -20.2923)" fill="#231f20"/>
      <path d="M372.2635,52.9575a1.7052,1.7052,0,0,0,1.8262,1.8481,3.5017,3.5017,0,0,0,1.4736-.2749l.165.6929a4.3044,4.3044,0,0,1-1.77.33,2.473,2.473,0,0,1-2.6191-2.6841,2.5852,2.5852,0,0,1,2.498-2.8716,2.2558,2.2558,0,0,1,2.2,2.5083,3.6834,3.6834,0,0,1-.0332.4512Zm2.8379-.6934a1.3782,1.3782,0,0,0-1.3418-1.5727,1.6042,1.6042,0,0,0-1.4854,1.5727Z" transform="translate(-20.4101 -20.2923)" fill="#231f20"/>
      <path d="M377.1033,54.4536a2.5378,2.5378,0,0,0,1.2764.3852c.7041,0,1.0342-.352,1.0342-.792,0-.4624-.2754-.7153-.99-.9795-.957-.3408-1.4082-.8691-1.4082-1.5073a1.6423,1.6423,0,0,1,1.837-1.562,2.6558,2.6558,0,0,1,1.31.33l-.2422.7041a2.0723,2.0723,0,0,0-1.0888-.3081c-.5723,0-.8916.33-.8916.7261,0,.44.3193.6381,1.0127.9023.9238.3521,1.3964.814,1.3964,1.606,0,.935-.7255,1.5952-1.9912,1.5952a3.04,3.04,0,0,1-1.4961-.3628Z" transform="translate(-20.4101 -20.2923)" fill="#231f20"/>
      <path d="M382.7576,48.59v1.5293h1.3858v.7368h-1.3858v2.8716c0,.66.1865,1.0342.7256,1.0342a2.1732,2.1732,0,0,0,.5615-.0659l.044.726a2.37,2.37,0,0,1-.8584.1319,1.3424,1.3424,0,0,1-1.0449-.4068,1.9711,1.9711,0,0,1-.3741-1.3862V50.8559h-.8252v-.7368h.8252V48.8427Z" transform="translate(-20.4101 -20.2923)" fill="#231f20"/>
      <path d="M384.6492,56.7749a7.45,7.45,0,0,0,1.3858-4.5,7.2943,7.2943,0,0,0-1.3858-4.4668h.7481a7.0082,7.0082,0,0,1,1.44,4.478,7.1406,7.1406,0,0,1-1.44,4.4883Z" transform="translate(-20.4101 -20.2923)" fill="#231f20"/>
    </g>
  </g>
  <g>
    <path d="M191.826,166.729c-.04-.7515-.0879-1.6553-.08-2.3267h-.0239c-.1841.6318-.4082,1.3032-.68,2.0469l-.9517,2.6142h-.5278l-.8711-2.5664c-.2559-.76-.4722-1.455-.624-2.0947h-.0157c-.0161.6714-.0561,1.5752-.104,2.3828l-.144,2.3106h-.6636l.3755-5.3892h.8877l.9194,2.6069c.2242.6636.4078,1.2549.544,1.815h.0239c.1358-.544.3277-1.1358.5674-1.815l.9595-2.6069h.8877l.3359,5.3892h-.68Z" transform="translate(-20.4101 -20.2923)" fill="#231f20"/>
    <path d="M194.1326,167.2885a1.24,1.24,0,0,0,1.3272,1.3433,2.5453,2.5453,0,0,0,1.0713-.2l.12.5034a3.1288,3.1288,0,0,1-1.2871.24,1.7974,1.7974,0,0,1-1.9033-1.9511,1.8788,1.8788,0,0,1,1.8149-2.0869,1.6393,1.6393,0,0,1,1.5991,1.8232,2.5883,2.5883,0,0,1-.0239.3276Zm2.0625-.5034a1.0015,1.0015,0,0,0-.9751-1.1435,1.1663,1.1663,0,0,0-1.08,1.1435Z" transform="translate(-20.4101 -20.2923)" fill="#231f20"/>
    <path d="M197.7483,166.2734c0-.4-.0078-.7275-.0317-1.0478h.6157l.0318.624h.0239a1.3338,1.3338,0,0,1,1.2153-.7119,1.1441,1.1441,0,0,1,1.0957.7758h.0157a1.598,1.598,0,0,1,.4321-.5039,1.3215,1.3215,0,0,1,.855-.2719c.5117,0,1.2715.3359,1.2715,1.6792v2.2788h-.6875v-2.1909c0-.7437-.2715-1.1915-.84-1.1915a.9109.9109,0,0,0-.831.64,1.1515,1.1515,0,0,0-.0562.352v2.3907h-.6875v-2.3189c0-.6157-.272-1.0635-.8076-1.0635a1.0478,1.0478,0,0,0-.9273,1.0474v2.335h-.688Z" transform="translate(-20.4101 -20.2923)" fill="#231f20"/>
    <path d="M207.9227,167.1289a1.8911,1.8911,0,0,1-1.9268,2.0547,1.84,1.84,0,0,1-1.8555-1.9908,1.89,1.89,0,0,1,1.919-2.0551A1.833,1.833,0,0,1,207.9227,167.1289Zm-3.07.04c0,.8472.4873,1.4868,1.1748,1.4868.6718,0,1.1757-.6313,1.1757-1.5029,0-.6558-.3281-1.4873-1.1591-1.4873S204.8524,166.4331,204.8524,167.1689Z" transform="translate(-20.4101 -20.2923)" fill="#231f20"/>
    <path d="M208.8123,166.4331c0-.4556-.0088-.8477-.0322-1.2075h.6152l.0244.76h.0323a1.1611,1.1611,0,0,1,1.0713-.8476.7594.7594,0,0,1,.2.0244v.6636a1.0511,1.0511,0,0,0-.24-.024.9861.9861,0,0,0-.9433.9033,1.9146,1.9146,0,0,0-.0323.3277v2.063h-.6953Z" transform="translate(-20.4101 -20.2923)" fill="#231f20"/>
    <path d="M211.8846,165.2256l.8476,2.2871c.0879.2558.1836.56.2471.7915h.0166c.0713-.232.1514-.5279.2481-.8077l.7675-2.2709h.7432l-1.0557,2.7587a5.9,5.9,0,0,1-1.3271,2.4229,1.91,1.91,0,0,1-.8633.4556l-.1758-.5918a1.869,1.869,0,0,0,.6153-.3438,2.1309,2.1309,0,0,0,.5918-.7837.4962.4962,0,0,0,.0556-.1679.6018.6018,0,0,0-.0478-.1836l-1.4307-3.5664Z" transform="translate(-20.4101 -20.2923)" fill="#231f20"/>
    <path d="M216.5008,169.4155l2.2305-5.7969h.5439l-2.2393,5.7969Z" transform="translate(-20.4101 -20.2923)" fill="#231f20"/>
    <path d="M222.2527,163.7065v5.3892h-.6962v-5.3892Z" transform="translate(-20.4101 -20.2923)" fill="#231f20"/>
    <path d="M223.5252,166.2734c0-.4-.0088-.7275-.0322-1.0478h.624l.04.64h.0157a1.4225,1.4225,0,0,1,1.2793-.7275c.5351,0,1.3671.32,1.3671,1.6474v2.3106h-.7041v-2.231c0-.6235-.2314-1.1431-.8955-1.1431a1,1,0,0,0-.9433.72,1.0283,1.0283,0,0,0-.0479.3276v2.3267h-.7031Z" transform="translate(-20.4101 -20.2923)" fill="#231f20"/>
    <path d="M228.0369,169.0957v-3.334h-.5429v-.5361h.5429v-.1836a1.8237,1.8237,0,0,1,.4483-1.3516,1.3445,1.3445,0,0,1,.9433-.3594,1.6268,1.6268,0,0,1,.6.1118l-.0957.5435a1.0551,1.0551,0,0,0-.4482-.0879c-.6,0-.751.5278-.751,1.12v.2076h.9356v.5361h-.9356v3.334Z" transform="translate(-20.4101 -20.2923)" fill="#231f20"/>
    <path d="M233.699,167.1289a1.8911,1.8911,0,0,1-1.9267,2.0547,1.84,1.84,0,0,1-1.8555-1.9908,1.89,1.89,0,0,1,1.919-2.0551A1.8329,1.8329,0,0,1,233.699,167.1289Zm-3.07.04c0,.8472.4873,1.4868,1.1748,1.4868.6719,0,1.1758-.6313,1.1758-1.5029,0-.6558-.3281-1.4873-1.1592-1.4873S230.6287,166.4331,230.6287,167.1689Z" transform="translate(-20.4101 -20.2923)" fill="#231f20"/>
    <path d="M234.5887,166.4331c0-.4556-.0078-.8477-.0322-1.2075h.6152l.0244.76h.0322a1.1612,1.1612,0,0,1,1.0713-.8476.7466.7466,0,0,1,.1992.0244v.6636a1.0365,1.0365,0,0,0-.2392-.024.9862.9862,0,0,0-.9434.9033,1.9152,1.9152,0,0,0-.0322.3277v2.063h-.6953Z" transform="translate(-20.4101 -20.2923)" fill="#231f20"/>
    <path d="M237.2371,166.2734c0-.4-.0078-.7275-.0322-1.0478h.6152l.0323.624h.0244a1.3324,1.3324,0,0,1,1.2148-.7119,1.1438,1.1438,0,0,1,1.0957.7758h.0156a1.6112,1.6112,0,0,1,.4317-.5039,1.3238,1.3238,0,0,1,.8554-.2719c.5118,0,1.2715.3359,1.2715,1.6792v2.2788h-.6875v-2.1909c0-.7437-.2715-1.1915-.84-1.1915a.9111.9111,0,0,0-.8311.64,1.1552,1.1552,0,0,0-.0556.352v2.3907h-.6885v-2.3189c0-.6157-.2715-1.0635-.8066-1.0635a1.0477,1.0477,0,0,0-.9278,1.0474v2.335h-.6875Z" transform="translate(-20.4101 -20.2923)" fill="#231f20"/>
    <path d="M246.0516,169.0957l-.0557-.4878h-.0244a1.442,1.442,0,0,1-1.1836.5757,1.1021,1.1021,0,0,1-1.1826-1.1114c0-.9355.831-1.4472,2.3262-1.4394v-.08a.7979.7979,0,0,0-.88-.8955,1.9271,1.9271,0,0,0-1.0069.2876l-.16-.4639a2.4083,2.4083,0,0,1,1.2715-.3437c1.1836,0,1.4707.8076,1.4707,1.5835v1.4467a5.4649,5.4649,0,0,0,.0644.9278Zm-.1035-1.9751c-.7676-.0157-1.64.12-1.64.8716a.6227.6227,0,0,0,.6641.6718.9638.9638,0,0,0,.9355-.6479.7485.7485,0,0,0,.04-.2237Z" transform="translate(-20.4101 -20.2923)" fill="#231f20"/>
    <path d="M248.58,164.1142v1.1114h1.0068v.5361H248.58v2.0869c0,.48.1357.7515.5273.7515a1.5409,1.5409,0,0,0,.4073-.0484l.0322.5279a1.7165,1.7165,0,0,1-.6231.0961.9749.9749,0,0,1-.76-.2959,1.4321,1.4321,0,0,1-.2725-1.0073v-2.1108h-.6v-.5361h.6v-.9273Z" transform="translate(-20.4101 -20.2923)" fill="#231f20"/>
    <path d="M251.1639,164.1386a.4356.4356,0,0,1-.8711,0,.4285.4285,0,0,1,.4394-.44A.4177.4177,0,0,1,251.1639,164.1386Zm-.7832,4.9571v-3.87h.7031v3.87Z" transform="translate(-20.4101 -20.2923)" fill="#231f20"/>
    <path d="M255.7547,167.1289a1.8911,1.8911,0,0,1-1.9268,2.0547,1.84,1.84,0,0,1-1.8554-1.9908,1.89,1.89,0,0,1,1.9189-2.0551A1.833,1.833,0,0,1,255.7547,167.1289Zm-3.07.04c0,.8472.4873,1.4868,1.1748,1.4868.6719,0,1.1758-.6313,1.1758-1.5029,0-.6558-.3282-1.4873-1.1592-1.4873S252.6844,166.4331,252.6844,167.1689Z" transform="translate(-20.4101 -20.2923)" fill="#231f20"/>
    <path d="M256.6443,166.2734c0-.4-.0087-.7275-.0322-1.0478h.624l.04.64h.0156a1.4227,1.4227,0,0,1,1.2793-.7275c.5352,0,1.3672.32,1.3672,1.6474v2.3106h-.7041v-2.231c0-.6235-.2315-1.1431-.8955-1.1431a1,1,0,0,0-.9434.72,1.0313,1.0313,0,0,0-.0478.3276v2.3267h-.7032Z" transform="translate(-20.4101 -20.2923)" fill="#231f20"/>
    <path d="M262.8514,169.0957v-3.334h-.543v-.5361h.543v-.1675a1.749,1.749,0,0,1,.5439-1.3355,1.8424,1.8424,0,0,1,1.2393-.3916,2.4791,2.4791,0,0,1,1.1592.2559v5.5088h-.6954v-5.1172a1.2449,1.2449,0,0,0-.5751-.104c-.7364,0-.9756.5356-.9756,1.16v.1915h.9033v.5361h-.9033v3.334Z" transform="translate(-20.4101 -20.2923)" fill="#231f20"/>
    <path d="M270.4656,167.1289a1.8911,1.8911,0,0,1-1.9267,2.0547,1.84,1.84,0,0,1-1.8555-1.9908,1.89,1.89,0,0,1,1.919-2.0551A1.8329,1.8329,0,0,1,270.4656,167.1289Zm-3.07.04c0,.8472.4873,1.4868,1.1748,1.4868.6719,0,1.1758-.6313,1.1758-1.5029,0-.6558-.3281-1.4873-1.1592-1.4873S267.3953,166.4331,267.3953,167.1689Z" transform="translate(-20.4101 -20.2923)" fill="#231f20"/>
    <path d="M271.5789,165.2256l.5117,1.9672c.1123.4317.2159.8316.2881,1.231h.0244c.0879-.3916.2159-.8071.3438-1.2231l.6308-1.9751h.5918l.6,1.935c.1446.4639.2559.8716.3438,1.2632h.0244a11.5315,11.5315,0,0,1,.2959-1.2549l.5518-1.9433h.6953l-1.2471,3.87h-.64l-.5918-1.8472a12.8565,12.8565,0,0,1-.3438-1.271h-.0156a11.45,11.45,0,0,1-.3525,1.2793l-.6231,1.8389h-.64l-1.168-3.87Z" transform="translate(-20.4101 -20.2923)" fill="#231f20"/>
  </g>
</svg>
