<?xml version="1.0" encoding="utf-8" standalone="no"?>
<!DOCTYPE svg PUBLIC "-//W3C//DTD SVG 1.1//EN"
  "http://www.w3.org/Graphics/SVG/1.1/DTD/svg11.dtd">
<!-- Created with matplotlib (https://matplotlib.org/) -->
<svg height="288pt" version="1.1" viewBox="0 0 432 288" width="432pt" xmlns="http://www.w3.org/2000/svg" xmlns:xlink="http://www.w3.org/1999/xlink">
 <defs>
  <style type="text/css">
*{stroke-linecap:butt;stroke-linejoin:round;}
  </style>
 </defs>
 <g id="figure_1">
  <g id="patch_1">
   <path d="M 0 288 
L 432 288 
L 432 0 
L 0 0 
z
" style="fill:#ffffff;"/>
  </g>
  <g id="axes_1">
   <g id="patch_2">
    <path d="M 54 252 
L 388.8 252 
L 388.8 34.56 
L 54 34.56 
z
" style="fill:#eaeaf2;"/>
   </g>
   <g id="matplotlib.axis_1">
    <g id="xtick_1">
     <g id="line2d_1">
      <path clip-path="url(#pbad2f886d3)" d="M 69.218182 252 
L 69.218182 34.56 
" style="fill:none;stroke:#ffffff;stroke-linecap:round;"/>
     </g>
     <g id="text_1">
      <!-- 0.0 -->
      <defs>
       <path d="M 4.15625 35.296875 
Q 4.15625 48 6.765625 55.734375 
Q 9.375 63.484375 14.515625 67.671875 
Q 19.671875 71.875 27.484375 71.875 
Q 33.25 71.875 37.59375 69.546875 
Q 41.9375 67.234375 44.765625 62.859375 
Q 47.609375 58.5 49.21875 52.21875 
Q 50.828125 45.953125 50.828125 35.296875 
Q 50.828125 22.703125 48.234375 14.96875 
Q 45.65625 7.234375 40.5 3 
Q 35.359375 -1.21875 27.484375 -1.21875 
Q 17.140625 -1.21875 11.234375 6.203125 
Q 4.15625 15.140625 4.15625 35.296875 
z
M 13.1875 35.296875 
Q 13.1875 17.671875 17.3125 11.828125 
Q 21.4375 6 27.484375 6 
Q 33.546875 6 37.671875 11.859375 
Q 41.796875 17.71875 41.796875 35.296875 
Q 41.796875 52.984375 37.671875 58.78125 
Q 33.546875 64.59375 27.390625 64.59375 
Q 21.34375 64.59375 17.71875 59.46875 
Q 13.1875 52.9375 13.1875 35.296875 
z
" id="ArialMT-48"/>
       <path d="M 9.078125 0 
L 9.078125 10.015625 
L 19.09375 10.015625 
L 19.09375 0 
z
" id="ArialMT-46"/>
      </defs>
      <g style="fill:#262626;" transform="translate(61.573182 269.373594)scale(0.11 -0.11)">
       <use xlink:href="#ArialMT-48"/>
       <use x="55.615234" xlink:href="#ArialMT-46"/>
       <use x="83.398438" xlink:href="#ArialMT-48"/>
      </g>
     </g>
    </g>
    <g id="xtick_2">
     <g id="line2d_2">
      <path clip-path="url(#pbad2f886d3)" d="M 113.673272 252 
L 113.673272 34.56 
" style="fill:none;stroke:#ffffff;stroke-linecap:round;"/>
     </g>
     <g id="text_2">
      <!-- 2.5 -->
      <defs>
       <path d="M 50.34375 8.453125 
L 50.34375 0 
L 3.03125 0 
Q 2.9375 3.171875 4.046875 6.109375 
Q 5.859375 10.9375 9.828125 15.625 
Q 13.8125 20.3125 21.34375 26.46875 
Q 33.015625 36.03125 37.109375 41.625 
Q 41.21875 47.21875 41.21875 52.203125 
Q 41.21875 57.421875 37.46875 61 
Q 33.734375 64.59375 27.734375 64.59375 
Q 21.390625 64.59375 17.578125 60.78125 
Q 13.765625 56.984375 13.71875 50.25 
L 4.6875 51.171875 
Q 5.609375 61.28125 11.65625 66.578125 
Q 17.71875 71.875 27.9375 71.875 
Q 38.234375 71.875 44.234375 66.15625 
Q 50.25 60.453125 50.25 52 
Q 50.25 47.703125 48.484375 43.546875 
Q 46.734375 39.40625 42.65625 34.8125 
Q 38.578125 30.21875 29.109375 22.21875 
Q 21.1875 15.578125 18.9375 13.203125 
Q 16.703125 10.84375 15.234375 8.453125 
z
" id="ArialMT-50"/>
       <path d="M 4.15625 18.75 
L 13.375 19.53125 
Q 14.40625 12.796875 18.140625 9.390625 
Q 21.875 6 27.15625 6 
Q 33.5 6 37.890625 10.78125 
Q 42.28125 15.578125 42.28125 23.484375 
Q 42.28125 31 38.0625 35.34375 
Q 33.84375 39.703125 27 39.703125 
Q 22.75 39.703125 19.328125 37.765625 
Q 15.921875 35.84375 13.96875 32.765625 
L 5.71875 33.84375 
L 12.640625 70.609375 
L 48.25 70.609375 
L 48.25 62.203125 
L 19.671875 62.203125 
L 15.828125 42.96875 
Q 22.265625 47.46875 29.34375 47.46875 
Q 38.71875 47.46875 45.15625 40.96875 
Q 51.609375 34.46875 51.609375 24.265625 
Q 51.609375 14.546875 45.953125 7.46875 
Q 39.0625 -1.21875 27.15625 -1.21875 
Q 17.390625 -1.21875 11.203125 4.25 
Q 5.03125 9.71875 4.15625 18.75 
z
" id="ArialMT-53"/>
      </defs>
      <g style="fill:#262626;" transform="translate(106.028272 269.373594)scale(0.11 -0.11)">
       <use xlink:href="#ArialMT-50"/>
       <use x="55.615234" xlink:href="#ArialMT-46"/>
       <use x="83.398438" xlink:href="#ArialMT-53"/>
      </g>
     </g>
    </g>
    <g id="xtick_3">
     <g id="line2d_3">
      <path clip-path="url(#pbad2f886d3)" d="M 158.128363 252 
L 158.128363 34.56 
" style="fill:none;stroke:#ffffff;stroke-linecap:round;"/>
     </g>
     <g id="text_3">
      <!-- 5.0 -->
      <g style="fill:#262626;" transform="translate(150.483363 269.373594)scale(0.11 -0.11)">
       <use xlink:href="#ArialMT-53"/>
       <use x="55.615234" xlink:href="#ArialMT-46"/>
       <use x="83.398438" xlink:href="#ArialMT-48"/>
      </g>
     </g>
    </g>
    <g id="xtick_4">
     <g id="line2d_4">
      <path clip-path="url(#pbad2f886d3)" d="M 202.583453 252 
L 202.583453 34.56 
" style="fill:none;stroke:#ffffff;stroke-linecap:round;"/>
     </g>
     <g id="text_4">
      <!-- 7.5 -->
      <defs>
       <path d="M 4.734375 62.203125 
L 4.734375 70.65625 
L 51.078125 70.65625 
L 51.078125 63.8125 
Q 44.234375 56.546875 37.515625 44.484375 
Q 30.8125 32.421875 27.15625 19.671875 
Q 24.515625 10.6875 23.78125 0 
L 14.75 0 
Q 14.890625 8.453125 18.0625 20.40625 
Q 21.234375 32.375 27.171875 43.484375 
Q 33.109375 54.59375 39.796875 62.203125 
z
" id="ArialMT-55"/>
      </defs>
      <g style="fill:#262626;" transform="translate(194.938453 269.373594)scale(0.11 -0.11)">
       <use xlink:href="#ArialMT-55"/>
       <use x="55.615234" xlink:href="#ArialMT-46"/>
       <use x="83.398438" xlink:href="#ArialMT-53"/>
      </g>
     </g>
    </g>
    <g id="xtick_5">
     <g id="line2d_5">
      <path clip-path="url(#pbad2f886d3)" d="M 247.038543 252 
L 247.038543 34.56 
" style="fill:none;stroke:#ffffff;stroke-linecap:round;"/>
     </g>
     <g id="text_5">
      <!-- 10.0 -->
      <defs>
       <path d="M 37.25 0 
L 28.46875 0 
L 28.46875 56 
Q 25.296875 52.984375 20.140625 49.953125 
Q 14.984375 46.921875 10.890625 45.40625 
L 10.890625 53.90625 
Q 18.265625 57.375 23.78125 62.296875 
Q 29.296875 67.234375 31.59375 71.875 
L 37.25 71.875 
z
" id="ArialMT-49"/>
      </defs>
      <g style="fill:#262626;" transform="translate(236.335028 269.373594)scale(0.11 -0.11)">
       <use xlink:href="#ArialMT-49"/>
       <use x="55.615234" xlink:href="#ArialMT-48"/>
       <use x="111.230469" xlink:href="#ArialMT-46"/>
       <use x="139.013672" xlink:href="#ArialMT-48"/>
      </g>
     </g>
    </g>
    <g id="xtick_6">
     <g id="line2d_6">
      <path clip-path="url(#pbad2f886d3)" d="M 291.493634 252 
L 291.493634 34.56 
" style="fill:none;stroke:#ffffff;stroke-linecap:round;"/>
     </g>
     <g id="text_6">
      <!-- 12.5 -->
      <g style="fill:#262626;" transform="translate(280.790118 269.373594)scale(0.11 -0.11)">
       <use xlink:href="#ArialMT-49"/>
       <use x="55.615234" xlink:href="#ArialMT-50"/>
       <use x="111.230469" xlink:href="#ArialMT-46"/>
       <use x="139.013672" xlink:href="#ArialMT-53"/>
      </g>
     </g>
    </g>
    <g id="xtick_7">
     <g id="line2d_7">
      <path clip-path="url(#pbad2f886d3)" d="M 335.948724 252 
L 335.948724 34.56 
" style="fill:none;stroke:#ffffff;stroke-linecap:round;"/>
     </g>
     <g id="text_7">
      <!-- 15.0 -->
      <g style="fill:#262626;" transform="translate(325.245209 269.373594)scale(0.11 -0.11)">
       <use xlink:href="#ArialMT-49"/>
       <use x="55.615234" xlink:href="#ArialMT-53"/>
       <use x="111.230469" xlink:href="#ArialMT-46"/>
       <use x="139.013672" xlink:href="#ArialMT-48"/>
      </g>
     </g>
    </g>
    <g id="xtick_8">
     <g id="line2d_8">
      <path clip-path="url(#pbad2f886d3)" d="M 380.403815 252 
L 380.403815 34.56 
" style="fill:none;stroke:#ffffff;stroke-linecap:round;"/>
     </g>
     <g id="text_8">
      <!-- 17.5 -->
      <g style="fill:#262626;" transform="translate(369.700299 269.373594)scale(0.11 -0.11)">
       <use xlink:href="#ArialMT-49"/>
       <use x="55.615234" xlink:href="#ArialMT-55"/>
       <use x="111.230469" xlink:href="#ArialMT-46"/>
       <use x="139.013672" xlink:href="#ArialMT-53"/>
      </g>
     </g>
    </g>
    <g id="text_9">
     <!-- d test -->
     <defs>
      <path d="M 40.234375 0 
L 40.234375 6.546875 
Q 35.296875 -1.171875 25.734375 -1.171875 
Q 19.53125 -1.171875 14.328125 2.25 
Q 9.125 5.671875 6.265625 11.796875 
Q 3.421875 17.921875 3.421875 25.875 
Q 3.421875 33.640625 6 39.96875 
Q 8.59375 46.296875 13.765625 49.65625 
Q 18.953125 53.03125 25.34375 53.03125 
Q 30.03125 53.03125 33.6875 51.046875 
Q 37.359375 49.078125 39.65625 45.90625 
L 39.65625 71.578125 
L 48.390625 71.578125 
L 48.390625 0 
z
M 12.453125 25.875 
Q 12.453125 15.921875 16.640625 10.984375 
Q 20.84375 6.0625 26.5625 6.0625 
Q 32.328125 6.0625 36.34375 10.765625 
Q 40.375 15.484375 40.375 25.140625 
Q 40.375 35.796875 36.265625 40.765625 
Q 32.171875 45.75 26.171875 45.75 
Q 20.3125 45.75 16.375 40.96875 
Q 12.453125 36.1875 12.453125 25.875 
z
" id="ArialMT-100"/>
      <path id="ArialMT-32"/>
      <path d="M 25.78125 7.859375 
L 27.046875 0.09375 
Q 23.34375 -0.6875 20.40625 -0.6875 
Q 15.625 -0.6875 12.984375 0.828125 
Q 10.359375 2.34375 9.28125 4.8125 
Q 8.203125 7.28125 8.203125 15.1875 
L 8.203125 45.015625 
L 1.765625 45.015625 
L 1.765625 51.859375 
L 8.203125 51.859375 
L 8.203125 64.703125 
L 16.9375 69.96875 
L 16.9375 51.859375 
L 25.78125 51.859375 
L 25.78125 45.015625 
L 16.9375 45.015625 
L 16.9375 14.703125 
Q 16.9375 10.9375 17.40625 9.859375 
Q 17.875 8.796875 18.921875 8.15625 
Q 19.96875 7.515625 21.921875 7.515625 
Q 23.390625 7.515625 25.78125 7.859375 
z
" id="ArialMT-116"/>
      <path d="M 42.09375 16.703125 
L 51.171875 15.578125 
Q 49.03125 7.625 43.21875 3.21875 
Q 37.40625 -1.171875 28.375 -1.171875 
Q 17 -1.171875 10.328125 5.828125 
Q 3.65625 12.84375 3.65625 25.484375 
Q 3.65625 38.578125 10.390625 45.796875 
Q 17.140625 53.03125 27.875 53.03125 
Q 38.28125 53.03125 44.875 45.953125 
Q 51.46875 38.875 51.46875 26.03125 
Q 51.46875 25.25 51.421875 23.6875 
L 12.75 23.6875 
Q 13.234375 15.140625 17.578125 10.59375 
Q 21.921875 6.0625 28.421875 6.0625 
Q 33.25 6.0625 36.671875 8.59375 
Q 40.09375 11.140625 42.09375 16.703125 
z
M 13.234375 30.90625 
L 42.1875 30.90625 
Q 41.609375 37.453125 38.875 40.71875 
Q 34.671875 45.796875 27.984375 45.796875 
Q 21.921875 45.796875 17.796875 41.75 
Q 13.671875 37.703125 13.234375 30.90625 
z
" id="ArialMT-101"/>
      <path d="M 3.078125 15.484375 
L 11.765625 16.84375 
Q 12.5 11.625 15.84375 8.84375 
Q 19.1875 6.0625 25.203125 6.0625 
Q 31.25 6.0625 34.171875 8.515625 
Q 37.109375 10.984375 37.109375 14.3125 
Q 37.109375 17.28125 34.515625 19 
Q 32.71875 20.171875 25.53125 21.96875 
Q 15.875 24.421875 12.140625 26.203125 
Q 8.40625 27.984375 6.46875 31.125 
Q 4.546875 34.28125 4.546875 38.09375 
Q 4.546875 41.546875 6.125 44.5 
Q 7.71875 47.46875 10.453125 49.421875 
Q 12.5 50.921875 16.03125 51.96875 
Q 19.578125 53.03125 23.640625 53.03125 
Q 29.734375 53.03125 34.34375 51.265625 
Q 38.96875 49.515625 41.15625 46.5 
Q 43.359375 43.5 44.1875 38.484375 
L 35.59375 37.3125 
Q 35.015625 41.3125 32.203125 43.546875 
Q 29.390625 45.796875 24.265625 45.796875 
Q 18.21875 45.796875 15.625 43.796875 
Q 13.03125 41.796875 13.03125 39.109375 
Q 13.03125 37.40625 14.109375 36.03125 
Q 15.1875 34.625 17.484375 33.6875 
Q 18.796875 33.203125 25.25 31.453125 
Q 34.578125 28.953125 38.25 27.359375 
Q 41.9375 25.78125 44.03125 22.75 
Q 46.140625 19.734375 46.140625 15.234375 
Q 46.140625 10.84375 43.578125 6.953125 
Q 41.015625 3.078125 36.171875 0.953125 
Q 31.34375 -1.171875 25.25 -1.171875 
Q 15.140625 -1.171875 9.84375 3.03125 
Q 4.546875 7.234375 3.078125 15.484375 
z
" id="ArialMT-115"/>
     </defs>
     <g style="fill:#262626;" transform="translate(206.72625 284.149219)scale(0.12 -0.12)">
      <use xlink:href="#ArialMT-100"/>
      <use x="55.615234" xlink:href="#ArialMT-32"/>
      <use x="83.398438" xlink:href="#ArialMT-116"/>
      <use x="111.181641" xlink:href="#ArialMT-101"/>
      <use x="166.796875" xlink:href="#ArialMT-115"/>
      <use x="216.796875" xlink:href="#ArialMT-116"/>
     </g>
    </g>
   </g>
   <g id="matplotlib.axis_2">
    <g id="ytick_1">
     <g id="line2d_9">
      <path clip-path="url(#pbad2f886d3)" d="M 54 242.116364 
L 388.8 242.116364 
" style="fill:none;stroke:#ffffff;stroke-linecap:round;"/>
     </g>
     <g id="text_10">
      <!-- 0.0 -->
      <g style="fill:#262626;" transform="translate(29.21 246.053161)scale(0.11 -0.11)">
       <use xlink:href="#ArialMT-48"/>
       <use x="55.615234" xlink:href="#ArialMT-46"/>
       <use x="83.398438" xlink:href="#ArialMT-48"/>
      </g>
     </g>
    </g>
    <g id="ytick_2">
     <g id="line2d_10">
      <path clip-path="url(#pbad2f886d3)" d="M 54 213.046845 
L 388.8 213.046845 
" style="fill:none;stroke:#ffffff;stroke-linecap:round;"/>
     </g>
     <g id="text_11">
      <!-- 2.5 -->
      <g style="fill:#262626;" transform="translate(29.21 216.983642)scale(0.11 -0.11)">
       <use xlink:href="#ArialMT-50"/>
       <use x="55.615234" xlink:href="#ArialMT-46"/>
       <use x="83.398438" xlink:href="#ArialMT-53"/>
      </g>
     </g>
    </g>
    <g id="ytick_3">
     <g id="line2d_11">
      <path clip-path="url(#pbad2f886d3)" d="M 54 183.977326 
L 388.8 183.977326 
" style="fill:none;stroke:#ffffff;stroke-linecap:round;"/>
     </g>
     <g id="text_12">
      <!-- 5.0 -->
      <g style="fill:#262626;" transform="translate(29.21 187.914123)scale(0.11 -0.11)">
       <use xlink:href="#ArialMT-53"/>
       <use x="55.615234" xlink:href="#ArialMT-46"/>
       <use x="83.398438" xlink:href="#ArialMT-48"/>
      </g>
     </g>
    </g>
    <g id="ytick_4">
     <g id="line2d_12">
      <path clip-path="url(#pbad2f886d3)" d="M 54 154.907807 
L 388.8 154.907807 
" style="fill:none;stroke:#ffffff;stroke-linecap:round;"/>
     </g>
     <g id="text_13">
      <!-- 7.5 -->
      <g style="fill:#262626;" transform="translate(29.21 158.844604)scale(0.11 -0.11)">
       <use xlink:href="#ArialMT-55"/>
       <use x="55.615234" xlink:href="#ArialMT-46"/>
       <use x="83.398438" xlink:href="#ArialMT-53"/>
      </g>
     </g>
    </g>
    <g id="ytick_5">
     <g id="line2d_13">
      <path clip-path="url(#pbad2f886d3)" d="M 54 125.838289 
L 388.8 125.838289 
" style="fill:none;stroke:#ffffff;stroke-linecap:round;"/>
     </g>
     <g id="text_14">
      <!-- 10.0 -->
      <g style="fill:#262626;" transform="translate(23.092969 129.775086)scale(0.11 -0.11)">
       <use xlink:href="#ArialMT-49"/>
       <use x="55.615234" xlink:href="#ArialMT-48"/>
       <use x="111.230469" xlink:href="#ArialMT-46"/>
       <use x="139.013672" xlink:href="#ArialMT-48"/>
      </g>
     </g>
    </g>
    <g id="ytick_6">
     <g id="line2d_14">
      <path clip-path="url(#pbad2f886d3)" d="M 54 96.76877 
L 388.8 96.76877 
" style="fill:none;stroke:#ffffff;stroke-linecap:round;"/>
     </g>
     <g id="text_15">
      <!-- 12.5 -->
      <g style="fill:#262626;" transform="translate(23.092969 100.705567)scale(0.11 -0.11)">
       <use xlink:href="#ArialMT-49"/>
       <use x="55.615234" xlink:href="#ArialMT-50"/>
       <use x="111.230469" xlink:href="#ArialMT-46"/>
       <use x="139.013672" xlink:href="#ArialMT-53"/>
      </g>
     </g>
    </g>
    <g id="ytick_7">
     <g id="line2d_15">
      <path clip-path="url(#pbad2f886d3)" d="M 54 67.699251 
L 388.8 67.699251 
" style="fill:none;stroke:#ffffff;stroke-linecap:round;"/>
     </g>
     <g id="text_16">
      <!-- 15.0 -->
      <g style="fill:#262626;" transform="translate(23.092969 71.636048)scale(0.11 -0.11)">
       <use xlink:href="#ArialMT-49"/>
       <use x="55.615234" xlink:href="#ArialMT-53"/>
       <use x="111.230469" xlink:href="#ArialMT-46"/>
       <use x="139.013672" xlink:href="#ArialMT-48"/>
      </g>
     </g>
    </g>
    <g id="ytick_8">
     <g id="line2d_16">
      <path clip-path="url(#pbad2f886d3)" d="M 54 38.629733 
L 388.8 38.629733 
" style="fill:none;stroke:#ffffff;stroke-linecap:round;"/>
     </g>
     <g id="text_17">
      <!-- 17.5 -->
      <g style="fill:#262626;" transform="translate(23.092969 42.566529)scale(0.11 -0.11)">
       <use xlink:href="#ArialMT-49"/>
       <use x="55.615234" xlink:href="#ArialMT-55"/>
       <use x="111.230469" xlink:href="#ArialMT-46"/>
       <use x="139.013672" xlink:href="#ArialMT-53"/>
      </g>
     </g>
    </g>
    <g id="text_18">
     <!-- d predicted -->
     <defs>
      <path d="M 6.59375 -19.875 
L 6.59375 51.859375 
L 14.59375 51.859375 
L 14.59375 45.125 
Q 17.4375 49.078125 21 51.046875 
Q 24.5625 53.03125 29.640625 53.03125 
Q 36.28125 53.03125 41.359375 49.609375 
Q 46.4375 46.1875 49.015625 39.953125 
Q 51.609375 33.734375 51.609375 26.3125 
Q 51.609375 18.359375 48.75 11.984375 
Q 45.90625 5.609375 40.453125 2.21875 
Q 35.015625 -1.171875 29 -1.171875 
Q 24.609375 -1.171875 21.109375 0.6875 
Q 17.625 2.546875 15.375 5.375 
L 15.375 -19.875 
z
M 14.546875 25.640625 
Q 14.546875 15.625 18.59375 10.84375 
Q 22.65625 6.0625 28.421875 6.0625 
Q 34.28125 6.0625 38.453125 11.015625 
Q 42.625 15.96875 42.625 26.375 
Q 42.625 36.28125 38.546875 41.203125 
Q 34.46875 46.140625 28.8125 46.140625 
Q 23.1875 46.140625 18.859375 40.890625 
Q 14.546875 35.640625 14.546875 25.640625 
z
" id="ArialMT-112"/>
      <path d="M 6.5 0 
L 6.5 51.859375 
L 14.40625 51.859375 
L 14.40625 44 
Q 17.4375 49.515625 20 51.265625 
Q 22.5625 53.03125 25.640625 53.03125 
Q 30.078125 53.03125 34.671875 50.203125 
L 31.640625 42.046875 
Q 28.421875 43.953125 25.203125 43.953125 
Q 22.3125 43.953125 20.015625 42.21875 
Q 17.71875 40.484375 16.75 37.40625 
Q 15.28125 32.71875 15.28125 27.15625 
L 15.28125 0 
z
" id="ArialMT-114"/>
      <path d="M 6.640625 61.46875 
L 6.640625 71.578125 
L 15.4375 71.578125 
L 15.4375 61.46875 
z
M 6.640625 0 
L 6.640625 51.859375 
L 15.4375 51.859375 
L 15.4375 0 
z
" id="ArialMT-105"/>
      <path d="M 40.4375 19 
L 49.078125 17.875 
Q 47.65625 8.9375 41.8125 3.875 
Q 35.984375 -1.171875 27.484375 -1.171875 
Q 16.84375 -1.171875 10.375 5.78125 
Q 3.90625 12.75 3.90625 25.734375 
Q 3.90625 34.125 6.6875 40.421875 
Q 9.46875 46.734375 15.15625 49.875 
Q 20.84375 53.03125 27.546875 53.03125 
Q 35.984375 53.03125 41.359375 48.75 
Q 46.734375 44.484375 48.25 36.625 
L 39.703125 35.296875 
Q 38.484375 40.53125 35.375 43.15625 
Q 32.28125 45.796875 27.875 45.796875 
Q 21.234375 45.796875 17.078125 41.03125 
Q 12.9375 36.28125 12.9375 25.984375 
Q 12.9375 15.53125 16.9375 10.796875 
Q 20.953125 6.0625 27.390625 6.0625 
Q 32.5625 6.0625 36.03125 9.234375 
Q 39.5 12.40625 40.4375 19 
z
" id="ArialMT-99"/>
     </defs>
     <g style="fill:#262626;" transform="translate(16.707969 172.964063)rotate(-90)scale(0.12 -0.12)">
      <use xlink:href="#ArialMT-100"/>
      <use x="55.615234" xlink:href="#ArialMT-32"/>
      <use x="83.398438" xlink:href="#ArialMT-112"/>
      <use x="139.013672" xlink:href="#ArialMT-114"/>
      <use x="172.314453" xlink:href="#ArialMT-101"/>
      <use x="227.929688" xlink:href="#ArialMT-100"/>
      <use x="283.544922" xlink:href="#ArialMT-105"/>
      <use x="305.761719" xlink:href="#ArialMT-99"/>
      <use x="355.761719" xlink:href="#ArialMT-116"/>
      <use x="383.544922" xlink:href="#ArialMT-101"/>
      <use x="439.160156" xlink:href="#ArialMT-100"/>
     </g>
    </g>
   </g>
   <g id="line2d_17">
    <defs>
     <path d="M 0 1.5 
C 0.397805 1.5 0.77937 1.341951 1.06066 1.06066 
C 1.341951 0.77937 1.5 0.397805 1.5 0 
C 1.5 -0.397805 1.341951 -0.77937 1.06066 -1.06066 
C 0.77937 -1.341951 0.397805 -1.5 0 -1.5 
C -0.397805 -1.5 -0.77937 -1.341951 -1.06066 -1.06066 
C -1.341951 -0.77937 -1.5 -0.397805 -1.5 0 
C -1.5 0.397805 -1.341951 0.77937 -1.06066 1.06066 
C -0.77937 1.341951 -0.397805 1.5 0 1.5 
z
" id="ma4797ccf74" style="stroke:#4c72b0;"/>
    </defs>
    <g clip-path="url(#pbad2f886d3)">
     <use style="fill:#4c72b0;stroke:#4c72b0;" x="266.292273" xlink:href="#ma4797ccf74" y="93.006912"/>
     <use style="fill:#4c72b0;stroke:#4c72b0;" x="175.927097" xlink:href="#ma4797ccf74" y="172.071165"/>
     <use style="fill:#4c72b0;stroke:#4c72b0;" x="175.481775" xlink:href="#ma4797ccf74" y="172.41586"/>
     <use style="fill:#4c72b0;stroke:#4c72b0;" x="138.276777" xlink:href="#ma4797ccf74" y="198.927438"/>
     <use style="fill:#4c72b0;stroke:#4c72b0;" x="122.02241" xlink:href="#ma4797ccf74" y="207.035133"/>
     <use style="fill:#4c72b0;stroke:#4c72b0;" x="337.600414" xlink:href="#ma4797ccf74" y="83.228197"/>
     <use style="fill:#4c72b0;stroke:#4c72b0;" x="233.927974" xlink:href="#ma4797ccf74" y="139.110793"/>
     <use style="fill:#4c72b0;stroke:#4c72b0;" x="222.73598" xlink:href="#ma4797ccf74" y="144.556449"/>
     <use style="fill:#4c72b0;stroke:#4c72b0;" x="301.571131" xlink:href="#ma4797ccf74" y="84.285424"/>
     <use style="fill:#4c72b0;stroke:#4c72b0;" x="108.997652" xlink:href="#ma4797ccf74" y="213.966512"/>
     <use style="fill:#4c72b0;stroke:#4c72b0;" x="164.79639" xlink:href="#ma4797ccf74" y="183.290104"/>
     <use style="fill:#4c72b0;stroke:#4c72b0;" x="104.775089" xlink:href="#ma4797ccf74" y="216.309567"/>
     <use style="fill:#4c72b0;stroke:#4c72b0;" x="150.564542" xlink:href="#ma4797ccf74" y="189.20401"/>
     <use style="fill:#4c72b0;stroke:#4c72b0;" x="230.275457" xlink:href="#ma4797ccf74" y="136.952303"/>
     <use style="fill:#4c72b0;stroke:#4c72b0;" x="243.133728" xlink:href="#ma4797ccf74" y="124.038233"/>
     <use style="fill:#4c72b0;stroke:#4c72b0;" x="361.1526" xlink:href="#ma4797ccf74" y="52.373326"/>
     <use style="fill:#4c72b0;stroke:#4c72b0;" x="327.942148" xlink:href="#ma4797ccf74" y="63.451256"/>
     <use style="fill:#4c72b0;stroke:#4c72b0;" x="116.317546" xlink:href="#ma4797ccf74" y="212.839553"/>
     <use style="fill:#4c72b0;stroke:#4c72b0;" x="162.159609" xlink:href="#ma4797ccf74" y="187.215588"/>
     <use style="fill:#4c72b0;stroke:#4c72b0;" x="188.021336" xlink:href="#ma4797ccf74" y="163.742682"/>
     <use style="fill:#4c72b0;stroke:#4c72b0;" x="260.654401" xlink:href="#ma4797ccf74" y="120.10945"/>
     <use style="fill:#4c72b0;stroke:#4c72b0;" x="225.687304" xlink:href="#ma4797ccf74" y="140.560665"/>
     <use style="fill:#4c72b0;stroke:#4c72b0;" x="128.15145" xlink:href="#ma4797ccf74" y="199.304843"/>
     <use style="fill:#4c72b0;stroke:#4c72b0;" x="104.941979" xlink:href="#ma4797ccf74" y="216.00061"/>
     <use style="fill:#4c72b0;stroke:#4c72b0;" x="154.037107" xlink:href="#ma4797ccf74" y="187.208724"/>
     <use style="fill:#4c72b0;stroke:#4c72b0;" x="164.337966" xlink:href="#ma4797ccf74" y="181.547479"/>
     <use style="fill:#4c72b0;stroke:#4c72b0;" x="290.202196" xlink:href="#ma4797ccf74" y="95.344226"/>
     <use style="fill:#4c72b0;stroke:#4c72b0;" x="150.676449" xlink:href="#ma4797ccf74" y="186.017983"/>
     <use style="fill:#4c72b0;stroke:#4c72b0;" x="176.461139" xlink:href="#ma4797ccf74" y="172.027717"/>
     <use style="fill:#4c72b0;stroke:#4c72b0;" x="296.275075" xlink:href="#ma4797ccf74" y="97.902757"/>
     <use style="fill:#4c72b0;stroke:#4c72b0;" x="254.88042" xlink:href="#ma4797ccf74" y="117.007784"/>
     <use style="fill:#4c72b0;stroke:#4c72b0;" x="155.502722" xlink:href="#ma4797ccf74" y="186.66626"/>
     <use style="fill:#4c72b0;stroke:#4c72b0;" x="152.718341" xlink:href="#ma4797ccf74" y="188.267615"/>
     <use style="fill:#4c72b0;stroke:#4c72b0;" x="224.566935" xlink:href="#ma4797ccf74" y="141.605274"/>
     <use style="fill:#4c72b0;stroke:#4c72b0;" x="346.163318" xlink:href="#ma4797ccf74" y="64.542627"/>
     <use style="fill:#4c72b0;stroke:#4c72b0;" x="300.202089" xlink:href="#ma4797ccf74" y="85.888659"/>
     <use style="fill:#4c72b0;stroke:#4c72b0;" x="331.238219" xlink:href="#ma4797ccf74" y="67.618267"/>
     <use style="fill:#4c72b0;stroke:#4c72b0;" x="238.740631" xlink:href="#ma4797ccf74" y="129.76848"/>
     <use style="fill:#4c72b0;stroke:#4c72b0;" x="247.848032" xlink:href="#ma4797ccf74" y="126.935992"/>
     <use style="fill:#4c72b0;stroke:#4c72b0;" x="236.51258" xlink:href="#ma4797ccf74" y="133.801401"/>
     <use style="fill:#4c72b0;stroke:#4c72b0;" x="271.457202" xlink:href="#ma4797ccf74" y="102.683186"/>
     <use style="fill:#4c72b0;stroke:#4c72b0;" x="214.022015" xlink:href="#ma4797ccf74" y="145.207481"/>
     <use style="fill:#4c72b0;stroke:#4c72b0;" x="245.992111" xlink:href="#ma4797ccf74" y="123.099271"/>
     <use style="fill:#4c72b0;stroke:#4c72b0;" x="237.638312" xlink:href="#ma4797ccf74" y="128.857662"/>
     <use style="fill:#4c72b0;stroke:#4c72b0;" x="159.216823" xlink:href="#ma4797ccf74" y="183.366376"/>
     <use style="fill:#4c72b0;stroke:#4c72b0;" x="204.624582" xlink:href="#ma4797ccf74" y="154.512879"/>
     <use style="fill:#4c72b0;stroke:#4c72b0;" x="233.880023" xlink:href="#ma4797ccf74" y="133.414146"/>
     <use style="fill:#4c72b0;stroke:#4c72b0;" x="305.575498" xlink:href="#ma4797ccf74" y="87.775055"/>
     <use style="fill:#4c72b0;stroke:#4c72b0;" x="190.100556" xlink:href="#ma4797ccf74" y="163.189328"/>
     <use style="fill:#4c72b0;stroke:#4c72b0;" x="235.538264" xlink:href="#ma4797ccf74" y="130.795689"/>
     <use style="fill:#4c72b0;stroke:#4c72b0;" x="131.683819" xlink:href="#ma4797ccf74" y="205.499448"/>
     <use style="fill:#4c72b0;stroke:#4c72b0;" x="277.986629" xlink:href="#ma4797ccf74" y="103.070507"/>
     <use style="fill:#4c72b0;stroke:#4c72b0;" x="141.476964" xlink:href="#ma4797ccf74" y="196.322787"/>
     <use style="fill:#4c72b0;stroke:#4c72b0;" x="310.622343" xlink:href="#ma4797ccf74" y="87.535552"/>
     <use style="fill:#4c72b0;stroke:#4c72b0;" x="190.369514" xlink:href="#ma4797ccf74" y="163.340301"/>
     <use style="fill:#4c72b0;stroke:#4c72b0;" x="241.517038" xlink:href="#ma4797ccf74" y="128.309925"/>
     <use style="fill:#4c72b0;stroke:#4c72b0;" x="280.931899" xlink:href="#ma4797ccf74" y="105.140406"/>
     <use style="fill:#4c72b0;stroke:#4c72b0;" x="167.175297" xlink:href="#ma4797ccf74" y="177.873841"/>
     <use style="fill:#4c72b0;stroke:#4c72b0;" x="327.262061" xlink:href="#ma4797ccf74" y="74.390794"/>
     <use style="fill:#4c72b0;stroke:#4c72b0;" x="349.069524" xlink:href="#ma4797ccf74" y="63.88045"/>
     <use style="fill:#4c72b0;stroke:#4c72b0;" x="231.131355" xlink:href="#ma4797ccf74" y="134.212487"/>
     <use style="fill:#4c72b0;stroke:#4c72b0;" x="224.479204" xlink:href="#ma4797ccf74" y="139.2141"/>
     <use style="fill:#4c72b0;stroke:#4c72b0;" x="373.581818" xlink:href="#ma4797ccf74" y="46.785397"/>
     <use style="fill:#4c72b0;stroke:#4c72b0;" x="258.841744" xlink:href="#ma4797ccf74" y="115.383158"/>
     <use style="fill:#4c72b0;stroke:#4c72b0;" x="226.556985" xlink:href="#ma4797ccf74" y="140.074673"/>
     <use style="fill:#4c72b0;stroke:#4c72b0;" x="117.476144" xlink:href="#ma4797ccf74" y="209.756228"/>
     <use style="fill:#4c72b0;stroke:#4c72b0;" x="361.974687" xlink:href="#ma4797ccf74" y="55.894661"/>
     <use style="fill:#4c72b0;stroke:#4c72b0;" x="149.158831" xlink:href="#ma4797ccf74" y="190.117445"/>
     <use style="fill:#4c72b0;stroke:#4c72b0;" x="175.992312" xlink:href="#ma4797ccf74" y="171.173626"/>
     <use style="fill:#4c72b0;stroke:#4c72b0;" x="116.778796" xlink:href="#ma4797ccf74" y="210.93255"/>
     <use style="fill:#4c72b0;stroke:#4c72b0;" x="188.371669" xlink:href="#ma4797ccf74" y="164.895498"/>
     <use style="fill:#4c72b0;stroke:#4c72b0;" x="181.523263" xlink:href="#ma4797ccf74" y="166.956708"/>
     <use style="fill:#4c72b0;stroke:#4c72b0;" x="267.433319" xlink:href="#ma4797ccf74" y="110.584033"/>
     <use style="fill:#4c72b0;stroke:#4c72b0;" x="127.449746" xlink:href="#ma4797ccf74" y="202.952499"/>
     <use style="fill:#4c72b0;stroke:#4c72b0;" x="130.749679" xlink:href="#ma4797ccf74" y="204.232073"/>
     <use style="fill:#4c72b0;stroke:#4c72b0;" x="298.410915" xlink:href="#ma4797ccf74" y="92.177466"/>
     <use style="fill:#4c72b0;stroke:#4c72b0;" x="200.805819" xlink:href="#ma4797ccf74" y="156.726332"/>
     <use style="fill:#4c72b0;stroke:#4c72b0;" x="290.593448" xlink:href="#ma4797ccf74" y="100.663188"/>
     <use style="fill:#4c72b0;stroke:#4c72b0;" x="186.690104" xlink:href="#ma4797ccf74" y="167.158902"/>
     <use style="fill:#4c72b0;stroke:#4c72b0;" x="103.769839" xlink:href="#ma4797ccf74" y="216.936228"/>
     <use style="fill:#4c72b0;stroke:#4c72b0;" x="172.696724" xlink:href="#ma4797ccf74" y="175.659589"/>
     <use style="fill:#4c72b0;stroke:#4c72b0;" x="261.724112" xlink:href="#ma4797ccf74" y="112.758846"/>
     <use style="fill:#4c72b0;stroke:#4c72b0;" x="265.853931" xlink:href="#ma4797ccf74" y="110.418106"/>
     <use style="fill:#4c72b0;stroke:#4c72b0;" x="276.043157" xlink:href="#ma4797ccf74" y="110.380026"/>
     <use style="fill:#4c72b0;stroke:#4c72b0;" x="248.862671" xlink:href="#ma4797ccf74" y="122.111428"/>
     <use style="fill:#4c72b0;stroke:#4c72b0;" x="122.81354" xlink:href="#ma4797ccf74" y="207.607147"/>
     <use style="fill:#4c72b0;stroke:#4c72b0;" x="172.690741" xlink:href="#ma4797ccf74" y="171.022259"/>
     <use style="fill:#4c72b0;stroke:#4c72b0;" x="184.06012" xlink:href="#ma4797ccf74" y="175.456813"/>
     <use style="fill:#4c72b0;stroke:#4c72b0;" x="105.396679" xlink:href="#ma4797ccf74" y="216.4525"/>
     <use style="fill:#4c72b0;stroke:#4c72b0;" x="124.175295" xlink:href="#ma4797ccf74" y="206.928187"/>
     <use style="fill:#4c72b0;stroke:#4c72b0;" x="286.773095" xlink:href="#ma4797ccf74" y="95.488551"/>
     <use style="fill:#4c72b0;stroke:#4c72b0;" x="291.38937" xlink:href="#ma4797ccf74" y="100.010137"/>
     <use style="fill:#4c72b0;stroke:#4c72b0;" x="263.929767" xlink:href="#ma4797ccf74" y="116.425925"/>
     <use style="fill:#4c72b0;stroke:#4c72b0;" x="259.363069" xlink:href="#ma4797ccf74" y="117.579551"/>
     <use style="fill:#4c72b0;stroke:#4c72b0;" x="122.449868" xlink:href="#ma4797ccf74" y="209.031217"/>
     <use style="fill:#4c72b0;stroke:#4c72b0;" x="116.141037" xlink:href="#ma4797ccf74" y="211.951923"/>
     <use style="fill:#4c72b0;stroke:#4c72b0;" x="129.810625" xlink:href="#ma4797ccf74" y="205.759535"/>
     <use style="fill:#4c72b0;stroke:#4c72b0;" x="161.139157" xlink:href="#ma4797ccf74" y="179.720898"/>
     <use style="fill:#4c72b0;stroke:#4c72b0;" x="103.843656" xlink:href="#ma4797ccf74" y="216.770709"/>
     <use style="fill:#4c72b0;stroke:#4c72b0;" x="104.324037" xlink:href="#ma4797ccf74" y="216.734239"/>
     <use style="fill:#4c72b0;stroke:#4c72b0;" x="252.056946" xlink:href="#ma4797ccf74" y="121.198148"/>
     <use style="fill:#4c72b0;stroke:#4c72b0;" x="202.085256" xlink:href="#ma4797ccf74" y="155.929616"/>
     <use style="fill:#4c72b0;stroke:#4c72b0;" x="105.338034" xlink:href="#ma4797ccf74" y="216.985919"/>
     <use style="fill:#4c72b0;stroke:#4c72b0;" x="337.820796" xlink:href="#ma4797ccf74" y="74.471712"/>
     <use style="fill:#4c72b0;stroke:#4c72b0;" x="106.435818" xlink:href="#ma4797ccf74" y="217.362151"/>
     <use style="fill:#4c72b0;stroke:#4c72b0;" x="172.052739" xlink:href="#ma4797ccf74" y="173.005142"/>
     <use style="fill:#4c72b0;stroke:#4c72b0;" x="279.619757" xlink:href="#ma4797ccf74" y="105.385554"/>
     <use style="fill:#4c72b0;stroke:#4c72b0;" x="196.581262" xlink:href="#ma4797ccf74" y="159.747536"/>
     <use style="fill:#4c72b0;stroke:#4c72b0;" x="122.802639" xlink:href="#ma4797ccf74" y="207.923071"/>
     <use style="fill:#4c72b0;stroke:#4c72b0;" x="270.312651" xlink:href="#ma4797ccf74" y="111.008835"/>
     <use style="fill:#4c72b0;stroke:#4c72b0;" x="193.636185" xlink:href="#ma4797ccf74" y="160.019863"/>
     <use style="fill:#4c72b0;stroke:#4c72b0;" x="106.53438" xlink:href="#ma4797ccf74" y="217.031625"/>
     <use style="fill:#4c72b0;stroke:#4c72b0;" x="151.761464" xlink:href="#ma4797ccf74" y="187.790693"/>
     <use style="fill:#4c72b0;stroke:#4c72b0;" x="108.474802" xlink:href="#ma4797ccf74" y="214.639246"/>
     <use style="fill:#4c72b0;stroke:#4c72b0;" x="172.551625" xlink:href="#ma4797ccf74" y="174.45721"/>
     <use style="fill:#4c72b0;stroke:#4c72b0;" x="161.774297" xlink:href="#ma4797ccf74" y="180.910885"/>
     <use style="fill:#4c72b0;stroke:#4c72b0;" x="197.482593" xlink:href="#ma4797ccf74" y="160.420419"/>
     <use style="fill:#4c72b0;stroke:#4c72b0;" x="149.068947" xlink:href="#ma4797ccf74" y="188.419426"/>
     <use style="fill:#4c72b0;stroke:#4c72b0;" x="163.617134" xlink:href="#ma4797ccf74" y="177.059792"/>
     <use style="fill:#4c72b0;stroke:#4c72b0;" x="154.974645" xlink:href="#ma4797ccf74" y="185.888002"/>
     <use style="fill:#4c72b0;stroke:#4c72b0;" x="103.1853" xlink:href="#ma4797ccf74" y="219.571963"/>
     <use style="fill:#4c72b0;stroke:#4c72b0;" x="324.996946" xlink:href="#ma4797ccf74" y="74.226386"/>
     <use style="fill:#4c72b0;stroke:#4c72b0;" x="119.324165" xlink:href="#ma4797ccf74" y="210.672025"/>
     <use style="fill:#4c72b0;stroke:#4c72b0;" x="155.50686" xlink:href="#ma4797ccf74" y="184.330632"/>
     <use style="fill:#4c72b0;stroke:#4c72b0;" x="311.120699" xlink:href="#ma4797ccf74" y="79.550982"/>
     <use style="fill:#4c72b0;stroke:#4c72b0;" x="294.516259" xlink:href="#ma4797ccf74" y="90.131675"/>
     <use style="fill:#4c72b0;stroke:#4c72b0;" x="275.583777" xlink:href="#ma4797ccf74" y="103.539223"/>
     <use style="fill:#4c72b0;stroke:#4c72b0;" x="311.190003" xlink:href="#ma4797ccf74" y="84.716747"/>
     <use style="fill:#4c72b0;stroke:#4c72b0;" x="225.709239" xlink:href="#ma4797ccf74" y="140.268555"/>
     <use style="fill:#4c72b0;stroke:#4c72b0;" x="236.594302" xlink:href="#ma4797ccf74" y="130.918357"/>
     <use style="fill:#4c72b0;stroke:#4c72b0;" x="126.514055" xlink:href="#ma4797ccf74" y="208.061927"/>
     <use style="fill:#4c72b0;stroke:#4c72b0;" x="278.971107" xlink:href="#ma4797ccf74" y="101.758983"/>
     <use style="fill:#4c72b0;stroke:#4c72b0;" x="108.824866" xlink:href="#ma4797ccf74" y="216.741101"/>
     <use style="fill:#4c72b0;stroke:#4c72b0;" x="301.744527" xlink:href="#ma4797ccf74" y="90.4445"/>
     <use style="fill:#4c72b0;stroke:#4c72b0;" x="112.08892" xlink:href="#ma4797ccf74" y="213.96229"/>
     <use style="fill:#4c72b0;stroke:#4c72b0;" x="270.607515" xlink:href="#ma4797ccf74" y="108.415873"/>
     <use style="fill:#4c72b0;stroke:#4c72b0;" x="149.777239" xlink:href="#ma4797ccf74" y="192.92582"/>
     <use style="fill:#4c72b0;stroke:#4c72b0;" x="122.288667" xlink:href="#ma4797ccf74" y="205.249496"/>
     <use style="fill:#4c72b0;stroke:#4c72b0;" x="283.267652" xlink:href="#ma4797ccf74" y="102.207783"/>
     <use style="fill:#4c72b0;stroke:#4c72b0;" x="136.6566" xlink:href="#ma4797ccf74" y="199.555488"/>
     <use style="fill:#4c72b0;stroke:#4c72b0;" x="195.647986" xlink:href="#ma4797ccf74" y="164.188299"/>
     <use style="fill:#4c72b0;stroke:#4c72b0;" x="146.323303" xlink:href="#ma4797ccf74" y="192.299195"/>
     <use style="fill:#4c72b0;stroke:#4c72b0;" x="131.27368" xlink:href="#ma4797ccf74" y="203.621959"/>
     <use style="fill:#4c72b0;stroke:#4c72b0;" x="107.345873" xlink:href="#ma4797ccf74" y="214.921154"/>
     <use style="fill:#4c72b0;stroke:#4c72b0;" x="117.761338" xlink:href="#ma4797ccf74" y="209.039329"/>
     <use style="fill:#4c72b0;stroke:#4c72b0;" x="125.499434" xlink:href="#ma4797ccf74" y="207.263159"/>
     <use style="fill:#4c72b0;stroke:#4c72b0;" x="181.219497" xlink:href="#ma4797ccf74" y="169.815611"/>
     <use style="fill:#4c72b0;stroke:#4c72b0;" x="292.473173" xlink:href="#ma4797ccf74" y="94.883128"/>
     <use style="fill:#4c72b0;stroke:#4c72b0;" x="239.242572" xlink:href="#ma4797ccf74" y="127.933959"/>
     <use style="fill:#4c72b0;stroke:#4c72b0;" x="164.899603" xlink:href="#ma4797ccf74" y="179.493099"/>
     <use style="fill:#4c72b0;stroke:#4c72b0;" x="231.752438" xlink:href="#ma4797ccf74" y="133.904918"/>
     <use style="fill:#4c72b0;stroke:#4c72b0;" x="143.438807" xlink:href="#ma4797ccf74" y="191.053989"/>
     <use style="fill:#4c72b0;stroke:#4c72b0;" x="149.093863" xlink:href="#ma4797ccf74" y="190.071974"/>
     <use style="fill:#4c72b0;stroke:#4c72b0;" x="296.384653" xlink:href="#ma4797ccf74" y="92.998429"/>
     <use style="fill:#4c72b0;stroke:#4c72b0;" x="296.994883" xlink:href="#ma4797ccf74" y="95.030248"/>
    </g>
   </g>
   <g id="line2d_18">
    <path clip-path="url(#pbad2f886d3)" d="M 69.218182 242.116364 
L 87.000218 230.488556 
L 104.782254 218.860749 
L 122.56429 207.232941 
L 140.346326 195.605134 
L 158.128363 183.977326 
L 175.910399 172.349519 
L 193.692435 160.721711 
L 211.474471 149.093904 
L 229.256507 137.466096 
L 247.038543 125.838289 
L 264.82058 114.210481 
L 282.602616 102.582674 
L 300.384652 90.954866 
L 318.166688 79.327059 
L 335.948724 67.699251 
L 353.73076 56.071444 
L 371.512797 44.443636 
" style="fill:none;stroke:#dd8452;stroke-dasharray:5.55,2.4;stroke-dashoffset:0;stroke-width:1.5;"/>
   </g>
   <g id="patch_3">
    <path d="M 54 252 
L 54 34.56 
" style="fill:none;stroke:#ffffff;stroke-linecap:square;stroke-linejoin:miter;stroke-width:1.25;"/>
   </g>
   <g id="patch_4">
    <path d="M 388.8 252 
L 388.8 34.56 
" style="fill:none;stroke:#ffffff;stroke-linecap:square;stroke-linejoin:miter;stroke-width:1.25;"/>
   </g>
   <g id="patch_5">
    <path d="M 54 252 
L 388.8 252 
" style="fill:none;stroke:#ffffff;stroke-linecap:square;stroke-linejoin:miter;stroke-width:1.25;"/>
   </g>
   <g id="patch_6">
    <path d="M 54 34.56 
L 388.8 34.56 
" style="fill:none;stroke:#ffffff;stroke-linecap:square;stroke-linejoin:miter;stroke-width:1.25;"/>
   </g>
   <g id="legend_1">
    <g id="patch_7">
     <path d="M 61.7 74.608594 
L 151.312187 74.608594 
Q 153.512187 74.608594 153.512187 72.408594 
L 153.512187 42.26 
Q 153.512187 40.06 151.312187 40.06 
L 61.7 40.06 
Q 59.5 40.06 59.5 42.26 
L 59.5 72.408594 
Q 59.5 74.608594 61.7 74.608594 
z
" style="fill:#eaeaf2;opacity:0.8;stroke:#cccccc;stroke-linejoin:miter;"/>
    </g>
    <g id="line2d_19"/>
    <g id="line2d_20">
     <g>
      <use style="fill:#4c72b0;stroke:#4c72b0;" x="74.9" xlink:href="#ma4797ccf74" y="48.483594"/>
     </g>
    </g>
    <g id="text_19">
     <!-- Predictions -->
     <defs>
      <path d="M 7.71875 0 
L 7.71875 71.578125 
L 34.71875 71.578125 
Q 41.84375 71.578125 45.609375 70.90625 
Q 50.875 70.015625 54.4375 67.546875 
Q 58.015625 65.09375 60.1875 60.640625 
Q 62.359375 56.203125 62.359375 50.875 
Q 62.359375 41.75 56.546875 35.421875 
Q 50.734375 29.109375 35.546875 29.109375 
L 17.1875 29.109375 
L 17.1875 0 
z
M 17.1875 37.546875 
L 35.6875 37.546875 
Q 44.875 37.546875 48.734375 40.96875 
Q 52.59375 44.390625 52.59375 50.59375 
Q 52.59375 55.078125 50.3125 58.265625 
Q 48.046875 61.46875 44.34375 62.5 
Q 41.9375 63.140625 35.5 63.140625 
L 17.1875 63.140625 
z
" id="ArialMT-80"/>
      <path d="M 3.328125 25.921875 
Q 3.328125 40.328125 11.328125 47.265625 
Q 18.015625 53.03125 27.640625 53.03125 
Q 38.328125 53.03125 45.109375 46.015625 
Q 51.90625 39.015625 51.90625 26.65625 
Q 51.90625 16.65625 48.90625 10.90625 
Q 45.90625 5.171875 40.15625 2 
Q 34.421875 -1.171875 27.640625 -1.171875 
Q 16.75 -1.171875 10.03125 5.8125 
Q 3.328125 12.796875 3.328125 25.921875 
z
M 12.359375 25.921875 
Q 12.359375 15.96875 16.703125 11.015625 
Q 21.046875 6.0625 27.640625 6.0625 
Q 34.1875 6.0625 38.53125 11.03125 
Q 42.875 16.015625 42.875 26.21875 
Q 42.875 35.84375 38.5 40.796875 
Q 34.125 45.75 27.640625 45.75 
Q 21.046875 45.75 16.703125 40.8125 
Q 12.359375 35.890625 12.359375 25.921875 
z
" id="ArialMT-111"/>
      <path d="M 6.59375 0 
L 6.59375 51.859375 
L 14.5 51.859375 
L 14.5 44.484375 
Q 20.21875 53.03125 31 53.03125 
Q 35.6875 53.03125 39.625 51.34375 
Q 43.5625 49.65625 45.515625 46.921875 
Q 47.46875 44.1875 48.25 40.4375 
Q 48.734375 37.984375 48.734375 31.890625 
L 48.734375 0 
L 39.9375 0 
L 39.9375 31.546875 
Q 39.9375 36.921875 38.90625 39.578125 
Q 37.890625 42.234375 35.28125 43.8125 
Q 32.671875 45.40625 29.15625 45.40625 
Q 23.53125 45.40625 19.453125 41.84375 
Q 15.375 38.28125 15.375 28.328125 
L 15.375 0 
z
" id="ArialMT-110"/>
     </defs>
     <g style="fill:#262626;" transform="translate(94.7 52.333594)scale(0.11 -0.11)">
      <use xlink:href="#ArialMT-80"/>
      <use x="66.699219" xlink:href="#ArialMT-114"/>
      <use x="100" xlink:href="#ArialMT-101"/>
      <use x="155.615234" xlink:href="#ArialMT-100"/>
      <use x="211.230469" xlink:href="#ArialMT-105"/>
      <use x="233.447266" xlink:href="#ArialMT-99"/>
      <use x="283.447266" xlink:href="#ArialMT-116"/>
      <use x="311.230469" xlink:href="#ArialMT-105"/>
      <use x="333.447266" xlink:href="#ArialMT-111"/>
      <use x="389.0625" xlink:href="#ArialMT-110"/>
      <use x="444.677734" xlink:href="#ArialMT-115"/>
     </g>
    </g>
    <g id="line2d_21">
     <path d="M 63.9 64.043438 
L 85.9 64.043438 
" style="fill:none;stroke:#dd8452;stroke-dasharray:5.55,2.4;stroke-dashoffset:0;stroke-width:1.5;"/>
    </g>
    <g id="line2d_22"/>
    <g id="text_20">
     <!-- y=x -->
     <defs>
      <path d="M 6.203125 -19.96875 
L 5.21875 -11.71875 
Q 8.109375 -12.5 10.25 -12.5 
Q 13.1875 -12.5 14.9375 -11.515625 
Q 16.703125 -10.546875 17.828125 -8.796875 
Q 18.65625 -7.46875 20.515625 -2.25 
Q 20.75 -1.515625 21.296875 -0.09375 
L 1.609375 51.859375 
L 11.078125 51.859375 
L 21.875 21.828125 
Q 23.96875 16.109375 25.640625 9.8125 
Q 27.15625 15.875 29.25 21.625 
L 40.328125 51.859375 
L 49.125 51.859375 
L 29.390625 -0.875 
Q 26.21875 -9.421875 24.46875 -12.640625 
Q 22.125 -17 19.09375 -19.015625 
Q 16.0625 -21.046875 11.859375 -21.046875 
Q 9.328125 -21.046875 6.203125 -19.96875 
z
" id="ArialMT-121"/>
      <path d="M 52.828125 42.09375 
L 5.5625 42.09375 
L 5.5625 50.296875 
L 52.828125 50.296875 
z
M 52.828125 20.359375 
L 5.5625 20.359375 
L 5.5625 28.5625 
L 52.828125 28.5625 
z
" id="ArialMT-61"/>
      <path d="M 0.734375 0 
L 19.671875 26.953125 
L 2.15625 51.859375 
L 13.140625 51.859375 
L 21.09375 39.703125 
Q 23.34375 36.234375 24.703125 33.890625 
Q 26.859375 37.109375 28.65625 39.59375 
L 37.40625 51.859375 
L 47.90625 51.859375 
L 29.984375 27.4375 
L 49.265625 0 
L 38.484375 0 
L 27.828125 16.109375 
L 25 20.453125 
L 11.375 0 
z
" id="ArialMT-120"/>
     </defs>
     <g style="fill:#262626;" transform="translate(94.7 67.893438)scale(0.11 -0.11)">
      <use xlink:href="#ArialMT-121"/>
      <use x="50" xlink:href="#ArialMT-61"/>
      <use x="108.398438" xlink:href="#ArialMT-120"/>
     </g>
    </g>
   </g>
  </g>
 </g>
 <defs>
  <clipPath id="pbad2f886d3">
   <rect height="217.44" width="334.8" x="54" y="34.56"/>
  </clipPath>
 </defs>
</svg>
