<?xml version="1.0" encoding="utf-8" standalone="no"?>
<!DOCTYPE svg PUBLIC "-//W3C//DTD SVG 1.1//EN"
  "http://www.w3.org/Graphics/SVG/1.1/DTD/svg11.dtd">
<!-- Created with matplotlib (https://matplotlib.org/) -->
<svg height="288pt" version="1.1" viewBox="0 0 432 288" width="432pt" xmlns="http://www.w3.org/2000/svg" xmlns:xlink="http://www.w3.org/1999/xlink">
 <defs>
  <style type="text/css">
*{stroke-linecap:butt;stroke-linejoin:round;}
  </style>
 </defs>
 <g id="figure_1">
  <g id="patch_1">
   <path d="M 0 288 
L 432 288 
L 432 0 
L 0 0 
z
" style="fill:#ffffff;"/>
  </g>
  <g id="axes_1">
   <g id="patch_2">
    <path d="M 60.96 241.54 
L 379.993125 241.54 
L 379.993125 12.96 
L 60.96 12.96 
z
" style="fill:#eaeaf2;"/>
   </g>
   <g id="matplotlib.axis_1">
    <g id="xtick_1">
     <g id="text_1">
      <!-- 0 -->
      <defs>
       <path d="M 4.15625 35.296875 
Q 4.15625 48 6.765625 55.734375 
Q 9.375 63.484375 14.515625 67.671875 
Q 19.671875 71.875 27.484375 71.875 
Q 33.25 71.875 37.59375 69.546875 
Q 41.9375 67.234375 44.765625 62.859375 
Q 47.609375 58.5 49.21875 52.21875 
Q 50.828125 45.953125 50.828125 35.296875 
Q 50.828125 22.703125 48.234375 14.96875 
Q 45.65625 7.234375 40.5 3 
Q 35.359375 -1.21875 27.484375 -1.21875 
Q 17.140625 -1.21875 11.234375 6.203125 
Q 4.15625 15.140625 4.15625 35.296875 
z
M 13.1875 35.296875 
Q 13.1875 17.671875 17.3125 11.828125 
Q 21.4375 6 27.484375 6 
Q 33.546875 6 37.671875 11.859375 
Q 41.796875 17.71875 41.796875 35.296875 
Q 41.796875 52.984375 37.671875 58.78125 
Q 33.546875 64.59375 27.390625 64.59375 
Q 21.34375 64.59375 17.71875 59.46875 
Q 13.1875 52.9375 13.1875 35.296875 
z
" id="ArialMT-48"/>
      </defs>
      <g style="fill:#262626;" transform="translate(72.40299 258.913594)scale(0.11 -0.11)">
       <use xlink:href="#ArialMT-48"/>
      </g>
     </g>
    </g>
    <g id="xtick_2">
     <g id="text_2">
      <!-- 10000 -->
      <defs>
       <path d="M 37.25 0 
L 28.46875 0 
L 28.46875 56 
Q 25.296875 52.984375 20.140625 49.953125 
Q 14.984375 46.921875 10.890625 45.40625 
L 10.890625 53.90625 
Q 18.265625 57.375 23.78125 62.296875 
Q 29.296875 67.234375 31.59375 71.875 
L 37.25 71.875 
z
" id="ArialMT-49"/>
      </defs>
      <g style="fill:#262626;" transform="translate(118.17611 258.913594)scale(0.11 -0.11)">
       <use xlink:href="#ArialMT-49"/>
       <use x="55.615234" xlink:href="#ArialMT-48"/>
       <use x="111.230469" xlink:href="#ArialMT-48"/>
       <use x="166.845703" xlink:href="#ArialMT-48"/>
       <use x="222.460938" xlink:href="#ArialMT-48"/>
      </g>
     </g>
    </g>
    <g id="xtick_3">
     <g id="text_3">
      <!-- 20000 -->
      <defs>
       <path d="M 50.34375 8.453125 
L 50.34375 0 
L 3.03125 0 
Q 2.9375 3.171875 4.046875 6.109375 
Q 5.859375 10.9375 9.828125 15.625 
Q 13.8125 20.3125 21.34375 26.46875 
Q 33.015625 36.03125 37.109375 41.625 
Q 41.21875 47.21875 41.21875 52.203125 
Q 41.21875 57.421875 37.46875 61 
Q 33.734375 64.59375 27.734375 64.59375 
Q 21.390625 64.59375 17.578125 60.78125 
Q 13.765625 56.984375 13.71875 50.25 
L 4.6875 51.171875 
Q 5.609375 61.28125 11.65625 66.578125 
Q 17.71875 71.875 27.9375 71.875 
Q 38.234375 71.875 44.234375 66.15625 
Q 50.25 60.453125 50.25 52 
Q 50.25 47.703125 48.484375 43.546875 
Q 46.734375 39.40625 42.65625 34.8125 
Q 38.578125 30.21875 29.109375 22.21875 
Q 21.1875 15.578125 18.9375 13.203125 
Q 16.703125 10.84375 15.234375 8.453125 
z
" id="ArialMT-50"/>
      </defs>
      <g style="fill:#262626;" transform="translate(176.183293 258.913594)scale(0.11 -0.11)">
       <use xlink:href="#ArialMT-50"/>
       <use x="55.615234" xlink:href="#ArialMT-48"/>
       <use x="111.230469" xlink:href="#ArialMT-48"/>
       <use x="166.845703" xlink:href="#ArialMT-48"/>
       <use x="222.460938" xlink:href="#ArialMT-48"/>
      </g>
     </g>
    </g>
    <g id="xtick_4">
     <g id="text_4">
      <!-- 30000 -->
      <defs>
       <path d="M 4.203125 18.890625 
L 12.984375 20.0625 
Q 14.5 12.59375 18.140625 9.296875 
Q 21.78125 6 27 6 
Q 33.203125 6 37.46875 10.296875 
Q 41.75 14.59375 41.75 20.953125 
Q 41.75 27 37.796875 30.921875 
Q 33.84375 34.859375 27.734375 34.859375 
Q 25.25 34.859375 21.53125 33.890625 
L 22.515625 41.609375 
Q 23.390625 41.5 23.921875 41.5 
Q 29.546875 41.5 34.03125 44.421875 
Q 38.53125 47.359375 38.53125 53.46875 
Q 38.53125 58.296875 35.25 61.46875 
Q 31.984375 64.65625 26.8125 64.65625 
Q 21.6875 64.65625 18.265625 61.421875 
Q 14.84375 58.203125 13.875 51.765625 
L 5.078125 53.328125 
Q 6.6875 62.15625 12.390625 67.015625 
Q 18.109375 71.875 26.609375 71.875 
Q 32.46875 71.875 37.390625 69.359375 
Q 42.328125 66.84375 44.9375 62.5 
Q 47.5625 58.15625 47.5625 53.265625 
Q 47.5625 48.640625 45.0625 44.828125 
Q 42.578125 41.015625 37.703125 38.765625 
Q 44.046875 37.3125 47.5625 32.6875 
Q 51.078125 28.078125 51.078125 21.140625 
Q 51.078125 11.765625 44.234375 5.25 
Q 37.40625 -1.265625 26.953125 -1.265625 
Q 17.53125 -1.265625 11.296875 4.34375 
Q 5.078125 9.96875 4.203125 18.890625 
z
" id="ArialMT-51"/>
      </defs>
      <g style="fill:#262626;" transform="translate(234.190476 258.913594)scale(0.11 -0.11)">
       <use xlink:href="#ArialMT-51"/>
       <use x="55.615234" xlink:href="#ArialMT-48"/>
       <use x="111.230469" xlink:href="#ArialMT-48"/>
       <use x="166.845703" xlink:href="#ArialMT-48"/>
       <use x="222.460938" xlink:href="#ArialMT-48"/>
      </g>
     </g>
    </g>
    <g id="xtick_5">
     <g id="text_5">
      <!-- 40000 -->
      <defs>
       <path d="M 32.328125 0 
L 32.328125 17.140625 
L 1.265625 17.140625 
L 1.265625 25.203125 
L 33.9375 71.578125 
L 41.109375 71.578125 
L 41.109375 25.203125 
L 50.78125 25.203125 
L 50.78125 17.140625 
L 41.109375 17.140625 
L 41.109375 0 
z
M 32.328125 25.203125 
L 32.328125 57.46875 
L 9.90625 25.203125 
z
" id="ArialMT-52"/>
      </defs>
      <g style="fill:#262626;" transform="translate(292.197659 258.913594)scale(0.11 -0.11)">
       <use xlink:href="#ArialMT-52"/>
       <use x="55.615234" xlink:href="#ArialMT-48"/>
       <use x="111.230469" xlink:href="#ArialMT-48"/>
       <use x="166.845703" xlink:href="#ArialMT-48"/>
       <use x="222.460938" xlink:href="#ArialMT-48"/>
      </g>
     </g>
    </g>
    <g id="xtick_6">
     <g id="text_6">
      <!-- 50000 -->
      <defs>
       <path d="M 4.15625 18.75 
L 13.375 19.53125 
Q 14.40625 12.796875 18.140625 9.390625 
Q 21.875 6 27.15625 6 
Q 33.5 6 37.890625 10.78125 
Q 42.28125 15.578125 42.28125 23.484375 
Q 42.28125 31 38.0625 35.34375 
Q 33.84375 39.703125 27 39.703125 
Q 22.75 39.703125 19.328125 37.765625 
Q 15.921875 35.84375 13.96875 32.765625 
L 5.71875 33.84375 
L 12.640625 70.609375 
L 48.25 70.609375 
L 48.25 62.203125 
L 19.671875 62.203125 
L 15.828125 42.96875 
Q 22.265625 47.46875 29.34375 47.46875 
Q 38.71875 47.46875 45.15625 40.96875 
Q 51.609375 34.46875 51.609375 24.265625 
Q 51.609375 14.546875 45.953125 7.46875 
Q 39.0625 -1.21875 27.15625 -1.21875 
Q 17.390625 -1.21875 11.203125 4.25 
Q 5.03125 9.71875 4.15625 18.75 
z
" id="ArialMT-53"/>
      </defs>
      <g style="fill:#262626;" transform="translate(350.204842 258.913594)scale(0.11 -0.11)">
       <use xlink:href="#ArialMT-53"/>
       <use x="55.615234" xlink:href="#ArialMT-48"/>
       <use x="111.230469" xlink:href="#ArialMT-48"/>
       <use x="166.845703" xlink:href="#ArialMT-48"/>
       <use x="222.460938" xlink:href="#ArialMT-48"/>
      </g>
     </g>
    </g>
    <g id="text_7">
     <!-- Episode -->
     <defs>
      <path d="M 7.90625 0 
L 7.90625 71.578125 
L 59.671875 71.578125 
L 59.671875 63.140625 
L 17.390625 63.140625 
L 17.390625 41.21875 
L 56.984375 41.21875 
L 56.984375 32.8125 
L 17.390625 32.8125 
L 17.390625 8.453125 
L 61.328125 8.453125 
L 61.328125 0 
z
" id="ArialMT-69"/>
      <path d="M 6.59375 -19.875 
L 6.59375 51.859375 
L 14.59375 51.859375 
L 14.59375 45.125 
Q 17.4375 49.078125 21 51.046875 
Q 24.5625 53.03125 29.640625 53.03125 
Q 36.28125 53.03125 41.359375 49.609375 
Q 46.4375 46.1875 49.015625 39.953125 
Q 51.609375 33.734375 51.609375 26.3125 
Q 51.609375 18.359375 48.75 11.984375 
Q 45.90625 5.609375 40.453125 2.21875 
Q 35.015625 -1.171875 29 -1.171875 
Q 24.609375 -1.171875 21.109375 0.6875 
Q 17.625 2.546875 15.375 5.375 
L 15.375 -19.875 
z
M 14.546875 25.640625 
Q 14.546875 15.625 18.59375 10.84375 
Q 22.65625 6.0625 28.421875 6.0625 
Q 34.28125 6.0625 38.453125 11.015625 
Q 42.625 15.96875 42.625 26.375 
Q 42.625 36.28125 38.546875 41.203125 
Q 34.46875 46.140625 28.8125 46.140625 
Q 23.1875 46.140625 18.859375 40.890625 
Q 14.546875 35.640625 14.546875 25.640625 
z
" id="ArialMT-112"/>
      <path d="M 6.640625 61.46875 
L 6.640625 71.578125 
L 15.4375 71.578125 
L 15.4375 61.46875 
z
M 6.640625 0 
L 6.640625 51.859375 
L 15.4375 51.859375 
L 15.4375 0 
z
" id="ArialMT-105"/>
      <path d="M 3.078125 15.484375 
L 11.765625 16.84375 
Q 12.5 11.625 15.84375 8.84375 
Q 19.1875 6.0625 25.203125 6.0625 
Q 31.25 6.0625 34.171875 8.515625 
Q 37.109375 10.984375 37.109375 14.3125 
Q 37.109375 17.28125 34.515625 19 
Q 32.71875 20.171875 25.53125 21.96875 
Q 15.875 24.421875 12.140625 26.203125 
Q 8.40625 27.984375 6.46875 31.125 
Q 4.546875 34.28125 4.546875 38.09375 
Q 4.546875 41.546875 6.125 44.5 
Q 7.71875 47.46875 10.453125 49.421875 
Q 12.5 50.921875 16.03125 51.96875 
Q 19.578125 53.03125 23.640625 53.03125 
Q 29.734375 53.03125 34.34375 51.265625 
Q 38.96875 49.515625 41.15625 46.5 
Q 43.359375 43.5 44.1875 38.484375 
L 35.59375 37.3125 
Q 35.015625 41.3125 32.203125 43.546875 
Q 29.390625 45.796875 24.265625 45.796875 
Q 18.21875 45.796875 15.625 43.796875 
Q 13.03125 41.796875 13.03125 39.109375 
Q 13.03125 37.40625 14.109375 36.03125 
Q 15.1875 34.625 17.484375 33.6875 
Q 18.796875 33.203125 25.25 31.453125 
Q 34.578125 28.953125 38.25 27.359375 
Q 41.9375 25.78125 44.03125 22.75 
Q 46.140625 19.734375 46.140625 15.234375 
Q 46.140625 10.84375 43.578125 6.953125 
Q 41.015625 3.078125 36.171875 0.953125 
Q 31.34375 -1.171875 25.25 -1.171875 
Q 15.140625 -1.171875 9.84375 3.03125 
Q 4.546875 7.234375 3.078125 15.484375 
z
" id="ArialMT-115"/>
      <path d="M 3.328125 25.921875 
Q 3.328125 40.328125 11.328125 47.265625 
Q 18.015625 53.03125 27.640625 53.03125 
Q 38.328125 53.03125 45.109375 46.015625 
Q 51.90625 39.015625 51.90625 26.65625 
Q 51.90625 16.65625 48.90625 10.90625 
Q 45.90625 5.171875 40.15625 2 
Q 34.421875 -1.171875 27.640625 -1.171875 
Q 16.75 -1.171875 10.03125 5.8125 
Q 3.328125 12.796875 3.328125 25.921875 
z
M 12.359375 25.921875 
Q 12.359375 15.96875 16.703125 11.015625 
Q 21.046875 6.0625 27.640625 6.0625 
Q 34.1875 6.0625 38.53125 11.03125 
Q 42.875 16.015625 42.875 26.21875 
Q 42.875 35.84375 38.5 40.796875 
Q 34.125 45.75 27.640625 45.75 
Q 21.046875 45.75 16.703125 40.8125 
Q 12.359375 35.890625 12.359375 25.921875 
z
" id="ArialMT-111"/>
      <path d="M 40.234375 0 
L 40.234375 6.546875 
Q 35.296875 -1.171875 25.734375 -1.171875 
Q 19.53125 -1.171875 14.328125 2.25 
Q 9.125 5.671875 6.265625 11.796875 
Q 3.421875 17.921875 3.421875 25.875 
Q 3.421875 33.640625 6 39.96875 
Q 8.59375 46.296875 13.765625 49.65625 
Q 18.953125 53.03125 25.34375 53.03125 
Q 30.03125 53.03125 33.6875 51.046875 
Q 37.359375 49.078125 39.65625 45.90625 
L 39.65625 71.578125 
L 48.390625 71.578125 
L 48.390625 0 
z
M 12.453125 25.875 
Q 12.453125 15.921875 16.640625 10.984375 
Q 20.84375 6.0625 26.5625 6.0625 
Q 32.328125 6.0625 36.34375 10.765625 
Q 40.375 15.484375 40.375 25.140625 
Q 40.375 35.796875 36.265625 40.765625 
Q 32.171875 45.75 26.171875 45.75 
Q 20.3125 45.75 16.375 40.96875 
Q 12.453125 36.1875 12.453125 25.875 
z
" id="ArialMT-100"/>
      <path d="M 42.09375 16.703125 
L 51.171875 15.578125 
Q 49.03125 7.625 43.21875 3.21875 
Q 37.40625 -1.171875 28.375 -1.171875 
Q 17 -1.171875 10.328125 5.828125 
Q 3.65625 12.84375 3.65625 25.484375 
Q 3.65625 38.578125 10.390625 45.796875 
Q 17.140625 53.03125 27.875 53.03125 
Q 38.28125 53.03125 44.875 45.953125 
Q 51.46875 38.875 51.46875 26.03125 
Q 51.46875 25.25 51.421875 23.6875 
L 12.75 23.6875 
Q 13.234375 15.140625 17.578125 10.59375 
Q 21.921875 6.0625 28.421875 6.0625 
Q 33.25 6.0625 36.671875 8.59375 
Q 40.09375 11.140625 42.09375 16.703125 
z
M 13.234375 30.90625 
L 42.1875 30.90625 
Q 41.609375 37.453125 38.875 40.71875 
Q 34.671875 45.796875 27.984375 45.796875 
Q 21.921875 45.796875 17.796875 41.75 
Q 13.671875 37.703125 13.234375 30.90625 
z
" id="ArialMT-101"/>
     </defs>
     <g style="fill:#1a1a1a;" transform="translate(198.795 273.689219)scale(0.12 -0.12)">
      <use xlink:href="#ArialMT-69"/>
      <use x="66.699219" xlink:href="#ArialMT-112"/>
      <use x="122.314453" xlink:href="#ArialMT-105"/>
      <use x="144.53125" xlink:href="#ArialMT-115"/>
      <use x="194.53125" xlink:href="#ArialMT-111"/>
      <use x="250.146484" xlink:href="#ArialMT-100"/>
      <use x="305.761719" xlink:href="#ArialMT-101"/>
     </g>
    </g>
   </g>
   <g id="matplotlib.axis_2">
    <g id="ytick_1">
     <g id="line2d_1">
      <defs>
       <path d="M 0 0 
L -6 0 
" id="m3ef0bf5dfb" style="stroke:#262626;stroke-width:1.25;"/>
      </defs>
      <g>
       <use style="fill:#262626;stroke:#262626;stroke-width:1.25;" x="60.96" xlink:href="#m3ef0bf5dfb" y="231.15"/>
      </g>
     </g>
     <g id="text_8">
      <!-- 0 -->
      <g style="fill:#1a1a1a;" transform="translate(45.342969 235.086797)scale(0.11 -0.11)">
       <use xlink:href="#ArialMT-48"/>
      </g>
     </g>
    </g>
    <g id="ytick_2">
     <g id="line2d_2">
      <g>
       <use style="fill:#262626;stroke:#262626;stroke-width:1.25;" x="60.96" xlink:href="#m3ef0bf5dfb" y="188.527446"/>
      </g>
     </g>
     <g id="text_9">
      <!-- 500 -->
      <g style="fill:#1a1a1a;" transform="translate(33.108906 192.464242)scale(0.11 -0.11)">
       <use xlink:href="#ArialMT-53"/>
       <use x="55.615234" xlink:href="#ArialMT-48"/>
       <use x="111.230469" xlink:href="#ArialMT-48"/>
      </g>
     </g>
    </g>
    <g id="ytick_3">
     <g id="line2d_3">
      <g>
       <use style="fill:#262626;stroke:#262626;stroke-width:1.25;" x="60.96" xlink:href="#m3ef0bf5dfb" y="145.904891"/>
      </g>
     </g>
     <g id="text_10">
      <!-- 1000 -->
      <g style="fill:#1a1a1a;" transform="translate(26.991875 149.841688)scale(0.11 -0.11)">
       <use xlink:href="#ArialMT-49"/>
       <use x="55.615234" xlink:href="#ArialMT-48"/>
       <use x="111.230469" xlink:href="#ArialMT-48"/>
       <use x="166.845703" xlink:href="#ArialMT-48"/>
      </g>
     </g>
    </g>
    <g id="ytick_4">
     <g id="line2d_4">
      <g>
       <use style="fill:#262626;stroke:#262626;stroke-width:1.25;" x="60.96" xlink:href="#m3ef0bf5dfb" y="103.282337"/>
      </g>
     </g>
     <g id="text_11">
      <!-- 1500 -->
      <g style="fill:#1a1a1a;" transform="translate(26.991875 107.219133)scale(0.11 -0.11)">
       <use xlink:href="#ArialMT-49"/>
       <use x="55.615234" xlink:href="#ArialMT-53"/>
       <use x="111.230469" xlink:href="#ArialMT-48"/>
       <use x="166.845703" xlink:href="#ArialMT-48"/>
      </g>
     </g>
    </g>
    <g id="ytick_5">
     <g id="line2d_5">
      <g>
       <use style="fill:#262626;stroke:#262626;stroke-width:1.25;" x="60.96" xlink:href="#m3ef0bf5dfb" y="60.659782"/>
      </g>
     </g>
     <g id="text_12">
      <!-- 2000 -->
      <g style="fill:#1a1a1a;" transform="translate(26.991875 64.596579)scale(0.11 -0.11)">
       <use xlink:href="#ArialMT-50"/>
       <use x="55.615234" xlink:href="#ArialMT-48"/>
       <use x="111.230469" xlink:href="#ArialMT-48"/>
       <use x="166.845703" xlink:href="#ArialMT-48"/>
      </g>
     </g>
    </g>
    <g id="ytick_6">
     <g id="line2d_6">
      <g>
       <use style="fill:#262626;stroke:#262626;stroke-width:1.25;" x="60.96" xlink:href="#m3ef0bf5dfb" y="18.037228"/>
      </g>
     </g>
     <g id="text_13">
      <!-- 2500 -->
      <g style="fill:#1a1a1a;" transform="translate(26.991875 21.974024)scale(0.11 -0.11)">
       <use xlink:href="#ArialMT-50"/>
       <use x="55.615234" xlink:href="#ArialMT-53"/>
       <use x="111.230469" xlink:href="#ArialMT-48"/>
       <use x="166.845703" xlink:href="#ArialMT-48"/>
      </g>
     </g>
    </g>
    <g id="text_14">
     <!-- qa -->
     <defs>
      <path d="M 39.65625 -19.875 
L 39.65625 5.515625 
Q 37.59375 2.640625 33.90625 0.734375 
Q 30.21875 -1.171875 26.078125 -1.171875 
Q 16.84375 -1.171875 10.171875 6.203125 
Q 3.515625 13.578125 3.515625 26.421875 
Q 3.515625 34.234375 6.21875 40.421875 
Q 8.9375 46.625 14.078125 49.828125 
Q 19.234375 53.03125 25.390625 53.03125 
Q 35.015625 53.03125 40.53125 44.921875 
L 40.53125 51.859375 
L 48.4375 51.859375 
L 48.4375 -19.875 
z
M 12.546875 26.078125 
Q 12.546875 16.0625 16.75 11.0625 
Q 20.953125 6.0625 26.8125 6.0625 
Q 32.421875 6.0625 36.46875 10.8125 
Q 40.53125 15.578125 40.53125 25.296875 
Q 40.53125 35.640625 36.25 40.859375 
Q 31.984375 46.09375 26.21875 46.09375 
Q 20.515625 46.09375 16.53125 41.234375 
Q 12.546875 36.375 12.546875 26.078125 
z
" id="ArialMT-113"/>
      <path d="M 40.4375 6.390625 
Q 35.546875 2.25 31.03125 0.53125 
Q 26.515625 -1.171875 21.34375 -1.171875 
Q 12.796875 -1.171875 8.203125 3 
Q 3.609375 7.171875 3.609375 13.671875 
Q 3.609375 17.484375 5.34375 20.625 
Q 7.078125 23.78125 9.890625 25.6875 
Q 12.703125 27.59375 16.21875 28.5625 
Q 18.796875 29.25 24.03125 29.890625 
Q 34.671875 31.15625 39.703125 32.90625 
Q 39.75 34.71875 39.75 35.203125 
Q 39.75 40.578125 37.25 42.78125 
Q 33.890625 45.75 27.25 45.75 
Q 21.046875 45.75 18.09375 43.578125 
Q 15.140625 41.40625 13.71875 35.890625 
L 5.125 37.0625 
Q 6.296875 42.578125 8.984375 45.96875 
Q 11.671875 49.359375 16.75 51.1875 
Q 21.828125 53.03125 28.515625 53.03125 
Q 35.15625 53.03125 39.296875 51.46875 
Q 43.453125 49.90625 45.40625 47.53125 
Q 47.359375 45.171875 48.140625 41.546875 
Q 48.578125 39.3125 48.578125 33.453125 
L 48.578125 21.734375 
Q 48.578125 9.46875 49.140625 6.21875 
Q 49.703125 2.984375 51.375 0 
L 42.1875 0 
Q 40.828125 2.734375 40.4375 6.390625 
z
M 39.703125 26.03125 
Q 34.90625 24.078125 25.34375 22.703125 
Q 19.921875 21.921875 17.671875 20.9375 
Q 15.4375 19.96875 14.203125 18.09375 
Q 12.984375 16.21875 12.984375 13.921875 
Q 12.984375 10.40625 15.640625 8.0625 
Q 18.3125 5.71875 23.4375 5.71875 
Q 28.515625 5.71875 32.46875 7.9375 
Q 36.421875 10.15625 38.28125 14.015625 
Q 39.703125 17 39.703125 22.796875 
z
" id="ArialMT-97"/>
     </defs>
     <g style="fill:#262626;" transform="translate(20.606875 133.923125)rotate(-90)scale(0.12 -0.12)">
      <use xlink:href="#ArialMT-113"/>
      <use x="55.615234" xlink:href="#ArialMT-97"/>
     </g>
    </g>
   </g>
   <g id="line2d_7">
    <path clip-path="url(#p24405aa0bb)" d="M 75.461506 231.15 
L 77.068305 231.039305 
L 77.746989 230.987287 
L 79.086955 230.881426 
L 79.231973 230.873072 
L 80.467526 230.76255 
L 80.658949 230.730917 
L 81.720481 230.624993 
L 81.871299 230.593882 
L 82.729806 230.534281 
L 83.843544 230.431224 
L 84.000163 230.395138 
L 85.090698 230.288435 
L 85.241517 230.268738 
L 86.581483 230.159617 
L 86.813511 230.103825 
L 87.880844 229.993512 
L 89.197607 229.825905 
L 90.003906 229.720059 
L 90.148924 229.703515 
L 91.425082 229.592711 
L 91.593303 229.559876 
L 92.277788 229.452004 
L 92.428607 229.430647 
L 93.623555 229.320634 
L 93.774373 229.296727 
L 95.102738 229.18981 
L 95.28256 229.15735 
L 96.280284 229.053069 
L 96.425302 229.044925 
L 97.655054 228.934132 
L 97.846478 228.910131 
L 98.855803 228.800306 
L 99.047226 228.773795 
L 100.311783 228.667202 
L 100.485804 228.640145 
L 101.82577 228.531332 
L 101.976589 228.513315 
L 103.142533 228.407195 
L 103.287551 228.392227 
L 104.818941 228.27965 
L 104.987162 228.264735 
L 105.996487 228.156533 
L 106.18791 228.125321 
L 107.742503 228.015684 
L 107.904923 227.994928 
L 109.070867 227.890072 
L 109.221686 227.862486 
L 110.729873 227.751545 
L 110.880692 227.733102 
L 112.446885 227.626354 
L 112.603505 227.602071 
L 113.398203 227.49365 
L 113.566424 227.476258 
L 114.459735 227.371659 
L 114.610553 227.341812 
L 115.747494 227.233881 
L 115.904114 227.211313 
L 117.128065 227.10739 
L 117.278884 227.093436 
L 118.839277 226.984323 
L 118.978494 226.973305 
L 120.15604 226.865917 
L 120.306859 226.850667 
L 121.356789 226.741529 
L 121.52501 226.711454 
L 122.754762 226.600602 
L 122.928783 226.588156 
L 123.78729 226.482799 
L 123.932308 226.46088 
L 125.249071 226.352614 
L 125.394089 226.339076 
L 126.386012 226.234654 
L 126.542631 226.206053 
L 128.201636 226.095331 
L 128.509074 226.053839 
L 129.936051 225.949015 
L 130.110073 225.920598 
L 131.571854 225.81445 
L 131.769078 225.775678 
L 133.109044 225.668316 
L 133.248261 225.65873 
L 134.866662 225.555957 
L 135.01748 225.527322 
L 136.641681 225.419436 
L 136.780899 225.40891 
L 139.106987 225.255868 
L 139.246204 225.24079 
L 140.974818 225.105995 
L 141.177843 225.08928 
L 142.668628 224.985949 
L 142.807845 224.971088 
L 144.095604 224.860051 
L 145.818418 224.715309 
L 146.015642 224.687983 
L 146.4797 224.665006 
L 147.460021 224.554548 
L 148.266321 224.497172 
L 149.38586 224.387614 
L 149.722301 224.345854 
L 151.81636 224.213508 
L 151.961378 224.203575 
L 153.011308 224.093606 
L 153.225935 224.060171 
L 155.273589 223.954194 
L 155.441809 223.939524 
L 156.65416 223.829225 
L 156.81658 223.818763 
L 158.881635 223.715091 
L 159.026653 223.693264 
L 160.546442 223.582823 
L 160.685659 223.571791 
L 162.524486 223.464575 
L 162.698508 223.447584 
L 164.276303 223.338145 
L 164.740361 223.301258 
L 166.364562 223.192714 
L 166.515381 223.185022 
L 168.011966 223.075919 
L 168.162785 223.059704 
L 170.297449 222.953562 
L 170.436666 222.94479 
L 171.799835 222.838775 
L 171.950654 222.821775 
L 173.922898 222.710885 
L 174.067916 222.694815 
L 176.585428 222.585951 
L 176.753648 222.571866 
L 178.766498 222.466183 
L 178.923117 222.437542 
L 181.144792 222.327397 
L 181.400024 222.319385 
L 183.482482 222.2085 
L 187.75181 221.925441 
L 190.060496 221.816738 
L 190.205514 221.802818 
L 192.137153 221.69401 
L 192.328577 221.689739 
L 194.590857 221.581479 
L 194.764879 221.567086 
L 195.09552 221.547495 
L 197.253387 221.442992 
L 197.392604 221.434702 
L 199.475062 221.326263 
L 199.741895 221.315711 
L 201.592324 221.207325 
L 201.772146 221.190733 
L 204.214249 221.08098 
L 204.365067 221.067553 
L 207.990516 220.958373 
L 208.222545 220.954979 
L 210.084576 220.846533 
L 210.357209 220.821542 
L 211.969809 220.717644 
L 212.114827 220.710418 
L 215.490845 220.601591 
L 215.798283 220.573033 
L 218.344799 220.468932 
L 218.495617 220.439474 
L 220.53747 220.331577 
L 220.740495 220.326828 
L 224.24993 220.221043 
L 224.394948 220.20326 
L 228.809294 220.096785 
L 228.954312 220.084755 
L 231.930081 219.973801 
L 232.115704 219.961118 
L 235.219088 219.853997 
L 235.358305 219.841214 
L 241.014006 219.730671 
L 241.153223 219.722729 
L 245.840203 219.615279 
L 246.014225 219.58563 
L 251.176864 219.477296 
L 251.321882 219.469685 
L 259.727123 219.360674 
L 260.040362 219.358359 
L 266.044105 219.251534 
L 266.212326 219.24626 
L 275.77771 219.141705 
L 275.916928 219.130142 
L 292.541786 219.020305 
L 292.686804 219.012634 
L 365.491619 219.006727 
L 365.491619 219.006727 
" style="fill:none;stroke:#4c72b0;stroke-linecap:round;stroke-width:1.5;"/>
   </g>
   <g id="line2d_8">
    <path clip-path="url(#p24405aa0bb)" d="M 75.461506 231.15 
L 76.38382 231.044046 
L 76.592646 231.004082 
L 77.056703 230.898955 
L 77.236525 230.839757 
L 77.625174 230.735075 
L 77.799195 230.697638 
L 78.622897 230.59243 
L 78.802719 230.548563 
L 79.382791 230.438748 
L 81.511655 229.995547 
L 82.167136 229.890646 
L 82.36436 229.796202 
L 82.898027 229.685347 
L 85.1081 229.267508 
L 85.253118 229.248077 
L 85.728777 229.14233 
L 85.873795 229.122064 
L 86.587283 229.011176 
L 92.521418 227.799566 
L 92.689639 227.74531 
L 92.997077 227.635485 
L 93.704765 227.427094 
L 94.209427 227.321511 
L 94.412452 227.257255 
L 94.934517 227.150945 
L 95.091136 227.111251 
L 95.357969 227.006223 
L 95.584197 226.913024 
L 95.972846 226.764456 
L 96.164269 226.728868 
L 96.483309 226.624488 
L 96.668932 226.553846 
L 96.953167 226.448186 
L 97.13879 226.412803 
L 97.637652 226.307604 
L 97.800072 226.259502 
L 98.339539 226.148926 
L 98.519361 226.099215 
L 99.145838 225.991321 
L 99.290856 225.970965 
L 99.604095 225.867999 
L 99.766515 225.8245 
L 99.96374 225.714632 
L 100.172566 225.644049 
L 100.781641 225.534781 
L 101.002068 225.447245 
L 101.524133 225.341062 
L 101.703955 225.268969 
L 102.121607 225.144095 
L 102.400041 225.0448 
L 102.771287 224.934743 
L 102.985914 224.860279 
L 103.577587 224.75197 
L 103.769011 224.670728 
L 104.372286 224.507557 
L 104.540506 224.45975 
L 104.830542 224.352199 
L 104.998763 224.303914 
L 105.555632 224.193859 
L 105.816664 224.083597 
L 106.234316 223.97512 
L 106.419939 223.901721 
L 107.040616 223.780981 
L 107.226239 223.71357 
L 108.920049 223.323166 
L 109.152077 223.24279 
L 109.517523 223.135416 
L 109.691544 223.095549 
L 110.103395 222.985692 
L 110.277417 222.927094 
L 110.695069 222.803479 
L 110.880692 222.726924 
L 111.19393 222.614951 
L 111.814607 222.381414 
L 111.977027 222.341 
L 112.649911 222.236201 
L 112.812331 222.196198 
L 113.166175 222.09354 
L 113.351798 222.014185 
L 113.77525 221.908107 
L 113.914467 221.899031 
L 114.268311 221.790271 
L 114.633756 221.668422 
L 114.90639 221.558894 
L 115.080412 221.502141 
L 115.318241 221.393147 
L 115.654683 221.252934 
L 116.043331 221.14291 
L 116.292762 221.072542 
L 116.774221 220.950473 
L 117.371695 220.706121 
L 117.748742 220.596264 
L 117.940166 220.511943 
L 118.172194 220.405562 
L 118.37522 220.303566 
L 118.694259 220.192951 
L 119.401947 219.861365 
L 119.610773 219.749561 
L 119.976218 219.638643 
L 120.196645 219.519229 
L 120.457677 219.412723 
L 120.678105 219.314615 
L 120.863728 219.205183 
L 121.496006 218.935142 
L 121.751238 218.82443 
L 121.954263 218.765377 
L 122.2559 218.656987 
L 122.82437 218.435596 
L 123.126008 218.325491 
L 123.723482 218.114329 
L 123.990315 218.007195 
L 124.216543 217.87691 
L 124.779213 217.767483 
L 125.005441 217.655562 
L 125.544907 217.544499 
L 126.008965 217.387898 
L 126.322204 217.2815 
L 126.507827 217.204333 
L 126.873272 217.099007 
L 127.035692 217.059587 
L 127.250319 216.953668 
L 127.453344 216.872478 
L 127.731778 216.766484 
L 128.004412 216.632828 
L 128.248042 216.529791 
L 128.468469 216.403762 
L 128.781708 216.301115 
L 128.938328 216.267422 
L 129.234164 216.152334 
L 129.657617 215.997173 
L 130.104272 215.883017 
L 130.359504 215.756564 
L 130.608934 215.646208 
L 130.904771 215.531387 
L 131.1368 215.421535 
L 131.38043 215.348375 
L 131.815484 215.241684 
L 131.989505 215.181221 
L 132.418759 215.071372 
L 132.848012 214.819831 
L 133.132247 214.709324 
L 133.648511 214.522993 
L 133.892141 214.40783 
L 134.21118 214.271259 
L 134.570825 214.161171 
L 134.756448 214.131069 
L 135.185701 214.01935 
L 135.388726 213.924176 
L 135.614954 213.816866 
L 136.055809 213.618148 
L 136.322642 213.512458 
L 136.531468 213.423692 
L 137.012927 213.180599 
L 137.331967 213.070911 
L 137.51759 212.993778 
L 137.830829 212.858016 
L 138.074459 212.692617 
L 138.254281 212.588109 
L 138.445705 212.52004 
L 138.89236 212.40899 
L 139.600048 212.140101 
L 139.982895 211.925145 
L 140.278732 211.799187 
L 140.568768 211.647813 
L 140.731188 211.540899 
L 141.050227 211.424531 
L 141.404071 211.280172 
L 141.937737 211.11549 
L 142.216172 211.009694 
L 142.471403 210.920433 
L 142.964464 210.811855 
L 143.16749 210.708768 
L 143.556138 210.598662 
L 143.770764 210.480655 
L 144.084003 210.371124 
L 144.292829 210.287545 
L 144.664075 210.181451 
L 144.878701 210.110222 
L 145.186139 210.001995 
L 145.389165 209.907162 
L 145.795215 209.801822 
L 145.980838 209.742747 
L 146.357885 209.63579 
L 146.584113 209.529021 
L 146.787138 209.423397 
L 147.04817 209.2856 
L 147.344007 209.174863 
L 147.993687 208.912018 
L 148.214114 208.845186 
L 148.434542 208.739423 
L 148.840592 208.49433 
L 149.043617 208.385123 
L 149.339454 208.233525 
L 149.878921 207.998614 
L 150.105149 207.889657 
L 150.308174 207.794565 
L 150.656217 207.686279 
L 150.847641 207.605586 
L 151.358104 207.500429 
L 151.532125 207.459896 
L 152.001983 207.354866 
L 152.373229 207.094183 
L 152.651664 206.971935 
L 152.877892 206.831041 
L 153.080917 206.723626 
L 153.289743 206.609991 
L 153.539174 206.499978 
L 153.956826 206.333965 
L 154.444086 206.00877 
L 154.647111 205.911342 
L 154.902343 205.803225 
L 155.145973 205.643799 
L 155.470813 205.535949 
L 155.68544 205.449695 
L 155.92907 205.362296 
L 156.248109 205.251473 
L 156.491739 205.213676 
L 156.781775 205.107427 
L 157.054409 204.97856 
L 157.263235 204.87165 
L 157.617079 204.681552 
L 157.831705 204.571362 
L 158.156546 204.366641 
L 158.347969 204.256719 
L 158.980248 204.00801 
L 159.131066 203.899312 
L 159.368896 203.751096 
L 159.531316 203.644537 
L 159.774946 203.492288 
L 160.001174 203.368614 
L 160.215801 203.247373 
L 160.505836 203.137374 
L 160.813275 202.895658 
L 163.591819 201.627284 
L 163.887655 201.518316 
L 164.427122 201.197127 
L 164.577941 201.088008 
L 164.786767 200.978073 
L 164.97239 200.867195 
L 165.175415 200.767361 
L 165.308831 200.661198 
L 165.517657 200.550664 
L 165.668476 200.446584 
L 165.917907 200.283216 
L 166.173138 200.145994 
L 166.341359 200.039398 
L 166.75321 199.714815 
L 168.162785 199.155485 
L 168.377411 199.03415 
L 168.586237 198.930739 
L 168.777661 198.839703 
L 168.980686 198.734756 
L 169.189512 198.658239 
L 169.525953 198.502757 
L 169.833391 198.393937 
L 170.204637 198.309317 
L 170.802111 198.100179 
L 171.405386 197.805622 
L 171.747629 197.620038 
L 171.962255 197.510391 
L 172.432113 197.197954 
L 176.556424 195.416391 
L 176.840659 195.200656 
L 177.130695 195.048478 
L 177.32792 194.938394 
L 177.554148 194.799535 
L 177.780376 194.690143 
L 178.006604 194.578779 
L 178.453259 194.40422 
L 178.638882 194.327958 
L 179.02753 194.221454 
L 179.276961 194.081107 
L 179.862833 193.821365 
L 180.47771 193.376716 
L 180.692336 193.267363 
L 180.906963 193.148889 
L 181.075184 193.040194 
L 181.342017 192.8621 
L 181.516038 192.734953 
L 181.713263 192.650912 
L 181.887284 192.544554 
L 182.130914 192.422438 
L 182.345541 192.316586 
L 182.600772 192.134148 
L 182.792196 192.024142 
L 183.360667 191.752899 
L 183.6333 191.64935 
L 183.888532 191.496636 
L 184.120561 191.387478 
L 184.306184 191.310778 
L 184.491807 191.197175 
L 184.770241 190.987314 
L 185.211096 190.793832 
L 185.367715 190.686628 
L 185.599744 190.55543 
L 186.005794 190.444449 
L 187.740209 189.440982 
L 188.07085 189.221368 
L 188.215868 189.113979 
L 188.482701 188.912162 
L 188.761135 188.789549 
L 189.097577 188.615636 
L 189.318004 188.511267 
L 189.486225 188.479128 
L 189.735656 188.369968 
L 191.417864 187.367989 
L 191.684697 187.176214 
L 192.554805 186.704879 
L 192.769432 186.598197 
L 192.955055 186.544082 
L 193.134877 186.424799 
L 193.326301 186.343378 
L 193.575731 186.194032 
L 194.329825 185.725413 
L 195.234737 185.109852 
L 195.449363 184.984789 
L 195.791606 184.695417 
L 196.052638 184.586207 
L 197.456412 183.600789 
L 197.752249 183.363654 
L 198.030683 183.252884 
L 198.674563 182.891861 
L 198.854385 182.780893 
L 199.21403 182.465282 
L 199.509866 182.312497 
L 199.799902 182.079218 
L 200.008728 181.972027 
L 200.368373 181.786615 
L 200.693213 181.60346 
L 201.070259 181.35246 
L 201.31969 181.244868 
L 201.528516 181.187131 
L 201.673534 181.082791 
L 201.870759 180.984627 
L 202.154994 180.815006 
L 202.955493 180.360585 
L 203.123714 180.246963 
L 206.256102 178.247756 
L 206.435924 178.138156 
L 206.731761 177.903763 
L 206.96959 177.797228 
L 207.201619 177.649631 
L 207.335035 177.541576 
L 207.996317 177.020089 
L 208.10073 176.91409 
L 208.309556 176.802736 
L 208.970838 176.361942 
L 209.191265 176.23356 
L 209.574112 176.05692 
L 209.782938 175.949562 
L 209.939558 175.838989 
L 210.629843 175.431848 
L 210.803865 175.377763 
L 210.948883 175.273075 
L 211.354933 174.936595 
L 211.749382 174.694803 
L 212.039418 174.493865 
L 212.277247 174.339869 
L 212.53828 174.228858 
L 213.327177 173.751977 
L 213.67522 173.57528 
L 214.208886 173.151739 
L 214.40031 173.062971 
L 214.620737 172.953761 
L 214.997784 172.640102 
L 216.053515 171.820195 
L 216.221736 171.714497 
L 216.476967 171.544741 
L 216.848213 171.371555 
L 217.115046 171.191668 
L 217.30647 171.060627 
L 217.526897 170.935246 
L 217.741524 170.828836 
L 218.008357 170.672867 
L 218.153375 170.564848 
L 218.443411 170.334847 
L 218.634834 170.224518 
L 218.866863 170.0774 
L 219.122095 169.914652 
L 219.267113 169.807023 
L 219.934195 169.332036 
L 220.166224 169.225422 
L 220.421456 169.08513 
L 220.653484 168.97604 
L 221.111741 168.598784 
L 221.256759 168.489075 
L 221.471386 168.368835 
L 221.697614 168.175701 
L 222.138468 167.772207 
L 222.254483 167.663237 
L 222.561921 167.418703 
L 222.747544 167.308047 
L 223.159395 167.063618 
L 223.501637 166.785609 
L 224.104912 166.33982 
L 224.435553 166.05077 
L 225.410073 165.430407 
L 225.549291 165.322129 
L 226.489007 164.574376 
L 227.214097 164.007114 
L 227.881179 163.45567 
L 228.026197 163.316865 
L 228.426447 162.978445 
L 228.588867 162.868574 
L 228.913707 162.624967 
L 230.004242 161.801611 
L 230.416093 161.598675 
L 230.79314 161.312018 
L 230.932357 161.203927 
L 231.251397 160.9329 
L 231.500828 160.824362 
L 231.779262 160.664017 
L 234.145955 158.881013 
L 234.43019 158.658603 
L 234.534603 158.551433 
L 234.859443 158.291296 
L 235.323501 157.930705 
L 235.625138 157.709299 
L 235.816562 157.602212 
L 236.164605 157.288812 
L 236.28642 157.18338 
L 237.034713 156.531804 
L 237.220336 156.411049 
L 237.458165 156.257697 
L 237.603183 156.147639 
L 237.870016 155.953132 
L 238.003433 155.843397 
L 238.339874 155.564977 
L 238.519697 155.456438 
L 238.740124 155.335808 
L 238.890943 155.221036 
L 239.285392 154.944561 
L 239.726246 154.672541 
L 240.039485 154.437581 
L 240.219307 154.329537 
L 240.526745 154.076163 
L 240.915393 153.787036 
L 241.112618 153.600593 
L 241.483864 153.251845 
L 242.011729 152.751649 
L 242.121943 152.642923 
L 242.626605 152.196177 
L 244.854081 150.303797 
L 245.283334 149.982879 
L 245.817 149.624661 
L 246.228851 149.353587 
L 246.495684 149.167046 
L 246.646503 149.03818 
L 247.232376 148.410387 
L 248.375117 147.392617 
L 248.473729 147.283542 
L 248.955189 146.821135 
L 249.210421 146.708643 
L 249.599069 146.456086 
L 249.720884 146.350529 
L 250.121133 146.018222 
L 250.480778 145.792908 
L 251.379889 144.992929 
L 251.803342 144.590283 
L 251.890352 144.486812 
L 252.290602 144.099619 
L 252.418218 143.991085 
L 252.731457 143.735511 
L 252.847471 143.629184 
L 253.207115 143.297725 
L 253.369536 143.192604 
L 254.547081 142.095386 
L 254.790712 141.897955 
L 256.762956 140.120679 
L 256.884771 140.016496 
L 257.28502 139.630635 
L 257.789683 139.240351 
L 257.946302 139.129861 
L 260.585629 136.96582 
L 260.991679 136.620011 
L 261.096092 136.510229 
L 261.583353 135.999382 
L 264.350295 133.527191 
L 265.371222 132.635083 
L 265.742468 132.388557 
L 267.233252 130.960306 
L 267.384071 130.848214 
L 267.85973 130.350333 
L 267.964143 130.24156 
L 269.228699 129.066276 
L 269.420123 128.96126 
L 270.139412 128.245792 
L 270.267028 128.127488 
L 271.003719 127.380303 
L 271.125534 127.264984 
L 272.720732 125.59386 
L 273.231195 125.054855 
L 273.498028 124.88526 
L 274.350734 124.01951 
L 274.745182 123.669206 
L 274.855396 123.561453 
L 275.423866 123.002531 
L 275.748707 122.675037 
L 276.137355 122.301496 
L 277.819563 120.597791 
L 278.219813 120.241025 
L 278.324226 120.132242 
L 278.736077 119.733123 
L 278.939102 119.517024 
L 279.513373 118.870641 
L 279.745402 118.60451 
L 280.748926 117.625315 
L 280.876542 117.518374 
L 281.328998 117.098995 
L 281.439211 116.989234 
L 281.584229 116.81224 
L 282.036685 116.418148 
L 282.181703 116.301258 
L 282.634159 115.83523 
L 287.593773 110.634113 
L 288.104237 110.082028 
L 290.250502 107.690087 
L 290.418723 107.548661 
L 291.184418 106.641735 
L 291.28303 106.536198 
L 292.042924 105.652873 
L 292.135736 105.549573 
L 292.710007 104.907384 
L 292.81442 104.791566 
L 293.672926 103.757709 
L 298.22649 98.696572 
L 298.330903 98.583169 
L 299.189409 97.580238 
L 299.334427 97.412776 
L 300.482969 96.14336 
L 301.196458 95.314042 
L 304.404255 91.738211 
L 304.508668 91.624516 
L 322.392282 71.38743 
L 322.514098 71.262351 
L 323.186981 70.484114 
L 323.900469 69.63902 
L 324.840186 68.646641 
L 324.985204 68.502249 
L 325.484065 67.918197 
L 325.977126 67.389099 
L 326.075739 67.284967 
L 326.661611 66.639562 
L 328.256809 64.83647 
L 328.877485 64.118296 
L 328.987699 64.011012 
L 329.759195 63.107624 
L 329.875209 62.980027 
L 330.513288 62.253518 
L 330.722114 62.049864 
L 331.627026 60.962937 
L 332.653753 59.747351 
L 332.746565 59.640743 
L 333.303434 59.038533 
L 333.425249 58.933163 
L 335.61792 56.493677 
L 335.757137 56.361814 
L 336.325608 55.720956 
L 336.476426 55.539415 
L 338.593689 53.168119 
L 339.127355 52.606034 
L 339.57401 52.147113 
L 339.806039 51.871544 
L 340.473121 51.086752 
L 341.424439 50.088223 
L 342.050917 49.36056 
L 342.195935 49.197624 
L 343.21106 48.042361 
L 343.309673 47.92542 
L 344.01736 47.094384 
L 344.150777 46.935444 
L 344.556827 46.455441 
L 345.31092 45.575248 
L 345.403732 45.46403 
L 346.11142 44.686897 
L 346.691491 44.032865 
L 347.967649 42.707383 
L 348.182276 42.503614 
L 348.692739 41.987315 
L 350.334342 40.238396 
L 350.746193 39.841141 
L 353.634951 36.772879 
L 354.377443 35.933019 
L 355.589793 34.530221 
L 356.37289 33.651318 
L 356.500506 33.544179 
L 357.266201 32.731998 
L 357.411219 32.565858 
L 357.921682 32.011265 
L 359.163036 30.705471 
L 359.273249 30.586407 
L 359.864923 29.91687 
L 360.027343 29.73895 
L 360.920653 28.650722 
L 362.283822 27.039224 
L 362.568057 26.724799 
L 363.258343 25.923108 
L 365.491619 23.35 
L 365.491619 23.35 
" style="fill:none;stroke:#dd8452;stroke-linecap:round;stroke-width:1.5;"/>
   </g>
   <g id="patch_3">
    <path d="M 60.96 241.54 
L 60.96 12.96 
" style="fill:none;stroke:#ffffff;stroke-linecap:square;stroke-linejoin:miter;stroke-width:1.25;"/>
   </g>
   <g id="patch_4">
    <path d="M 379.993125 241.54 
L 379.993125 12.96 
" style="fill:none;stroke:#ffffff;stroke-linecap:square;stroke-linejoin:miter;stroke-width:1.25;"/>
   </g>
   <g id="patch_5">
    <path d="M 60.96 241.54 
L 379.993125 241.54 
" style="fill:none;stroke:#ffffff;stroke-linecap:square;stroke-linejoin:miter;stroke-width:1.25;"/>
   </g>
   <g id="patch_6">
    <path d="M 60.96 12.96 
L 379.993125 12.96 
" style="fill:none;stroke:#ffffff;stroke-linecap:square;stroke-linejoin:miter;stroke-width:1.25;"/>
   </g>
  </g>
  <g id="axes_2">
   <g id="matplotlib.axis_3">
    <g id="ytick_7">
     <g id="line2d_9">
      <defs>
       <path d="M 0 0 
L 6 0 
" id="m1de7545de1" style="stroke:#262626;stroke-width:1.25;"/>
      </defs>
      <g>
       <use style="fill:#262626;stroke:#262626;stroke-width:1.25;" x="379.993125" xlink:href="#m1de7545de1" y="231.147506"/>
      </g>
     </g>
     <g id="text_15">
      <!-- 0.0 -->
      <defs>
       <path d="M 9.078125 0 
L 9.078125 10.015625 
L 19.09375 10.015625 
L 19.09375 0 
z
" id="ArialMT-46"/>
      </defs>
      <g style="fill:#1a1a1a;" transform="translate(389.493125 235.084303)scale(0.11 -0.11)">
       <use xlink:href="#ArialMT-48"/>
       <use x="55.615234" xlink:href="#ArialMT-46"/>
       <use x="83.398438" xlink:href="#ArialMT-48"/>
      </g>
     </g>
    </g>
    <g id="ytick_8">
     <g id="line2d_10">
      <g>
       <use style="fill:#262626;stroke:#262626;stroke-width:1.25;" x="379.993125" xlink:href="#m1de7545de1" y="189.588005"/>
      </g>
     </g>
     <g id="text_16">
      <!-- 0.2 -->
      <g style="fill:#1a1a1a;" transform="translate(389.493125 193.524802)scale(0.11 -0.11)">
       <use xlink:href="#ArialMT-48"/>
       <use x="55.615234" xlink:href="#ArialMT-46"/>
       <use x="83.398438" xlink:href="#ArialMT-50"/>
      </g>
     </g>
    </g>
    <g id="ytick_9">
     <g id="line2d_11">
      <g>
       <use style="fill:#262626;stroke:#262626;stroke-width:1.25;" x="379.993125" xlink:href="#m1de7545de1" y="148.028504"/>
      </g>
     </g>
     <g id="text_17">
      <!-- 0.4 -->
      <g style="fill:#1a1a1a;" transform="translate(389.493125 151.965301)scale(0.11 -0.11)">
       <use xlink:href="#ArialMT-48"/>
       <use x="55.615234" xlink:href="#ArialMT-46"/>
       <use x="83.398438" xlink:href="#ArialMT-52"/>
      </g>
     </g>
    </g>
    <g id="ytick_10">
     <g id="line2d_12">
      <g>
       <use style="fill:#262626;stroke:#262626;stroke-width:1.25;" x="379.993125" xlink:href="#m1de7545de1" y="106.469003"/>
      </g>
     </g>
     <g id="text_18">
      <!-- 0.6 -->
      <defs>
       <path d="M 49.75 54.046875 
L 41.015625 53.375 
Q 39.84375 58.546875 37.703125 60.890625 
Q 34.125 64.65625 28.90625 64.65625 
Q 24.703125 64.65625 21.53125 62.3125 
Q 17.390625 59.28125 14.984375 53.46875 
Q 12.59375 47.65625 12.5 36.921875 
Q 15.671875 41.75 20.265625 44.09375 
Q 24.859375 46.4375 29.890625 46.4375 
Q 38.671875 46.4375 44.84375 39.96875 
Q 51.03125 33.5 51.03125 23.25 
Q 51.03125 16.5 48.125 10.71875 
Q 45.21875 4.9375 40.140625 1.859375 
Q 35.0625 -1.21875 28.609375 -1.21875 
Q 17.625 -1.21875 10.6875 6.859375 
Q 3.765625 14.9375 3.765625 33.5 
Q 3.765625 54.25 11.421875 63.671875 
Q 18.109375 71.875 29.4375 71.875 
Q 37.890625 71.875 43.28125 67.140625 
Q 48.6875 62.40625 49.75 54.046875 
z
M 13.875 23.1875 
Q 13.875 18.65625 15.796875 14.5 
Q 17.71875 10.359375 21.1875 8.171875 
Q 24.65625 6 28.46875 6 
Q 34.03125 6 38.03125 10.484375 
Q 42.046875 14.984375 42.046875 22.703125 
Q 42.046875 30.125 38.078125 34.390625 
Q 34.125 38.671875 28.125 38.671875 
Q 22.171875 38.671875 18.015625 34.390625 
Q 13.875 30.125 13.875 23.1875 
z
" id="ArialMT-54"/>
      </defs>
      <g style="fill:#1a1a1a;" transform="translate(389.493125 110.405799)scale(0.11 -0.11)">
       <use xlink:href="#ArialMT-48"/>
       <use x="55.615234" xlink:href="#ArialMT-46"/>
       <use x="83.398438" xlink:href="#ArialMT-54"/>
      </g>
     </g>
    </g>
    <g id="ytick_11">
     <g id="line2d_13">
      <g>
       <use style="fill:#262626;stroke:#262626;stroke-width:1.25;" x="379.993125" xlink:href="#m1de7545de1" y="64.909501"/>
      </g>
     </g>
     <g id="text_19">
      <!-- 0.8 -->
      <defs>
       <path d="M 17.671875 38.8125 
Q 12.203125 40.828125 9.5625 44.53125 
Q 6.9375 48.25 6.9375 53.421875 
Q 6.9375 61.234375 12.546875 66.546875 
Q 18.171875 71.875 27.484375 71.875 
Q 36.859375 71.875 42.578125 66.421875 
Q 48.296875 60.984375 48.296875 53.171875 
Q 48.296875 48.1875 45.671875 44.5 
Q 43.0625 40.828125 37.75 38.8125 
Q 44.34375 36.671875 47.78125 31.875 
Q 51.21875 27.09375 51.21875 20.453125 
Q 51.21875 11.28125 44.71875 5.03125 
Q 38.234375 -1.21875 27.640625 -1.21875 
Q 17.046875 -1.21875 10.546875 5.046875 
Q 4.046875 11.328125 4.046875 20.703125 
Q 4.046875 27.6875 7.59375 32.390625 
Q 11.140625 37.109375 17.671875 38.8125 
z
M 15.921875 53.71875 
Q 15.921875 48.640625 19.1875 45.40625 
Q 22.46875 42.1875 27.6875 42.1875 
Q 32.765625 42.1875 36.015625 45.375 
Q 39.265625 48.578125 39.265625 53.21875 
Q 39.265625 58.0625 35.90625 61.359375 
Q 32.5625 64.65625 27.59375 64.65625 
Q 22.5625 64.65625 19.234375 61.421875 
Q 15.921875 58.203125 15.921875 53.71875 
z
M 13.09375 20.65625 
Q 13.09375 16.890625 14.875 13.375 
Q 16.65625 9.859375 20.171875 7.921875 
Q 23.6875 6 27.734375 6 
Q 34.03125 6 38.125 10.046875 
Q 42.234375 14.109375 42.234375 20.359375 
Q 42.234375 26.703125 38.015625 30.859375 
Q 33.796875 35.015625 27.4375 35.015625 
Q 21.234375 35.015625 17.15625 30.90625 
Q 13.09375 26.8125 13.09375 20.65625 
z
" id="ArialMT-56"/>
      </defs>
      <g style="fill:#1a1a1a;" transform="translate(389.493125 68.846298)scale(0.11 -0.11)">
       <use xlink:href="#ArialMT-48"/>
       <use x="55.615234" xlink:href="#ArialMT-46"/>
       <use x="83.398438" xlink:href="#ArialMT-56"/>
      </g>
     </g>
    </g>
    <g id="ytick_12">
     <g id="line2d_14">
      <g>
       <use style="fill:#262626;stroke:#262626;stroke-width:1.25;" x="379.993125" xlink:href="#m1de7545de1" y="23.35"/>
      </g>
     </g>
     <g id="text_20">
      <!-- 1.0 -->
      <g style="fill:#1a1a1a;" transform="translate(389.493125 27.286797)scale(0.11 -0.11)">
       <use xlink:href="#ArialMT-49"/>
       <use x="55.615234" xlink:href="#ArialMT-46"/>
       <use x="83.398438" xlink:href="#ArialMT-48"/>
      </g>
     </g>
    </g>
    <g id="text_21">
     <!-- Exploration rate -->
     <defs>
      <path d="M 0.734375 0 
L 19.671875 26.953125 
L 2.15625 51.859375 
L 13.140625 51.859375 
L 21.09375 39.703125 
Q 23.34375 36.234375 24.703125 33.890625 
Q 26.859375 37.109375 28.65625 39.59375 
L 37.40625 51.859375 
L 47.90625 51.859375 
L 29.984375 27.4375 
L 49.265625 0 
L 38.484375 0 
L 27.828125 16.109375 
L 25 20.453125 
L 11.375 0 
z
" id="ArialMT-120"/>
      <path d="M 6.390625 0 
L 6.390625 71.578125 
L 15.1875 71.578125 
L 15.1875 0 
z
" id="ArialMT-108"/>
      <path d="M 6.5 0 
L 6.5 51.859375 
L 14.40625 51.859375 
L 14.40625 44 
Q 17.4375 49.515625 20 51.265625 
Q 22.5625 53.03125 25.640625 53.03125 
Q 30.078125 53.03125 34.671875 50.203125 
L 31.640625 42.046875 
Q 28.421875 43.953125 25.203125 43.953125 
Q 22.3125 43.953125 20.015625 42.21875 
Q 17.71875 40.484375 16.75 37.40625 
Q 15.28125 32.71875 15.28125 27.15625 
L 15.28125 0 
z
" id="ArialMT-114"/>
      <path d="M 25.78125 7.859375 
L 27.046875 0.09375 
Q 23.34375 -0.6875 20.40625 -0.6875 
Q 15.625 -0.6875 12.984375 0.828125 
Q 10.359375 2.34375 9.28125 4.8125 
Q 8.203125 7.28125 8.203125 15.1875 
L 8.203125 45.015625 
L 1.765625 45.015625 
L 1.765625 51.859375 
L 8.203125 51.859375 
L 8.203125 64.703125 
L 16.9375 69.96875 
L 16.9375 51.859375 
L 25.78125 51.859375 
L 25.78125 45.015625 
L 16.9375 45.015625 
L 16.9375 14.703125 
Q 16.9375 10.9375 17.40625 9.859375 
Q 17.875 8.796875 18.921875 8.15625 
Q 19.96875 7.515625 21.921875 7.515625 
Q 23.390625 7.515625 25.78125 7.859375 
z
" id="ArialMT-116"/>
      <path d="M 6.59375 0 
L 6.59375 51.859375 
L 14.5 51.859375 
L 14.5 44.484375 
Q 20.21875 53.03125 31 53.03125 
Q 35.6875 53.03125 39.625 51.34375 
Q 43.5625 49.65625 45.515625 46.921875 
Q 47.46875 44.1875 48.25 40.4375 
Q 48.734375 37.984375 48.734375 31.890625 
L 48.734375 0 
L 39.9375 0 
L 39.9375 31.546875 
Q 39.9375 36.921875 38.90625 39.578125 
Q 37.890625 42.234375 35.28125 43.8125 
Q 32.671875 45.40625 29.15625 45.40625 
Q 23.53125 45.40625 19.453125 41.84375 
Q 15.375 38.28125 15.375 28.328125 
L 15.375 0 
z
" id="ArialMT-110"/>
      <path id="ArialMT-32"/>
     </defs>
     <g style="fill:#1a1a1a;" transform="translate(417.3725 169.270625)rotate(-90)scale(0.12 -0.12)">
      <use xlink:href="#ArialMT-69"/>
      <use x="66.699219" xlink:href="#ArialMT-120"/>
      <use x="116.699219" xlink:href="#ArialMT-112"/>
      <use x="172.314453" xlink:href="#ArialMT-108"/>
      <use x="194.53125" xlink:href="#ArialMT-111"/>
      <use x="250.146484" xlink:href="#ArialMT-114"/>
      <use x="283.447266" xlink:href="#ArialMT-97"/>
      <use x="339.0625" xlink:href="#ArialMT-116"/>
      <use x="366.845703" xlink:href="#ArialMT-105"/>
      <use x="389.0625" xlink:href="#ArialMT-111"/>
      <use x="444.677734" xlink:href="#ArialMT-110"/>
      <use x="500.292969" xlink:href="#ArialMT-32"/>
      <use x="528.076172" xlink:href="#ArialMT-114"/>
      <use x="561.376953" xlink:href="#ArialMT-97"/>
      <use x="616.992188" xlink:href="#ArialMT-116"/>
      <use x="644.775391" xlink:href="#ArialMT-101"/>
     </g>
    </g>
   </g>
   <g id="line2d_15">
    <path clip-path="url(#p24405aa0bb)" d="M 75.461506 23.35 
L 298.731153 231.15 
L 365.491619 231.15 
L 365.491619 231.15 
" style="fill:none;stroke:#55a868;stroke-dasharray:5.55,2.4;stroke-dashoffset:0;stroke-width:1.5;"/>
   </g>
   <g id="line2d_16">
    <path clip-path="url(#p24405aa0bb)" d="M 298.568732 241.54 
L 298.568732 12.96 
" style="fill:none;stroke:#1a1a1a;stroke-dasharray:5.55,2.4;stroke-dashoffset:0;stroke-width:1.5;"/>
   </g>
   <g id="line2d_17">
    <path clip-path="url(#p24405aa0bb)" d="M 298.568732 241.54 
L 298.568732 12.96 
" style="fill:none;stroke:#1a1a1a;stroke-dasharray:5.55,2.4;stroke-dashoffset:0;stroke-width:1.5;"/>
   </g>
   <g id="patch_7">
    <path d="M 60.96 241.54 
L 60.96 12.96 
" style="fill:none;stroke:#ffffff;stroke-linecap:square;stroke-linejoin:miter;stroke-width:1.25;"/>
   </g>
   <g id="patch_8">
    <path d="M 379.993125 241.54 
L 379.993125 12.96 
" style="fill:none;stroke:#ffffff;stroke-linecap:square;stroke-linejoin:miter;stroke-width:1.25;"/>
   </g>
   <g id="patch_9">
    <path d="M 60.96 241.54 
L 379.993125 241.54 
" style="fill:none;stroke:#ffffff;stroke-linecap:square;stroke-linejoin:miter;stroke-width:1.25;"/>
   </g>
   <g id="patch_10">
    <path d="M 60.96 12.96 
L 379.993125 12.96 
" style="fill:none;stroke:#ffffff;stroke-linecap:square;stroke-linejoin:miter;stroke-width:1.25;"/>
   </g>
  </g>
  <g id="legend_1">
   <g id="patch_11">
    <path d="M 161.881094 86.344844 
L 274.118906 86.344844 
Q 276.318906 86.344844 276.318906 84.144844 
L 276.318906 38.5 
Q 276.318906 36.3 274.118906 36.3 
L 161.881094 36.3 
Q 159.681094 36.3 159.681094 38.5 
L 159.681094 84.144844 
Q 159.681094 86.344844 161.881094 86.344844 
z
" style="fill:#464649;opacity:0.5;stroke:#464649;stroke-linejoin:miter;"/>
   </g>
   <g id="patch_12">
    <path d="M 159.881094 84.344844 
L 272.118906 84.344844 
Q 274.318906 84.344844 274.318906 82.144844 
L 274.318906 36.5 
Q 274.318906 34.3 272.118906 34.3 
L 159.881094 34.3 
Q 157.681094 34.3 157.681094 36.5 
L 157.681094 82.144844 
Q 157.681094 84.344844 159.881094 84.344844 
z
" style="fill:#eaeaf2;stroke:#cccccc;stroke-linejoin:miter;"/>
   </g>
   <g id="line2d_18">
    <path d="M 162.081094 42.75625 
L 184.081094 42.75625 
" style="fill:none;stroke:#4c72b0;stroke-linecap:round;stroke-width:1.5;"/>
   </g>
   <g id="line2d_19"/>
   <g id="text_22">
    <!-- q0 -->
    <g style="fill:#262626;" transform="translate(192.881094 46.60625)scale(0.11 -0.11)">
     <use xlink:href="#ArialMT-113"/>
     <use x="55.615234" xlink:href="#ArialMT-48"/>
    </g>
   </g>
   <g id="line2d_20">
    <path d="M 162.081094 58.34875 
L 184.081094 58.34875 
" style="fill:none;stroke:#dd8452;stroke-linecap:round;stroke-width:1.5;"/>
   </g>
   <g id="line2d_21"/>
   <g id="text_23">
    <!-- q1 -->
    <g style="fill:#262626;" transform="translate(192.881094 62.19875)scale(0.11 -0.11)">
     <use xlink:href="#ArialMT-113"/>
     <use x="55.615234" xlink:href="#ArialMT-49"/>
    </g>
   </g>
   <g id="line2d_22">
    <path d="M 162.081094 73.908594 
L 184.081094 73.908594 
" style="fill:none;stroke:#55a868;stroke-dasharray:5.55,2.4;stroke-dashoffset:0;stroke-width:1.5;"/>
   </g>
   <g id="line2d_23"/>
   <g id="text_24">
    <!-- Exploration rate -->
    <g style="fill:#262626;" transform="translate(192.881094 77.758594)scale(0.11 -0.11)">
     <use xlink:href="#ArialMT-69"/>
     <use x="66.699219" xlink:href="#ArialMT-120"/>
     <use x="116.699219" xlink:href="#ArialMT-112"/>
     <use x="172.314453" xlink:href="#ArialMT-108"/>
     <use x="194.53125" xlink:href="#ArialMT-111"/>
     <use x="250.146484" xlink:href="#ArialMT-114"/>
     <use x="283.447266" xlink:href="#ArialMT-97"/>
     <use x="339.0625" xlink:href="#ArialMT-116"/>
     <use x="366.845703" xlink:href="#ArialMT-105"/>
     <use x="389.0625" xlink:href="#ArialMT-111"/>
     <use x="444.677734" xlink:href="#ArialMT-110"/>
     <use x="500.292969" xlink:href="#ArialMT-32"/>
     <use x="528.076172" xlink:href="#ArialMT-114"/>
     <use x="561.376953" xlink:href="#ArialMT-97"/>
     <use x="616.992188" xlink:href="#ArialMT-116"/>
     <use x="644.775391" xlink:href="#ArialMT-101"/>
    </g>
   </g>
  </g>
 </g>
 <defs>
  <clipPath id="p24405aa0bb">
   <rect height="228.58" width="319.033125" x="60.96" y="12.96"/>
  </clipPath>
 </defs>
</svg>
