<svg id="Layer_1" data-name="Layer 1" xmlns="http://www.w3.org/2000/svg" viewBox="0 0 371.3145 175.4313">
  <title>TwoSensorDiagram(2)</title>
  <rect x="77.8335" y="11.5769" width="72" height="72" rx="21.0337" fill="#c7a794" stroke="#231f20" stroke-miterlimit="10" stroke-width="2"/>
  <rect x="201.0929" y="1" width="93.0787" height="93.0787" fill="#cdddb3" stroke="#231f20" stroke-miterlimit="10" stroke-width="2"/>
  <path d="M88.0268,54.0416" transform="translate(-10.1934 -17.5206)" fill="none"/>
  <g>
    <line x1="149.8335" y1="47.7648" x2="191.2197" y2="47.4138" fill="none" stroke="#231f20" stroke-miterlimit="10" stroke-width="2"/>
    <polygon points="189.378 53.912 200.548 47.335 189.268 40.948 189.378 53.912" fill="#231f20"/>
  </g>
  <g>
    <line x1="168.6118" y1="47.5769" x2="168.6215" y2="115.3336" fill="none" stroke="#231f20" stroke-miterlimit="10" stroke-width="2"/>
    <polygon points="162.139 113.438 168.623 124.663 175.103 113.436 162.139 113.438" fill="#231f20"/>
  </g>
  <path d="M117.9229,147.524" transform="translate(-10.1934 -17.5206)" fill="none"/>
  <g>
    <line x1="43.8838" y1="129.9362" x2="110.7355" y2="129.9362" fill="none" stroke="#231f20" stroke-miterlimit="10"/>
    <polygon points="107.422 134.026 106.74 133.294 110.352 129.937 106.74 126.58 107.422 125.847 111.82 129.937 107.422 134.026" fill="#231f20"/>
  </g>
  <g>
    <line x1="107.7296" y1="129.9362" x2="209.3586" y2="129.9362" fill="none" stroke="#231f20" stroke-miterlimit="10"/>
    <polygon points="206.045 134.026 205.363 133.294 208.975 129.937 205.363 126.58 206.045 125.847 210.443 129.937 206.045 134.026" fill="#231f20"/>
  </g>
  <g>
    <line x1="209.783" y1="130.0034" x2="311.4121" y2="130.0034" fill="none" stroke="#231f20" stroke-miterlimit="10"/>
    <polygon points="308.099 134.093 307.416 133.361 311.028 130.004 307.416 126.647 308.099 125.915 312.497 130.004 308.099 134.093" fill="#231f20"/>
  </g>
  <g>
    <polyline points="60.665 124.663 60.665 47.577 67.516 47.577" fill="none" stroke="#231f20" stroke-miterlimit="10" stroke-width="2"/>
    <polygon points="65.619 54.059 76.845 47.577 65.619 41.095 65.619 54.059" fill="#231f20"/>
  </g>
  <g>
    <polyline points="294.637 47.514 307.672 47.514 307.672 115.271" fill="none" stroke="#231f20" stroke-miterlimit="10" stroke-width="2"/>
    <polygon points="301.19 113.374 307.672 124.6 314.155 113.374 301.19 113.374" fill="#231f20"/>
  </g>
  <g>
    <polyline points="312.497 174.431 122.019 174.431 43.146 174.431" fill="none" stroke="#c1444b" stroke-miterlimit="10" stroke-width="2"/>
    <polygon points="43.175 174.332 43.002 174.431 43.175 174.531 43.175 174.332" fill="#c1444b"/>
  </g>
  <rect x="43.002" y="125.914" width="269.4945" height="8.1798" fill="none" stroke="#231f20" stroke-miterlimit="10" stroke-width="2"/>
  <g>
    <path d="M117.231,64.9316h-5.7652v5.3467h6.4248v1.6065h-8.3388v-14.83h8.0092v1.6064h-6.0952v4.6866h5.7652Z" transform="translate(-10.1934 -17.5206)" fill="#231f20"/>
    <path d="M121.2114,61.2354l1.5181,2.288c.3965.5938.7261,1.1446,1.0786,1.7383h.0659c.3521-.6377.7041-1.1885,1.0562-1.76l1.4961-2.2666h2.09l-3.63,5.1484,3.74,5.501h-2.2l-1.5625-2.3985c-.418-.6162-.77-1.21-1.1441-1.8486h-.0439c-.3521.6387-.7261,1.2109-1.1221,1.8486l-1.54,2.3985h-2.1343l3.7842-5.4346-3.6084-5.2148Z" transform="translate(-10.1934 -17.5206)" fill="#231f20"/>
    <path d="M129.8794,71.8848V70.6963l1.5181-1.4736c3.6528-3.4766,5.3027-5.3252,5.3247-7.4815a2.5512,2.5512,0,0,0-2.8384-2.7939,4.8693,4.8693,0,0,0-3.0361,1.21l-.6163-1.3642a6.2767,6.2767,0,0,1,4.0484-1.4522,4.0243,4.0243,0,0,1,4.3789,4.1582c0,2.6406-1.9146,4.7754-4.9287,7.68l-1.1446,1.0557v.0439h6.4253v1.6065Z" transform="translate(-10.1934 -17.5206)" fill="#231f20"/>
  </g>
  <g>
    <path d="M250.5117,63.97h-5.7646v5.3467h6.4248v1.6064H242.833v-14.83h8.0088V57.7h-6.0947v4.6865h5.7646Z" transform="translate(-10.1934 -17.5206)" fill="#231f20"/>
    <path d="M253.5908,63.1558c0-1.1-.0224-2.002-.0888-2.8819h1.7168l.11,1.76h.0439a3.9155,3.9155,0,0,1,3.5206-2.002c1.4736,0,3.7617.88,3.7617,4.5323v6.3593H260.72V64.7847c0-1.7168-.6386-3.1465-2.4648-3.1465a2.8387,2.8387,0,0,0-2.7285,2.8818v6.4033h-1.9356Z" transform="translate(-10.1934 -17.5206)" fill="#231f20"/>
    <path d="M266.2627,60.2739l2.0908,5.9844a27.48,27.48,0,0,1,.8574,2.7285h.0664c.2422-.88.55-1.76.9024-2.7285l2.0683-5.9844h2.0235l-4.18,10.6494h-1.8486l-4.0489-10.6494Z" transform="translate(-10.1934 -17.5206)" fill="#231f20"/>
  </g>
  <g>
    <line x1="113.8335" y1="92.906" x2="113.8335" y2="174.723" fill="none" stroke="#c1444b" stroke-miterlimit="10" stroke-width="2"/>
    <polygon points="107.351 94.803 113.833 83.577 120.316 94.803 107.351 94.803" fill="#c1444b"/>
  </g>
  <g>
    <path d="M25.9482,96.84l-.8393,2.5425h-1.08l2.7466-8.0835h1.2593l2.7583,8.0835H29.6782L28.8145,96.84Zm2.65-.8154-.7915-2.3271c-.18-.5274-.3-1.0074-.4194-1.4751h-.0244c-.12.48-.2515.9716-.4077,1.4633l-.7915,2.3389Z" transform="translate(-10.1934 -17.5206)" fill="#231f20"/>
    <path d="M35.9424,99.1665a3.8868,3.8868,0,0,1-1.667.3359A2.7581,2.7581,0,0,1,31.3848,96.54a2.95,2.95,0,0,1,3.1186-3.0825,3.5245,3.5245,0,0,1,1.4629.3l-.24.8155a2.4507,2.4507,0,0,0-1.2232-.2759,2.1884,2.1884,0,0,0-.0361,4.3657,3.0013,3.0013,0,0,0,1.2954-.2876Z" transform="translate(-10.1934 -17.5206)" fill="#231f20"/>
    <path d="M38.6079,91.9106v1.667h1.5112v.8033H38.6079v3.13c0,.72.2036,1.1275.7915,1.1275a2.3617,2.3617,0,0,0,.6113-.0718l.0484.7915a2.5838,2.5838,0,0,1-.9356.144,1.4641,1.4641,0,0,1-1.14-.4438,2.1511,2.1511,0,0,1-.4077-1.5112V94.3809h-.8994v-.8033h.8994V92.1865Z" transform="translate(-10.1934 -17.5206)" fill="#231f20"/>
    <path d="M42.4834,91.9463a.6536.6536,0,0,1-1.3071,0,.6432.6432,0,0,1,.66-.66A.6267.6267,0,0,1,42.4834,91.9463Zm-1.1753,7.436V93.5776h1.0557v5.8047Z" transform="translate(-10.1934 -17.5206)" fill="#231f20"/>
    <path d="M49.3691,96.4321a2.8367,2.8367,0,0,1-2.89,3.0821,2.76,2.76,0,0,1-2.7827-2.9864,2.8344,2.8344,0,0,1,2.8784-3.082A2.7483,2.7483,0,0,1,49.3691,96.4321Zm-4.6054.06c0,1.2715.7319,2.231,1.7632,2.231,1.0073,0,1.7631-.9473,1.7631-2.2549,0-.9834-.4917-2.23-1.7392-2.23S44.7637,95.3887,44.7637,96.4917Z" transform="translate(-10.1934 -17.5206)" fill="#231f20"/>
    <path d="M50.7041,95.1484c0-.6-.0117-1.0913-.0478-1.5708h.9355l.06.9595h.0244a2.1343,2.1343,0,0,1,1.9189-1.0913c.8032,0,2.0508.4795,2.0508,2.47v3.4663H54.59V96.0361c0-.9355-.3476-1.7148-1.3432-1.7148A1.5,1.5,0,0,0,51.8315,95.4a1.5228,1.5228,0,0,0-.0717.4917v3.49H50.7041Z" transform="translate(-10.1934 -17.5206)" fill="#231f20"/>
    <path d="M61.8628,92.57h-.0239l-1.3555.7315-.2041-.8038,1.7031-.9116h.9v7.7959h-1.02Z" transform="translate(-10.1934 -17.5206)" fill="#231f20"/>
    <path d="M17.5815,109.6563c0,2.7822-1.6914,4.2578-3.7539,4.2578-2.1347,0-3.6342-1.6553-3.6342-4.1016,0-2.5664,1.5952-4.2461,3.7539-4.2461C16.1543,105.5664,17.5815,107.2578,17.5815,109.6563Zm-6.2724.1318c0,1.7275.935,3.2744,2.5786,3.2744,1.6548,0,2.59-1.5234,2.59-3.3584,0-1.6064-.8393-3.2861-2.5786-3.2861C12.1724,106.418,11.3091,108.0137,11.3091,109.7881Z" transform="translate(-10.1934 -17.5206)" fill="#231f20"/>
    <path d="M23.7983,112.1992c0,.6.0118,1.127.0479,1.583h-.9356l-.06-.9472h-.0239a2.1836,2.1836,0,0,1-1.919,1.0791c-.9111,0-2.0029-.5039-2.0029-2.543v-3.3936H19.96v3.2139c0,1.1035.336,1.8477,1.2955,1.8477a1.5261,1.5261,0,0,0,1.3911-.96,1.5439,1.5439,0,0,0,.0957-.54v-3.5616h1.0556Z" transform="translate(-10.1934 -17.5206)" fill="#231f20"/>
    <path d="M26.8247,106.3105v1.667h1.5112v.8038H26.8247v3.13c0,.72.2036,1.128.7915,1.128a2.3352,2.3352,0,0,0,.6113-.0723l.0484.791a2.5825,2.5825,0,0,1-.9356.1445,1.4626,1.4626,0,0,1-1.14-.4443,2.1489,2.1489,0,0,1-.4077-1.5107v-3.166h-.8994v-.8038h.8994v-1.3916Z" transform="translate(-10.1934 -17.5206)" fill="#231f20"/>
    <path d="M33.59,113.5664a3.8906,3.8906,0,0,1-1.667.3359,2.7582,2.7582,0,0,1-2.8906-2.9628,2.9494,2.9494,0,0,1,3.1187-3.0821,3.5329,3.5329,0,0,1,1.4629.3l-.24.8155a2.4507,2.4507,0,0,0-1.2231-.2754,2.1882,2.1882,0,0,0-.0362,4.3652,2.9989,2.9989,0,0,0,1.2954-.2881Z" transform="translate(-10.1934 -17.5206)" fill="#231f20"/>
    <path d="M40.01,110.832a2.8368,2.8368,0,0,1-2.89,3.0821,2.76,2.76,0,0,1-2.7827-2.9864,2.8346,2.8346,0,0,1,2.8784-3.082A2.7484,2.7484,0,0,1,40.01,110.832Zm-4.6055.06c0,1.2715.7319,2.2314,1.7632,2.2314,1.0073,0,1.7632-.9482,1.7632-2.2548,0-.9834-.4917-2.2315-1.7393-2.2315S35.4043,109.7881,35.4043,110.8916Z" transform="translate(-10.1934 -17.5206)" fill="#231f20"/>
    <path d="M41.3447,109.5488c0-.6-.0117-1.0918-.0478-1.5713H42.22l.0479.9356h.0361a2.0008,2.0008,0,0,1,1.8232-1.0674,1.7159,1.7159,0,0,1,1.6431,1.1631h.0239a2.3953,2.3953,0,0,1,.6475-.7559,1.9815,1.9815,0,0,1,1.2832-.4072c.7676,0,1.9072.5039,1.9072,2.5186v3.4179H48.6006v-3.2861c0-1.1152-.4077-1.7871-1.2593-1.7871a1.3652,1.3652,0,0,0-1.2471.96,1.7371,1.7371,0,0,0-.0839.5274v3.5859H44.9785v-3.4785c0-.9228-.4077-1.5947-1.2109-1.5947a1.4419,1.4419,0,0,0-1.3076,1.0556,1.4614,1.4614,0,0,0-.084.5157v3.5019H41.3447Z" transform="translate(-10.1934 -17.5206)" fill="#231f20"/>
    <path d="M51.94,111.0713a1.86,1.86,0,0,0,1.9908,2.0156,3.8141,3.8141,0,0,0,1.6069-.3l.18.7549a4.7,4.7,0,0,1-1.9312.36,2.6959,2.6959,0,0,1-2.8545-2.9267c0-1.751,1.0318-3.13,2.7227-3.13a2.4594,2.4594,0,0,1,2.3989,2.7344,4.0165,4.0165,0,0,1-.0361.4912Zm3.0943-.7549a1.5034,1.5034,0,0,0-1.4634-1.7158,1.75,1.75,0,0,0-1.6192,1.7158Z" transform="translate(-10.1934 -17.5206)" fill="#231f20"/>
    <path d="M61.8633,106.97h-.0239l-1.3555.7315-.2036-.8028,1.7026-.9121h.9v7.7959h-1.02Z" transform="translate(-10.1934 -17.5206)" fill="#231f20"/>
  </g>
  <g>
    <path d="M128.39,179.1348a10.8289,10.8289,0,0,1,2.003-.168,3.3078,3.3078,0,0,1,2.3383.6592,2.0135,2.0135,0,0,1,.6358,1.5351,2.1224,2.1224,0,0,1-1.523,2.0635v.0361a2.0139,2.0139,0,0,1,1.1871,1.6309,12.8744,12.8744,0,0,0,.624,2.2188h-1.08a10.4594,10.4594,0,0,1-.54-1.9307c-.24-1.1152-.6718-1.5352-1.6191-1.5713h-.9834v3.502H128.39Zm1.0435,3.6816h1.0674c1.1152,0,1.8227-.6113,1.8227-1.5351,0-1.043-.7553-1.4991-1.8589-1.5108a4.3032,4.3032,0,0,0-1.0312.0957Z" transform="translate(-10.1934 -17.5206)" fill="#231f20"/>
    <path d="M135.4458,184.3994a1.86,1.86,0,0,0,1.9907,2.0156,3.8146,3.8146,0,0,0,1.607-.3l.18.7549a4.6986,4.6986,0,0,1-1.9311.36,2.696,2.696,0,0,1-2.8545-2.9268c0-1.751,1.0317-3.13,2.7226-3.13a2.4594,2.4594,0,0,1,2.399,2.7344,3.992,3.992,0,0,1-.0362.4912Zm3.0942-.7549a1.5033,1.5033,0,0,0-1.4633-1.7158,1.75,1.75,0,0,0-1.6192,1.7158Z" transform="translate(-10.1934 -17.5206)" fill="#231f20"/>
    <path d="M141.29,181.3057l.7675,2.95c.168.6474.3238,1.247.4317,1.8466h.0361c.1318-.5869.3237-1.2109.5156-1.8349l.9473-2.9619h.8877l.8994,2.9023c.2158.6953.3838,1.3076.5156,1.8945h.0362a17.5548,17.5548,0,0,1,.4438-1.8828l.8276-2.914h1.0435l-1.8711,5.8047h-.9595l-.8877-2.7706a19.4639,19.4639,0,0,1-.5156-1.9072h-.0239a17.0965,17.0965,0,0,1-.5278,1.919L142.92,187.11h-.9595l-1.7509-5.8047Z" transform="translate(-10.1934 -17.5206)" fill="#231f20"/>
    <path d="M152.8682,187.11l-.084-.7315h-.0362a2.16,2.16,0,0,1-1.7749.8633,1.6536,1.6536,0,0,1-1.7749-1.667c0-1.4033,1.2471-2.1709,3.49-2.1592v-.1191a1.1965,1.1965,0,0,0-1.3189-1.3438,2.8927,2.8927,0,0,0-1.5112.4317l-.24-.6953a3.6055,3.6055,0,0,1,1.9072-.5157c1.7749,0,2.2065,1.211,2.2065,2.3741v2.1709a8.1488,8.1488,0,0,0,.0962,1.3916Zm-.1563-2.962c-1.1514-.0244-2.4585.18-2.4585,1.3067a.9345.9345,0,0,0,.9956,1.0078,1.4441,1.4441,0,0,0,1.4033-.9717,1.1047,1.1047,0,0,0,.06-.3359Z" transform="translate(-10.1934 -17.5206)" fill="#231f20"/>
    <path d="M155.438,183.1162c0-.6836-.0122-1.27-.0479-1.81h.9234l.0361,1.14h.0479a1.7405,1.7405,0,0,1,1.6069-1.2715,1.124,1.124,0,0,1,.3.0362v.9951a1.5669,1.5669,0,0,0-.36-.0362,1.4807,1.4807,0,0,0-1.4155,1.3555,2.9724,2.9724,0,0,0-.0479.4912V187.11H155.438Z" transform="translate(-10.1934 -17.5206)" fill="#231f20"/>
    <path d="M164.2549,178.5947v7.0166c0,.5157.0122,1.1035.0478,1.4991h-.9472l-.0479-1.0079h-.0239a2.1467,2.1467,0,0,1-1.979,1.14c-1.4033,0-2.4829-1.1875-2.4829-2.95-.0117-1.9307,1.1875-3.1182,2.6025-3.1182a1.9421,1.9421,0,0,1,1.7515.8877H163.2v-3.4668ZM163.2,183.668a1.8539,1.8539,0,0,0-.0483-.4434,1.5519,1.5519,0,0,0-1.523-1.2236c-1.0913,0-1.7392.96-1.7392,2.2431,0,1.1748.5756,2.1465,1.7153,2.1465a1.5864,1.5864,0,0,0,1.5469-1.2588,1.8318,1.8318,0,0,0,.0483-.456Z" transform="translate(-10.1934 -17.5206)" fill="#231f20"/>
    <path d="M168.6616,187.11v-5.001h-.8154v-.8037h.8154v-.2764a2.7359,2.7359,0,0,1,.6719-2.0264,2.0189,2.0189,0,0,1,1.415-.54,2.4452,2.4452,0,0,1,.8994.168l-.144.8154a1.585,1.585,0,0,0-.6714-.1318c-.8994,0-1.1274.7919-1.1274,1.68v.3116h1.4033v.8037h-1.4033v5.001Z" transform="translate(-10.1934 -17.5206)" fill="#231f20"/>
    <path d="M172.0576,183.1162c0-.6836-.0117-1.27-.0478-1.81h.9233l.0361,1.14h.0479a1.7406,1.7406,0,0,1,1.6069-1.2715,1.1176,1.1176,0,0,1,.3.0362v.9951a1.559,1.559,0,0,0-.3593-.0362,1.4808,1.4808,0,0,0-1.4156,1.3555,2.973,2.973,0,0,0-.0478.4912V187.11h-1.0435Z" transform="translate(-10.1934 -17.5206)" fill="#231f20"/>
    <path d="M181.1147,184.16a2.8367,2.8367,0,0,1-2.89,3.082,2.76,2.76,0,0,1-2.7827-2.9863,2.8347,2.8347,0,0,1,2.8784-3.0821A2.7484,2.7484,0,0,1,181.1147,184.16Zm-4.6054.0595c0,1.2715.7319,2.2315,1.7632,2.2315,1.0073,0,1.7631-.9483,1.7631-2.2549,0-.9834-.4917-2.2315-1.7392-2.2315S176.5093,183.1162,176.5093,184.22Z" transform="translate(-10.1934 -17.5206)" fill="#231f20"/>
    <path d="M182.45,182.877c0-.6-.0122-1.0918-.0478-1.5713h.9233l.0478.9355h.0362a2.0009,2.0009,0,0,1,1.8232-1.0674,1.716,1.716,0,0,1,1.6431,1.1631h.0239a2.3937,2.3937,0,0,1,.6475-.7558,1.9808,1.9808,0,0,1,1.2832-.4073c.7676,0,1.9072.5039,1.9072,2.5186v3.418h-1.0317v-3.2862c0-1.1152-.4077-1.7871-1.2593-1.7871a1.3653,1.3653,0,0,0-1.2471.96,1.7358,1.7358,0,0,0-.084.5273v3.586H186.084v-3.4786c0-.9228-.4082-1.5947-1.2114-1.5947a1.4422,1.4422,0,0,0-1.3077,1.0557,1.4627,1.4627,0,0,0-.0839.5156v3.502H182.45Z" transform="translate(-10.1934 -17.5206)" fill="#231f20"/>
    <path d="M195.0015,178.5947h1.0556V187.11h-1.0556Z" transform="translate(-10.1934 -17.5206)" fill="#231f20"/>
    <path d="M201.0479,187.11l-.084-.7315h-.0362a2.1614,2.1614,0,0,1-1.7754.8633,1.6534,1.6534,0,0,1-1.7744-1.667c0-1.4033,1.2471-2.1709,3.4893-2.1592v-.1191a1.1964,1.1964,0,0,0-1.3184-1.3438,2.8958,2.8958,0,0,0-1.5117.4317l-.24-.6953a3.6047,3.6047,0,0,1,1.9067-.5157c1.7754,0,2.207,1.211,2.207,2.3741v2.1709a8.1521,8.1521,0,0,0,.0957,1.3916Zm-.1563-2.962c-1.1514-.0244-2.459.18-2.459,1.3067a.9346.9346,0,0,0,.9961,1.0078,1.4446,1.4446,0,0,0,1.4033-.9717,1.12,1.12,0,0,0,.06-.3359Z" transform="translate(-10.1934 -17.5206)" fill="#231f20"/>
    <path d="M203.4727,186.0313a2.7784,2.7784,0,0,0,1.3916.42c.7675,0,1.1269-.3838,1.1269-.8643,0-.5039-.3-.7793-1.0791-1.0674-1.043-.3711-1.5351-.9472-1.5351-1.6425a1.79,1.79,0,0,1,2.0029-1.7032,2.9054,2.9054,0,0,1,1.4277.3594l-.2646.7676a2.26,2.26,0,0,0-1.1866-.336c-.624,0-.9716.36-.9716.792,0,.48.3476.6953,1.1035.9834,1.0068.3838,1.5224.8877,1.5224,1.751,0,1.02-.791,1.7393-2.1709,1.7393a3.32,3.32,0,0,1-1.6308-.3955Z" transform="translate(-10.1934 -17.5206)" fill="#231f20"/>
    <path d="M209.6406,179.6387v1.667h1.5108v.8037h-1.5108v3.13c0,.72.2032,1.1279.791,1.1279a2.3428,2.3428,0,0,0,.6123-.0723l.0479.791a2.5835,2.5835,0,0,1-.9355.1446,1.4623,1.4623,0,0,1-1.14-.4444,2.1488,2.1488,0,0,1-.4082-1.5107v-3.166h-.8994v-.8037h.8994v-1.3916Z" transform="translate(-10.1934 -17.5206)" fill="#231f20"/>
    <path d="M215.4727,184.3994a1.86,1.86,0,0,0,1.99,2.0156,3.8146,3.8146,0,0,0,1.6074-.3l.18.7549a4.6963,4.6963,0,0,1-1.9307.36,2.696,2.696,0,0,1-2.8545-2.9268c0-1.751,1.0313-3.13,2.7227-3.13a2.4593,2.4593,0,0,1,2.3984,2.7344,4.0165,4.0165,0,0,1-.0361.4912Zm3.0937-.7549a1.5031,1.5031,0,0,0-1.4629-1.7158,1.75,1.75,0,0,0-1.6191,1.7158Z" transform="translate(-10.1934 -17.5206)" fill="#231f20"/>
    <path d="M220.8965,183.2c0-.7432-.0244-1.3428-.0479-1.8945h.9473l.0479.9951h.0244a2.2824,2.2824,0,0,1,2.0625-1.127c1.4033,0,2.4589,1.1875,2.4589,2.95,0,2.0869-1.2714,3.1182-2.6386,3.1182a2.0363,2.0363,0,0,1-1.7871-.9111H221.94v3.1543h-1.043Zm1.043,1.5478a2.4349,2.4349,0,0,0,.0478.4317,1.63,1.63,0,0,0,1.584,1.2353c1.1152,0,1.7627-.9121,1.7627-2.2431,0-1.1631-.6113-2.1592-1.7276-2.1592a1.6847,1.6847,0,0,0-1.5947,1.3076,1.7074,1.7074,0,0,0-.0722.4317Z" transform="translate(-10.1934 -17.5206)" fill="#231f20"/>
    <path d="M228.8994,179.6748a.6538.6538,0,0,1-1.3076,0,.6438.6438,0,0,1,.66-.66A.6267.6267,0,0,1,228.8994,179.6748Zm-1.1758,7.4356v-5.8047h1.0557V187.11Z" transform="translate(-10.1934 -17.5206)" fill="#231f20"/>
    <path d="M230.3877,186.0313a2.7787,2.7787,0,0,0,1.3916.42c.7676,0,1.127-.3838,1.127-.8643,0-.5039-.3-.7793-1.0792-1.0674-1.0429-.3711-1.5351-.9472-1.5351-1.6425a1.7905,1.7905,0,0,1,2.0029-1.7032,2.9061,2.9061,0,0,1,1.4278.3594l-.2647.7676a2.26,2.26,0,0,0-1.1865-.336c-.624,0-.9717.36-.9717.792,0,.48.3477.6953,1.1035.9834,1.0069.3838,1.5225.8877,1.5225,1.751,0,1.02-.791,1.7393-2.1709,1.7393a3.32,3.32,0,0,1-1.6309-.3955Z" transform="translate(-10.1934 -17.5206)" fill="#231f20"/>
    <path d="M240.5371,184.16a2.8371,2.8371,0,0,1-2.8906,3.082,2.76,2.76,0,0,1-2.7822-2.9863,2.8345,2.8345,0,0,1,2.8779-3.0821A2.7485,2.7485,0,0,1,240.5371,184.16Zm-4.6055.0595c0,1.2715.7315,2.2315,1.7627,2.2315,1.0078,0,1.7637-.9483,1.7637-2.2549,0-.9834-.4922-2.2315-1.7392-2.2315S235.9316,183.1162,235.9316,184.22Z" transform="translate(-10.1934 -17.5206)" fill="#231f20"/>
    <path d="M246.8848,178.5947v7.0166c0,.5157.0127,1.1035.0478,1.4991h-.9472l-.0479-1.0079h-.0234a2.1477,2.1477,0,0,1-1.98,1.14c-1.4033,0-2.4825-1.1875-2.4825-2.95-.0117-1.9307,1.1875-3.1182,2.6026-3.1182a1.9406,1.9406,0,0,1,1.751.8877h.0244v-3.4668ZM245.83,183.668a1.8545,1.8545,0,0,0-.0488-.4434,1.5514,1.5514,0,0,0-1.5225-1.2236c-1.0918,0-1.7393.96-1.7393,2.2431,0,1.1748.5752,2.1465,1.7149,2.1465a1.5857,1.5857,0,0,0,1.5469-1.2588,1.8312,1.8312,0,0,0,.0488-.456Z" transform="translate(-10.1934 -17.5206)" fill="#231f20"/>
    <path d="M249.2275,184.3994a1.86,1.86,0,0,0,1.9913,2.0156,3.8132,3.8132,0,0,0,1.6064-.3l.1807.7549a4.7023,4.7023,0,0,1-1.9317.36,2.696,2.696,0,0,1-2.8545-2.9268c0-1.751,1.0323-3.13,2.7227-3.13a2.46,2.46,0,0,1,2.3994,2.7344,4.0165,4.0165,0,0,1-.0361.4912Zm3.0948-.7549a1.5038,1.5038,0,0,0-1.4639-1.7158,1.75,1.75,0,0,0-1.6191,1.7158Z" transform="translate(-10.1934 -17.5206)" fill="#231f20"/>
  </g>
  <g>
    <path d="M166.6079,51.499l-.8393,2.543h-1.08l2.7465-8.084h1.2593l2.7583,8.084h-1.1152l-.8638-2.543Zm2.65-.8154-.7915-2.3262c-.18-.5283-.3-1.0078-.4194-1.4756h-.0245c-.12.48-.2514.9717-.4077,1.4629l-.7915,2.3389Z" transform="translate(-10.1934 -17.5206)" fill="#231f20"/>
    <path d="M176.6025,53.8262a3.8921,3.8921,0,0,1-1.667.3359,2.7583,2.7583,0,0,1-2.8906-2.9629,2.95,2.95,0,0,1,3.1187-3.082,3.5313,3.5313,0,0,1,1.4629.3l-.24.8154a2.4518,2.4518,0,0,0-1.2231-.2754,2.1882,2.1882,0,0,0-.0362,4.3653,3.0009,3.0009,0,0,0,1.2955-.2881Z" transform="translate(-10.1934 -17.5206)" fill="#231f20"/>
    <path d="M179.2681,46.57v1.667h1.5112v.8037h-1.5112v3.13c0,.72.2036,1.1279.7915,1.1279a2.3442,2.3442,0,0,0,.6118-.0722l.0478.791a2.5818,2.5818,0,0,1-.9355.1445,1.463,1.463,0,0,1-1.14-.4443,2.1492,2.1492,0,0,1-.4077-1.5108V49.041h-.8994v-.8037h.8994V46.8457Z" transform="translate(-10.1934 -17.5206)" fill="#231f20"/>
    <path d="M183.1436,46.6064a.6536.6536,0,0,1-1.3072,0,.6434.6434,0,0,1,.66-.66A.6268.6268,0,0,1,183.1436,46.6064Zm-1.1753,7.4356V48.2373h1.0556V54.042Z" transform="translate(-10.1934 -17.5206)" fill="#231f20"/>
    <path d="M190.0293,51.0918a2.8366,2.8366,0,0,1-2.89,3.082,2.76,2.76,0,0,1-2.7828-2.9863,2.8346,2.8346,0,0,1,2.8785-3.082A2.7484,2.7484,0,0,1,190.0293,51.0918Zm-4.6055.06c0,1.2715.732,2.2314,1.7632,2.2314,1.0073,0,1.7632-.9482,1.7632-2.2549,0-.9834-.4917-2.2314-1.7393-2.2314S185.4238,50.0479,185.4238,51.1514Z" transform="translate(-10.1934 -17.5206)" fill="#231f20"/>
    <path d="M191.3643,49.8086c0-.6-.0122-1.0918-.0479-1.5713h.9356l.06.959h.0239a2.1338,2.1338,0,0,1,1.919-1.0908c.8032,0,2.0508.48,2.0508,2.4707V54.042H195.25V50.6963c0-.9356-.3477-1.7158-1.3433-1.7158a1.5,1.5,0,0,0-1.415,1.08,1.5178,1.5178,0,0,0-.0718.4913v3.49h-1.0556Z" transform="translate(-10.1934 -17.5206)" fill="#231f20"/>
    <path d="M200.2324,54.042v-.6475l.8281-.8037c1.9913-1.8945,2.8907-2.9023,2.9024-4.0781A1.39,1.39,0,0,0,202.416,46.99a2.6535,2.6535,0,0,0-1.6553.6592l-.3359-.7431a3.42,3.42,0,0,1,2.207-.792,2.1937,2.1937,0,0,1,2.3868,2.2666c0,1.4394-1.044,2.6025-2.6866,4.1855l-.624.5762v.0234h3.502v.876Z" transform="translate(-10.1934 -17.5206)" fill="#231f20"/>
  </g>
  <g>
    <path d="M334.5391,86.7363c0,2.7827-1.6914,4.2578-3.7539,4.2578-2.1348,0-3.6348-1.6547-3.6348-4.1015,0-2.5669,1.5957-4.2456,3.7549-4.2456C333.1113,82.647,334.5391,84.3379,334.5391,86.7363Zm-6.2725.1324c0,1.727.9355,3.2739,2.5781,3.2739,1.6553,0,2.5908-1.523,2.5908-3.3579,0-1.6075-.84-3.2862-2.5781-3.2862C329.13,83.4985,328.2666,85.0933,328.2666,86.8687Z" transform="translate(-10.1934 -17.5206)" fill="#231f20"/>
    <path d="M340.7559,89.2793c0,.6.0127,1.1274.0488,1.583h-.9356l-.06-.9473h-.0234a2.1848,2.1848,0,0,1-1.919,1.0791c-.9121,0-2.0029-.5034-2.0029-2.5424V85.0576h1.0547v3.2139c0,1.1035.3359,1.8472,1.2959,1.8472a1.4871,1.4871,0,0,0,1.4873-1.4991v-3.562h1.0547Z" transform="translate(-10.1934 -17.5206)" fill="#231f20"/>
    <path d="M343.7813,83.3906v1.667h1.5117v.8032h-1.5117v3.13c0,.72.2041,1.1275.7919,1.1275a2.3663,2.3663,0,0,0,.6114-.0718l.0478.7915a2.5776,2.5776,0,0,1-.9355.144,1.4629,1.4629,0,0,1-1.1387-.4438,2.1513,2.1513,0,0,1-.4082-1.5113V85.8608h-.8994v-.8032h.8994V83.666Z" transform="translate(-10.1934 -17.5206)" fill="#231f20"/>
    <path d="M350.5488,90.6465a3.89,3.89,0,0,1-1.6679.3359,2.7574,2.7574,0,0,1-2.89-2.9624,2.9492,2.9492,0,0,1,3.1182-3.0825,3.5287,3.5287,0,0,1,1.4629.3l-.2393.8154a2.4554,2.4554,0,0,0-1.2236-.2754,2.1883,2.1883,0,0,0-.0362,4.3653,2.9989,2.9989,0,0,0,1.295-.2876Z" transform="translate(-10.1934 -17.5206)" fill="#231f20"/>
    <path d="M356.9678,87.9121a2.837,2.837,0,0,1-2.8907,3.082,2.76,2.76,0,0,1-2.7822-2.9863,2.8337,2.8337,0,0,1,2.878-3.082A2.749,2.749,0,0,1,356.9678,87.9121Zm-4.6055.06c0,1.2715.7315,2.2309,1.7627,2.2309,1.0078,0,1.7627-.9472,1.7627-2.2548,0-.9834-.4912-2.2305-1.7383-2.2305S352.3623,86.8687,352.3623,87.9717Z" transform="translate(-10.1934 -17.5206)" fill="#231f20"/>
    <path d="M358.3027,86.6284c0-.6-.0127-1.0913-.0488-1.5708h.9238l.0479.9356h.0361a2.0009,2.0009,0,0,1,1.8233-1.0674,1.7156,1.7156,0,0,1,1.6425,1.1631h.0245a2.38,2.38,0,0,1,.6474-.7554,1.9785,1.9785,0,0,1,1.2832-.4077c.7676,0,1.9072.5034,1.9072,2.5185v3.418h-1.0312V87.5762c0-1.1153-.4082-1.7871-1.26-1.7871a1.3658,1.3658,0,0,0-1.247.9594,1.7425,1.7425,0,0,0-.084.5279v3.5859h-1.0313v-3.478c0-.9234-.4082-1.5952-1.2119-1.5952A1.5736,1.5736,0,0,0,359.334,87.36v3.5019h-1.0313Z" transform="translate(-10.1934 -17.5206)" fill="#231f20"/>
    <path d="M368.8975,88.1519a1.86,1.86,0,0,0,1.9912,2.0146,3.8184,3.8184,0,0,0,1.6074-.3l.18.7559a4.7039,4.7039,0,0,1-1.9307.36,2.6959,2.6959,0,0,1-2.8545-2.9267c0-1.751,1.0313-3.13,2.7227-3.13a2.4593,2.4593,0,0,1,2.3984,2.7344,4.0368,4.0368,0,0,1-.0361.4917Zm3.0947-.7559a1.503,1.503,0,0,0-1.4629-1.7148A1.749,1.749,0,0,0,368.91,87.396Z" transform="translate(-10.1934 -17.5206)" fill="#231f20"/>
    <path d="M376.5313,90.8623v-.6475l.8271-.8037c1.9912-1.895,2.8906-2.9023,2.9023-4.0776a1.3908,1.3908,0,0,0-1.5468-1.5234,2.6537,2.6537,0,0,0-1.6553.66l-.3359-.7436a3.4229,3.4229,0,0,1,2.207-.7915,2.1937,2.1937,0,0,1,2.3867,2.2666c0,1.4394-1.0439,2.603-2.6865,4.186l-.624.5757v.0239h3.5019v.8755Z" transform="translate(-10.1934 -17.5206)" fill="#231f20"/>
  </g>
</svg>
